<svg version="1.1" xmlns="http://www.w3.org/2000/svg" xmlns:xlink="http://www.w3.org/1999/xlink" width="412.83972" height="89.6526" viewBox="0,0,412.83972,89.6526"><g transform="translate(-228.81191,-133.07055)"><g data-paper-data="{&quot;isPaintingLayer&quot;:true}" fill-rule="nonzero" stroke-linejoin="miter" stroke-miterlimit="10" stroke-dasharray="" stroke-dashoffset="0" style="mix-blend-mode: normal"><path d="M260.11059,222.72315v-82.93839h199.84202v82.93839z" fill="#ffffff" stroke="none" stroke-width="0" stroke-linecap="butt"/><text transform="translate(256.96109,185.8965) scale(0.5,0.5)" font-size="40" xml:space="preserve" fill="#585e00" fill-rule="nonzero" stroke="none" stroke-width="1" stroke-linecap="butt" stroke-linejoin="miter" stroke-miterlimit="10" stroke-dasharray="" stroke-dashoffset="0" font-family="Sans Serif" font-weight="normal" text-anchor="start" style="mix-blend-mode: normal"><tspan x="0" dy="0">1882</tspan></text><path d="M250.18809,180.00002h-20.37618" fill="none" stroke="#585e00" stroke-width="2" stroke-linecap="round"/><text transform="translate(408.27663,174.00002) scale(0.5,0.5)" font-size="40" xml:space="preserve" fill="#585e00" fill-rule="nonzero" stroke="none" stroke-width="1" stroke-linecap="butt" stroke-linejoin="miter" stroke-miterlimit="10" stroke-dasharray="" stroke-dashoffset="0" font-family="Sans Serif" font-weight="normal" text-anchor="start" style="mix-blend-mode: normal"><tspan x="0" dy="0">T.Edison : Courant DC </tspan><tspan x="0" dy="48px">Lampe à incandescence </tspan></text><path d="M358.87764,147.01766c1.818,0 3.30546,1.48746 3.30546,3.30546c0,1.818 -1.48746,3.30546 -3.30546,3.30546c-1.818,0 -3.30546,-1.48746 -3.30546,-3.30546c0,-1.818 1.48746,-3.30546 3.30546,-3.30546z" fill="#e7eced" stroke="none" stroke-width="1" stroke-linecap="butt"/><path d="M353.09277,192.46734v-5.78457h11.56913v5.78457z" fill="#afb6bb" stroke="none" stroke-width="1" stroke-linecap="butt"/><path d="M353.09277,203.21011v-10.74276h11.56913v10.74276z" fill="#7c8287" stroke="none" stroke-width="1" stroke-linecap="butt"/><path d="M348.13489,170.15606v-4.9582h21.48552v4.9582h2.47926v6.61093h-26.44387v-6.61093z" fill="#e7eced" stroke="none" stroke-width="1" stroke-linecap="butt"/><path d="M369.6204,198.25267v4.9582h-4.9582v-10.74275v-5.78472h-11.56913v5.78472v10.74275h-4.9582v-4.9582h-2.47909v-21.48567h26.44387v21.48567z" fill="#c7cac7" stroke="none" stroke-width="1" stroke-linecap="butt"/><path d="M387.80061,203.21087v4.9582h-57.84593v-4.9582h1.65273h16.52748h4.9582h11.56913h4.9582h16.52748z" fill="#8a9095" stroke="none" stroke-width="1" stroke-linecap="butt"/><path d="M391.93244,209.8218v4.13183h-66.10959v-4.13183c0,-0.90908 0.7438,-1.65273 1.65273,-1.65273h2.4791h57.84593h2.4791c0.90908,0 1.65273,0.7438 1.65273,1.65273z" fill="#afb6bb" stroke="none" stroke-width="1" stroke-linecap="butt"/><g fill="#e7eced" stroke="none" stroke-width="1" stroke-linecap="butt"><path d="M369.6201,203.21025v-4.9582h16.52748v4.9582z"/><path d="M348.13489,198.25267v4.9582h-16.52748v-4.9582h2.4791h11.56928z"/><path d="M372.09966,170.15606h-2.47926v-4.9582h16.52748v4.9582h-2.4791z"/><path d="M331.6074,165.19787h16.52748v4.9582h-2.47909h-11.56928h-2.4791z"/></g><g fill="#a4a9ab" stroke="none" stroke-width="1" stroke-linecap="butt"><path d="M383.66878,170.15606v28.0966h-11.56913v-21.48567v-6.61093z"/><path d="M345.65578,170.15606v6.61093v21.48567h-11.56928v-28.0966z"/><path d="M391.93244,161.06589v4.13183h-5.78456h-16.52748h-21.48552h-16.52748h-5.78456v-4.13183c0,-0.90908 0.7438,-1.65273 1.65273,-1.65273h4.9582h52.88774h4.9582c0.90908,0 1.65273,0.7438 1.65273,1.65273z"/></g><path d="M385.32151,159.41316h-52.88774l26.44387,-21.48552zM362.18311,150.32313c0,-1.818 -1.48746,-3.30546 -3.30546,-3.30546c-1.818,0 -3.30546,1.48746 -3.30546,3.30546c0,1.818 1.48746,3.30546 3.30546,3.30546c1.818,0 3.30546,-1.48746 3.30546,-3.30546z" fill="#e7eced" stroke="none" stroke-width="1" stroke-linecap="butt"/><path d="M363.42274,150.32313c0,2.50621 -2.03888,4.54509 -4.54509,4.54509c-2.50621,0 -4.54509,-2.03888 -4.54509,-4.54509c0,-2.50621 2.03888,-4.54508 4.54509,-4.54508c2.50605,0 4.54509,2.03887 4.54509,4.54508zM360.94363,150.32313c0,-1.13935 -0.92679,-2.06599 -2.06599,-2.06599c-1.1392,0 -2.06599,0.92664 -2.06599,2.06599c0,1.13935 0.92679,2.06599 2.06599,2.06599c1.13904,0 2.06599,-0.92664 2.06599,-2.06599z" fill="#000000" stroke="none" stroke-width="1" stroke-linecap="butt"/><path d="M384.9081,171.39555v25.61751h2.47909v4.9582h1.65273v4.9582h1.23963c1.59481,0 2.89236,1.2977 2.89236,2.89236v5.37145h-68.58885v-5.3713c0,-1.59481 1.2977,-2.89236 2.89236,-2.89236h1.23963v-4.9582h1.65273v-4.9582h2.47909v-25.6175h-2.47909v-4.9582h-5.78457v-5.37145c0,-1.59481 1.2977,-2.89236 2.89236,-2.89236h4.51814l26.88393,-21.84333l26.88393,21.84318h4.51814c1.59481,0 2.89236,1.2977 2.89236,2.89236v5.37145h-5.78457v4.9582zM384.90841,166.43735h-14.04838v2.47909h14.04838zM379.12369,193.29432h-2.47909v-21.89879h-3.30546v25.61751h9.09002v-25.61751h-3.30546v21.89893zM370.86003,178.00663h-23.96477v19.00657h2.47909v4.9582h2.47909v-16.52748h14.04837v16.52732h2.47909v-4.9582h2.47909zM363.42274,187.92302h-9.09003v3.30546h9.09003zM354.33255,201.97124h9.09003v-8.26366h-9.09003zM370.86003,171.39555h-2.47909v-4.9582h-19.00657v4.9582h-2.47909v4.13183h23.96477zM335.92499,158.17352h45.90529l-22.95265,-18.64892zM390.69297,163.95825v-2.89236c0,-0.22396 -0.18929,-0.41326 -0.41326,-0.41326h-62.80413c-0.22396,0 -0.41326,0.1893 -0.41326,0.41326v2.89236zM332.84704,168.91644h14.04837v-2.47909h-14.04837zM341.1107,193.29432h-2.4791v-21.89879h-3.30546v25.61751h9.09002v-25.61751h-3.30546v21.89893zM332.84704,201.97124h14.04837v-2.4791h-14.04837zM327.47558,209.40869c-0.22396,0 -0.41326,0.1893 -0.41326,0.41326v2.89236h63.63065v-2.89236c0,-0.22396 -0.18929,-0.41326 -0.41326,-0.41326zM331.19415,204.4505v2.47909h55.36699v-2.47909zM384.90841,199.4923h-14.04838v2.47909h14.04838z" fill="#000000" stroke="none" stroke-width="1" stroke-linecap="butt"/><path d="M356.39824,172.2213v-2.47909h4.9582v2.47909z" fill="#000000" stroke="none" stroke-width="1" stroke-linecap="butt"/><g stroke="none" stroke-linecap="butt"><path d="M374.80469,134.42781c9.20232,1.42417 6.42667,16.27336 -2.2211,14.11141c-0.28265,0.1258 -0.59566,0.19572 -0.92501,0.19572c-0.40451,0 -0.78438,-0.10548 -1.11361,-0.29042c-5.54016,-2.2618 -4.7865,-15.41672 4.25973,-14.01671z" fill="#f1ff00" stroke-width="0.5"/><path d="M370.31026,154.3231v-5.21354h6.56187v5.21354z" fill="#a8a8a8" stroke-width="0"/><path d="M367.23573,146.10413c-1.12924,-1.43169 -1.7261,-3.15143 -1.7261,-4.97291c0,-4.44471 3.61615,-8.06067 8.06028,-8.06067c4.44455,0 8.06066,3.61601 8.06066,8.06067c0,1.82065 -0.59584,3.54005 -1.72543,4.97256c-0.79291,1.00562 -1.54855,2.10982 -2.20271,3.20463v4.90214c0,0.44571 -0.36124,0.80701 -0.80725,0.80701h-0.91584v0.39051c0,0.94104 -0.76276,1.70403 -1.70403,1.70403h-1.41048c-0.94124,0 -1.70399,-0.76299 -1.70399,-1.70403v-0.39051h-0.91584c-0.446,0 -0.8073,-0.36129 -0.8073,-0.80701v-4.89548c-0.66052,-1.10858 -1.3974,-2.18958 -2.20198,-3.21096zM374.7398,148.27414l1.3957,-6.0843l-0.83842,-0.51677l-1.0365,0.97455c-0.08209,0.0765 -0.19064,0.11273 -0.30259,0.10889c-0.11128,-0.0072 -0.21515,-0.06035 -0.2862,-0.14667l-0.89532,-1.09161l-0.52178,1.01943c-0.07101,0.13876 -0.21277,0.21953 -0.3593,0.21953c-0.05218,0 -0.10426,-0.00973 -0.15451,-0.03069l-0.67784,-0.28129l1.33744,5.82893zM371.05196,149.8884v1.35402h5.03632v-1.35402zM376.08828,153.40351v-1.35402h-5.03637v1.35402zM368.50322,145.1047c0.79578,1.01073 1.53533,2.07514 2.1995,3.16947h0.45641l-1.52807,-6.65904c-0.07504,-0.32534 0.12848,-0.65012 0.45486,-0.72501c0.32603,-0.07489 0.65007,0.12888 0.72472,0.45477l0.03098,0.13408l0.86443,0.3594l0.63202,-1.23624c0.0623,-0.12091 0.1813,-0.20255 0.31704,-0.21714c0.13646,-0.01624 0.2687,0.04021 0.35458,0.14492l1.01208,1.23385l0.94667,-0.89021c0.13301,-0.12416 0.33342,-0.14542 0.48788,-0.04966l0.86998,0.5352l0.00332,-0.01459c0.07406,-0.32521 0.39542,-0.52898 0.72583,-0.45443c0.3254,0.07489 0.52883,0.39966 0.45481,0.72549l-1.52847,6.6585h0.45641c0.65883,-1.08547 1.4138,-2.17358 2.19965,-3.1699c0.90248,-1.14432 1.37863,-2.51848 1.37863,-3.97298c0,-3.55449 -2.89162,-6.4466 -6.44646,-6.4466c-3.5545,0 -6.44608,2.89212 -6.44608,6.4466c0,1.45537 0.47684,2.82949 1.37926,3.97351z" fill="#000000" stroke-width="1"/></g></g></g></svg>