<svg version="1.1" xmlns="http://www.w3.org/2000/svg" xmlns:xlink="http://www.w3.org/1999/xlink" width="310.01592" height="85.77295" viewBox="0,0,310.01592,85.77295"><g transform="translate(-228.81191,-136.9502)"><g data-paper-data="{&quot;isPaintingLayer&quot;:true}" stroke-linejoin="miter" stroke-miterlimit="10" stroke-dasharray="" stroke-dashoffset="0" style="mix-blend-mode: normal"><path d="M260.11059,222.72315v-82.93839h199.84202v82.93839z" fill="#ffffff" fill-rule="nonzero" stroke="none" stroke-width="0" stroke-linecap="butt"/><text transform="translate(256.96109,185.89651) scale(0.5,0.5)" font-size="40" xml:space="preserve" fill="#585e00" fill-rule="nonzero" stroke="none" stroke-width="1" stroke-linecap="butt" stroke-linejoin="miter" stroke-miterlimit="10" stroke-dasharray="" stroke-dashoffset="0" font-family="Sans Serif" font-weight="normal" text-anchor="start" style="mix-blend-mode: normal"><tspan x="0" dy="0">1893</tspan></text><path d="M229.81191,180.00003h20.37618" fill="none" fill-rule="nonzero" stroke="#585e00" stroke-width="2" stroke-linecap="round"/><text transform="translate(409.05085,186.39317) scale(0.5,0.5)" font-size="40" xml:space="preserve" fill="#585e00" fill-rule="nonzero" stroke="none" stroke-width="1" stroke-linecap="butt" stroke-linejoin="miter" stroke-miterlimit="10" stroke-dasharray="" stroke-dashoffset="0" font-family="Sans Serif" font-weight="normal" text-anchor="start" style="mix-blend-mode: normal"><tspan x="0" dy="0">Oeuf de Tesla</tspan></text><path d="M375.80408,152.35175l7.16691,8.14763l7.00659,-4.88482c0,0 4.20429,10.5474 3.27645,11.16653l-49.3838,-2.72725c-1.39176,-1.39347 3.95869,-9.22897 3.95869,-9.22897l6.97077,5.73762l7.9583,-7.67518l7.03558,7.36476z" fill="#ed6339" fill-rule="nonzero" stroke="#000000" stroke-width="2.5" stroke-linecap="butt"/><path d="M345.01297,174.32975c-1.96484,-1.76734 0.88892,-12.1955 0.88892,-12.1955l46.87627,2.40013l-3.24575,3.72779l-4.02861,12.09032z" fill="#ed6339" fill-rule="evenodd" stroke="none" stroke-width="1" stroke-linecap="butt"/><g stroke="none" stroke-width="1" stroke-linecap="butt"><path d="M394.12081,152.77681c4.68506,-5.82973 4.49116,-12.09882 4.49116,-12.09882l11.32035,19.82134z" fill="#f4b200" fill-rule="evenodd"/><path d="M349.59025,160.98675l9.69534,-4.19501l3.81339,10.71535l8.32516,1.03368l8.1698,-9.35208l0.98732,-10.99354l6.60149,-8.21466l10.82262,-0.44638l0.22592,4.33002l-4.9689,12.15057l-5.12993,21.8443l-8.02818,6.19232l-19.30867,0.15617l-8.7785,-9.69381z" fill="#fbf56e" fill-rule="evenodd"/><path d="M396.23303,137.54295c0.73321,0.13407 1.12345,0.52569 2.5127,1.01527c0.47813,0.12297 1.3845,0.79362 1.85727,1.30493c0.55582,0.81984 1.37335,1.3635 2.3126,3.06562c3.80639,5.1158 6.60032,10.80377 8.38119,17.07c0.0945,0.33878 -0.09208,0.73552 -0.56559,1.19408c-0.42222,0.39475 -0.86801,0.58979 -1.33371,0.58197c-3.06114,-0.36674 -7.07643,-2.34474 -12.05469,-5.93704c-0.80262,-0.43685 -1.49177,-0.62748 -2.06624,-0.56526c-0.60688,0.29849 -1.00278,0.95541 -1.18418,1.96436c-0.18786,0.9514 -0.37754,1.90674 -0.56515,2.85811c-0.47668,1.50646 -0.97471,4.44056 -1.49128,8.80275c-0.42535,3.59552 -1.16601,6.40964 -2.2245,8.44439c-0.72483,1.35858 -1.89182,2.67753 -3.49703,3.95645c-0.53072,0.465 -1.43014,0.96744 -2.70659,1.51322c-1.22635,0.48034 -2.10522,0.98805 -2.63054,1.50997c0.12127,0.7069 0.23981,1.41161 0.36109,2.11851l-3.13145,0.33916c-0.17749,-0.60331 -0.36079,-1.19099 -0.54635,-1.75342c-2.64286,0.28624 -4.08997,0.61798 -4.34159,0.99276c-0.3542,0.39588 -0.64856,0.86029 -0.88638,1.38608l-3.29432,0.3568c-0.01703,-0.73569 -0.0554,-1.39157 -0.11811,-1.97231c-1.34134,-0.02973 -3.38711,-0.15568 -6.14276,-0.38225c-0.66267,-0.21824 -1.6839,-0.52016 -3.06233,-0.89339c-1.24157,-0.21555 -2.42154,-0.69278 -3.54889,-1.44573c-0.88505,-0.65919 -1.74348,-1.32625 -2.57204,-1.99405c-1.0111,-0.76304 -1.67133,-1.53658 -1.99002,-2.31461c-1.39182,-3.2252 -2.67635,-8.32361 -3.83388,-15.29764c-0.09026,-0.28099 -0.24198,-0.66883 -0.4706,-1.1676c-0.17189,-0.50516 -0.27673,-0.89808 -0.30779,-1.18573c-0.09316,-0.86271 0.3299,-1.52256 1.26983,-1.97339c0.99048,-0.51455 3.08299,-1.31972 6.27682,-2.42218c0.6255,-0.126 1.54131,-0.54596 2.74263,-1.2581c0.37119,-0.33097 0.81698,-0.52601 1.33272,-0.58187c0.68848,-0.07457 1.49215,0.13165 2.41546,0.61343c-0.14252,0.83023 -0.16729,1.64121 -0.08035,2.44634c0.37888,3.50866 2.50582,6.30522 6.39048,8.38662c0.79739,0.37916 1.60005,0.52974 2.40451,0.44261c0.97719,-0.10584 1.92311,-0.50131 2.83571,-1.18218c2.51329,-2.01781 4.13138,-4.25717 4.8539,-6.72131c0.30285,-0.96385 0.34762,-2.39878 0.14265,-4.29693l-0.09257,-0.85727c-0.21738,-2.01307 -0.12164,-3.6001 0.27608,-4.74891c0.65005,-2.04877 1.90671,-4.07473 3.78257,-6.08175c1.92639,-2.07075 4.02507,-3.66488 6.28655,-4.78261c0.60712,-0.29852 1.4791,-0.53947 2.62158,-0.72147c1.42946,-0.21307 2.34296,-0.39402 2.37505,-0.39974c0.42065,-0.02429 1.30011,-0.06311 1.80522,0.1502c0,0 1.01801,0.24281 1.50233,0.42312zM387.88963,140.978c-4.76233,3.2507 -6.91836,7.20842 -6.47252,11.8734c0.17232,2.13445 0.26926,3.28877 0.28789,3.46126c-0.02989,1.34156 -0.31948,2.47449 -0.85804,3.40561c-3.60957,6.38453 -7.28211,9.78146 -11.01567,10.18584c-2.47012,0.26753 -5.16722,-0.54966 -8.10288,-2.44308c-0.81602,-0.55165 -1.53172,-1.4922 -2.13977,-2.82292c-0.7675,-1.72073 -1.27941,-2.73909 -1.54615,-3.05922c-0.21001,-0.32652 -0.35122,-0.77875 -0.41085,-1.35408l-0.02754,-0.25503c-0.07078,-0.63237 -0.52945,-0.90346 -1.39066,-0.81018c-1.32267,0.14326 -2.86258,0.97957 -4.61489,2.50769c0.49067,4.54386 0.8608,7.43969 1.11094,8.69267c0.75005,3.17744 1.98891,5.74917 3.71169,7.71595c1.85735,2.12646 3.59343,3.36101 5.19889,3.70965c3.99871,0.96448 7.8865,1.24845 11.67682,0.83793c3.5016,-0.37925 6.80724,-1.32481 9.8985,-2.82218c1.99369,-0.91347 3.22801,-2.12222 3.70466,-3.62892c0.51991,-1.10387 1.03105,-2.81832 1.53551,-5.14258c-0.07324,-3.36701 0.80972,-8.92994 2.64414,-16.69355c0.08396,-0.29986 0.39072,-0.68185 0.92172,-1.14664c0.52453,-0.52234 0.80416,-0.90139 0.83681,-1.13769c0.68891,-2.22753 1.16206,-3.70896 1.43224,-4.43661c0.57878,-1.6337 1.22089,-2.97914 1.91929,-4.04384c-1.09588,-2.61621 -3.05314,-3.77905 -5.8675,-3.47423l-0.03849,0.00417c-0.84648,0.09793 -1.6453,0.39446 -2.39412,0.87659zM391.7745,144.65897c0.57422,-0.06219 1.02691,0.06328 1.3514,0.37716c0.4703,0.5891 0.46962,1.16771 0.00854,1.7413c-1.13165,0.82091 -1.83745,1.24599 -2.12444,1.27703c-0.57446,0.06227 -1.03602,-0.1453 -1.37892,-0.63195c-0.40063,-0.48026 -0.45348,-0.96977 -0.15846,-1.46742c0.57133,-0.71092 1.27454,-1.1391 2.10916,-1.27525c0.06305,-0.01033 0.12807,-0.01387 0.19272,-0.02087zM399.30669,144.18687c-0.7483,0.60488 -1.37005,1.55164 -1.87135,2.82783c-0.35388,1.02766 -0.70665,2.08407 -1.05409,3.16908c-0.27641,0.67002 -0.28212,1.13042 -0.02134,1.39294c1.68111,1.03999 3.33326,2.08912 4.95712,3.13531c1.81449,1.20005 3.50215,2.06308 5.07016,2.59154c-0.7392,-2.53834 -3.09886,-6.91427 -7.08051,-13.11665zM389.24379,149.47232c0.86147,-0.09323 1.3357,0.23181 1.41644,0.97948c0.09317,0.86283 -0.20289,1.41792 -0.87323,1.66504c-0.92676,0.5659 -1.69124,0.70421 -2.30299,0.42119c-0.30586,-0.14138 -0.5357,-0.40175 -0.69394,-0.79214c-0.11338,-0.51125 0.04204,-0.94006 0.47045,-1.27747c0.68976,-0.55743 1.30253,-0.88459 1.84459,-0.98108c0.0458,-0.00816 0.09377,-0.01013 0.13868,-0.01502z" fill="#000000" fill-rule="nonzero"/></g><path d="M349.23774,166.3581l2.26333,5.48178l5.66087,-1.24679l2.12858,6.54607l4.84048,-3.30886l4.4823,5.3658l3.30715,-5.29417l6.07021,2.99844l1.05236,-5.64893l6.75757,0.73511l1.77382,-5.16283c0,0 5.47325,-2.13029 5.5483,-1.50604c0.15521,1.30137 0.99436,3.44871 1.20244,4.90529c0.20638,1.40712 0.38888,2.75795 0.54579,4.05932c0.20808,1.30137 0.36158,2.21386 0.46563,2.73407v2.03136c0,3.64486 -0.72488,7.05264 -2.17975,10.22845c-1.45658,3.12295 -3.43507,5.8536 -5.92865,8.19709c-2.44412,2.29061 -5.29928,4.11219 -8.57402,5.46643c-3.22357,1.30137 -6.60236,1.9495 -10.13635,1.9495c-3.5357,0 -6.90937,-0.64813 -10.13294,-1.9495c-3.22187,-1.35424 -6.08386,-3.17582 -8.57914,-5.46643c-2.44241,-2.34349 -4.39191,-5.07414 -5.84678,-8.19709c-1.45487,-3.17582 -2.17975,-6.5836 -2.17975,-10.22845v-2.03136c0.05117,-0.52021 0.1518,-1.4327 0.30871,-2.73407c0.15521,-1.30137 0.33771,-2.6522 0.54579,-4.05932c0.20808,-1.45658 0.81016,-5.74444 0.81016,-5.74444z" fill="#f4f4d1" fill-rule="nonzero" stroke="#000000" stroke-width="2.5" stroke-linecap="butt"/><path d="M325.9973,216.86929c-17.52891,-9.88392 -6.53806,-33.9584 -6.53806,-33.9584l4.20139,1.42417l5.08779,-3.5971l5.74956,4.83366l3.63974,-5.44085l2.5618,6.00881l6.21689,-2.94385l1.04042,8.64907l6.91277,-1.53504l-1.59643,7.12427l5.38968,1.10352l-1.91368,5.93547l4.83707,3.80348c0,0 -18.43578,18.2601 -35.58895,8.59279z" fill="#f4f4d1" fill-rule="evenodd" stroke="#000000" stroke-width="2.5" stroke-linecap="butt"/></g></g></svg>