<svg version="1.1" xmlns="http://www.w3.org/2000/svg" xmlns:xlink="http://www.w3.org/1999/xlink" width="102.21676" height="60" viewBox="0,0,102.21676,60"><g transform="translate(-188.91159,-150)"><g data-paper-data="{&quot;isPaintingLayer&quot;:true}" fill-rule="nonzero" stroke-linejoin="miter" stroke-miterlimit="10" stroke-dasharray="" stroke-dashoffset="0" style="mix-blend-mode: normal"><path d="M189.91159,167.06487h33.94508" fill="none" stroke="#00c138" stroke-width="2" stroke-linecap="round"/><path d="M256.18326,167.00707h33.94509" fill="none" stroke="#ff0000" stroke-width="2" stroke-linecap="round"/><g stroke="none" stroke-linecap="butt"><path d="M223,205v-50c0.00331,-2.76005 2.23995,-4.99669 5,-5h24c2.76006,0.00331 4.9967,2.23995 5,5v50c-0.0033,2.76005 -2.23995,4.99669 -5,5h-24c-2.76005,-0.00331 -4.99669,-2.23995 -5,-5zM225,205c0,1.65686 1.34314,3 3,3h24c1.65686,0 3,-1.34314 3,-3v-50c0,-1.65686 -1.34315,-3 -3,-3h-24c-1.65686,0 -3,1.34314 -3,3z" fill="#000000" stroke-width="1"/><path d="M224.97428,154.95713c0,-1.65686 1.34917,-3.00308 3.00603,-3.00308h24.03939c1.65686,0 3.00603,1.34623 3.00603,3.00308v50.08575c0,1.65686 -1.34917,3.00308 -3.00603,3.00308h-24.03939c-1.65686,0 -3.00603,-1.34623 -3.00603,-3.00308z" data-paper-data="{&quot;noHover&quot;:false,&quot;origItem&quot;:[&quot;Path&quot;,{&quot;applyMatrix&quot;:true,&quot;segments&quot;:[[[225,205],[0,0],[0,1.65686]],[[228,208],[-1.65686,0],[0,0]],[[252,208],[0,0],[1.65686,0]],[[255,205],[0,1.65686],[0,0]],[[255,155],[0,0],[0,-1.65686]],[[252,152],[1.65686,0],[0,0]],[[228,152],[0,0],[-1.65686,0]],[[225,155],[0,-1.65686],[0,0]]],&quot;closed&quot;:true,&quot;fillColor&quot;:[0,0,0,1]}]}" fill="#eff000" stroke-width="0.5"/><path d="M228,170v-14c0,-0.55229 0.44771,-1 1,-1h22c0.55229,0 1,0.44771 1,1v14c0,0.55229 -0.44771,1 -1,1h-22c-0.55229,0 -1,-0.44771 -1,-1zM230,169h20v-12h-20z" fill="#000000" stroke-width="1"/><path d="M231.442,194.4c-4.68365,-4.68172 -4.68522,-12.27385 -0.0035,-16.9575c4.68172,-4.68365 12.27385,-4.68522 16.9575,-0.0035c0.029,0.026 0.061,0.044 0.089,0.072c0.028,0.028 0.046,0.06 0.072,0.089c4.68255,4.682 4.683,12.27346 0.001,16.956c-4.68199,4.68255 -12.27346,4.683 -16.956,0.001c-0.028,-0.026 -0.061,-0.045 -0.088,-0.072v0c-0.027,-0.027 -0.046,-0.06 -0.072,-0.085zM235.757,194.485c-0.13148,0.13011 -0.27514,0.24731 -0.429,0.35c3.87687,2.05654 8.6419,1.34213 11.7452,-1.76094c3.10329,-3.10306 3.81806,-7.86805 1.7618,-11.74506c-0.1026,0.15333 -0.21945,0.29664 -0.349,0.428zM245.657,178.929l-12.728,12.728c-0.37779,0.38235 -0.38574,0.99497 -0.018,1.387l0.045,0.045c0.39203,0.36775 1.00465,0.35979 1.387,-0.018l12.728,-12.728c0.37851,-0.38315 0.38558,-0.99724 0.016,-1.389l-0.041,-0.042c-0.39203,-0.3693 -1.00613,-0.36179 -1.389,0.017zM231.165,190.671c0.1026,-0.15333 0.21945,-0.29664 0.349,-0.428l12.729,-12.728c0.13135,-0.12986 0.27465,-0.24705 0.428,-0.35c-3.0979,-1.64379 -6.83091,-1.54259 -9.8352,0.26662c-3.00429,1.80921 -4.83974,5.06139 -4.8358,8.56838c-0.00072,1.629 0.39937,3.23314 1.165,4.671z" fill="#000000" stroke-width="1"/><path d="M248.51822,181.71877c0.12955,-0.13136 0.24636,-0.2747 0.34896,-0.42803c2.05625,3.87702 1.34466,8.71562 -1.75864,11.81868c-3.1033,3.10306 -7.94195,3.81431 -11.81881,1.75776c0.15386,-0.10269 0.29755,-0.21985 0.42903,-0.34996z" data-paper-data="{&quot;noHover&quot;:false,&quot;origItem&quot;:[&quot;Path&quot;,{&quot;applyMatrix&quot;:true,&quot;segments&quot;:[[[235.757,194.485],[0,0],[-0.13148,0.13011]],[[235.328,194.835],[0.15386,-0.10269],[3.87687,2.05654]],[[247.07319,193.07407],[-3.1033,3.10306],[3.10329,-3.10306]],[[248.835,181.329],[2.05625,3.87702],[-0.1026,0.15333]],[[248.486,181.757],[0.12955,-0.13136],[0,0]]],&quot;closed&quot;:true,&quot;fillColor&quot;:[0,0,0,1]}]}" fill="#ff2121" stroke-width="0.5"/><path d="M247.08125,178.87654l0.04121,0.04221c0.36958,0.39176 0.36609,1.00987 -0.01241,1.39302l-12.79828,12.79828c-0.38235,0.37779 -0.99897,0.38217 -1.39101,0.01442l-0.04523,-0.04523c-0.36775,-0.39203 -0.36337,-1.00865 0.01442,-1.39101l12.79828,-12.79828c0.38288,-0.37879 1.00098,-0.38272 1.39301,-0.01342z" data-paper-data="{&quot;noHover&quot;:false,&quot;origItem&quot;:[&quot;Path&quot;,{&quot;applyMatrix&quot;:true,&quot;segments&quot;:[[[245.657,178.929],[0.38288,-0.37879],[0,0]],[[232.929,191.657],[0,0],[-0.37779,0.38235]],[[232.911,193.044],[-0.36775,-0.39203],[0,0]],[[232.956,193.089],[0,0],[0.39203,0.36775]],[[234.343,193.071],[-0.38235,0.37779],[0,0]],[[247.071,180.343],[0,0],[0.37851,-0.38315]],[[247.087,178.954],[0.36958,0.39176],[0,0]],[[247.046,178.912],[0,0],[-0.39203,-0.3693]]],&quot;closed&quot;:true,&quot;fillColor&quot;:[0,0,0,1]}]}" fill="#ff2121" stroke-width="0.5"/><path d="M229.953,186.01707c-0.00394,-3.50699 1.85902,-6.82228 4.86331,-8.63149c3.00429,-1.80921 6.79506,-1.89655 9.89295,-0.25276c-0.15335,0.10296 -0.29668,0.22011 -0.42803,0.34997l-12.79946,12.79845c-0.12955,0.13136 -0.24636,0.2747 -0.34896,0.42803c-0.76562,-1.43786 -1.18053,-3.0632 -1.17981,-4.69219z" data-paper-data="{&quot;noHover&quot;:false,&quot;origItem&quot;:[&quot;Path&quot;,{&quot;applyMatrix&quot;:true,&quot;segments&quot;:[[[231.165,190.671],[-0.76562,-1.43786],[0.1026,-0.15333]],[[231.514,190.243],[-0.12955,0.13136],[0,0]],[[244.243,177.515],[0,0],[0.13135,-0.12986]],[[244.671,177.165],[-0.15335,0.10296],[-3.0979,-1.64379]],[[234.8358,177.43162],[3.00429,-1.80921],[-3.00429,1.80921]],[[230,186],[-0.00394,-3.50699],[-0.00072,1.629]]],&quot;closed&quot;:true,&quot;fillColor&quot;:[0,0,0,1]}]}" fill="#ff2121" stroke-width="0.5"/><path d="M227,203c0,-1.10457 0.89543,-2 2,-2c1.10457,0 2,0.89543 2,2c0,1.10457 -0.89543,2 -2,2c-1.10457,0 -2,-0.89543 -2,-2z" fill="#000000" stroke-width="1"/><path d="M234,203c0,-1.10457 0.89543,-2 2,-2c1.10457,0 2,0.89543 2,2c0,1.10457 -0.89543,2 -2,2c-1.10457,0 -2,-0.89543 -2,-2z" fill="#000000" stroke-width="1"/><path d="M241,203c0,-1.10457 0.89543,-2 2,-2c1.10457,0 2,0.89543 2,2c0,1.10457 -0.89543,2 -2,2c-1.10457,0 -2,-0.89543 -2,-2z" fill="#000000" stroke-width="1"/><path d="M248,203c0,-1.10457 0.89543,-2 2,-2c1.10457,0 2,0.89543 2,2c0,1.10457 -0.89543,2 -2,2c-1.10457,0 -2,-0.89543 -2,-2z" fill="#000000" stroke-width="1"/><path d="M228,175v-2h3v2z" fill="#000000" stroke-width="1"/><path d="M249,175v-2h3v2z" fill="#000000" stroke-width="1"/></g><path d="M229.89092,169.22288v-12.21541h20.1475v12.21541z" fill="#00de10" stroke="none" stroke-width="0" stroke-linecap="butt"/><text transform="translate(214.95494,166.51936) scale(0.5,0.29991)" font-size="40" xml:space="preserve" fill="#00c138" fill-rule="nonzero" stroke="none" stroke-width="1" stroke-linecap="butt" stroke-linejoin="miter" stroke-miterlimit="10" stroke-dasharray="" stroke-dashoffset="0" font-family="Sans Serif" font-weight="normal" text-anchor="start" style="mix-blend-mode: normal"><tspan x="0" dy="0">-</tspan></text><text transform="translate(257.80176,166.57716) scale(0.32379,0.29991)" font-size="40" xml:space="preserve" fill="#ff0000" fill-rule="nonzero" stroke="none" stroke-width="1" stroke-linecap="butt" stroke-linejoin="miter" stroke-miterlimit="10" stroke-dasharray="" stroke-dashoffset="0" font-family="Sans Serif" font-weight="normal" text-anchor="start" style="mix-blend-mode: normal"><tspan x="0" dy="0">+</tspan></text><text transform="translate(231.08211,135.85823) scale(0.5,0.5)" font-size="40" xml:space="preserve" fill="#ff0000" fill-rule="nonzero" stroke="none" stroke-width="1" stroke-linecap="butt" stroke-linejoin="miter" stroke-miterlimit="10" stroke-dasharray="" stroke-dashoffset="0" font-family="Sans Serif" font-weight="normal" text-anchor="start" style="mix-blend-mode: normal"><tspan x="0" dy="0"> </tspan></text></g></g></svg>