<svg version="1.1" xmlns="http://www.w3.org/2000/svg" xmlns:xlink="http://www.w3.org/1999/xlink" width="443.11394" height="86.22127" viewBox="0,0,443.11394,86.22127"><g transform="translate(-228.81191,-136.50188)"><g data-paper-data="{&quot;isPaintingLayer&quot;:true}" fill-rule="nonzero" stroke-linejoin="miter" stroke-miterlimit="10" stroke-dasharray="" stroke-dashoffset="0" style="mix-blend-mode: normal"><path d="M260.11059,222.72315v-82.93839h199.84202v82.93839z" fill="#ffffff" stroke="none" stroke-width="0" stroke-linecap="butt"/><g><g stroke="none" stroke-linecap="butt"><path d="M391.05771,199.59951c-5.54615,8.38036 -14.02387,14.09948 -23.87156,16.1036c-9.84769,2.00412 -19.88633,0.05329 -28.2667,-5.49286c-8.38036,-5.54616 -14.09948,-14.02388 -16.1036,-23.87157c-2.00412,-9.84769 -0.0533,-19.88633 5.49286,-28.2667c5.54615,-8.38037 14.02388,-14.09948 23.87157,-16.1036c9.84769,-2.00412 19.88633,-0.0533 28.2667,5.49286c8.38036,5.54615 14.09947,14.02388 16.10359,23.87157c2.00412,9.84769 0.05329,19.88633 -5.49286,28.26669zM380.4934,155.22102c-0.18249,0.27575 -0.10665,0.6484 0.16909,0.83089l4.5838,3.03357c1.55085,1.02636 1.97777,3.12253 0.95141,4.67338c-1.02636,1.55085 -3.1229,1.97752 -4.67375,0.95116l-12.21418,-8.08339c-0.04913,-0.03251 -0.11552,-0.01911 -0.14811,0.03014l-0.16776,0.2535c-0.6134,0.92686 -1.55094,1.55939 -2.64015,1.78095l-1.21496,0.24726c-1.27022,0.25851 -2.36393,0.99638 -3.07933,2.07736l-1.00543,1.51923l1.08248,0.71639c0.32599,0.21574 0.76678,0.12604 0.98253,-0.19996c0.63871,-0.96511 1.61508,-1.62372 2.74903,-1.85449l1.07384,-0.21843c1.13396,-0.23077 2.29007,-0.00615 3.25518,0.63256l2.49133,1.64878c1.80597,1.1952 3.03833,3.0222 3.4702,5.1443l0.4207,2.06726c0.57578,2.82972 0.01529,5.71415 -1.57839,8.12224l-0.66477,1.00449l0.79961,0.52918c2.32196,1.53668 3.90651,3.88562 4.46177,6.61405l0.33688,1.65534c0.09182,0.45117 0.35375,0.8395 0.73762,1.09354c0.38387,0.25405 0.8438,0.34345 1.29485,0.25155c0.96333,-0.19594 1.58765,-1.1393 1.3915,-2.10259l-0.1395,-0.68548c-0.2572,-1.26378 0.26753,-2.54662 1.33689,-3.26807c1.06928,-0.72132 2.45534,-0.72737 3.53095,-0.01553l5.21554,3.45167c2.28631,-9.31441 0.57845,-19.20563 -4.61962,-27.20011l-7.35838,-4.86981c-0.27574,-0.18249 -0.6484,-0.10665 -0.83089,0.16909zM369.85379,189.36092l0.94835,-1.43297c0.70225,-1.06111 0.94922,-2.33221 0.69545,-3.57916l-1.01867,-5.00603l-9.98559,-6.6085c-1.12923,-0.74733 -2.656,-0.43661 -3.40332,0.69262l-1.26924,1.91784c-0.69074,1.04373 -0.40349,2.45466 0.64012,3.14533l0.43674,0.28904c1.85084,1.2249 2.36003,3.7269 1.13522,5.57763l-2.4383,3.68432c-0.81268,1.22798 -1.09848,2.69897 -0.8048,4.14202l0.19408,0.95365c0.37594,1.84782 0.00993,3.73143 -1.03074,5.3039c-0.1954,0.29525 -0.26408,0.64864 -0.1934,0.99541c0.07063,0.34657 0.27207,0.64488 0.56694,0.84002c0.00013,0.00008 0.00037,0.00026 0.0005,0.00034c0.059,0.03904 0.13876,0.02281 0.17781,-0.03619l0.05088,-0.07687c0.73542,-1.11124 1.76064,-1.99957 2.96496,-2.56915l3.24554,-1.53544l2.60467,-1.242c1.68598,-0.80389 3.46815,-1.40303 5.297,-1.78074l1.13515,-0.23447c-0.63396,-1.02584 -0.65745,-2.37061 0.05067,-3.44059zM325.61252,184.91601c1.85969,-2.09274 4.33382,-3.52342 7.1261,-4.09179l3.97788,-0.80954c2.0019,-0.40752 3.72541,-1.57014 4.85294,-3.27387l1.47961,-2.23572c0.84627,-1.27873 1.14391,-2.81053 0.83815,-4.31299l-0.00815,-0.0401c-0.16888,-0.82985 -0.65088,-1.54427 -1.35712,-2.01166c-1.3306,-0.8806 -2.23856,-2.22654 -2.55676,-3.79006l-0.3713,-1.82388c-0.30336,-1.49115 -1.16937,-2.775 -2.43847,-3.6149l-3.82731,-2.53293c-0.8953,1.05215 -1.73817,2.16741 -2.51941,3.34789c-5.10276,7.71038 -6.707,16.73508 -5.19615,25.18954zM388.55775,197.94503c1.64704,-2.48871 2.92951,-5.11426 3.86025,-7.81315l-5.98591,-3.9615c-0.035,-0.02317 -0.10025,-0.06634 -0.19992,0.00089c-0.09967,0.06723 -0.08408,0.14387 -0.07571,0.185l0.13951,0.68548c0.25457,1.25144 0.00666,2.52695 -0.69807,3.59181c-0.70481,1.06498 -1.78197,1.79169 -3.03329,2.04635c-1.27549,0.25968 -2.53782,-0.02391 -3.54593,-0.69108c-1.00811,-0.66717 -1.76238,-1.71816 -2.02199,-2.99379l-0.33688,-1.65534c-0.32259,-1.58512 -1.13314,-2.99026 -2.3183,-4.04853l0.09364,0.4601c0.41348,2.03173 0.01105,4.10264 -1.13319,5.83161l-0.94835,1.43298c-0.05807,0.08775 -0.03393,0.20635 0.05382,0.26442c0.78512,0.51959 1.17726,1.45262 0.99903,2.37702c-0.17822,0.9244 -0.88914,1.64471 -1.81117,1.83528l-2.32094,0.47948c-1.5928,0.32902 -3.14486,0.85072 -4.61314,1.55081l-2.60734,1.24331c-0.00141,0.0005 -0.00278,0.00121 -0.00415,0.00192l-3.24712,1.53619c-0.7096,0.33564 -1.31371,0.85901 -1.74702,1.51374l-0.05079,0.07675c-0.95092,1.43685 -2.89387,1.83269 -4.33146,0.88236c-0.00063,-0.00041 -0.00137,-0.0009 -0.00187,-0.00123c-0.96236,-0.63689 -1.61929,-1.61036 -1.84977,-2.74124c-0.23056,-1.13184 -0.00651,-2.28546 0.63088,-3.24856c0.59875,-0.90473 0.80933,-1.98854 0.59297,-3.05166l-0.19408,-0.95365c-0.45326,-2.22774 -0.01202,-4.49853 1.24266,-6.39437l2.43829,-3.68431c0.31253,-0.47224 0.18249,-1.11066 -0.28975,-1.42319l-0.43662,-0.28896c-2.42208,-1.60294 -3.08853,-4.87769 -1.48559,-7.29977l1.26915,-1.91772c1.65961,-2.50771 5.05006,-3.19771 7.55777,-1.53809l10.28571,6.80712l0.06759,-0.10212c1.15168,-1.74023 1.55681,-3.82498 1.14066,-5.8698l-0.42083,-2.06733c-0.2659,-1.30712 -1.01487,-2.43566 -2.11132,-3.18934l0.65314,3.20931c0.16499,0.81128 -0.35882,1.60277 -1.16997,1.76785l-1.45406,0.29591c-0.40556,0.08265 -0.80629,-0.00713 -1.12616,-0.21882c-0.31987,-0.21169 -0.559,-0.54538 -0.64156,-0.95107c-0.16398,-0.8063 0.35261,-1.59231 1.15526,-1.7641l-0.8426,-4.14031c-0.0077,-0.03834 -0.01253,-0.07642 -0.01727,-0.1146c-0.04222,0.00459 -0.08431,0.01089 -0.12648,0.01947l-1.07371,0.21851c-0.34938,0.0711 -0.65011,0.274 -0.84691,0.57137c-1.12802,1.70447 -3.4325,2.17346 -5.13697,1.04543l-1.2601,-0.83394c-1.2806,-0.84751 -1.63283,-2.57879 -0.78533,-3.8594l1.12289,-1.69673c1.15731,-1.74872 2.92646,-2.94226 4.98145,-3.36048l1.21517,-0.2473c0.30444,-0.06185 0.56654,-0.23871 0.73795,-0.49771l0.16777,-0.2535c0.94479,-1.4276 2.87494,-1.82041 4.30255,-0.87562l12.21392,8.08322c0.17225,0.11399 0.40532,0.06657 0.51931,-0.10568c0.11399,-0.17225 0.06657,-0.40532 -0.10568,-0.51931l-4.5838,-3.03358c-1.65422,-1.09477 -2.10935,-3.33111 -1.01458,-4.98533c0.80334,-1.21385 2.22143,-1.78108 3.57312,-1.56489c-0.88185,-0.71807 -1.80621,-1.3999 -2.77407,-2.04044c-13.8689,-9.17849 -31.98885,-7.03609 -43.39526,4.19201l3.41244,2.25837c1.93685,1.28181 3.25853,3.2411 3.72181,5.51698l0.37121,1.82401c0.15848,0.77875 0.61077,1.44924 1.27351,1.88785c1.3741,0.90938 2.31169,2.29938 2.64024,3.9138l0.00824,0.03996c0.46548,2.28723 0.01239,4.61884 -1.27588,6.56544l-1.4796,2.23571c-1.56944,2.37146 -3.96839,3.98977 -6.75507,4.55699l-3.97788,0.80955c-2.62644,0.53451 -4.88755,2.05997 -6.36675,4.29506l-0.44861,0.67786c2.23692,7.51625 7.01714,14.31912 14.05303,18.9755c15.92149,10.53691 37.44692,6.15624 47.98382,-9.76526z" fill="#000000" stroke-width="1"/><path d="M340.54588,207.75168c-7.03589,-4.65638 -11.8361,-11.48674 -14.07302,-19.00299l0.44841,-0.6786c1.4792,-2.23509 3.73931,-3.765 6.36575,-4.29951l3.97784,-0.80976c2.78668,-0.56723 5.18495,-2.19606 6.75439,-4.56752l1.48053,-2.24347c1.28827,-1.9466 1.74977,-4.29756 1.28429,-6.58479l-0.0082,-0.04003c-0.32855,-1.61442 -1.26371,-3.00752 -2.63781,-3.9169c-0.66274,-0.4386 -1.11415,-1.11011 -1.27263,-1.88887l-0.36965,-1.82566c-0.46328,-2.27589 -1.71508,-4.16368 -3.65193,-5.44549l-3.48176,-2.33043c11.40641,-11.2281 29.58864,-13.37693 43.45754,-4.19844c0.96786,0.64053 1.89625,1.32527 2.77811,2.04334c-1.35168,-0.21619 -2.77211,0.34929 -3.57545,1.56314c-1.09477,1.65422 -0.6345,3.89474 1.01973,4.98951l4.58999,3.04049c0.17225,0.114 0.22017,0.34773 0.10617,0.51998c-0.11399,0.17225 -0.4282,0.27812 -0.60045,0.16413l-12.19361,-8.06684c-1.42761,-0.94479 -3.35097,-0.54957 -4.29576,0.87804l-0.16758,0.25355c-0.1714,0.25899 -0.43233,0.43616 -0.73677,0.49801l-1.21284,0.24782c-2.055,0.41822 -3.81336,1.61269 -4.97067,3.36141l-1.11968,1.69655c-0.84751,1.2806 -0.50234,2.91215 0.77826,3.75966l1.26467,0.8339c1.70447,1.12803 4.02537,0.66246 5.1534,-1.04201c0.1968,-0.29737 0.49917,-0.49959 0.84855,-0.57069l1.07613,-0.21739c0.04217,-0.00858 0.08453,-0.01474 0.12675,-0.01933c0.00474,0.03818 0.00975,0.07635 0.01745,0.11469l0.85066,4.14547c-0.80266,0.17178 -1.31865,0.95827 -1.15467,1.76457c0.08256,0.40568 0.32527,0.74256 0.64514,0.95425c0.31987,0.21169 0.72331,0.30435 1.12887,0.2217l1.45579,-0.29381c0.81115,-0.16508 1.25745,-0.89343 1.09246,-1.70471l-0.5829,-3.28001c1.09645,0.75368 1.85308,1.89027 2.11898,3.19739l0.42418,2.07235c0.41614,2.04481 0.01716,4.1465 -1.13452,5.88672l-0.16626,0.11836l-10.2482,-6.76649c-2.50771,-1.65961 -5.85646,-0.97807 -7.51607,1.52964l-1.25998,1.90887c-1.60294,2.42209 -0.92869,5.64798 1.49339,7.25093l0.43505,0.28524c0.47224,0.31253 0.5957,0.94053 0.28317,1.41278l-2.44272,3.67958c-1.25468,1.89585 -1.70466,4.16006 -1.2514,6.3878l0.19238,0.95268c0.21636,1.06312 0.00367,2.14585 -0.59508,3.05059c-0.63739,0.9631 -0.86311,2.11596 -0.63255,3.24779c0.23048,1.13088 0.88213,2.10239 1.84449,2.73928c0.0005,0.00033 0.00124,0.00082 0.00187,0.00124c1.43759,0.95033 3.3723,0.55269 4.32321,-0.88416l0.0507,-0.07677c0.43331,-0.65474 1.03382,-1.17843 1.74343,-1.51408l3.23913,-1.536c0.00137,-0.00071 0.00273,-0.00142 0.00414,-0.00192l2.60029,-1.24206c1.46828,-0.7001 3.00855,-1.21716 4.60135,-1.54618l2.31616,-0.4765c0.92203,-0.19056 1.62795,-0.90686 1.80617,-1.83126c0.17822,-0.9244 -0.21571,-1.85569 -1.00083,-2.37528c-0.08775,-0.05807 -0.1122,-0.17636 -0.05412,-0.26411l0.94506,-1.42923c1.14424,-1.72897 1.53832,-3.78433 1.12484,-5.81606l0.00183,-0.4304c1.18516,1.05827 1.99253,2.4715 2.31512,4.05662l0.33527,1.65832c0.25961,1.27562 0.92939,2.27323 1.9375,2.9404c1.00811,0.66717 2.26897,0.95303 3.54447,0.69335c1.25132,-0.25466 2.32572,-0.97613 3.03053,-2.04111c0.70472,-1.06485 0.95036,-2.33429 0.69578,-3.58573l-0.13982,-0.68439c-0.00837,-0.04113 -0.02407,-0.11743 0.07561,-0.18466c0.09967,-0.06723 0.26145,0.00208 0.29645,0.02525l5.98493,3.96465c-0.93074,2.69889 -2.21882,5.33586 -3.86586,7.82457c-10.5369,15.9215 -32.13207,20.31597 -48.05356,9.77906z" data-paper-data="{&quot;noHover&quot;:false,&quot;origItem&quot;:[&quot;Path&quot;,{&quot;applyMatrix&quot;:true,&quot;segments&quot;:[[[773.72788,562.18247],[-21.07381,31.84299],[3.29408,-4.97743]],[[781.44838,546.55616],[-1.86147,5.39779],[0,0]],[[769.47657,538.63317],[0,0],[-0.07,-0.04633]],[[769.07673,538.63494],[0.19935,-0.13446],[-0.19935,0.13446]],[[768.92531,539.00495],[-0.01674,-0.08226],[0,0]],[[769.20432,540.37592],[0,0],[0.50915,2.50288]],[[767.80819,547.55953],[1.40945,-2.12971],[-1.40962,2.12997]],[[761.74161,551.65223],[2.50264,-0.50932],[-2.55099,0.51937]],[[754.64976,550.27008],[2.01621,1.33434],[-2.01621,-1.33434]],[[750.60579,544.28251],[0.51921,2.55124],[0,0]],[[749.93203,540.97183],[0,0],[-0.64518,-3.17025]],[[745.29543,532.87476],[2.37032,2.11655],[0,0]],[[745.48271,533.79497],[0,0],[0.82696,4.06346]],[[743.21634,545.45819],[2.28848,-3.45794],[0,0]],[[741.31964,548.32414],[0,0],[-0.11615,0.1755]],[[741.42728,548.85299],[-0.1755,-0.11615],[1.57023,1.03918]],[[743.42534,553.60702],[0.35645,-1.84879],[-0.35645,1.84879]],[[739.803,557.27758],[1.84406,-0.38113],[0,0]],[[735.16112,558.23654],[0,0],[-3.1856,0.65804]],[[725.93483,561.33816],[2.93656,-1.40019],[0,0]],[[720.72016,563.82478],[0,0],[-0.00282,0.00101]],[[720.71186,563.82862],[0.00274,-0.00142],[0,0]],[[714.21763,566.901],[0,0],[-1.4192,0.67129]],[[710.72359,569.92849],[0.86662,-1.30948],[0,0]],[[710.622,570.08199],[0,0],[-1.90183,2.87371]],[[701.95908,571.84672],[2.87519,1.90066],[-0.00125,-0.00083]],[[701.95533,571.84425],[0.001,0.00066],[-1.92472,-1.27378]],[[698.25579,566.36178],[0.46095,2.26176],[-0.46112,-2.26367]],[[699.51756,559.86465],[-1.27478,1.92621],[1.19751,-1.80947]],[[700.7035,553.76132],[0.43271,2.12624],[0,0]],[[700.31534,551.85402],[0,0],[-0.90652,-4.45548]],[[702.80066,539.06527],[-2.50935,3.79169],[0,0]],[[707.67725,531.69664],[0,0],[0.62506,-0.94448]],[[707.09775,528.85026],[0.94448,0.62506],[0,0]],[[706.22452,528.27235],[0,0],[-4.84417,-3.20589]],[[703.25335,513.67281],[-3.20589,4.84417],[0,0]],[[705.79165,509.83738],[0,0],[3.31922,-5.01542]],[[720.90718,506.76119],[-5.01542,-3.31922],[0,0]],[741.4786,520.37543],[[741.61377,520.17119],[0,0],[2.30337,-3.48045]],[[743.8951,508.4316],[0.83229,4.08963],[0,0]],[[743.05343,504.29693],[0,0],[-0.53181,-2.61423]],[[738.83079,497.91825],[2.1929,1.50736],[0,0]],[[740.13706,504.33687],[0,0],[0.32999,1.62256]],[[737.79712,507.87256],[1.62231,-0.33016],[0,0]],[[734.889,508.46439],[0,0],[-0.81112,0.16529]],[[732.63668,508.02675],[0.63974,0.42338],[-0.63974,-0.42338]],[[731.35356,506.12462],[0.16512,0.81137],[-0.32796,-1.6126]],[[733.66409,502.59642],[-1.60531,0.34357],[0,0]],[[731.97889,494.3158],[0,0],[-0.01539,-0.07669]],[[731.94435,494.08659],[0.00948,0.07637],[-0.08445,0.00919]],[[731.69139,494.12553],[0.08434,-0.01716],[0,0]],[[729.54396,494.56255],[0,0],[-0.69877,0.14221]],[[727.85014,495.70529],[0.3936,-0.59475],[-2.25605,3.40894]],[[717.5762,497.79616],[3.40894,2.25605],[0,0]],[[715.056,496.12828],[0,0],[-2.56121,-1.69502]],[[713.48535,488.40949],[-1.69502,2.56121],[0,0]],[[715.73114,485.01604],[0,0],[2.31462,-3.49745]],[[725.69405,478.29508],[-4.10999,0.83643],[0,0]],[[728.12439,477.80047],[0,0],[0.60888,-0.1237]],[[729.60028,476.80506],[-0.34281,0.51799],[0,0]],[[729.93582,476.29807],[0,0],[1.88959,-2.85521]],[[738.54091,474.54683],[-2.85521,-1.88959],[0,0]],[[762.96876,490.71328],[0,0],[0.3445,0.22799]],[[764.00738,490.50192],[-0.22799,0.3445],[0.22799,-0.3445]],[[763.79601,489.4633],[0.3445,0.22799],[0,0]],[[754.62841,483.39614],[0,0],[-3.30845,-2.18954]],[[752.59926,473.42548],[-2.18954,3.30845],[1.60667,-2.42771]],[[759.74549,470.29571],[-2.70337,-0.43238],[-1.76371,-1.43614]],[[754.19736,466.21484],[1.93572,1.28107],[-27.7378,-18.35698]],[[667.40684,474.59886],[22.81281,-22.4562],[0,0]],[[674.23173,479.11559],[0,0],[3.87369,2.56362]],[[681.67535,490.14956],[-0.92656,-4.55177],[0,0]],[[682.41776,493.79757],[0,0],[0.31697,1.5575]],[[684.96479,497.57327],[-1.32548,-0.87721],[2.74821,1.81877]],[[690.24527,505.40086],[-0.6571,-3.22883],[0,0]],[[690.26176,505.48079],[0,0],[0.93095,4.57446]],[[687.71,518.61166],[2.57653,-3.89319],[0,0]],[[684.75079,523.08308],[0,0],[-3.13888,4.74292]],[[671.24065,532.19706],[5.57336,-1.13445],[0,0]],[[663.28489,533.81615],[0,0],[-5.25288,1.06902]],[[650.5514,542.40627],[2.95839,-4.47018],[0,0]],[[649.65417,543.762],[0,0],[4.47384,15.03249]],[[677.76024,581.71299],[-14.07178,-9.31276],[31.84299,21.07381]]],&quot;closed&quot;:true,&quot;fillColor&quot;:[0,0,0,1]}]}" fill="#1f48fd" stroke-width="0.5"/><path d="M330.80041,159.67715c0.78125,-1.18048 1.63326,-2.29641 2.52857,-3.34857l3.84046,2.53493c1.26911,0.8399 2.14761,2.12937 2.45097,3.62052l0.37602,1.82723c0.3182,1.56353 1.23939,2.92567 2.56999,3.80628c0.70624,0.46739 1.19209,1.19191 1.36098,2.02175l0.00821,0.04027c0.30577,1.50246 0.00916,3.0542 -0.83711,4.33293l-1.48325,2.24836c-1.12753,1.70372 -2.87359,2.89056 -4.87549,3.29808l-4.00302,0.81525c-2.79228,0.56837 -5.29097,1.99153 -7.15066,4.08426c-1.51085,-8.45446 0.11157,-17.57092 5.21432,-25.2813z" data-paper-data="{&quot;noHover&quot;:false,&quot;origItem&quot;:[&quot;Path&quot;,{&quot;applyMatrix&quot;:true,&quot;segments&quot;:[[[647.83743,536.12443],[-3.0217,-16.90892],[3.71938,-4.18548]],[[662.08963,527.94085],[-5.58456,1.13674],[0,0]],[[670.04539,526.32176],[0,0],[4.0038,-0.81504]],[[679.75128,519.77403],[-2.25506,3.40745],[0,0]],[[682.71049,515.3026],[0,0],[1.69254,-2.55746]],[[684.38679,506.67663],[0.61153,3.00491],[0,0]],[[684.37048,506.59644],[0,0],[-0.33777,-1.6597]],[[681.65624,502.57311],[1.41248,0.93478],[-2.66121,-1.7612]],[[676.54272,494.99299],[0.63639,3.12705],[0,0]],[[675.80013,491.34523],[0,0],[-0.60672,-2.9823]],[[670.92318,484.11543],[2.53821,1.6798],[0,0]],[[663.26855,479.04957],[0,0],[-1.7906,2.10431]],[[658.22972,485.74535],[1.56249,-2.36096],[-10.20551,15.42075]]],&quot;closed&quot;:true,&quot;fillColor&quot;:[0,0,0,1]}]}" fill="#0daa00" stroke-width="0.5"/><path d="M369.84843,192.82264l-1.13675,0.23761c-1.82885,0.3777 -3.63215,0.99718 -5.31813,1.80107l-2.62267,1.24719l-3.26318,1.53391c-1.20432,0.56958 -2.23742,1.45506 -2.97284,2.56629l-0.05093,0.07685c-0.03904,0.059 -0.1193,0.075 -0.17831,0.03595c-0.00013,-0.00008 -0.00037,-0.00025 -0.0005,-0.00033c-0.29487,-0.19515 -0.49932,-0.49502 -0.56996,-0.84159c-0.07068,-0.34677 -0.00316,-0.70084 0.19224,-0.99608c1.04067,-1.57247 1.39637,-3.46428 1.02042,-5.31209l-0.19813,-0.95843c-0.29368,-1.44304 -0.01779,-2.94633 0.79489,-4.17431l2.46526,-3.72637c1.22481,-1.85072 0.75438,-4.26088 -1.09647,-5.48578l-0.43527,-0.28955c-1.04361,-0.69066 -1.36367,-2.19605 -0.67293,-3.23978l1.27502,-1.91936c0.74733,-1.12923 2.28531,-1.44089 3.41454,-0.69356l10.02218,6.62601l1.02798,5.02237c0.25377,1.24695 0.00944,2.53268 -0.69281,3.59379l-0.94864,1.4401c-0.70812,1.06998 -0.68899,2.43026 -0.05504,3.4561z" data-paper-data="{&quot;noHover&quot;:false,&quot;origItem&quot;:[&quot;Path&quot;,{&quot;applyMatrix&quot;:true,&quot;segments&quot;:[[[736.31996,545.01425],[-1.41624,2.13996],[0,0]],[[738.21666,542.1483],[0,0],[1.40449,-2.12222]],[[739.60757,534.98998],[0.50754,2.49391],[0,0]],[737.57023,524.97793],[[717.59905,511.76093],[0,0],[-2.25846,-1.49466]],[[710.7924,513.14616],[1.49466,-2.25846],[0,0]],[[708.25393,516.98185],[0,0],[-1.38149,2.08746]],[[709.53416,523.27251],[-2.08722,-1.38133],[0,0]],[[710.40764,523.85059],[0,0],[3.70169,2.44979]],[[712.67808,535.00584],[2.44963,-3.70144],[0,0]],[[707.80149,542.37448],[0,0],[-1.62536,2.45596]],[[706.19188,550.65851],[-0.58735,-2.88609],[0,0]],[[706.58004,552.56581],[0,0],[0.75188,3.69563]],[[704.51856,563.17361],[2.08134,-3.14495],[-0.39079,0.59049]],[[704.13175,565.16443],[-0.14136,-0.69354],[0.14127,0.69313]],[[705.26563,566.84448],[-0.58974,-0.39029],[0.00025,0.00016]],[[705.26663,566.84515],[-0.00025,-0.00016],[0.118,0.07809]],[[705.62224,566.77277],[-0.07809,0.118],[0,0]],[[705.724,566.61902],[0,0],[1.47084,-2.22247]],[[711.65392,561.48072],[-2.40864,1.13916],[0,0]],[718.14499,558.40985],[[723.35434,555.92584],[0,0],[3.37196,-1.60778]],[[733.94833,552.36437],[-3.6577,0.75541],[0,0]],[[736.21863,551.89542],[0,0],[-1.26791,-2.05167]]],&quot;closed&quot;:true,&quot;fillColor&quot;:[0,0,0,1]}]}" fill="#0daa00" stroke-width="0.5"/><path d="M381.32981,155.00223l7.38423,4.88057c5.19807,7.99448 6.90738,17.96234 4.62107,27.27675l-5.21992,-3.44826c-1.07561,-0.71184 -2.4713,-0.70058 -3.54058,0.02074c-1.06936,0.72145 -1.60142,2.00662 -1.34422,3.27041l0.13944,0.6855c0.19615,0.96329 -0.43303,1.90753 -1.39636,2.10348c-0.45105,0.0919 -0.9144,0.00283 -1.29827,-0.25122c-0.38387,-0.25405 -0.64774,-0.64229 -0.73956,-1.09346l-0.33784,-1.65532c-0.55527,-2.72843 -2.16228,-5.08257 -4.48425,-6.61925l-0.80386,-0.53156l0.66493,-1.00439c1.59368,-2.40809 2.13232,-5.34848 1.55654,-8.1782l-0.41047,-2.0864c-0.43187,-2.12209 -1.59392,-3.87842 -3.39989,-5.07362l-2.48905,-1.65085c-0.96511,-0.63871 -2.11724,-0.86765 -3.2512,-0.63688l-1.07229,0.21646c-1.13396,0.23077 -2.10584,0.88209 -2.74456,1.8472c-0.21575,0.326 -0.65583,0.41425 -0.98182,0.1985l-1.17304,-0.75881l1.00752,-1.52316c0.7154,-1.08099 1.81427,-1.82607 3.08449,-2.08458l1.21677,-0.24925c1.08921,-0.22156 2.03334,-0.85987 2.64675,-1.78673l0.16841,-0.25396c0.0326,-0.04925 0.09929,-0.06287 0.14842,-0.03036l12.25732,8.07659c1.55085,1.02636 3.59965,0.68493 4.62601,-0.86592c1.02636,-1.55085 0.61137,-3.63916 -0.93948,-4.66552l-4.5663,-3.02898c-0.27574,-0.18249 -0.34481,-0.65491 -0.16233,-0.93066c0.18249,-0.27575 0.55765,-0.35137 0.83339,-0.16888z" data-paper-data="{&quot;noHover&quot;:false,&quot;origItem&quot;:[&quot;Path&quot;,{&quot;applyMatrix&quot;:true,&quot;segments&quot;:[[[757.59918,476.73445],[0.36498,-0.55149],[-0.36498,0.55149]],[[757.93737,478.39623],[-0.55149,-0.36498],[0,0]],[[767.10497,484.46338],[0,0],[3.1017,2.05272]],[[769.00779,493.81013],[2.05272,-3.1017],[-2.05272,3.1017]],[[759.66029,495.71245],[3.1017,2.05272],[0,0]],[[735.23194,479.54567],[0,0],[-0.09825,-0.06502]],[[734.93572,479.60595],[0.06519,-0.0985],[0,0]],[[734.60019,480.11295],[0,0],[-1.2268,1.85372]],[[729.31989,483.67485],[2.17842,-0.44312],[0,0]],[[726.88997,484.16937],[0,0],[-2.54044,0.51701]],[[720.73131,488.32409],[1.4308,-2.16197],[0,0]],[718.72045,491.36254],[[720.88542,492.79532],[0,0],[0.65199,0.43149]],[[722.85047,492.39541],[-0.43149,0.65199],[1.27743,-1.93022]],[[728.34854,488.68643],[-2.26791,0.46155],[0,0]],[[730.49621,488.24956],[0,0],[2.26791,-0.46155]],[[737.00657,489.51469],[-1.93022,-1.27743],[0,0]],[[741.98924,492.81224],[0,0],[3.61194,2.3904]],[[748.92964,503.10083],[-0.86374,-4.24418],[0,0]],[[749.77105,507.23534],[0,0],[1.15155,5.65944]],[[746.61427,523.47981],[3.18736,-4.81618],[0,0]],[745.28473,525.48878],[[746.88395,526.54715],[0,0],[4.64393,3.07337]],[[755.8075,539.77524],[-1.11053,-5.45686],[0,0]],[[756.48126,543.08592],[0,0],[0.18364,0.90234]],[[757.95649,545.273],[-0.76774,-0.50809],[0.76774,0.50809]],[[760.54619,545.77611],[-0.90209,0.1838],[1.92666,-0.39189]],[[763.32919,541.57093],[0.39229,1.92658],[0,0]],[[763.05019,540.19996],[0,0],[-0.51439,-2.52757]],[[765.72397,533.66382],[-2.13872,1.4429],[2.13855,-1.44265]],[[772.78587,533.63276],[-2.15122,-1.42369],[0,0]],[[783.21695,540.53609],[0,0],[4.57261,-18.62881]],[[773.97772,486.13587],[10.39614,15.98897],[0,0]],[[759.26096,476.39626],[0,0],[-0.55149,-0.36498]]],&quot;closed&quot;:true,&quot;fillColor&quot;:[0,0,0,1]}]}" fill="#0daa00" stroke-width="0.5"/><path d="M364.61781,150.46634l1.69634,-2.56321c0.45688,-0.69037 1.38686,-0.87962 2.07722,-0.42274c0.69036,0.45688 0.87962,1.38685 0.42274,2.07722l-1.69634,2.5632c-0.45688,0.69037 -1.38686,0.87963 -2.07722,0.42274c-0.69036,-0.45688 -0.87962,-1.38685 -0.42274,-2.07722z" fill="#000000" stroke-width="1"/><path d="M379.01327,205.37788c-5.35562,3.89924 -11.70089,6.0681 -18.34996,6.27225c-6.80034,0.20866 -13.4039,-1.67232 -19.09668,-5.43982c-0.69036,-0.45689 -0.87963,-1.38686 -0.42274,-2.07722c0.45688,-0.69037 1.38686,-0.87963 2.07722,-0.42274c10.33634,6.84063 24.01106,6.53686 34.02769,-0.75608c0.6691,-0.48737 1.60669,-0.33996 2.09403,0.32946c0.48721,0.66935 0.33966,1.60686 -0.32956,2.09415z" fill="#000000" stroke-width="1"/><path d="M337.5484,201.06462c-0.51781,0.47336 -1.27796,0.51491 -1.8377,0.14447c-0.10062,-0.06659 -0.19476,-0.14651 -0.27993,-0.23972c-1.11528,-1.22035 -2.14574,-2.53682 -3.0627,-3.91261c-0.45905,-0.68881 -0.27282,-1.61959 0.41599,-2.07864c0.68881,-0.45904 1.61951,-0.27324 2.07864,0.41599c0.83281,1.24928 1.76844,2.44475 2.78116,3.55283c0.55852,0.61103 0.51578,1.55912 -0.09546,2.11767z" fill="#000000" stroke-width="1"/></g><path d="M335.86653,140.85805v12.99387v-12.99387c0,0 4.82103,2.34391 8.5566,3.28472c2.10517,0.53019 4.99814,1.48409 7.81777,1.48749c2.74633,0.00331 6.30127,-0.62791 8.55683,-1.47035c3.97354,-1.4841 8.38066,-3.267 8.38066,-3.267v12.99387" fill="none" stroke="#ff0000" stroke-width="3" stroke-linecap="round"/><path d="M335.86653,139.16779v16.26875" fill="none" stroke="#400000" stroke-width="3.5" stroke-linecap="round"/><path d="M369.17838,154.52063v-16.26875" fill="none" stroke="#400000" stroke-width="3.5" stroke-linecap="round"/></g><text transform="translate(256.96109,185.89648) scale(0.5,0.5)" font-size="40" xml:space="preserve" fill="#585e00" fill-rule="nonzero" stroke="none" stroke-width="1" stroke-linecap="butt" stroke-linejoin="miter" stroke-miterlimit="10" stroke-dasharray="" stroke-dashoffset="0" font-family="Sans Serif" font-weight="normal" text-anchor="start" style="mix-blend-mode: normal"><tspan x="0" dy="0">1840</tspan></text><path d="M250.18809,180h-20.37618" fill="none" stroke="#585e00" stroke-width="2" stroke-linecap="round"/><text transform="translate(409.05085,185.89648) scale(0.5,0.5)" font-size="40" xml:space="preserve" fill="#585e00" fill-rule="nonzero" stroke="none" stroke-width="1" stroke-linecap="butt" stroke-linejoin="miter" stroke-miterlimit="10" stroke-dasharray="" stroke-dashoffset="0" font-family="Sans Serif" font-weight="normal" text-anchor="start" style="mix-blend-mode: normal"><tspan x="0" dy="0">Télégraphe Transatlantique</tspan></text></g></g></svg>