<svg version="1.1" xmlns="http://www.w3.org/2000/svg" xmlns:xlink="http://www.w3.org/1999/xlink" width="17.69895" height="26.39487" viewBox="0,0,17.69895,26.39487"><g transform="translate(-299.17865,-311.53162)"><g data-paper-data="{&quot;isPaintingLayer&quot;:true}" fill="#000000" fill-rule="nonzero" stroke="none" stroke-width="1" stroke-linecap="butt" stroke-linejoin="miter" stroke-miterlimit="10" stroke-dasharray="" stroke-dashoffset="0" style="mix-blend-mode: normal"><path d="M301.07372,325.84098c0.88333,1.12135 1.69234,2.30817 2.41752,3.52526v5.37467c0,0.48934 0.39665,0.886 0.88632,0.886h1.00549v0.42874c0,1.03315 0.83741,1.87083 1.87078,1.87083h1.54855c1.03342,0 1.87083,-0.83768 1.87083,-1.87083v-0.42874h1.00549c0.48966,0 0.88627,-0.39665 0.88627,-0.886v-5.38199c0.71819,-1.20198 1.5478,-2.41426 2.41832,-3.51832c1.24015,-1.57274 1.89432,-3.46044 1.89432,-5.4593c0,-4.87972 -3.97007,-8.84969 -8.84969,-8.84969c-4.87914,0 -8.84926,3.96991 -8.84926,8.84969c0,1.99977 0.65529,3.88785 1.89507,5.45968zM309.31233,328.22342h-2.5683l-1.46835,-6.39949l0.74419,0.30882c0.05515,0.02301 0.11234,0.03369 0.16963,0.03369c0.16087,0 0.31651,-0.08869 0.39447,-0.24101l0.57285,-1.11922l0.98296,1.19845c0.07801,0.09477 0.19205,0.15313 0.31422,0.16103c0.12291,0.00422 0.24208,-0.03556 0.33221,-0.11955l1.13796,-1.06994l0.92049,0.56735l-1.53232,6.67986zM310.7928,329.99569v1.48656h-5.5293v-1.48656zM305.26345,333.85486v-1.48656h5.52935v1.48656zM302.46529,324.74371c-0.99076,-1.25601 -1.51427,-2.76462 -1.51427,-4.36245c0,-3.90242 3.17463,-7.07764 7.07705,-7.07764c3.9028,0 7.07748,3.17521 7.07748,7.07764c0,1.59687 -0.52277,3.10554 -1.51358,4.36187c-0.86277,1.09386 -1.69164,2.28847 -2.41495,3.48019h-0.50109l1.67808,-7.31027c0.08126,-0.35773 -0.14208,-0.71429 -0.49933,-0.79651c-0.36275,-0.08185 -0.71557,0.14186 -0.79689,0.4989l-0.00363,0.01602l-0.95514,-0.58759c-0.16958,-0.10513 -0.38961,-0.0818 -0.53564,0.05451l-1.03934,0.97735l-1.11116,-1.35463c-0.09429,-0.11495 -0.23947,-0.17694 -0.38929,-0.15911c-0.14902,0.01602 -0.27967,0.10566 -0.34807,0.2384l-0.69389,1.35724l-0.94906,-0.39457l-0.03401,-0.1472c-0.08196,-0.35778 -0.43771,-0.5815 -0.79566,-0.49928c-0.35832,0.08222 -0.58177,0.43878 -0.49938,0.79598l1.67765,7.31086h-0.50109c-0.72918,-1.20144 -1.54113,-2.37005 -2.41479,-3.47971z"/></g></g></svg>