<svg version="1.1" xmlns="http://www.w3.org/2000/svg" xmlns:xlink="http://www.w3.org/1999/xlink" width="320.3108" height="188.62189" viewBox="0,0,320.3108,188.62189"><g transform="translate(-79.22104,-29.55341)"><g data-paper-data="{&quot;isPaintingLayer&quot;:true}" fill-rule="nonzero" stroke-linejoin="miter" stroke-miterlimit="10" stroke-dasharray="" stroke-dashoffset="0" style="mix-blend-mode: normal"><path d="M399.53184,180.00002h-318.12737" fill="#000000" stroke="#000000" stroke-width="2" stroke-linecap="butt"/><path d="M80.46816,218.1753v-76.35057" fill="#000000" stroke="#000000" stroke-width="2" stroke-linecap="butt"/><path d="M151.95323,179.58135c-4.32794,10.81984 -9.93063,30.14307 -17.41971,29.89249c-7.19063,-0.24059 -14.07624,-19.50824 -18.2317,-29.89689c-4.18502,-10.46254 -11.84934,-29.33582 -19.18845,-29.47564c-7.53791,-0.14361 -12.09395,18.72968 -16.39233,29.47564" fill="none" stroke="#0000ff" stroke-width="3" stroke-linecap="butt"/><path d="M223.10708,179.96598c-4.32794,10.81984 -9.93063,30.14307 -17.41971,29.89249c-7.19063,-0.24059 -14.07624,-19.50824 -18.2317,-29.89689c-4.18502,-10.46254 -11.84934,-29.33582 -19.18845,-29.47564c-7.53791,-0.14361 -12.09395,18.72968 -16.39233,29.47564" fill="none" stroke="#0000ff" stroke-width="3" stroke-linecap="butt"/><path d="M294.13272,180.5429c-4.32794,10.81984 -9.93063,30.14307 -17.41971,29.89249c-7.19063,-0.24059 -14.07624,-19.50824 -18.2317,-29.89689c-4.18502,-10.46254 -11.84934,-29.33582 -19.18845,-29.47564c-7.53791,-0.14361 -12.09395,18.72968 -16.39233,29.47564" fill="none" stroke="#0000ff" stroke-width="3" stroke-linecap="butt"/><path d="M365.28656,180.92751c-4.32794,10.81984 -9.93063,30.14307 -17.41971,29.89249c-7.19063,-0.24059 -14.07624,-19.50824 -18.2317,-29.89689c-4.18502,-10.46254 -11.84934,-29.33582 -19.18845,-29.47564c-7.53791,-0.14361 -12.09395,18.72968 -16.39233,29.47564" fill="none" stroke="#0000ff" stroke-width="3" stroke-linecap="butt"/><path d="M100.19273,140.39785c0,0 -1.38088,-47.22917 6.84877,-64.96529c5.39825,-11.63404 12.39611,-17.40809 30.45739,-26.44834c20.28268,-10.15214 81.36411,-9.84613 81.36411,-9.84613" fill="none" stroke="#0000ff" stroke-width="2" stroke-linecap="round"/><path d="M210.43519,47.67417l8.52904,-8.52904" fill="none" stroke="#0000ff" stroke-width="2" stroke-linecap="round"/><path d="M219.03836,39.08244l-8.52903,-8.52903" data-paper-data="{&quot;index&quot;:null}" fill="none" stroke="#0000ff" stroke-width="2" stroke-linecap="round"/></g></g></svg>