<svg version="1.1" xmlns="http://www.w3.org/2000/svg" xmlns:xlink="http://www.w3.org/1999/xlink" width="318.59335" height="362.62499" viewBox="0,0,318.59335,362.62499"><g transform="translate(0.53673,3.87499)"><g data-paper-data="{&quot;isPaintingLayer&quot;:true}" fill-rule="nonzero" stroke-linecap="butt" stroke-linejoin="miter" stroke-miterlimit="10" stroke-dasharray="" stroke-dashoffset="0" style="mix-blend-mode: normal"><path d="M172.79778,144.41685c19.65203,-37.11475 65.67061,-51.2711 102.78536,-31.61907c37.11475,19.65203 51.2711,65.67061 31.61907,102.78536c-19.65203,37.11475 -65.67061,51.2711 -102.78536,31.61907c-37.11475,-19.65203 -51.2711,-65.67061 -31.61907,-102.78536z" fill="#e9e9e9" stroke="#000000" stroke-width="4"/><path d="M235.51987,177.6278c1.31013,-2.47432 4.37805,-3.41807 6.85235,-2.10793c2.47432,1.31013 3.41807,4.37805 2.10793,6.85235c-1.31013,2.47432 -4.37805,3.41807 -6.85235,2.10793c-2.47432,-1.31013 -3.41807,-4.37805 -2.10793,-6.85235z" fill="#000000" stroke="none" stroke-width="1"/><text transform="translate(-0.28673,17.87501) scale(0.5,0.5)" font-size="40" xml:space="preserve" fill="#585e00" fill-rule="nonzero" stroke="none" stroke-width="1" stroke-linecap="butt" stroke-linejoin="miter" stroke-miterlimit="10" stroke-dasharray="" stroke-dashoffset="0" font-family="Sans Serif" font-weight="normal" text-anchor="start" style="mix-blend-mode: normal"><tspan x="0" dy="0">Christian Ørsted : Boussole </tspan></text><text transform="translate(4.0625,352.50001) scale(0.5,0.5)" font-size="40" xml:space="preserve" fill="#000000" fill-rule="nonzero" stroke="none" stroke-width="1" stroke-linecap="butt" stroke-linejoin="miter" stroke-miterlimit="10" stroke-dasharray="" stroke-dashoffset="0" font-family="Sans Serif" font-weight="normal" text-anchor="start" style="mix-blend-mode: normal"><tspan x="0" dy="0">N</tspan></text><text transform="translate(6.5625,331.25001) scale(0.5,0.5)" font-size="40" xml:space="preserve" fill="#000000" fill-rule="nonzero" stroke="none" stroke-width="1" stroke-linecap="butt" stroke-linejoin="miter" stroke-miterlimit="10" stroke-dasharray="" stroke-dashoffset="0" font-family="Sans Serif" font-weight="normal" text-anchor="start" style="mix-blend-mode: normal"><tspan x="0" dy="0">↑</tspan></text></g></g></svg>