<svg version="1.1" xmlns="http://www.w3.org/2000/svg" xmlns:xlink="http://www.w3.org/1999/xlink" width="497.83885" height="402.10661" viewBox="0,0,497.83885,402.10661"><defs><radialGradient cx="3.7273" cy="179.93446" r="162.36588" gradientUnits="userSpaceOnUse" id="color-1"><stop offset="0" stop-color="#d7e81e"/><stop offset="1" stop-color="#feff00"/></radialGradient></defs><g transform="translate(16.11327,20.60396)"><g data-paper-data="{&quot;isPaintingLayer&quot;:true}" fill-rule="nonzero" stroke-width="1.15823" stroke-linecap="butt" stroke-linejoin="miter" stroke-miterlimit="10" stroke-dasharray="" stroke-dashoffset="0" style="mix-blend-mode: normal"><path d="M-1.27327,327.06166c0,0 -0.00205,-20.00547 -0.00516,-46.79769c-0.00126,-10.86798 -0.0027,-28.18986 -0.00426,-49.71683c-0.0084,-116.50878 0.31154,-201.89299 0.30691,-208.24075c-0.0019,-2.7273 1.87612,-4.60472 4.60312,-4.60672c2.7274,-0.002 4.9393,2.2072 4.9413,4.9346c0.00435,5.92318 0.01868,67.86787 0.02744,196.85378c0.00415,61.10937 0.00706,107.59975 0.00706,107.59975c0,0 -0.12838,-3.24624 5.25517,-9.57961c1.9273,-1.9301 5.20825,-1.9324 7.13785,-0.0051c1.9296,1.9282 2.24171,4.59004 0.31441,6.51964c-6.1679,6.1779 -14.14673,18.19316 -14.14673,18.19316c-1.9272,1.9296 -5.054,1.9319 -6.9832,0.0051c0,0 -7.5494,-10.1378 -14.18528,-17.87091c-1.931,-1.9282 -2.08795,-4.74519 -0.15976,-6.67439c1.9268,-1.9301 5.51797,-1.9324 7.44617,-0.0051c2.69121,2.28173 5.44498,9.1419 5.44498,9.1419z" fill="url(#color-1)" stroke="#ffffff"/><path d="M465.22229,380.92354v-400.94838h15.92418v400.94838z" fill="#e9e9e9" stroke="#3e82ff"/></g></g></svg>