<svg version="1.1" xmlns="http://www.w3.org/2000/svg" xmlns:xlink="http://www.w3.org/1999/xlink" width="130.57143" height="112.1088" viewBox="0,0,130.57143,112.1088"><g transform="translate(-174.89394,-117.04258)"><g data-paper-data="{&quot;isPaintingLayer&quot;:true}" fill-rule="nonzero" stroke-linejoin="miter" stroke-dasharray="" stroke-dashoffset="0" style="mix-blend-mode: normal"><path d="M304.27241,181.0709h-128.54482v-2.1418h128.54482z" fill="#000000" stroke="none" stroke-width="1.016" stroke-linecap="square" stroke-miterlimit="4"/><path d="M296.23844,205.78197c0,0.40339 -0.32702,0.7304 -0.73041,0.7304h-6.57324c-0.40339,0 -0.73041,-0.32701 -0.73041,-0.7304v-51.56393c0,-0.40339 0.32702,-0.7304 0.73041,-0.7304h6.57324c0.40339,0 0.73041,0.32701 0.73041,0.7304z" fill="#ff6600" stroke="#000000" stroke-width="1" stroke-linecap="square" stroke-miterlimit="4"/><path d="M288.03817,202.21493c0,0.24055 -0.20742,0.43555 -0.46328,0.43555h-1.31189c-0.25586,0 -0.46327,-0.195 -0.46327,-0.43555v-44.42984c0,-0.24055 0.20741,-0.43556 0.46327,-0.43556h1.31189c0.25586,0 0.46328,0.19501 0.46328,0.43556z" fill="#0094de" stroke="#000000" stroke-width="1.03454" stroke-linecap="square" stroke-miterlimit="4"/><path d="M285.79417,205.78197c0,0.40339 -0.32701,0.7304 -0.7304,0.7304h-6.57324c-0.40339,0 -0.73041,-0.32701 -0.73041,-0.7304v-51.56393c0,-0.40339 0.32702,-0.7304 0.73041,-0.7304h6.57324c0.40339,0 0.7304,0.32701 0.7304,0.7304z" fill="#cccccc" stroke="#000000" stroke-width="1" stroke-linecap="square" stroke-miterlimit="4"/><path d="M277.43872,205.78197c0,0.40339 -0.32701,0.7304 -0.7304,0.7304h-6.57324c-0.40339,0 -0.73041,-0.32701 -0.73041,-0.7304v-51.56393c0,-0.40339 0.32702,-0.7304 0.73041,-0.7304h6.57324c0.40339,0 0.7304,0.32701 0.7304,0.7304z" fill="#ff6600" stroke="#000000" stroke-width="1" stroke-linecap="square" stroke-miterlimit="4"/><path d="M269.23845,202.21493c0,0.24055 -0.20741,0.43555 -0.46327,0.43555h-1.31189c-0.25586,0 -0.46327,-0.195 -0.46327,-0.43555v-44.42984c0,-0.24055 0.20741,-0.43556 0.46327,-0.43556h1.31189c0.25586,0 0.46327,0.19501 0.46327,0.43556z" fill="#0094de" stroke="#000000" stroke-width="1.03454" stroke-linecap="square" stroke-miterlimit="4"/><path d="M266.99446,205.78197c0,0.40339 -0.32702,0.7304 -0.73041,0.7304h-6.57324c-0.40339,0 -0.7304,-0.32701 -0.7304,-0.7304v-51.56393c0,-0.40339 0.32701,-0.7304 0.7304,-0.7304h6.57324c0.40339,0 0.73041,0.32701 0.73041,0.7304z" fill="#cccccc" stroke="#000000" stroke-width="1" stroke-linecap="square" stroke-miterlimit="4"/><path d="M258.63901,205.78197c0,0.40339 -0.32701,0.7304 -0.7304,0.7304h-6.57325c-0.40339,0 -0.7304,-0.32701 -0.7304,-0.7304v-51.56393c0,-0.40339 0.32701,-0.7304 0.7304,-0.7304h6.57325c0.40339,0 0.7304,0.32701 0.7304,0.7304z" fill="#ff6600" stroke="#000000" stroke-width="1" stroke-linecap="square" stroke-miterlimit="4"/><path d="M250.43874,202.21493c0,0.24055 -0.20741,0.43555 -0.46328,0.43555h-1.31189c-0.25586,0 -0.46327,-0.195 -0.46327,-0.43555v-44.42984c0,-0.24055 0.20741,-0.43556 0.46327,-0.43556h1.31189c0.25586,0 0.46328,0.19501 0.46328,0.43556z" fill="#0094de" stroke="#000000" stroke-width="1.03454" stroke-linecap="square" stroke-miterlimit="4"/><path d="M248.19475,205.78197c0,0.40339 -0.32702,0.7304 -0.73041,0.7304h-6.57324c-0.40339,0 -0.7304,-0.32701 -0.7304,-0.7304v-51.56393c0,-0.40339 0.32701,-0.7304 0.7304,-0.7304h6.57324c0.40339,0 0.73041,0.32701 0.73041,0.7304z" fill="#cccccc" stroke="#000000" stroke-width="1" stroke-linecap="square" stroke-miterlimit="4"/><path d="M239.83931,205.78197c0,0.40339 -0.32701,0.7304 -0.7304,0.7304h-6.57324c-0.40339,0 -0.73041,-0.32701 -0.73041,-0.7304v-51.56393c0,-0.40339 0.32702,-0.7304 0.73041,-0.7304h6.57324c0.40339,0 0.7304,0.32701 0.7304,0.7304z" fill="#ff6600" stroke="#000000" stroke-width="1" stroke-linecap="square" stroke-miterlimit="4"/><path d="M231.63903,202.21493c0,0.24055 -0.20741,0.43555 -0.46328,0.43555h-1.31189c-0.25586,0 -0.46327,-0.195 -0.46327,-0.43555v-44.42984c0,-0.24055 0.20741,-0.43556 0.46327,-0.43556h1.31189c0.25586,0 0.46328,0.19501 0.46328,0.43556z" fill="#0094de" stroke="#000000" stroke-width="1.03454" stroke-linecap="square" stroke-miterlimit="4"/><path d="M229.39504,205.78197c0,0.40339 -0.32701,0.7304 -0.7304,0.7304h-6.57324c-0.40339,0 -0.73041,-0.32701 -0.73041,-0.7304v-51.56393c0,-0.40339 0.32702,-0.7304 0.73041,-0.7304h6.57324c0.40339,0 0.7304,0.32701 0.7304,0.7304z" fill="#cccccc" stroke="#000000" stroke-width="1" stroke-linecap="square" stroke-miterlimit="4"/><path d="M221.0396,205.78197c0,0.40339 -0.32701,0.7304 -0.7304,0.7304h-6.57324c-0.40339,0 -0.7304,-0.32701 -0.7304,-0.7304v-51.56393c0,-0.40339 0.32701,-0.7304 0.7304,-0.7304h6.57324c0.40339,0 0.7304,0.32701 0.7304,0.7304z" fill="#ff6600" stroke="#000000" stroke-width="1" stroke-linecap="square" stroke-miterlimit="4"/><path d="M212.83932,202.21493c0,0.24055 -0.20741,0.43555 -0.46327,0.43555h-1.31189c-0.25586,0 -0.46328,-0.195 -0.46328,-0.43555v-44.42984c0,-0.24055 0.20741,-0.43556 0.46328,-0.43556h1.31189c0.25586,0 0.46327,0.19501 0.46327,0.43556z" fill="#0094de" stroke="#000000" stroke-width="1.03454" stroke-linecap="square" stroke-miterlimit="4"/><path d="M210.59533,205.78197c0,0.40339 -0.32701,0.7304 -0.7304,0.7304h-6.57324c-0.40339,0 -0.7304,-0.32701 -0.7304,-0.7304v-51.56393c0,-0.40339 0.32701,-0.7304 0.7304,-0.7304h6.57324c0.40339,0 0.7304,0.32701 0.7304,0.7304z" fill="#cccccc" stroke="#000000" stroke-width="1" stroke-linecap="square" stroke-miterlimit="4"/><path d="M202.23988,205.78197c0,0.40339 -0.32701,0.7304 -0.7304,0.7304h-6.57324c-0.40339,0 -0.73041,-0.32701 -0.73041,-0.7304v-51.56393c0,-0.40339 0.32702,-0.7304 0.73041,-0.7304h6.57324c0.40339,0 0.7304,0.32701 0.7304,0.7304z" fill="#ff6600" stroke="#000000" stroke-width="1" stroke-linecap="square" stroke-miterlimit="4"/><path d="M194.0396,202.21493c0,0.24055 -0.20741,0.43555 -0.46327,0.43555h-1.31189c-0.25586,0 -0.46328,-0.195 -0.46328,-0.43555v-44.42984c0,-0.24055 0.20741,-0.43556 0.46328,-0.43556h1.31189c0.25586,0 0.46327,0.19501 0.46327,0.43556z" fill="#0094de" stroke="#000000" stroke-width="1.03454" stroke-linecap="square" stroke-miterlimit="4"/><path d="M191.79562,205.78197c0,0.40339 -0.32701,0.7304 -0.7304,0.7304h-6.57324c-0.40339,0 -0.73041,-0.32701 -0.73041,-0.7304v-51.56393c0,-0.40339 0.32702,-0.7304 0.73041,-0.7304h6.57324c0.40339,0 0.7304,0.32701 0.7304,0.7304z" fill="#cccccc" stroke="#000000" stroke-width="1" stroke-linecap="square" stroke-miterlimit="4"/><path d="M175.89394,179.70925v-61.66667h128.57143v61.65748" fill="none" stroke="#000000" stroke-width="2" stroke-linecap="round" stroke-miterlimit="10"/><text transform="translate(187.08764,224.02103) scale(0.41043,0.41043)" font-size="40" xml:space="preserve" fill="#9966ff" fill-rule="nonzero" stroke="none" stroke-width="1" stroke-linecap="butt" stroke-linejoin="miter" stroke-miterlimit="10" stroke-dasharray="" stroke-dashoffset="0" font-family="Sans Serif" font-weight="normal" text-anchor="start" style="mix-blend-mode: normal"><tspan x="0" dy="0">Pile voltaïque</tspan></text></g></g></svg>