<svg version="1.1" xmlns="http://www.w3.org/2000/svg" xmlns:xlink="http://www.w3.org/1999/xlink" width="316.86936" height="235.15198" viewBox="0,0,316.86936,235.15198"><g transform="translate(-1.10245,2.83951)"><g data-paper-data="{&quot;isPaintingLayer&quot;:true}" fill-rule="nonzero" stroke-linejoin="miter" stroke-miterlimit="10" stroke-dasharray="" stroke-dashoffset="0" style="mix-blend-mode: normal"><path d="M317.22181,169.71752c0,9.38556 -34.51671,16.99404 -77.09524,16.99404c-42.57853,0 -77.09524,-7.60849 -77.09524,-16.99404c0,-9.38556 34.51671,-16.99404 77.09524,-16.99404c42.57853,0 77.09524,7.60849 77.09524,16.99404z" fill="#ff8c45" stroke="#000000" stroke-width="1.5" stroke-linecap="butt"/><path d="M315.4361,166.59252c0,8.74451 -33.87712,15.83333 -75.66667,15.83333c-41.78955,0 -75.66667,-7.08882 -75.66667,-15.83333c0,-8.74451 33.87712,-15.83333 75.66667,-15.83333c41.78955,0 75.66667,7.08882 75.66667,15.83333z" fill="#693a1c" stroke="#000000" stroke-width="2" stroke-linecap="butt"/><path d="M162.77819,192.1181l0.37879,-19.89899c0,0 4.36875,2.82525 9.56427,5.05103c3.77331,1.61649 8.0543,2.5588 11.06704,3.61059c4.61952,1.61273 15.64532,2.32823 25,3.88889c6.66009,1.11111 10.38798,1.66666 18.88889,1.94445c2.42384,0.0792 6.73822,0.09384 9.44477,0.08338c3.93338,-0.0152 6.32434,-0.08338 9.99968,-0.08338c6.82003,0 12.60601,0.23137 19.16667,-0.55555c6.94757,-0.83334 16.87035,-1.55502 22.77778,-3.05555c6.56146,-1.66666 13.59809,-3.21941 17.5,-5c3.58504,-1.636 6.35103,-2.55723 7.83631,-3.99303c2.29754,-2.221 2.61823,-4.61808 2.61823,-4.61808l-0.30303,22.62626c0,0 -6.12999,5.60605 -12.93615,8.48484c-5.33317,2.25576 -11.46745,3.0303 -20.15151,4.54546c-7.11027,1.24057 -14.13301,2.66153 -22.27273,3.48485c-5.99179,0.60606 -12.86695,0.45454 -18.78788,0.45454c-5.43566,0 -11.13631,-0.75757 -16.36363,-0.75757c-6.16814,0 -12.09915,-0.45454 -18.0303,-1.21212c-11.7569,-1.50169 -22.48309,-2.92175 -27.57576,-4.69697c-8.69318,-3.0303 -17.82143,-10.30303 -17.82143,-10.30303z" fill="#ff8c45" stroke="#000000" stroke-width="1" stroke-linecap="butt"/><path d="M166.20568,194.0893v-20.15152" fill="none" stroke="#000000" stroke-width="0.5" stroke-linecap="round"/><path d="M170.14507,176.36203v20.30303" fill="none" stroke="#000000" stroke-width="0.5" stroke-linecap="round"/><path d="M174.69053,199.54384v-21.51515" fill="none" stroke="#000000" stroke-width="0.5" stroke-linecap="round"/><path d="M179.69053,201.66506v-21.81819" fill="none" stroke="#000000" stroke-width="0.5" stroke-linecap="round"/><path d="M183.93295,181.21051v21.51515" fill="none" stroke="#000000" stroke-width="0.5" stroke-linecap="round"/><path d="M188.17538,203.78626v-21.66666" fill="none" stroke="#000000" stroke-width="0.5" stroke-linecap="round"/><path d="M192.11477,204.84687v-22.42424" fill="none" stroke="#000000" stroke-width="0.5" stroke-linecap="round"/><path d="M196.66023,205.75596v-22.72727" fill="none" stroke="#000000" stroke-width="0.5" stroke-linecap="round"/><path d="M200.59962,183.78627v22.42424" fill="none" stroke="#000000" stroke-width="0.5" stroke-linecap="round"/><path d="M204.3875,184.0893v22.57576" fill="none" stroke="#000000" stroke-width="0.5" stroke-linecap="round"/><path d="M208.02386,206.66506v-22.27273" fill="none" stroke="#000000" stroke-width="0.5" stroke-linecap="round"/><path d="M211.50871,184.99839v21.81818" fill="none" stroke="#000000" stroke-width="0.5" stroke-linecap="round"/><path d="M215.59962,207.42263v-21.51515" fill="none" stroke="#000000" stroke-width="0.5" stroke-linecap="round"/><path d="M219.84204,186.66505v20.90909" fill="none" stroke="#000000" stroke-width="0.5" stroke-linecap="round"/><path d="M224.3875,207.72566v-21.06061" fill="none" stroke="#000000" stroke-width="0.5" stroke-linecap="round"/><path d="M229.08447,186.96808v20.90909" fill="none" stroke="#000000" stroke-width="0.5" stroke-linecap="round"/><path d="M234.3875,187.1196v20.90909" fill="none" stroke="#000000" stroke-width="0.5" stroke-linecap="round"/><path d="M237.87235,208.48324v-21.06061" fill="none" stroke="#000000" stroke-width="0.5" stroke-linecap="round"/><path d="M241.66022,187.1196v21.36364" fill="none" stroke="#000000" stroke-width="0.5" stroke-linecap="round"/><path d="M245.90265,208.78626v-21.51515" fill="none" stroke="#000000" stroke-width="0.5" stroke-linecap="round"/><path d="M249.84204,208.78626v-21.81818" fill="none" stroke="#000000" stroke-width="0.5" stroke-linecap="round"/><path d="M253.93295,186.96808v22.27273" fill="none" stroke="#000000" stroke-width="0.5" stroke-linecap="round"/><path d="M257.72083,208.63475v-21.9697" fill="none" stroke="#000000" stroke-width="0.5" stroke-linecap="round"/><path d="M261.35719,208.33172v-21.81818" fill="none" stroke="#000000" stroke-width="0.5" stroke-linecap="round"/><path d="M266.05416,186.05899v21.81818" fill="none" stroke="#000000" stroke-width="0.5" stroke-linecap="round"/><path d="M270.14507,206.96808v-21.51515" fill="none" stroke="#000000" stroke-width="0.5" stroke-linecap="round"/><path d="M273.62992,206.51354v-21.36364" fill="none" stroke="#000000" stroke-width="0.5" stroke-linecap="round"/><path d="M277.26628,206.05899v-20.90909" fill="none" stroke="#000000" stroke-width="0.5" stroke-linecap="round"/><path d="M281.05416,184.54384v21.06061" fill="none" stroke="#000000" stroke-width="0.5" stroke-linecap="round"/><path d="M285.75113,184.0893v20.45455" fill="none" stroke="#000000" stroke-width="0.5" stroke-linecap="round"/><path d="M290.29659,203.63475v-20.90909" fill="none" stroke="#000000" stroke-width="0.5" stroke-linecap="round"/><path d="M294.53901,182.27111v20.90909" fill="none" stroke="#000000" stroke-width="0.5" stroke-linecap="round"/><path d="M298.62992,201.96808v-20.90909" fill="none" stroke="#000000" stroke-width="0.5" stroke-linecap="round"/><path d="M303.17538,179.84687v20.45455" fill="none" stroke="#000000" stroke-width="0.5" stroke-linecap="round"/><path d="M306.35719,178.33172v20.60606" fill="none" stroke="#000000" stroke-width="0.5" stroke-linecap="round"/><path d="M309.3875,176.96808v20.30303" fill="none" stroke="#000000" stroke-width="0.5" stroke-linecap="round"/><path d="M312.11477,175.75596v19.24242" fill="none" stroke="#000000" stroke-width="0.5" stroke-linecap="round"/><path d="M314.99356,193.33172v-19.09091" fill="none" stroke="#000000" stroke-width="0.5" stroke-linecap="round"/><text transform="translate(174.86002,226.15337) scale(0.5,0.5)" font-size="40" xml:space="preserve" fill="#ff8c45" fill-rule="nonzero" stroke="none" stroke-width="1" stroke-linecap="butt" stroke-linejoin="miter" stroke-miterlimit="10" stroke-dasharray="" stroke-dashoffset="0" font-family="Sans Serif" font-weight="normal" text-anchor="start" style="mix-blend-mode: normal"><tspan x="0" dy="0">Bobine cuivre</tspan></text><text transform="translate(185.01002,110.76875) scale(0.5,0.5)" font-size="40" xml:space="preserve" fill="#ff8c45" fill-rule="nonzero" stroke="none" stroke-width="1" stroke-linecap="butt" stroke-linejoin="miter" stroke-miterlimit="10" stroke-dasharray="" stroke-dashoffset="0" font-family="Sans Serif" font-weight="normal" text-anchor="start" style="mix-blend-mode: normal"><tspan x="0" dy="0">Oeuf cuivre</tspan></text><text transform="translate(1.35245,18.77412) scale(0.5,0.5)" font-size="40" xml:space="preserve" fill="#585e00" fill-rule="nonzero" stroke="none" stroke-width="1" stroke-linecap="butt" stroke-linejoin="miter" stroke-miterlimit="10" stroke-dasharray="" stroke-dashoffset="0" font-family="Sans Serif" font-weight="normal" text-anchor="start" style="mix-blend-mode: normal"><tspan x="0" dy="0">Oeuf de Tesla</tspan></text></g></g></svg>