<svg version="1.1" xmlns="http://www.w3.org/2000/svg" xmlns:xlink="http://www.w3.org/1999/xlink" width="445.04977" height="82.93839" viewBox="0,0,445.04977,82.93839"><g transform="translate(-228.81193,-139.78476)"><g data-paper-data="{&quot;isPaintingLayer&quot;:true}" fill-rule="nonzero" stroke-linejoin="miter" stroke-miterlimit="10" stroke-dasharray="" stroke-dashoffset="0" style="mix-blend-mode: normal"><path d="M260.11058,222.72314v-82.93839h199.84202v82.93839z" fill="#ffffff" stroke="none" stroke-width="0" stroke-linecap="butt"/><text transform="translate(256.9985,186.00002) scale(0.5,0.5)" font-size="40" xml:space="preserve" fill="#585e00" fill-rule="nonzero" stroke="none" stroke-width="1" stroke-linecap="butt" stroke-linejoin="miter" stroke-miterlimit="10" stroke-dasharray="" stroke-dashoffset="0" font-family="Sans Serif" font-weight="normal" text-anchor="start" style="mix-blend-mode: normal"><tspan x="0" dy="0">1820</tspan></text><path d="M229.81194,180.00002h20.37618" fill="none" stroke="#585e00" stroke-width="2" stroke-linecap="round"/><g stroke-linecap="butt"><path d="M327.56987,163.2771c9.23581,-17.44272 30.86304,-24.09574 48.30576,-14.85993c17.44272,9.23581 24.09574,30.86304 14.85993,48.30576c-9.23581,17.44272 -30.86304,24.09574 -48.30576,14.85993c-17.44272,-9.23581 -24.09574,-30.86304 -14.85993,-48.30576z" fill="#d8d8d8" stroke="#000000" stroke-width="2.5"/><path d="M357.0472,178.88516c0.61572,-1.16285 2.05754,-1.60638 3.22038,-0.99066c1.16285,0.61572 1.60638,2.05754 0.99066,3.22038c-0.61572,1.16285 -2.05754,1.60638 -3.22038,0.99066c-1.16285,-0.61572 -1.60638,-2.05754 -0.99066,-3.22038z" fill="#000000" stroke="none" stroke-width="1"/><path d="M365.59349,178.0187l-1.98132,-6.44077l-6.44077,1.98132l15.35966,-18.82551z" fill="#ff0000" stroke="#000000" stroke-width="1.5"/><path d="M352.71195,181.98134l1.98132,6.44077l6.44077,-1.98132l-15.35966,18.82551z" fill="#0000ff" stroke="#000000" stroke-width="1.5"/><path d="M359.15272,180.00002l13.37833,-25.26627" fill="#000000" stroke="#000000" stroke-width="1.5"/><path d="M359.15272,180.00002l-13.37833,25.26627" fill="#000000" stroke="#000000" stroke-width="1.5"/><path d="M359.15272,180.00002l-25.26627,-13.37833" fill="#000000" stroke="#000000" stroke-width="1.5"/><path d="M384.81387,193.58744l-25.26627,-13.37833" fill="#000000" stroke="#000000" stroke-width="1.5"/></g><text transform="translate(409.08827,186.00002) scale(0.5,0.5)" font-size="40" xml:space="preserve" fill="#585e00" fill-rule="nonzero" stroke="none" stroke-width="1" stroke-linecap="butt" stroke-linejoin="miter" stroke-miterlimit="10" stroke-dasharray="" stroke-dashoffset="0" font-family="Sans Serif" font-weight="normal" text-anchor="start" style="mix-blend-mode: normal"><tspan x="0" dy="0">Christian Ørsted : Boussole </tspan></text><g stroke="none" stroke-width="1" stroke-linecap="butt"><g fill="#6c301e"><path d=""/></g><g fill="none" font-family="sans-serif" font-weight="normal" font-size="12" text-anchor="start"/><g fill="none" font-family="sans-serif" font-weight="normal" font-size="12" text-anchor="start"/><g fill="none" font-family="sans-serif" font-weight="normal" font-size="12" text-anchor="start"/><g fill="none" font-family="sans-serif" font-weight="normal" font-size="12" text-anchor="start"/><g fill="none" font-family="sans-serif" font-weight="normal" font-size="12" text-anchor="start"/><g fill="none" font-family="sans-serif" font-weight="normal" font-size="12" text-anchor="start"/><g fill="none" font-family="sans-serif" font-weight="normal" font-size="12" text-anchor="start"/><g fill="none" font-family="sans-serif" font-weight="normal" font-size="12" text-anchor="start"/></g></g></g></svg>