<svg version="1.1" xmlns="http://www.w3.org/2000/svg" xmlns:xlink="http://www.w3.org/1999/xlink" width="330.30925" height="96.06202" viewBox="0,0,330.30925,96.06202"><g transform="translate(-228.81191,-128.25879)"><g data-paper-data="{&quot;isPaintingLayer&quot;:true}" fill-rule="nonzero" stroke-linejoin="miter" stroke-miterlimit="10" stroke-dasharray="" stroke-dashoffset="0" style="mix-blend-mode: normal"><path d="M260.11059,222.72315v-82.93839h199.84202v82.93839z" fill="#ffffff" stroke="none" stroke-width="0" stroke-linecap="butt"/><path d="M347.85803,184.71261c-0.17235,-0.86379 0.3896,-1.70531 1.25358,-1.87784l6.70036,-1.34134v-6.67472c0,-0.88138 0.71371,-1.59678 1.59678,-1.59678c0.88307,0 1.59678,0.71539 1.59678,1.59678v6.03605l6.07441,-1.21522c0.87352,-0.17085 1.7055,0.38961 1.87953,1.25358c0.17235,0.86379 -0.38961,1.70531 -1.25358,1.87784l-15.96832,3.19374c-0.10536,0.02245 -0.21239,0.032 -0.31457,0.032c-0.74571,0 -1.4132,-0.52528 -1.56496,-1.28408z" fill="#ca974d" stroke="none" stroke-width="1" stroke-linecap="butt"/><path d="M347.85803,197.48756c-0.17235,-0.86397 0.3896,-1.70549 1.25358,-1.87953l15.96832,-3.19374c0.87352,-0.17553 1.7055,0.3896 1.87953,1.25358c0.17235,0.86379 -0.38961,1.70531 -1.25358,1.87784l-15.96832,3.19374c-0.10536,0.02245 -0.21239,0.032 -0.31457,0.032c-0.74571,0 -1.4132,-0.52546 -1.56496,-1.2839z" fill="#ca974d" stroke="none" stroke-width="1" stroke-linecap="butt"/><path d="M347.8279,160.44735c0,-5.28397 4.29705,-9.58103 9.58103,-9.58103c5.28397,0 9.58103,4.29705 9.58103,9.58103c0,5.28397 -4.29705,9.58103 -9.58103,9.58103c-5.28397,0 -9.58103,-4.29724 -9.58103,-9.58103zM351.02164,160.44716c0,3.52253 2.86477,6.38729 6.38729,6.38729c3.52253,0 6.38729,-2.86458 6.38729,-6.38729c0,-3.52253 -2.86458,-6.38729 -6.38729,-6.38729c-3.52271,0 -6.38747,2.86477 -6.38729,6.38729z" fill="#000000" stroke="none" stroke-width="1" stroke-linecap="butt"/><path d="M357.40893,154.03568c3.52271,0 6.41148,2.88896 6.41148,6.41148c0,3.52271 -2.88896,6.41148 -6.41148,6.41148c-3.52253,0 -6.41148,-2.88896 -6.41148,-6.41148c-0.00018,-3.52253 2.88877,-6.41148 6.41148,-6.41148z" data-paper-data="{&quot;noHover&quot;:false,&quot;origItem&quot;:[&quot;Path&quot;,{&quot;applyMatrix&quot;:true,&quot;segments&quot;:[[[453.59746,293.99369],[-0.00076,-14.56126],[0,14.56126]],[[480.00096,320.39719],[-14.56126,0],[14.56126,0]],[[506.40446,293.99369],[0,14.56202],[0,-14.56126]],[[480.00096,267.59019],[14.56204,0],[-14.56202,0]]],&quot;closed&quot;:true,&quot;fillColor&quot;:[0,0,0]}]}" fill="#dcdcdc" stroke="none" stroke-width="0.5" stroke-linecap="butt"/><path d="M353.11992,140.84928c-0.4536,-0.42628 -0.6164,-1.07618 -0.41842,-1.66545l3.19374,-9.58103c0.27938,-0.83684 1.17517,-1.29194 2.01838,-1.01087c0.83665,0.27957 1.28858,1.18341 1.00919,2.02006l-2.10296,6.31543l4.78733,-1.9162c0.57337,-0.2283 1.23449,-0.10535 1.68791,0.32092c0.4536,0.42796 0.6164,1.07787 0.41842,1.66714l-3.19373,9.58103c-0.22194,0.66918 -0.8447,1.09228 -1.51388,1.09228c-0.16617,0 -0.33702,-0.02545 -0.50469,-0.0814c-0.83665,-0.27957 -1.28857,-1.18341 -1.00919,-2.02006l2.10296,-6.31543l-4.78733,1.9162c-0.57655,0.2283 -1.23599,0.10535 -1.68772,-0.32261z" fill="#00fffc" stroke="#000000" stroke-width="0.5" stroke-linecap="butt"/><path d="M347.85803,191.10008c-0.17235,-0.86397 0.3896,-1.7055 1.25358,-1.87953l15.96832,-3.19373c0.87352,-0.16917 1.7055,0.3896 1.87953,1.25358c0.17235,0.86379 -0.38961,1.70531 -1.25358,1.87784l-15.96832,3.19374c-0.10536,0.02245 -0.21239,0.032 -0.31457,0.032c-0.74571,0 -1.4132,-0.52528 -1.56496,-1.2839z" fill="#ca974d" stroke="none" stroke-width="1" stroke-linecap="butt"/><path d="M391.98034,134.5127l-7.89948,6.77221h3.66792c0.67872,0 1.28221,0.42796 1.50583,1.06832c0.22512,0.64036 0.02077,1.35257 -0.50787,1.77567l-15.96832,12.77477c-0.29548,0.23485 -0.64672,0.34974 -0.99646,0.34974c-0.46951,0 -0.93246,-0.20435 -1.24871,-0.60031c-0.55091,-0.68826 -0.43919,-1.69259 0.24907,-2.24349l12.4138,-9.93077h-3.43158c-0.66899,0 -1.26631,-0.41673 -1.49778,-1.04268c-0.23148,-0.62595 -0.0494,-1.3318 0.45996,-1.76613l11.17781,-9.58103c0.66899,-0.57168 1.67668,-0.49664 2.24986,0.17254c0.57486,0.67067 0.49664,1.67818 -0.17403,2.25117z" fill="#00fffc" stroke="#000000" stroke-width="0.5" stroke-linecap="butt"/><path d="M379.76435,219.53029v3.19374c0,0.88138 -0.71371,1.59678 -1.59678,1.59678c-0.88306,0 -1.59678,-0.71539 -1.59678,-1.59678v-3.19374c0,-0.95492 -0.64185,-1.59678 -1.59678,-1.59678h-35.13037c-1.03632,0 -1.59678,0.82224 -1.59678,1.59678v3.19374c0,0.88138 -0.71371,1.59678 -1.59678,1.59678c-0.88307,0 -1.59678,-0.71539 -1.59678,-1.59678v-3.19374c0,-2.68587 2.10296,-4.79052 4.79052,-4.79052h15.96832c0,-0.88138 0.71371,-1.59678 1.59678,-1.59678c0.88307,0 1.59678,0.71539 1.59678,1.59678h15.96832c2.73059,0 4.79051,2.05992 4.79033,4.79052z" fill="#000000" stroke="none" stroke-width="1" stroke-linecap="butt"/><path d="M347.85803,203.87485c-0.17235,-0.86397 0.3896,-1.7055 1.25358,-1.87953l15.96832,-3.19374c0.87352,-0.17403 1.7055,0.3896 1.87953,1.25358c0.17235,0.86379 -0.38961,1.70531 -1.25358,1.87785l-15.96832,3.19374c-0.10536,0.02245 -0.21239,0.032 -0.31457,0.032c-0.74571,0 -1.4132,-0.52527 -1.56496,-1.28389z" fill="#ca974d" stroke="none" stroke-width="1" stroke-linecap="butt"/><path d="M347.85803,210.26214c-0.17235,-0.86397 0.3896,-1.70549 1.25358,-1.87953l15.96832,-3.19374c0.87352,-0.17403 1.7055,0.3896 1.87953,1.25358c0.17235,0.86379 -0.38961,1.70531 -1.25358,1.87785l-15.96832,3.19374c-0.10536,0.02245 -0.21239,0.032 -0.31457,0.032c-0.74571,0 -1.4132,-0.52528 -1.56496,-1.2839z" fill="#ca974d" stroke="none" stroke-width="1" stroke-linecap="butt"/><path d="M335.05314,152.46291c0,0.64522 -0.38811,1.22794 -0.98523,1.47552c-0.19798,0.08159 -0.40551,0.12145 -0.61154,0.12145c-0.41524,0 -0.82393,-0.1628 -1.12895,-0.46782l-9.58103,-9.58103c-0.62427,-0.62426 -0.62427,-1.63345 0,-2.2579c0.62427,-0.62445 1.63345,-0.62445 2.25791,0l6.8553,6.85511v-12.11364c0,-0.66282 0.41038,-1.25677 1.02828,-1.49311c0.62277,-0.23316 1.32207,-0.06231 1.76126,0.43115l12.77476,14.37154c0.58609,0.65963 0.52696,1.66882 -0.13248,2.25641c-0.65963,0.58122 -1.66882,0.52545 -2.25323,-0.13249l-9.98504,-11.23375z" fill="#00fffc" stroke="#000000" stroke-width="0.5" stroke-linecap="butt"/><text transform="translate(256.96109,185.8965) scale(0.5,0.5)" font-size="40" xml:space="preserve" fill="#585e00" fill-rule="nonzero" stroke="none" stroke-width="1" stroke-linecap="butt" stroke-linejoin="miter" stroke-miterlimit="10" stroke-dasharray="" stroke-dashoffset="0" font-family="Sans Serif" font-weight="normal" text-anchor="start" style="mix-blend-mode: normal"><tspan x="0" dy="0">1891</tspan></text><path d="M229.81191,180.00002h20.37618" fill="none" stroke="#585e00" stroke-width="2" stroke-linecap="round"/><text transform="translate(409.05085,185.8965) scale(0.5,0.5)" font-size="40" xml:space="preserve" fill="#585e00" fill-rule="nonzero" stroke="none" stroke-width="1" stroke-linecap="butt" stroke-linejoin="miter" stroke-miterlimit="10" stroke-dasharray="" stroke-dashoffset="0" font-family="Sans Serif" font-weight="normal" text-anchor="start" style="mix-blend-mode: normal"><tspan x="0" dy="0">Bobine de Tesla</tspan></text></g></g></svg>