<svg version="1.1" xmlns="http://www.w3.org/2000/svg" xmlns:xlink="http://www.w3.org/1999/xlink" width="275.89177" height="84.60594" viewBox="0,0,275.89177,84.60594"><g transform="translate(-102.05411,-137.69703)"><g data-paper-data="{&quot;isPaintingLayer&quot;:true}" fill-rule="nonzero" stroke="none" stroke-linecap="butt" stroke-linejoin="miter" stroke-miterlimit="10" stroke-dasharray="" stroke-dashoffset="0" style="mix-blend-mode: normal"><path d="M177.17918,179.92664c0,18.15543 -14.74921,32.9333 -32.96856,32.96879c-18.09961,0 -32.82213,-14.72269 -32.82213,-32.96872c0,-18.13999 14.75537,-32.89529 32.89535,-32.89529c18.13998,0 32.89535,14.75529 32.89535,32.89521z" data-paper-data="{&quot;noHover&quot;:false,&quot;origItem&quot;:[&quot;Path&quot;,{&quot;applyMatrix&quot;:true,&quot;segments&quot;:[[[258.76878,180.07331],[0,0],[0,18.13992]],[[291.61413,212.91858],[-18.13998,0],[18.13998,0]],[[324.45948,180.07323],[0,18.13999],[0,-18.24603]],[[291.68724,147.15457],[18.09961,0],[-18.21935,0.03549]],[[258.76879,180.0733],[0,-18.15543],[0,0]]],&quot;closed&quot;:true,&quot;fillColor&quot;:[0,0,0]}]}" fill="#c0c0c0" stroke-width="0.5"/><path d="M144.28384,137.69703l191.43231,0c23.32284,0 42.22973,18.90689 42.22973,42.22973c0,23.3311 -18.88945,42.25744 -42.22633,42.30297l-191.43238,0.07324c-0.30192,0.00021 -0.5972,-0.02809 -0.8833,-0.08238c-22.95255,-0.47152 -41.34975,-19.16102 -41.34976,-42.14741l0,-0.00002c0.00001,-23.46924 18.9069,-42.37613 42.22973,-42.37613zM170.71427,212.89984l164.99279,-0.05448c18.15536,-0.03543 32.85443,-14.7632 32.85443,-32.9186c0,-18.13998 -14.70536,-32.84535 -32.84535,-32.84535h-164.887c9.56737,7.7419 15.68442,19.57924 15.68442,32.84527c0,13.32799 -6.16421,25.21857 -15.7993,32.97315zM177.1292,179.92669c0,-18.13992 -14.70537,-32.84527 -32.84535,-32.84527c-18.13998,0 -32.84535,14.70536 -32.84535,32.84535c0,18.24603 14.67263,32.91866 32.77224,32.91866c18.21935,-0.03549 32.91845,-14.7633 32.91845,-32.91873z" fill="#000000" stroke-width="1"/><path d="M170.6714,212.92556c9.63509,-7.75458 15.79217,-19.67098 15.79217,-32.99897c0,-13.26603 -6.1099,-25.12906 -15.67727,-32.87096l164.95761,-0.01581c18.13999,0 32.86758,14.74689 32.86758,32.88687c0,18.1554 -14.72128,32.92479 -32.87664,32.96022z" data-paper-data="{&quot;noHover&quot;:false,&quot;origItem&quot;:[&quot;Path&quot;,{&quot;applyMatrix&quot;:true,&quot;segments&quot;:[[265.18369,147.10016],[[188.39498,147.15464],[0,0],[-18.15536,0.03543]],[[155.54055,180.07324],[0,-18.1554],[0,18.13998]],[[188.3859,212.91859],[-18.13999,0],[0,0]],[[265.06882,212.91859],[0,0],[-9.56737,-7.7419]],[[249.3844,180.07332],[0,13.26603],[0,-13.32799]],[[265.1837,147.10017],[-9.63509,7.75458],[0,0]]],&quot;closed&quot;:true,&quot;fillColor&quot;:[0,0,0]}]}" fill="#f12300" stroke-width="0.5"/><text transform="translate(190.77992,190.14656) scale(0.75296,0.75296)" font-size="40" xml:space="preserve" fill="#000000" fill-rule="nonzero" stroke="none" stroke-width="1" stroke-linecap="butt" stroke-linejoin="miter" stroke-miterlimit="10" stroke-dasharray="" stroke-dashoffset="0" font-family="Sans Serif" font-weight="normal" text-anchor="start" style="mix-blend-mode: normal"><tspan x="0" dy="0">Monophasé</tspan></text></g></g></svg>