<svg version="1.1" xmlns="http://www.w3.org/2000/svg" xmlns:xlink="http://www.w3.org/1999/xlink" width="136.14634" height="136.14634" viewBox="0,0,136.14634,136.14634"><g transform="translate(-354.85366,-294.85366)"><g data-paper-data="{&quot;isPaintingLayer&quot;:true}" fill="#000000" fill-rule="nonzero" stroke="none" stroke-width="1" stroke-linecap="butt" stroke-linejoin="miter" stroke-miterlimit="10" stroke-dasharray="" stroke-dashoffset="0" style="mix-blend-mode: normal"><g><path d="M491,362.92683c0,18.18286 -7.08069,35.27763 -19.93812,48.13505c-12.85742,12.85742 -29.9522,19.93812 -48.13505,19.93812c-18.18286,0 -35.27763,-7.08069 -48.13505,-19.93812c-12.85742,-12.85742 -19.93812,-29.9522 -19.93812,-48.13505c0,-18.18286 7.08069,-35.27763 19.93812,-48.13505c12.85742,-12.85742 29.9522,-19.93812 48.13505,-19.93812c18.18286,0 35.27763,7.08069 48.13505,19.93812c12.85742,12.85742 19.93812,29.9522 19.93812,48.13505zM430.74548,306.5156c0,0.59828 0.48655,1.08483 1.08483,1.08483h9.94546c3.36488,0 6.10218,2.73649 6.10218,6.10136c0,3.36488 -2.7373,6.10218 -6.10218,6.10218h-26.50108c-0.10658,0 -0.19337,0.08652 -0.19337,0.19337v0.55001c0,2.01101 -0.78298,3.9016 -2.20519,5.32354l-1.58629,1.58629c-1.65844,1.65844 -2.57186,3.8639 -2.57186,6.2093v3.29626h2.34866c0.70731,0 1.28281,-0.5755 1.28281,-1.28281c0,-2.094 0.81552,-4.06269 2.29605,-5.54322l1.40214,-1.40187c1.48052,-1.48052 3.44922,-2.29605 5.54322,-2.29605h5.40544c3.91841,0 7.60223,1.52609 10.37289,4.29675l2.69906,2.69906c3.69439,3.69466 5.72899,8.60651 5.72899,13.83133v2.17943h1.73492c5.03796,0 9.77433,1.96192 13.33665,5.52423l2.16126,2.16126c0.58906,0.58906 1.37204,0.91343 2.20492,0.91343c0.83288,0 1.61613,-0.32436 2.20492,-0.91343c1.25786,-1.25759 1.25786,-3.3044 0,-4.56199l-0.89499,-0.89499c-1.65003,-1.65003 -2.13929,-4.10961 -1.2462,-6.26599c0.89309,-2.1561 2.9784,-3.5493 5.31215,-3.5493h11.31615c-5.85131,-16.33702 -18.30517,-29.55596 -34.13124,-36.42782h-15.96546c-0.59828,0 -1.08483,0.48655 -1.08483,1.08483zM448.7827,368.65176v-3.10913c0,-2.30228 -0.89661,-4.46679 -2.52467,-6.09485l-6.53584,-6.53611h-21.66571c-2.45009,0 -4.44347,1.99338 -4.44347,4.44347v4.16114c0,2.26459 1.84231,4.10663 4.10663,4.10663h0.9476c4.01577,0 7.28247,3.2667 7.28247,7.2822v7.99385c0,2.66435 1.03764,5.16922 2.92172,7.0533l1.24512,1.24512c2.41239,2.41267 3.74104,5.62024 3.74104,9.03204c0,0.64059 0.24924,1.2424 0.70216,1.69505c0.45265,0.45237 1.05446,0.70134 1.69424,0.70134c0.00027,0 0.00081,0 0.00108,0c0.12801,0 0.23215,-0.10414 0.23215,-0.23215v-0.16679c0,-2.41104 0.65985,-4.77516 1.90822,-6.83715l3.36379,-5.55759l2.68984,-4.47493c1.74115,-2.8965 3.8319,-5.5801 6.21419,-7.97622l1.47863,-1.4873c-1.9809,-0.91478 -3.35918,-2.92037 -3.35918,-5.24191zM377.59091,406.12265c0.71626,-5.01463 3.02071,-9.64388 6.66629,-13.28973l5.19363,-5.19363c2.61363,-2.6139 4.0532,-6.08916 4.0532,-9.78572v-4.85082c0,-2.77446 -1.08049,-5.38293 -3.04214,-7.34458l-0.05234,-0.05234c-1.08348,-1.08348 -2.52413,-1.68013 -4.05646,-1.68013c-2.88701,0 -5.60098,-1.12416 -7.64237,-3.16554l-2.38148,-2.3812c-1.94673,-1.947 -4.53541,-3.01936 -7.28898,-3.01936h-8.30411c-0.30023,2.48155 -0.45834,5.00595 -0.45834,7.56724c0,16.72919 6.59116,31.94801 17.3131,43.19582zM485.57584,362.92683c0,-5.39975 -0.6867,-10.64192 -1.97738,-15.64354h-12.9876c-0.07594,0 -0.21751,0 -0.30077,0.20097c-0.08326,0.20097 0.01681,0.30104 0.07051,0.35474l0.89499,0.89499c1.63376,1.63403 2.53335,3.80613 2.53335,6.11655c0,2.31069 -0.8996,4.48279 -2.53335,6.11655c-1.66522,1.66549 -3.85305,2.4981 -6.04034,2.4981c-2.18729,0 -4.37485,-0.83261 -6.04034,-2.4981l-2.16126,-2.16126c-2.06959,-2.06959 -4.69569,-3.38033 -7.54066,-3.79366l0.60073,0.60073c2.65268,2.65268 4.11341,6.1792 4.11341,9.93055v3.10913c0,0.19039 0.15486,0.34525 0.34525,0.34525c1.70346,0 3.22683,1.01622 3.88098,2.58895c0.65415,1.57273 0.30077,3.36949 -0.90014,4.57772l-3.02315,3.04105c-2.07474,2.08694 -3.89563,4.42394 -5.41195,6.94645l-2.69255,4.47954c-0.00163,0.00217 -0.00298,0.00461 -0.00434,0.00705l-3.36542,5.5603c-0.73552,1.21501 -1.12443,2.60793 -1.12443,4.02852v0.16652c0,3.11753 -2.53634,5.65495 -5.65441,5.65658c-0.00136,0 -0.00298,0 -0.00407,0c-2.08803,0 -4.0513,-0.81281 -5.5283,-2.28899c-1.47808,-1.47754 -2.29198,-3.4419 -2.29198,-5.53156c0,-1.963 -0.76453,-3.80857 -2.15258,-5.19661l-1.24512,-1.24512c-2.90843,-2.9087 -4.51019,-6.77559 -4.51019,-10.889v-7.99385c0,-1.02462 -0.83369,-1.85804 -1.85832,-1.85804h-0.94733c-5.25519,0 -9.53079,-4.27559 -9.53079,-9.53079v-4.16087c0,-5.44097 4.42665,-9.86763 9.86763,-9.86763h22.31688v-0.22158c0,-3.77576 -1.47049,-7.32587 -4.14026,-9.99564l-2.69933,-2.69906c-1.70644,-1.70671 -3.96343,-2.66163 -6.3704,-2.70394l4.19016,4.19016c1.05907,1.05934 1.05907,2.77663 0,3.83569l-1.89845,1.89845c-0.5294,0.52967 -1.22369,0.79437 -1.91771,0.79437c-0.69402,0 -1.38804,-0.2647 -1.91771,-0.79437c-1.05256,-1.05283 -1.05798,-2.75466 -0.01844,-3.81535l-5.40571,-5.40571c-0.0499,-0.05017 -0.09519,-0.10279 -0.14049,-0.15567c-0.05912,0.04909 -0.11635,0.10062 -0.1714,0.15567l-1.40187,1.40187c-0.45617,0.45617 -0.70731,1.06259 -0.70731,1.7078c0,3.69819 -3.00878,6.70697 -6.70697,6.70697h-2.73405c-2.77852,0 -5.03877,-2.26052 -5.03877,-5.03904v-3.68138c0,-3.7942 1.47754,-7.36167 4.1606,-10.04473l1.58657,-1.58657c0.39759,-0.39732 0.61646,-0.9259 0.61646,-1.48785v-0.55001c0,-3.09746 2.52006,-5.61753 5.61753,-5.61753h26.50053c0.37372,0 0.67802,-0.3043 0.67802,-0.67802c0,-0.37372 -0.3043,-0.67802 -0.67802,-0.67802h-9.94546c-3.58916,0 -6.50899,-2.91982 -6.50899,-6.50899c0,-2.6337 1.57328,-4.90561 3.82864,-5.92915c-2.04762,-0.20286 -4.12317,-0.30863 -6.22314,-0.30863c-30.09132,0 -55.29223,21.32643 -61.2908,49.65789h7.40397c4.20237,0 8.15305,1.63647 11.12467,4.60782l2.38148,2.38148c1.01676,1.01676 2.36873,1.5768 3.80667,1.5768c2.98139,0 5.78405,1.16104 7.89188,3.26887l0.05234,0.05207c2.98627,2.98627 4.63087,6.95675 4.63087,11.18027v4.85082c0,5.14536 -2.00368,9.98262 -5.64194,13.62114l-5.19363,5.19363c-3.42915,3.42915 -5.31757,7.9887 -5.31757,12.83817v1.47076c10.88059,9.10716 24.8863,14.59831 40.15205,14.59831c34.54483,0 62.64901,-28.10418 62.64901,-62.64901z"/><path d="M402.04382,315.19425v-5.56139c0,-1.49788 1.2142,-2.71208 2.71208,-2.71208c1.49788,0 2.71208,1.2142 2.71208,2.71208v5.56139c0,1.49788 -1.2142,2.71208 -2.71208,2.71208c-1.49788,0 -2.71208,-1.2142 -2.71208,-2.71208z"/><path d="M478.59685,383.6726c-4.18718,11.23126 -11.59549,20.83988 -21.42406,27.78741c-10.05232,7.10537 -21.89434,10.86133 -34.24596,10.86133c-1.49788,0 -2.71208,-1.2142 -2.71208,-2.71208c0,-1.49788 1.2142,-2.71208 2.71208,-2.71208c22.42672,0 42.75646,-14.11339 50.58759,-35.11952c0.52289,-1.4035 2.08477,-2.11732 3.48855,-1.59389c1.4035,0.52343 2.11705,2.08532 1.59389,3.48882z"/><path d="M411.72567,418.56973c-0.30863,1.23128 -1.41408,2.05304 -2.62855,2.05304c-0.21832,0 -0.44017,-0.02658 -0.66175,-0.08218c-2.90138,-0.72765 -5.77076,-1.68501 -8.52813,-2.84524c-1.38045,-0.58093 -2.02891,-2.17129 -1.44798,-3.55174c0.58093,-1.38045 2.17075,-2.02945 3.55174,-1.44798c2.50406,1.05337 5.10956,1.92286 7.74407,2.58353c1.45286,0.36423 2.3351,1.83743 1.9706,3.29056z"/></g></g></g></svg>