<svg version="1.1" xmlns="http://www.w3.org/2000/svg" xmlns:xlink="http://www.w3.org/1999/xlink" width="287.1324" height="63.72111" viewBox="0,0,287.1324,63.72111"><g transform="translate(-99.14447,-148.60131)"><g data-paper-data="{&quot;isPaintingLayer&quot;:true}" fill="none" fill-rule="nonzero" stroke="#0000ff" stroke-width="3" stroke-linecap="butt" stroke-linejoin="miter" stroke-miterlimit="10" stroke-dasharray="" stroke-dashoffset="0" style="mix-blend-mode: normal"><path d="M171.87666,179.58135c-4.32794,10.81984 -9.93063,30.14307 -17.41971,29.89249c-7.19063,-0.24059 -14.07624,-19.50824 -18.2317,-29.89689c-4.18502,-10.46254 -11.84934,-29.33582 -19.18845,-29.47564c-7.53791,-0.14361 -12.09395,18.72968 -16.39233,29.47564"/><path d="M242.5974,179.966c-4.32794,10.81984 -9.93063,30.14307 -17.41971,29.89249c-7.19063,-0.24059 -14.07624,-19.50824 -18.2317,-29.89689c-4.18502,-10.46254 -11.84934,-29.33582 -19.18845,-29.47564c-7.53791,-0.14361 -12.09395,18.72968 -16.39233,29.47564"/><path d="M313.62304,180.54292c-4.32794,10.81984 -9.93063,30.14307 -17.41971,29.89249c-7.19063,-0.24059 -14.07624,-19.50824 -18.2317,-29.89689c-4.18502,-10.46254 -11.84934,-29.33582 -19.18845,-29.47564c-7.53791,-0.14361 -12.09395,18.72968 -16.39233,29.47564"/><path d="M384.77688,180.92752c-4.32794,10.81984 -9.93063,30.14307 -17.41971,29.89249c-7.19063,-0.24059 -14.07624,-19.50824 -18.2317,-29.89689c-4.18502,-10.46254 -11.84934,-29.33582 -19.18845,-29.47564c-7.53791,-0.14361 -12.09395,18.72968 -16.39233,29.47564"/></g></g></svg>