<svg version="1.1" xmlns="http://www.w3.org/2000/svg" xmlns:xlink="http://www.w3.org/1999/xlink" width="145.72099" height="198.28173" viewBox="0,0,145.72099,198.28173"><g transform="translate(-167.13951,-80.73414)"><g data-paper-data="{&quot;isPaintingLayer&quot;:true}" fill-rule="nonzero" stroke-linecap="butt" stroke-linejoin="miter" stroke-miterlimit="10" stroke-dasharray="" stroke-dashoffset="0" style="mix-blend-mode: normal"><path d="M220.25993,197.15057c-0.35622,-1.78535 0.80526,-3.52466 2.59099,-3.88127l13.84882,-2.77239v-13.79584c0,-1.82171 1.47516,-3.30034 3.30034,-3.30034c1.82519,0 3.30034,1.47863 3.30034,3.30034v12.47577l12.55507,-2.51171c1.80546,-0.35313 3.52506,0.80527 3.88476,2.591c0.35622,1.78535 -0.80527,3.52467 -2.591,3.88127l-33.00456,6.60107c-0.21776,0.04641 -0.43899,0.06614 -0.65017,0.06614c-1.54129,0 -2.92092,-1.08568 -3.23459,-2.65404z" fill="#ca974d" stroke="none" stroke-width="1"/><path d="M220.25993,223.55484c-0.35622,-1.78573 0.80526,-3.52505 2.59099,-3.88475l33.00457,-6.60107c1.80546,-0.3628 3.52506,0.80526 3.88476,2.59099c0.35622,1.78535 -0.80527,3.52467 -2.591,3.88127l-33.00456,6.60107c-0.21776,0.04641 -0.43899,0.06614 -0.65017,0.06614c-1.54129,0 -2.92092,-1.08606 -3.23459,-2.65366z" fill="#ca974d" stroke="none" stroke-width="1"/><path d="M220.19766,146.99722c0,-10.92133 8.88148,-19.80281 19.80281,-19.80281c10.92133,0 19.80282,8.88148 19.80282,19.80281c0,10.92133 -8.88148,19.80282 -19.80282,19.80282c-10.92133,0 -19.80281,-8.88187 -19.80281,-19.80282zM226.79873,146.99685c0,7.28063 5.92112,13.20175 13.20175,13.20175c7.28063,0 13.20175,-5.92074 13.20175,-13.20175c0,-7.28063 -5.92073,-13.20175 -13.20175,-13.20175c-7.28101,0 -13.20213,5.92112 -13.20175,13.20175z" fill="#000000" stroke="none" stroke-width="1"/><path d="M240.00048,133.7451c7.28102,0 13.25175,5.97112 13.25175,13.25175c0,7.28101 -5.97112,13.25175 -13.25175,13.25175c-7.28063,0 -13.25175,-5.97112 -13.25175,-13.25175c-0.00038,-7.28063 5.97074,-13.25175 13.25175,-13.25175z" data-paper-data="{&quot;noHover&quot;:false,&quot;origItem&quot;:[&quot;Path&quot;,{&quot;applyMatrix&quot;:true,&quot;segments&quot;:[[[453.59746,293.99369],[-0.00076,-14.56126],[0,14.56126]],[[480.00096,320.39719],[-14.56126,0],[14.56126,0]],[[506.40446,293.99369],[0,14.56202],[0,-14.56126]],[[480.00096,267.59019],[14.56204,0],[-14.56202,0]]],&quot;closed&quot;:true,&quot;fillColor&quot;:[0,0,0]}]}" fill="#dcdcdc" stroke="none" stroke-width="0.5"/><path d="M231.13562,106.49042c-0.93754,-0.88107 -1.27403,-2.22433 -0.86482,-3.44228l6.60107,-19.80281c0.57745,-1.72965 2.42894,-2.67029 4.17174,-2.08935c1.72926,0.57784 2.66333,2.44596 2.08588,4.17522l-4.34657,13.05322l9.89483,-3.96056c1.18508,-0.47186 2.55155,-0.21775 3.4887,0.66331c0.93754,0.88455 1.27403,2.22782 0.86482,3.44577l-6.60106,19.80281c-0.45872,1.38311 -1.7459,2.2576 -3.129,2.2576c-0.34346,0 -0.69658,-0.0526 -1.04313,-0.16824c-1.72926,-0.57784 -2.66332,-2.44596 -2.08587,-4.17522l4.34656,-13.05322l-9.89483,3.96056c-1.19165,0.47186 -2.55464,0.21775 -3.48831,-0.6668z" fill="#00fffc" stroke="#000000" stroke-width="0.5"/><path d="M220.25993,210.3527c-0.35622,-1.78573 0.80526,-3.52506 2.59099,-3.88476l33.00457,-6.60106c1.80546,-0.34965 3.52506,0.80526 3.88476,2.59099c0.35622,1.78535 -0.80527,3.52467 -2.591,3.88127l-33.00456,6.60107c-0.21776,0.04641 -0.43899,0.06614 -0.65017,0.06614c-1.54129,0 -2.92092,-1.08568 -3.23459,-2.65366z" fill="#ca974d" stroke="none" stroke-width="1"/><path d="M311.45537,93.39349l-16.32727,13.99734h7.58115c1.40283,0 2.65017,0.88455 3.11237,2.20809c0.46529,1.32354 0.04293,2.7956 -1.0497,3.67009l-33.00456,26.40389c-0.61072,0.4854 -1.33669,0.72288 -2.05957,0.72288c-0.97042,0 -1.92729,-0.42236 -2.58094,-1.24077c-1.13866,-1.42255 -0.90776,-3.49837 0.51479,-4.63703l25.6578,-20.52569h-7.09266c-1.38272,0 -2.6173,-0.86134 -3.09573,-2.1551c-0.47844,-1.29376 -0.10211,-2.75267 0.95069,-3.65037l23.10316,-19.80281c1.38272,-1.1816 3.46549,-1.0265 4.65018,0.35661c1.18817,1.3862 1.0265,3.46859 -0.3597,4.65289z" fill="#00fffc" stroke="#000000" stroke-width="0.5"/><path d="M286.2064,269.11446v6.60107c0,1.82171 -1.47516,3.30034 -3.30034,3.30034c-1.82518,0 -3.30034,-1.47863 -3.30034,-3.30034v-6.60107c0,-1.9737 -1.32663,-3.30034 -3.30034,-3.30034h-72.61019c-2.14195,0 -3.30034,1.69948 -3.30034,3.30034v6.60107c0,1.82171 -1.47516,3.30034 -3.30034,3.30034c-1.82519,0 -3.30034,-1.47863 -3.30034,-3.30034v-6.60107c0,-5.55136 4.34656,-9.90141 9.90141,-9.90141h33.00456c0,-1.82171 1.47516,-3.30034 3.30034,-3.30034c1.82519,0 3.30034,1.47863 3.30034,3.30034h33.00456c5.6438,0 9.9014,4.25761 9.90102,9.90141z" fill="#000000" stroke="none" stroke-width="1"/><path d="M220.25993,236.75658c-0.35622,-1.78573 0.80526,-3.52506 2.59099,-3.88476l33.00457,-6.60107c1.80546,-0.3597 3.52506,0.80526 3.88476,2.59099c0.35622,1.78535 -0.80527,3.52467 -2.591,3.88128l-33.00456,6.60107c-0.21776,0.04641 -0.43899,0.06614 -0.65017,0.06614c-1.54129,0 -2.92092,-1.08567 -3.23459,-2.65365z" fill="#ca974d" stroke="none" stroke-width="1"/><path d="M220.25993,249.95833c-0.35622,-1.78573 0.80526,-3.52505 2.59099,-3.88475l33.00457,-6.60107c1.80546,-0.3597 3.52506,0.80526 3.88476,2.591c0.35622,1.78535 -0.80527,3.52467 -2.591,3.88128l-33.00456,6.60107c-0.21776,0.04641 -0.43899,0.06614 -0.65017,0.06614c-1.54129,0 -2.92092,-1.08568 -3.23459,-2.65366z" fill="#ca974d" stroke="none" stroke-width="1"/><path d="M193.79378,130.49436c0,1.3336 -0.80217,2.53801 -2.03636,3.04971c-0.4092,0.16863 -0.83814,0.25102 -1.26398,0.25102c-0.85825,0 -1.70297,-0.33649 -2.3334,-0.96693l-19.80282,-19.80282c-1.29028,-1.29027 -1.29028,-3.37614 0,-4.66681c1.29028,-1.29067 3.37615,-1.29067 4.66682,0l14.16906,14.16868v-25.03741c0,-1.36996 0.8482,-2.59758 2.12533,-3.08607c1.28718,-0.48192 2.73255,-0.12879 3.64031,0.89113l26.40388,29.70422c1.21138,1.36338 1.08916,3.44925 -0.27383,4.66372c-1.36337,1.20132 -3.44925,1.08605 -4.65715,-0.27384l-20.63786,-23.2188z" fill="#00fffc" stroke="#000000" stroke-width="0.5"/></g></g></svg>