<svg version="1.1" xmlns="http://www.w3.org/2000/svg" xmlns:xlink="http://www.w3.org/1999/xlink" width="329.66566" height="215.94775" viewBox="0,0,329.66566,215.94775"><g transform="translate(-148.91364,-76.94175)"><g data-paper-data="{&quot;isPaintingLayer&quot;:true}" fill-rule="nonzero" stroke="none" stroke-width="1" stroke-linecap="butt" stroke-linejoin="miter" stroke-miterlimit="10" stroke-dasharray="" stroke-dashoffset="0" style="mix-blend-mode: normal"><path d="" fill="#fff6f8"/><g><path d="M281.37253,204.39972l-0.08015,1.67674c-0.05156,4.49332 -0.75399,8.89602 -2.10771,13.20729c-0.64322,2.72314 -3.02522,6.32876 -7.14236,10.81725c-1.74682,2.0062 -6.29895,5.87121 -13.65799,11.59419l-18.06593,7.26198l-8.90528,-3.15854l-27.54194,-12.46538l-4.97262,-20.5168l3.87466,-13.7176l18.30397,1.18979l42.20163,-0.50185l18.09372,4.61294" fill="#f3f3f3"/><path d="M317.1725,220.35392l-15.1841,-7.7312l0.08136,-2.94467l2.9491,-10.16153l2.12301,-10.48214l6.20511,-3.02724l7.67442,5.36895l-0.32182,18.51422l-3.52707,10.46361" fill="#f3f3f3"/><path d="M298.02674,260.36165l12.24346,6.85115l2.39206,8.61327l-6.50718,11.06858l-7.65992,2.59667c-8.68417,-1.38513 -12.98577,-2.02031 -12.90441,-1.90592l-3.62615,-0.89375l-7.26842,3.7486l-9.12077,1.06734l-12.44243,-2.39246l-13.23307,-6.39844l-4.93395,3.6479l-9.50743,3.23345l-6.61271,1.49147l-7.97649,0.09264l-7.89192,-1.31747l-5.39352,-2.66796l-12.04167,2.54512l-11.03433,-3.43283l-6.4657,-5.18287l0.67908,-9.83085l4.95409,-5.5796l8.0361,-5.77051l-4.22185,-16.37992l120.53714,16.79639" fill="#f3f3f3"/><path d="M306.46119,168.31982l-3.26446,-11.82055l-3.13236,-1.27034c-3.78807,-1.39923 -8.09209,-2.03762 -12.91045,-1.91477c-2.65306,-0.04834 -9.35196,1.23933 -20.09268,3.86459l-20.0963,-12.62489c-3.18714,-1.60021 -5.54013,-2.3538 -7.05697,-2.25915c-1.52892,-0.06283 -3.41268,0.50226 -5.6533,1.69325l-14.29196,10.7242c-1.72306,1.11971 -3.75948,2.00137 -6.11046,2.645c-1.84026,0.41969 -4.10988,0.65652 -6.80926,0.7113c-4.95651,-1.90552 -10.79348,-3.25601 -17.51011,-4.0543c-3.94756,-0.07331 -8.21574,0.58362 -12.80492,1.97036l-2.89351,12.89716c-4.10183,-0.3351 -7.61038,-0.94974 -10.52524,-1.8447c-4.6931,-1.7581 -7.4094,-3.3128 -8.14848,-4.66571l-5.4644,-7.61763c-0.14258,-0.32181 -0.00362,-1.18576 0.41566,-2.59426c1.75649,-3.60078 5.98962,-10.41729 12.69899,-20.44994l11.92044,-29.21908c1.17771,-2.5717 2.65105,-4.87999 4.42123,-6.92687c3.17545,-3.17666 6.39602,-5.2018 9.66169,-6.0742c2.92815,-1.04882 8.78084,-2.10851 17.55844,-3.17908c10.45959,-4.87072 18.04941,-7.59185 22.77272,-8.16177c5.06365,-0.55703 10.39554,-0.37458 15.99528,0.54817c4.84413,0.78903 12.95918,3.0224 24.34434,6.70132c8.64067,0.20622 14.39305,0.6682 17.25636,1.38352c4.78332,1.21879 8.42317,3.06549 10.92036,5.53932l3.20888,3.34663l7.71067,13.50655l10.96748,27.48193c5.14017,6.93291 8.09934,12.04933 8.8779,15.34883c1.01136,4.1409 -2.24062,9.11876 -9.75433,14.93639l-12.21124,1.37869" fill="#ff9c36"/><path d="M278.11733,204.48753l10.52967,-2.07347l3.79773,20.99609l10.84785,-13.56294c3.62656,3.84164 8.80057,6.3936 15.52323,7.65468c-0.1454,1.60665 -2.27042,4.73176 -6.37306,9.37572c-2.64057,2.72435 -6.03312,5.62793 -10.17683,8.71075c1.51966,5.43661 1.54664,11.508 0.07813,18.21375c-1.31666,4.13365 -4.31409,7.59346 -8.99107,10.37903c-0.52481,0.2751 -1.86443,0.51152 -4.01805,0.71008c-1.2498,-0.0294 -3.48318,-0.2614 -6.70132,-0.69599c-0.7113,-0.03866 -1.45481,0.01813 -2.23015,0.16997l-2.20558,0.92758c-2.295,1.77461 -4.49252,3.2391 -6.59298,4.39384c-1.2937,0.56831 -2.6736,0.91912 -4.13848,1.05244c-1.93129,0.12647 -3.99993,0.06606 -6.2043,-0.18165c-9.84375,-1.63163 -17.11217,-2.61761 -21.80647,-2.95836c-2.80773,-0.05961 -5.85591,0.05195 -9.14293,0.3343l-5.40721,0.67303c-1.73313,0.62228 -4.33866,1.23168 -7.81861,1.82859c-1.20751,0.14742 -2.56001,0.12445 -4.05631,-0.06848c-4.96456,-1.70977 -8.76754,-4.10988 -11.40811,-7.20156c-4.12237,0.80917 -7.19712,1.13582 -9.22307,0.97994c-3.82835,-0.16836 -6.63124,-0.92758 -8.41028,-2.27727c-4.45264,-4.11996 -6.81812,-9.42647 -7.09684,-15.91956c-0.47567,-6.92728 3.42275,-13.9057 11.69407,-20.93568l5.72661,-25.40725l7.85607,2.9491c-0.90744,4.02731 -0.49299,9.81918 1.24457,17.37397l3.03529,5.93404l11.96313,13.43285l22.53348,8.9657c3.99751,-0.96424 9.74185,-3.31481 17.23058,-7.05133c5.44829,-3.74779 9.76238,-7.5266 12.94227,-11.33642c1.54141,-1.81368 2.35823,-2.92332 2.45288,-3.32931l3.22339,-9.17273c1.14549,-3.23989 1.59095,-7.25593 1.33519,-12.04851l-0.01249,-0.83495" fill="#ff9c36"/><path d="M302.9752,156.63339l0.47325,0.71452c2.96118,4.10344 4.29234,8.93952 3.99228,14.50744c-0.38867,7.23499 -2.2962,12.9906 -5.72137,17.26885c-1.93451,2.81779 -6.44153,6.69487 -13.52307,11.63084l-25.574,6.9885l-32.77958,2.09522c-19.25572,-5.18528 -31.47018,-9.19408 -36.64419,-12.02556c-5.24087,-2.17577 -9.63228,-5.80394 -13.17386,-10.88652c-1.8306,-2.84961 -3.3559,-7.04529 -4.5763,-12.58662l1.40447,-17.9161l3.49284,-1.07137c1.76374,-0.5518 4.26173,-0.78863 7.49276,-0.71049l3.64105,0.35484c8.05906,1.34123 12.79486,2.05293 14.20778,2.13348c2.91889,0.24408 5.27389,0.14943 7.06301,-0.28355c2.48792,-0.56831 5.09024,-1.64774 7.80532,-3.23587c3.03126,-1.64452 8.64067,-5.10996 16.82942,-10.39634l28.91499,12.88669l22.49441,-1.68802l14.18079,2.22008" fill="#f3f3f3"/><path d="M230.21889,189.45205l0.24328,-0.29604c1.14468,-1.50758 2.49558,-2.68085 4.05349,-3.52103c1.92605,-0.9743 3.71799,-1.41373 5.37378,-1.31988c1.50959,0.11358 2.86653,0.61946 4.07202,1.51764c1.33398,1.01901 2.71066,2.60553 4.12962,4.75875l-3.64106,2.68488l-6.65581,0.66175l-7.57533,-4.48607" fill="#e15353"/><path d="M294.20041,114.48412l-5.7987,-8.40464l-1.55913,-1.62479c-4.18319,-4.22548 -8.4135,-7.77954 -12.69054,-10.66258c-5.23805,-3.46747 -9.52354,-5.80838 -12.85688,-7.02273l-2.92413,-1.09191c-1.96432,-0.67464 -3.95724,-1.24256 -5.98157,-1.70252c-2.02272,-0.46077 -4.07565,-0.8144 -6.15878,-1.06211c-11.24619,-1.03311 -21.08148,0.07532 -29.50868,3.32528c-4.8969,1.48784 -13.11465,7.22492 -24.65447,17.21327c2.31473,-3.93588 5.76367,-8.18997 10.34802,-12.76103c2.47463,-2.24264 5.97311,-4.42123 10.49543,-6.53578c4.89046,-2.2378 9.84575,-3.85331 14.86751,-4.84937c2.51048,-0.49823 5.03666,-0.84059 7.57936,-1.02788l3.82754,-0.16513c2.55921,-0.03101 5.13494,0.09183 7.72597,0.37014l20.00447,5.94935l7.66797,3.25319c7.56124,6.07823 12.00824,10.28639 13.34262,12.62488c1.90834,2.36629 3.86863,6.68037 5.88128,12.94227l0.3927,1.23208" fill="#fff4e8"/><path d="M206.80375,86.54223l-14.64478,5.32988c-4.55253,2.27365 -8.09612,4.7958 -10.63036,7.56727c-1.78267,1.83946 -3.96167,5.23161 -6.53739,10.17482c-0.69639,0.96424 -2.89633,6.44113 -6.59982,16.43269c-0.99122,2.19511 -1.70494,3.59232 -2.14154,4.19044c-1.5837,2.53948 -4.24481,5.3625 -7.98374,8.4715c8.9222,-19.73019 14.83489,-33.04662 17.73807,-39.95013l11.35092,-9.25087l19.44865,-2.96561" fill="#fff4e8"/><path d="M283.16365,87.54553l0.79386,-0.07411c3.74698,-0.59086 7.17014,0.2763 10.26867,2.60473l4.5481,3.76552l8.17385,11.67918l10.31177,27.77152l4.95651,7.8331c3.24996,3.38006 5.27631,5.89899 6.07823,7.5568c1.03834,1.76656 1.02586,4.19367 -0.03585,7.28172c-5.928,-7.65468 -10.06688,-13.86905 -12.41665,-18.6423c-1.13421,-2.1218 -2.54149,-5.15105 -4.22226,-9.08694c-5.17521,-13.10821 -8.14486,-20.50834 -8.90771,-22.20038c-0.70203,-1.76011 -1.98083,-4.19245 -3.83479,-7.295c-1.3082,-2.09924 -3.06952,-4.00275 -5.28437,-5.7105c-1.10722,-0.85348 -2.32802,-1.6578 -3.66241,-2.41381c-0.52481,-0.43902 -2.78073,-1.46206 -6.76697,-3.06952" fill="#fff4e8"/><path d="M196.76506,201.74384l-0.50829,1.67553c-1.95102,6.6256 -3.02321,10.83054 -3.21694,12.61522c-0.48252,2.74892 -0.66619,5.00484 -0.54857,6.76939c0.11963,2.73845 0.28436,4.50661 0.49581,5.3037c0.22797,1.33438 0.53327,2.77268 0.91671,4.3157c0.76809,3.08443 1.84872,6.58452 3.24272,10.50027c2.59626,6.5237 4.474,10.73105 5.63075,12.62126c1.40245,2.6885 3.07678,5.25295 5.02257,7.69375c1.97761,2.52055 5.97311,4.56662 11.98448,6.13743l-14.02291,-2.54149l-5.2453,-6.15314l-5.91108,-14.11031l-2.70058,-8.49285l-3.50572,-12.70907l0.11358,-7.96723l3.0365,-12.16894l5.2163,-3.48922" fill="#fff4e8"/><path d="M183.15137,230.69066l-0.13533,0.58684c-0.41405,1.81771 -0.82367,3.45136 -1.22966,4.90013c-0.23119,0.81562 -0.67464,2.18182 -1.33035,4.0986c-0.24529,0.82568 -0.39471,1.36621 -0.44828,1.62156c-0.34921,1.49186 -0.46198,3.08322 -0.33712,4.77526c0.04431,0.58321 0.10835,1.1628 0.19172,1.73957c0.08378,0.57677 0.18688,1.14992 0.31013,1.72024l0.19897,0.85267c0.28516,1.1338 0.64887,2.25431 1.09111,3.36194c0.59852,1.60948 1.91961,3.97777 3.96327,7.10449l-5.18488,-2.20477l-2.55599,-6.72589l-0.26261,-7.03803l0.30087,-6.38394l1.99171,-4.2722l3.43645,-4.13647" fill="#fff4e8"/><path d="M283.89388,203.63043l4.47358,-1.86403c1.04559,5.80193 2.2954,12.91126 3.75021,21.32919l-1.48583,8.30153l-3.80176,13.87589l-2.80651,8.07759l-4.84938,8.94718c0.43943,-2.2527 1.09513,-5.056 1.96754,-8.41069c0.2896,-1.09997 1.59618,-5.39634 3.92018,-12.88951c0.493,-1.65983 0.93846,-3.2846 1.3364,-4.87354c0.95175,-4.02812 1.52369,-7.19229 1.7158,-9.49172c0.21427,-2.4996 0.29684,-4.30684 0.2473,-5.42172c-0.02377,-1.42058 -0.12687,-2.75818 -0.31255,-4.01403c-0.47125,-3.0941 -1.53939,-6.78227 -3.20445,-11.06656l-0.95054,-2.4996" fill="#fff4e8"/><path d="M292.66827,263.65028l0.50628,-0.62913c0.81038,-0.96625 1.77542,-2.25109 2.89553,-3.85452c0.47728,-0.67908 1.01337,-1.59458 1.60746,-2.74691c1.05687,-2.24948 1.7001,-4.43814 1.93009,-6.56558c0.30933,-2.40697 0.29282,-5.06405 -0.05075,-7.97207c-0.19454,-1.77703 -0.85992,-5.77937 -1.99613,-12.00582l4.05953,5.51878l1.64371,8.805l-1.05607,8.5589l-2.94064,5.73668l-6.59901,5.15467" fill="#fff4e8"/><path d="M305.78695,176.77038l-1.76616,9.85744l-6.27961,8.58266l-8.56212,5.93525l-24.47323,7.68247l-20.67106,1.17046l-11.72589,0.20421l-19.46194,-3.86138l-10.50469,-3.52949l-16.37751,-8.50453l-5.25255,-5.50388l-6.34607,-12.01871c5.71775,7.35058 14.54812,13.46426 26.49031,18.34022c5.87201,2.39609 12.2648,4.35518 19.1804,5.87604c6.94258,1.51483 13.78164,2.31191 20.51478,2.38924c14.19086,0.02376 29.07691,-2.77147 44.65693,-8.38691c7.81055,-3.65838 12.438,-6.21558 13.88032,-7.66918c1.7138,-1.31062 3.80781,-4.54931 6.28244,-9.71728l0.41566,-0.84662" fill="#c1c1c1"/><path d="M271.31854,226.40637l-10.9989,13.05867l-9.02612,5.45313l-12.07308,4.20857l-18.64633,-8.2971l-4.17271,-2.88506c-2.91929,-2.1504 -4.88361,-4.01564 -5.89296,-5.59531c-1.01136,-1.31746 -2.11657,-3.65797 -3.31602,-7.02031c2.83551,2.33769 4.99678,3.9665 6.48462,4.88441l14.03942,8.0361c3.59957,1.94055 7.21244,2.99098 10.84101,3.15088c2.4118,-0.01007 4.49533,-0.24206 6.25061,-0.69558c2.90358,-0.70727 5.56349,-1.63646 7.98052,-2.78718c1.23006,-0.5228 2.97245,-1.47455 5.22677,-2.85605l2.36629,-1.64371c2.55921,-2.02192 4.19447,-3.24997 4.90576,-3.68295c1.3807,-0.90946 3.18834,-1.91679 5.42252,-3.0232l0.60859,-0.3053" fill="#c1c1c1"/><path d="M312.08268,272.67761l-0.174,6.9893l-7.56929,9.23073l-9.17595,0.2465l-13.5722,-1.64733l-6.70011,2.77187l-16.68804,0.94611l-17.99787,-7.90762c-5.96384,2.98534 -10.47408,4.8973 -13.5291,5.73627c-3.04294,0.95538 -7.67844,1.73515 -13.90932,2.3385c-7.41906,-2.43999 -12.45492,-3.71517 -15.10878,-3.82513c-2.7602,-0.32423 -5.96706,0.32262 -9.6198,1.94136l-12.01227,-2.81175l-6.25102,-4.10465l-1.80159,-8.7325l4.55776,-9.14574l4.87072,-1.32069c-6.61391,9.29476 -7.2362,15.46 -1.86644,18.49529c2.20478,1.33962 5.13252,2.23417 8.78405,2.68407c2.27566,0.32866 6.11972,0.19615 11.53297,-0.39632l-2.94265,-4.476l2.94708,-6.48785c0.32262,3.25682 2.01346,6.33641 5.07372,9.23959c2.10771,2.03158 3.81304,3.36959 5.11319,4.01322c1.32915,0.74593 2.7469,1.17529 4.25569,1.28726c2.06823,0.13493 4.81312,-0.22394 8.23507,-1.0762c4.38941,-1.04922 10.99688,-2.91567 19.82081,-5.59934l2.66031,0.38586c3.50049,1.51442 6.41535,2.4847 8.74659,2.91043c2.66957,0.53005 6.09394,0.86596 10.27391,1.00774c2.99421,0.10593 6.4959,0.11559 10.50389,0.02981l12.84319,-0.41969c1.48582,-0.79708 3.22539,-1.30861 5.2175,-1.53376c0.66901,-0.07331 1.53537,-0.1172 2.59627,-0.13251l6.95788,0.00886c0.95698,-0.01409 1.87773,-0.08458 2.76342,-0.21105c1.42984,-0.09707 2.91566,-0.82004 4.45626,-2.16852c1.33841,-1.23933 3.20768,-3.49767 5.60699,-6.77583l1.10118,-1.49026" fill="#c1c1c1"/><path d="M313.07268,216.15824l2.63453,-14.43212c0.57516,-6.3928 0.94531,-11.62883 1.11246,-15.70891c2.33245,1.37466 3.60883,2.38924 3.82955,3.04294c0.04632,0.06082 0.10915,0.2755 0.18769,0.64444c0.1164,1.14951 0.21024,1.87047 0.28153,2.1641c0.37014,1.58088 0.60496,2.68326 0.70405,3.30675c0.18044,1.23328 0.27228,2.02112 0.27429,2.36347c0.13292,1.75367 0.01449,3.9089 -0.35565,6.46609c-0.42492,2.95997 -1.28364,7.24224 -2.57572,12.84439l-6.09273,-0.69115" fill="#c1c1c1"/><path d="M262.40358,174.83304l-6.32593,6.42502l-10.28518,-2.82343l-3.67972,-5.10191l-4.62141,3.53996l-2.95634,2.85807l-6.34003,1.4528l-8.28059,-2.9652l-1.66425,-2.22935c2.96118,0.61342 5.35244,0.959 7.17337,1.03513c1.71661,0.06404 3.23144,-0.14218 4.54487,-0.61947c1.49509,-0.61665 2.61077,-1.28886 3.34503,-2.01587c0.91671,-0.73828 2.36427,-2.35219 4.34067,-4.84213c0.40962,0.82689 0.76729,1.38473 1.07057,1.67231c0.31416,0.26503 0.51434,0.39834 0.60013,0.39914c0.14621,0.05558 0.30812,0.08459 0.48332,0.08459c0.1744,-0.00121 0.36008,-0.02981 0.55784,-0.0866c0.08659,-0.00121 0.40519,-0.13493 0.95578,-0.40116c0.56106,-0.2908 1.41575,-0.85146 2.56324,-1.68359c2.45127,3.31602 5.54657,5.47689 9.28429,6.4814c1.12977,0.26381 2.27567,0.3331 3.43766,0.20904c1.33841,-0.12365 3.07677,-0.52683 5.21428,-1.20831l0.5824,-0.18044" fill="#c1c1c1"/><path d="M312.91279,216.28713l5.35445,1.98284l-3.87064,7.94387l-4.78936,4.83971l-7.53102,4.47197c-1.31585,-1.35532 -2.06541,-2.45892 -2.24908,-3.31078c-0.16997,-0.72902 0.08056,-1.454 0.75077,-2.17255c0.07209,-0.11963 0.46601,-0.48252 1.18052,-1.0899l3.00669,-2.26439l1.45078,-1.20751c0.80313,-0.67827 1.75891,-1.6703 2.86935,-2.97648c1.29733,-1.60343 2.49638,-3.52667 3.59756,-5.76931l0.22998,-0.44747" fill="#da7f24"/><path d="M260.37966,240.89287l-0.61463,0.89093c-1.84348,2.67722 -3.44289,4.71283 -4.79782,6.10602c-1.3517,1.47294 -3.21895,3.11827 -5.59974,4.93557c-0.50306,0.44305 -0.97551,0.96424 -1.41775,1.56315c-0.43942,0.60577 -0.84018,1.3356 -1.20026,2.19028l-2.12624,5.42735c-0.38546,0.85025 -0.82165,1.57242 -1.30941,2.16651c-0.6968,0.97551 -2.1065,1.98083 -4.2275,3.01636c-0.98155,-0.81441 -1.64854,-1.59659 -2.00217,-2.34735c-0.29725,-0.61422 -0.47044,-1.01256 -0.51998,-1.19543c-0.96102,-3.16377 -1.55591,-4.95731 -1.78468,-5.37982c-0.45875,-1.07016 -1.02706,-2.00862 -1.70654,-2.81618c-0.53206,-0.71008 -1.45361,-1.50797 -2.76423,-2.39327c-0.24851,-0.20985 -1.86202,-1.06292 -4.84011,-2.55922c-0.80312,-0.47406 -1.27839,-0.77251 -1.425,-0.89496c-0.7701,-0.50669 -1.79798,-1.40769 -3.08402,-2.703c-2.61359,-2.77389 -4.69753,-5.33632 -6.25143,-7.6865c-1.10641,-1.7726 -1.82415,-3.50451 -2.1508,-5.19575l7.9777,6.51403l12.29381,6.76093l7.51532,1.04761l13.165,-3.70066l6.87049,-3.74659" fill="#da7f24"/><path d="M181.7167,120.90793l-0.24206,10.85833l-8.21534,36.85645l-15.97111,-3.27574c-2.9632,-2.71186 -4.76319,-4.75835 -5.39997,-6.13905c-0.78782,-1.37668 -1.12454,-3.46666 -1.01056,-6.26915c2.42549,3.33857 5.09104,5.52764 7.99663,6.568c3.94837,1.37345 7.04609,1.39923 9.29275,0.08056c1.67633,-0.82689 3.20526,-3.0079 4.58637,-6.54142c1.23973,-3.24594 2.5,-8.72806 3.78122,-16.44598l5.18206,-15.69199" fill="#da7f24"/><path d="M295.49048,116.12864l3.88715,10.20181c2.56324,10.59652 4.59765,18.18838 6.10119,22.77595c1.53295,4.41075 3.03932,7.28453 4.5191,8.61891c1.33317,1.5547 3.39738,2.40213 6.19061,2.54351c2.62527,0.08056 6.46409,-0.64323 11.51646,-2.17135l-9.43775,8.75102l-10.97191,1.84953c-2.28049,-8.11988 -5.69559,-20.93327 -10.24289,-38.44136l-1.56195,-14.12803" fill="#da7f24"/><path d="M291.2638,234.77637l-0.41123,2.0626c-0.86314,4.19164 -1.54463,8.08122 -2.04366,11.66951c-0.31457,2.82101 -0.4507,4.42606 -0.40841,4.81594c-0.02457,0.9598 0.00645,1.82737 0.09385,2.60312c0.08982,0.76969 0.23602,1.44715 0.43821,2.03239l0.33632,0.82165c0.24932,0.50588 0.53931,0.9445 0.86918,1.31585c0.80514,0.96263 2.24465,1.79355 4.3161,2.49316l-6.05246,2.45691c-0.59933,0.15064 -1.03432,0.23602 -1.30458,0.25616c-0.80917,0.22152 -3.36435,-0.1019 -7.66394,-0.97068l11.83062,-29.55661" fill="#da7f24"/><path d="M192.01155,237.42661l8.65395,25.51882c-0.9598,0.91832 -2.3973,1.35049 -4.31288,1.29692c-1.50959,-0.00886 -4.90174,-0.63154 -10.17643,-1.86725c2.79161,-0.40237 4.72894,-0.89738 5.81159,-1.48583c0.44466,-0.22676 0.83334,-0.49622 1.16844,-0.80836l0.4507,-0.5079c0.26986,-0.3625 0.4648,-0.78379 0.58362,-1.26389c0.20622,-0.98599 0.16594,-2.16047 -0.12285,-3.52345c-0.13413,-0.67303 -0.30006,-1.36821 -0.49702,-2.08515l-1.54664,-5.3472l-0.24126,-0.99162c-0.14138,-0.64282 -0.24731,-1.25222 -0.31739,-1.82738c-0.26019,-2.02675 -0.12285,-4.18439 0.41123,-6.47294l0.13493,-0.63477" fill="#da7f24"/><path d="M265.35872,206.45064h0.0012l0.05035,-0.01128c13.44856,-3.08926 26.26193,-6.09193 32.9858,-13.34947c6.65782,-7.18786 7.52096,-18.86906 6.04923,-27.93062c-0.69358,-4.2726 -1.89585,-7.8899 -3.19841,-11.79759c-1.425,-4.27704 -2.95594,-8.86742 -3.94676,-14.86027c-0.35807,-2.16732 -0.64564,-4.51306 -0.94248,-6.94459c-0.33108,-2.70341 -0.67666,-5.52563 -1.15193,-8.40344c-1.35694,-8.20647 -3.75423,-16.71906 -9.70881,-23.76434c-10.00646,-11.83827 -30.28523,-19.81155 -47.3108,-19.91063c-0.10593,0 -0.21347,-0.00121 -0.31859,-0.00121c-16.75934,0 -30.28643,7.65187 -38.91541,15.79954c-8.63462,8.15492 -12.31757,16.76981 -14.50744,25.84668c-1.10843,4.59442 -1.8314,9.29316 -2.60876,14.35076c-0.76446,4.97383 -1.57927,10.27793 -2.8625,16.06657c-0.28154,1.26833 -0.58482,2.56002 -0.89012,3.85735c-0.31416,1.33599 -0.63034,2.67964 -0.9308,4.03457c-2.10932,9.51589 -3.30273,19.04144 2.46214,26.94987c7.55922,10.36977 27.30351,18.37485 43.80628,21.33724c5.78662,1.03956 11.12334,1.44676 16.17169,1.44676c9.21502,0 17.47628,-1.35493 25.84547,-2.73039l-0.07934,0.0145M265.92703,208.92325c-0.02578,0.00523 -0.05155,0.01007 -0.07854,0.0145c-8.34866,1.37345 -16.80365,2.76543 -26.2559,2.76543c-5.1885,0 -10.67587,-0.41969 -16.62038,-1.48703c-16.61998,-2.98414 -37.23425,-11.12859 -45.40689,-22.33974c-6.4951,-8.90972 -4.99317,-19.49899 -2.88868,-28.99232c0.3045,-1.37345 0.62429,-2.7324 0.93805,-4.06679c0.3057,-1.30015 0.60577,-2.57654 0.88288,-3.82633c1.26269,-5.69559 2.06622,-10.92236 2.83189,-15.90264c0.77453,-5.03787 1.512,-9.84375 2.64983,-14.55981c2.27002,-9.40996 6.14429,-18.5134 15.23122,-27.09526c8.98302,-8.48198 23.10582,-16.49149 40.657,-16.49149c0.11036,0 0.22273,-0.00001 0.33309,0.0012c17.58623,0.1011 38.64233,8.28059 49.23282,20.80961c6.39481,7.56607 8.89119,16.61917 10.27391,24.98757c0.48655,2.93742 0.83817,5.8124 1.16804,8.50856c0.29805,2.44361 0.57838,4.73378 0.92718,6.83907c0.95457,5.77656 2.4259,10.19859 3.8509,14.4728c1.29612,3.89118 2.56445,7.69093 3.29548,12.1915c1.51482,9.33142 0.76607,22.00987 -6.69286,30.06169c-7.37556,7.95998 -21.13747,11.07905 -34.2787,14.09702zM265.92703,208.92325" fill="#000000"/><path d="M270.37806,85.41849l-1.19099,-1.26632c11.57204,0.70042 23.85134,1.38071 32.09085,10.55343c5.52482,6.15032 9.14172,16.0561 12.42874,25.00609c1.56437,4.2585 3.05824,8.32086 4.65644,11.79678c2.35017,5.10916 4.94322,8.97658 7.11577,12.21648c1.50032,2.2374 2.85606,4.25207 3.72523,6.14026c0.52884,1.15072 0.90423,2.30747 1.0166,3.49646c0.56428,5.9288 -5.40399,11.06455 -10.07454,13.60523c-4.93516,2.68488 -9.30282,3.0075 -13.42599,3.32207c-0.69801,0.05357 -1.3074,-0.46923 -1.36097,-1.16724c-0.05277,-0.69881 0.47003,-1.30739 1.16804,-1.36096c4.11915,-0.31456 7.99422,-0.62068 12.40739,-3.022c4.67578,-2.5439 9.16024,-6.94781 8.76189,-11.13704c-0.07814,-0.81762 -0.34316,-1.69083 -0.79668,-2.67682c-0.76526,-1.66305 -1.98929,-3.49404 -3.52667,-5.78743c-2.17658,-3.24392 -4.87072,-7.25875 -7.31354,-12.5689c-1.64976,-3.58507 -3.17786,-7.74892 -4.73257,-11.98246c-3.34704,-9.11191 -6.80845,-18.47716 -11.93614,-24.18645c-7.42389,-8.26528 -18.53677,-9.00034 -30.35651,-9.71607c-0.67021,-0.04027 -1.1918,-0.59489 -1.1918,-1.2651c0,-0.70002 0.5671,-1.26833 1.26833,-1.26833c0.70002,0 1.26712,0.56831 1.26712,1.26833zM270.37806,85.41849" fill="#000000"/><path d="M211.32929,85.58363c0,0.67021 -0.52159,1.22483 -1.191,1.26592c-11.82055,0.71452 -22.93262,1.44998 -30.35692,9.71526c-5.12849,5.70889 -8.58951,15.07534 -11.93574,24.18645c-1.5551,4.23354 -3.08362,8.3982 -4.73297,11.98327c-2.44281,5.30893 -5.13776,9.32538 -7.31353,12.5689c-1.53779,2.29339 -2.7614,4.12357 -3.52667,5.78662c-0.45352,0.98558 -0.71935,1.8592 -0.79708,2.67763c-0.39834,4.18842 4.08612,8.59314 8.7627,11.13705c4.41277,2.40052 8.28784,2.70663 12.40698,3.02119c0.698,0.05357 1.2208,0.66296 1.16764,1.36096c-0.05317,0.698 -0.66256,1.22081 -1.36096,1.16804c-4.12318,-0.31537 -8.49084,-0.63799 -13.4256,-3.32206c-4.67094,-2.54149 -10.63922,-7.67643 -10.07534,-13.60523c0.11318,-1.18899 0.48776,-2.34574 1.01781,-3.49767c0.86798,-1.88658 2.22411,-3.90246 3.72443,-6.13905c2.17296,-3.2407 4.76559,-7.10851 7.11577,-12.21647c1.59901,-3.47672 3.09208,-7.53828 4.65644,-11.79759c3.28702,-8.95 6.90432,-18.85577 12.42914,-25.00609c8.2391,-9.17272 20.51841,-9.8522 32.09045,-10.55222l-1.191,1.2651c0,-0.70042 0.5671,-1.26833 1.26712,-1.26833c0.70122,0 1.26833,0.56791 1.26833,1.26833zM211.32929,85.58363" fill="#000000"/><path d="M255.67568,162.90737l-0.14863,1.15998c-0.69881,2.33769 -2.74569,4.20695 -6.13985,5.60819c-3.41711,1.40044 -7.44162,1.96835 -12.07309,1.70333c-4.41961,-0.37015 -7.95515,-1.4528 -10.60498,-3.24675c-0.84985,-0.58079 -1.54865,-1.21275 -2.09844,-1.89746l-0.69277,-1.05486c-0.38062,-0.7258 -0.57314,-1.48341 -0.57757,-2.27244c0.1156,-2.42186 1.69405,-4.43775 4.73498,-6.04641c3.04173,-1.60827 6.85276,-2.4424 11.43187,-2.50322c4.58112,0.06082 8.39095,0.89495 11.43268,2.50322c3.04173,1.60867 4.62019,3.62455 4.73579,6.04641" fill="#000000"/><path d="M248.53333,158.63557l-0.08056,0.25173c-0.38021,0.5083 -1.49186,0.9155 -3.33535,1.21959c-1.85598,0.3053 -4.04222,0.42815 -6.55794,0.37135c-2.40052,-0.08056 -4.32013,-0.31658 -5.75964,-0.70646c-0.46198,-0.12688 -0.8414,-0.26381 -1.13944,-0.41244l-0.3774,-0.22998c-0.20622,-0.15749 -0.31134,-0.32262 -0.31336,-0.4938c0.06283,-0.52683 0.92073,-0.96504 2.5725,-1.31465c1.65177,-0.35041 3.72122,-0.53206 6.20914,-0.54536c2.48833,0.01329 4.55776,0.19494 6.20953,0.54536c1.65177,0.3496 2.50967,0.78782 2.5725,1.31465" fill="#ffffff"/><path d="M272.84222,145.03638l-0.02336,0.08459c-0.11358,0.17118 -0.44264,0.30852 -0.9888,0.41042c-0.55099,0.10311 -1.19946,0.1442 -1.94499,0.12486c-0.7113,-0.02698 -1.28041,-0.10633 -1.70735,-0.23723c-0.13694,-0.04229 -0.24972,-0.08861 -0.33833,-0.13936l-0.11116,-0.07734c-0.06203,-0.05236 -0.09304,-0.10794 -0.09304,-0.16594c0.01893,-0.17722 0.27227,-0.32464 0.76205,-0.44225c0.48977,-0.11841 1.1044,-0.17923 1.84148,-0.18366c0.73748,0.00443 1.35089,0.06525 1.84067,0.18366c0.48977,0.11761 0.74433,0.26503 0.76285,0.44225" fill="#000000"/><path d="M274.31073,141.06868c0,5.43097 -3.53553,9.83287 -7.89714,9.83287c-4.36161,0 -7.89634,-4.40189 -7.89634,-9.83287c0,-5.43058 3.53473,-9.83247 7.89634,-9.83247c4.36161,0 7.89714,4.40189 7.89714,9.83247zM274.31073,141.06868" fill="#000000"/><path d="M267.56953,140.02107c-0.09908,2.41824 -1.61672,4.31852 -3.38932,4.24522c-1.77341,-0.07209 -3.13034,-2.09119 -3.03166,-4.50782c0.09908,-2.41703 1.61713,-4.31732 3.39054,-4.24522c1.7722,0.07331 3.12913,2.09119 3.03045,4.50782zM267.56953,140.02107" fill="#ffffff"/><path d="M205.58818,141.44809c0,-5.43058 3.53553,-9.83327 7.89594,-9.83327c4.36162,0 7.89715,4.40269 7.89715,9.83327c0,5.42977 -3.53553,9.83287 -7.89715,9.83287c-4.36041,0 -7.89594,-4.4031 -7.89594,-9.83287zM205.58818,141.44809" fill="#000000"/><path d="M212.69751,140.15237c0.10432,-2.55438 1.46206,-4.57307 3.03045,-4.50822c1.5692,0.06404 2.75697,2.18705 2.65185,4.74102c-0.10392,2.55398 -1.46085,4.57307 -3.03045,4.50903c-1.5692,-0.06484 -2.75697,-2.18705 -2.65185,-4.74183zM212.69751,140.15237" fill="#ffffff"/><path d="M238.82653,168.21147c-0.3484,-0.02175 -0.04954,-1.95585 0.89697,-5.80112c0.1156,-0.46077 0.60214,-0.56187 1.45924,-0.30409c0.56992,0.27106 0.83817,0.4805 0.80393,0.62792c0.6106,4.86065 1.39521,8.33939 2.35299,10.43663c0.35082,0.82407 0.89214,1.64291 1.62519,2.45812c0.03826,0.11761 0.68994,0.64041 1.95385,1.56759c2.85727,1.61673 5.88772,2.00943 9.09016,1.1765c1.69205,-0.58804 3.05221,-1.32915 4.08008,-2.22411c1.58047,-1.26753 3.31199,-2.9922 5.19374,-5.17723l-1.86322,3.64992c-0.42372,0.74553 -0.82206,1.38272 -1.19624,1.91397c-2.01869,2.761 -4.29757,4.48929 -6.83504,5.18327c-2.98817,0.87442 -5.98036,0.82689 -8.979,-0.14016c-0.29362,-0.04873 -1.18254,-0.45473 -2.66836,-1.21879c-0.39271,-0.26905 -0.8289,-0.64765 -1.3082,-1.1342c-1.09192,-1.06734 -1.97278,-2.56123 -2.64178,-4.48124c-0.41365,-1.24134 -0.7117,-2.66232 -0.89295,-4.26253c-0.21549,-1.77864 -0.26703,-4.09538 -0.15587,-6.95064c0.03504,-0.32785 0.17641,-0.53931 0.42493,-0.63517c0.61987,-0.19091 1.04036,-0.21146 1.2651,-0.06484c0.12486,0.03101 0.01048,0.39673 -0.34235,1.09796c-0.91349,1.88377 -1.65056,3.28823 -2.21363,4.21299l-0.04954,0.06928" fill="#000000"/><path d="M242.40354,167.38337c-0.25375,0.03706 -0.68874,-0.41647 -1.30457,-1.36419c-0.32061,-0.42895 -0.99283,-1.47455 -2.01668,-3.1376c-0.05759,-0.09989 -0.06283,-0.19695 -0.01531,-0.28959c0.11318,-0.18769 0.32665,-0.3331 0.63799,-0.43298c0.53125,-0.12607 0.83012,-0.12486 0.89697,0.00403c0.16635,0.80917 0.3351,2.00218 0.50547,3.58104c0.44425,4.27985 0.23079,7.62085 -0.6392,10.02418c-0.60859,1.7589 -1.59941,3.25722 -2.97286,4.49454c-1.54866,1.15797 -3.40664,1.97761 -5.57517,2.46134c-3.66764,0.68149 -6.84108,0.24005 -9.52314,-1.32391c-1.31868,-0.79507 -2.50041,-1.77985 -3.54399,-2.95192c-0.53005,-0.60859 -1.0174,-1.22925 -1.46488,-1.86322l-2.23861,-3.4284c2.79846,2.65386 5.29162,4.50782 7.47746,5.56268c1.90632,0.97632 4.20051,1.21557 6.88337,0.71976c1.58813,-0.33028 3.00065,-0.93121 4.23917,-1.80361c1.28766,-1.02787 2.15483,-1.94136 2.6011,-2.74167c0.58079,-0.93927 1.02425,-2.17336 1.33035,-3.70147c0.28556,-0.86636 0.53529,-3.62857 0.74755,-8.28784c0.12486,-0.43218 0.36491,-0.79104 0.71975,-1.07459c0.59087,-0.62792 1.07943,-0.6384 1.46408,-0.02981c0.5949,1.43225 1.18777,3.26527 1.77662,5.49985l0.0145,0.08337" fill="#000000"/><path d="M230.07993,181.70433l0.00081,0.00725c0.13735,4.49252 0.36008,7.81055 3.06348,9.44701c1.42903,0.86596 3.70147,1.36097 6.12455,1.36097c2.44684,0 4.76278,-0.50427 6.21759,-1.36943c2.70582,-1.60626 2.92735,-4.77688 3.07275,-9.09822c0.02659,-0.77131 0.67223,-1.37466 1.44354,-1.34888c0.77131,0.02578 1.37546,0.67223 1.34968,1.44354c-0.1301,3.8646 -0.18366,8.87991 -4.43895,11.40609c-2.04245,1.21355 -4.91422,1.76212 -7.64461,1.76212c-2.70139,0 -5.54295,-0.5373 -7.57211,-1.76615c-4.24522,-2.57049 -4.28629,-7.74772 -4.40914,-11.75168l-0.00081,-0.00725c-0.02376,-0.7709 0.58241,-1.41533 1.35452,-1.4391c0.77051,-0.02376 1.41493,0.5824 1.4387,1.35371zM230.07993,181.70433" fill="#000000"/><path d="M195.51324,199.9938c0,0.18688 -0.03705,0.37135 -0.11035,0.54253c-3.19439,7.57654 -6.24095,14.84779 -5.09668,24.92554c1.16119,10.23403 6.63003,23.40065 12.23178,36.85202c0.18487,0.44466 0.12808,0.95336 -0.15023,1.34606c-3.84285,5.41446 -7.19311,10.24249 -7.14558,14.41319c0.04511,3.96006 3.31602,7.79444 8.15089,9.98028c3.05301,1.3803 6.63406,2.04165 10.4479,2.04165c2.10972,0 4.28106,-0.20259 6.46086,-0.59328c6.14348,-1.10077 12.31636,-3.68536 18.66807,-6.35091l-0.8567,1.27598l0.31537,-35.46689l0.96303,1.34043c-7.32602,-2.39971 -14.92109,-4.87515 -20.74155,-8.96046c-5.84825,-4.10465 -9.83449,-9.78091 -13.66726,-15.21793c-0.44547,-0.62993 -0.29483,-1.50234 0.33632,-1.947c0.62993,-0.44425 1.50234,-0.29281 1.9466,0.33753c3.87789,5.49985 7.60312,10.76005 12.98979,14.54006c5.41325,3.79975 12.57414,6.15797 20.00528,8.59233c0.57838,0.1893 0.96827,0.73144 0.96182,1.34003l-0.31537,35.46648c-0.00403,0.55824 -0.34114,1.06009 -0.85589,1.27598c-6.28848,2.63936 -12.75458,5.35969 -19.25653,6.52531c-2.33044,0.41727 -4.66692,0.63678 -6.95386,0.63678c-4.12237,0 -8.11264,-0.71291 -11.59862,-2.28976c-5.32867,-2.40898 -9.73177,-6.99252 -9.7946,-12.49478c-0.06082,-5.29161 4.04706,-10.9703 7.66112,-16.06254l-0.15063,1.34607c-5.54012,-13.30396 -11.21317,-26.89268 -12.42914,-37.61084c-1.23409,-10.87525 2.10609,-18.75386 5.29927,-26.32718l-0.11036,0.54334c0,-0.77212 0.6259,-1.39722 1.39721,-1.39722c0.77212,0 1.39802,0.6251 1.39802,1.39722zM195.51324,199.9938" fill="#000000"/><path d="M241.10017,248.56769l-1.77461,-1.34486c6.82054,-1.91639 13.37041,-3.76914 18.92584,-7.58822c5.57315,-3.82996 10.22034,-9.68626 15.02903,-15.7657c0.4785,-0.60537 1.35815,-0.70848 1.96231,-0.22878c0.60537,0.4785 0.70848,1.35694 0.22998,1.96191c-4.74505,5.99928 -9.65203,12.22171 -15.63762,16.33562c-6.0021,4.12519 -13.01436,6.08185 -19.75475,7.97528c-0.42049,0.11841 -0.8724,0.03262 -1.2208,-0.23159c-0.3496,-0.26422 -0.55381,-0.67625 -0.55381,-1.11366c0,-0.77171 0.62591,-1.39722 1.39722,-1.39722c0.77131,0 1.39721,0.62551 1.39721,1.39722zM241.10017,248.56769" fill="#000000"/><path d="M241.28787,282.10328l-0.65894,-1.18576c5.47609,3.41067 10.74072,6.67715 17.70182,8.13076c2.63533,0.55059 5.52683,0.8426 8.38692,0.8426c4.74425,0 9.25006,-0.80273 12.34013,-2.4271c4.82763,-2.53706 6.43428,-7.23056 5.81764,-11.2317c-0.62309,-4.04584 -3.52023,-7.45692 -6.80644,-11.25506c-0.34437,-0.39875 -0.4362,-0.95819 -0.23522,-1.44554c5.04955,-12.27407 9.99237,-24.31333 11.44315,-34.39994c1.4375,-9.9964 -0.55582,-18.12755 -2.62406,-26.51246c-0.18447,-0.74875 0.27307,-1.50636 1.02183,-1.69083c0.74956,-0.18487 1.50637,0.27307 1.69205,1.02263c2.06219,8.36316 4.1997,16.98207 2.67561,27.5786c-1.5104,10.5059 -6.62077,22.90282 -11.6244,35.06492l-0.23521,-1.44555c3.14887,3.64065 6.68681,7.66878 7.4549,12.65791c0.77533,5.03465 -1.27155,10.97271 -7.2797,14.13085c-3.65112,1.9184 -8.66644,2.74771 -13.64027,2.74771c-3.04294,0 -6.12576,-0.30973 -8.95805,-0.90141c-7.50968,-1.5684 -13.16419,-5.10352 -18.60725,-8.49445c-0.41043,-0.25495 -0.65894,-0.70364 -0.65894,-1.18617c0,-0.77171 0.62591,-1.39722 1.39722,-1.39722c0.77131,0 1.39722,0.62551 1.39722,1.39722zM241.28787,282.10328" fill="#000000"/><path d="M293.53141,223.38639l-0.51555,-1.08467c3.6479,2.96762 7.62165,6.16886 9.67176,11.9003c2.00218,5.60094 2.1363,13.52468 1.133,18.4248c-1.05566,5.15266 -3.40463,7.13752 -5.55665,8.94274l-0.48332,-2.40495c5.16354,1.60465 11.04079,3.36758 14.04023,7.556c3.03449,4.23676 2.97165,10.60659 0.58362,15.32627c-2.43637,4.81473 -7.28373,7.98053 -12.73605,8.7611c-0.98679,0.14137 -1.98808,0.2038 -2.99622,0.2038c-4.52555,0 -9.36767,-1.26712 -13.98182,-2.46617c-0.74755,-0.19414 -1.19503,-0.95699 -1.00129,-1.70373c0.19414,-0.74674 0.95699,-1.19502 1.70332,-1.00089c4.70398,1.22201 9.17998,2.37635 13.27979,2.37635c0.89375,0 1.76092,-0.05558 2.6003,-0.17561c4.65967,-0.66699 8.6612,-3.35066 10.63882,-7.25674c2.02513,-4.00113 1.94055,-9.22307 -0.36209,-12.43719c-2.33648,-3.26245 -7.11013,-4.8095 -12.5979,-6.51484c-0.48856,-0.15144 -0.85469,-0.55784 -0.95578,-1.05889c-0.09988,-0.50145 0.08056,-1.0174 0.47245,-1.34606c1.97116,-1.65298 3.74698,-3.12631 4.61496,-7.36186c0.91872,-4.48849 0.77533,-11.88257 -1.02667,-16.92326c-1.75608,-4.91019 -5.11762,-7.67442 -8.80379,-10.67265c-0.32584,-0.26623 -0.51555,-0.66417 -0.51555,-1.08386c0,-0.77212 0.6259,-1.39802 1.39722,-1.39802c0.77211,0 1.39722,0.6259 1.39722,1.39802zM293.53141,223.38639" fill="#000000"/><path d="M189.67104,223.44398c0,0.36532 -0.14338,0.71573 -0.39995,0.97753c-3.93065,4.01403 -7.61119,7.79806 -9.54046,12.41624c-1.92888,4.61697 -2.13187,10.16436 -1.21516,14.17476c0.89657,3.9234 2.8637,6.39078 5.0278,9.08129c0.28798,0.35807 0.38143,0.83455 0.25012,1.27478c-0.1309,0.44023 -0.47044,0.78782 -0.90744,0.93c-4.66088,1.51362 -8.78043,2.89553 -11.45644,6.60627c-2.81457,3.90286 -3.83801,9.94202 -0.99243,13.4562c2.993,3.69624 10.61142,5.37217 16.25748,5.61222c0.47648,0.02014 0.93444,0.02981 1.37104,0.02981c4.47721,0 7.05777,-1.00209 9.79138,-2.06421c0.71855,-0.27952 1.52812,0.07693 1.80845,0.79588c0.27953,0.71935 -0.07734,1.52892 -0.79588,1.80845c-2.82303,1.09715 -5.79669,2.25431 -10.80395,2.25431c-0.4785,0 -0.9743,-0.01047 -1.48985,-0.03262c-5.62592,-0.23924 -14.45991,-1.89061 -18.31042,-6.64533c-3.99792,-4.93758 -2.25713,-12.47465 0.89778,-16.84915c3.29307,-4.56703 8.34745,-6.16442 12.86011,-7.62971l-0.65732,2.20477c-2.16168,-2.6873 -4.52071,-5.59772 -5.57477,-10.21026c-1.03432,-4.52474 -0.81279,-10.67145 1.36097,-15.87445c2.17296,-5.201 6.27317,-9.36364 10.12286,-13.29429l-0.39874,0.97753c0,-0.77212 0.6255,-1.39802 1.39762,-1.39802c0.77131,0 1.39721,0.6259 1.39721,1.39802zM189.67104,223.44398" fill="#000000"/><path d="M182.89883,259.35754l0.00041,0.0004l0.01772,0.0133l-0.00041,-0.00041c1.47656,1.11689 2.75093,2.06381 4.23192,2.5709c1.50798,0.51555 3.30917,0.60496 5.3758,0.69478c0.7701,0.03343 1.36822,0.68551 1.33519,1.45642c-0.03423,0.77091 -0.68672,1.36903 -1.45683,1.33519c-1.96633,-0.08539 -4.19728,-0.17158 -6.15878,-0.8426c-1.97398,-0.67545 -3.59595,-1.91397 -5.0133,-2.98615l-0.0008,-0.0004l-0.01773,-0.0137c-0.61463,-0.4648 -0.73627,-1.34123 -0.27066,-1.95666c0.46561,-0.61543 1.34204,-0.73667 1.95747,-0.27107zM182.89883,259.35754" fill="#000000"/><path d="M201.95034,261.74276c3.57178,2.89956 6.81772,5.49783 10.43058,6.31264c0.94853,0.21347 1.94459,0.30772 2.98817,0.30772c2.90157,0 6.02265,-0.72016 9.34391,-1.49428c0.75157,-0.1748 1.50314,0.29242 1.67754,1.04399c0.17521,0.75117 -0.29201,1.50274 -1.04358,1.67754c-3.24675,0.75681 -6.69487,1.56719 -9.97787,1.56719c-1.20953,0 -2.41784,-0.10915 -3.60279,-0.37619c-4.3737,-0.98639 -8.13921,-4.07847 -11.57687,-6.86927c-0.59932,-0.48615 -0.69075,-1.3662 -0.20421,-1.96513c0.48655,-0.59933 1.3662,-0.69076 1.96512,-0.20421zM201.95034,261.74276" fill="#000000"/><path d="M280.77481,263.84724c0,0.37216 -0.14862,0.72861 -0.41244,0.99082l-0.01973,0.01893v0.00041c-2.91607,2.90036 -6.17208,6.18295 -10.48738,7.24385c-1.19502,0.29362 -2.43838,0.41083 -3.69946,0.41083c-3.30797,0 -6.9321,-0.81562 -10.35526,-1.58008c-0.75399,-0.16836 -1.22725,-0.9151 -1.0601,-1.66828c0.16796,-0.75318 0.9155,-1.22725 1.66828,-1.05929c3.50492,0.78258 6.80845,1.51321 9.74708,1.51321c1.09191,0 2.10449,-0.1019 3.03247,-0.33027c3.42517,-0.84179 6.13704,-3.48116 9.18401,-6.51162v0.00041l0.01933,-0.01933l-0.41123,0.99041c0,-0.77171 0.6247,-1.39722 1.39721,-1.39722c0.77131,0 1.39722,0.62551 1.39722,1.39722zM280.77481,263.84724" fill="#000000"/><path d="M298.85081,261.09752l-0.01652,0.01611c-1.27558,1.28404 -2.78798,2.83028 -4.52353,3.62414c-1.66627,0.76205 -3.42195,0.78943 -4.88522,0.78943c-0.1164,0 -0.22394,-0.00041 -0.33832,-0.00081h-0.01209c-0.77131,-0.00161 -1.3952,-0.62873 -1.39439,-1.40044c0.00241,-0.77171 0.62912,-1.3956 1.40124,-1.39399h0.01168c0.11439,0.00041 0.21951,0.0008 0.33188,0.0008c1.49187,0 2.67561,-0.05679 3.72323,-0.53649c1.17972,-0.53931 2.32318,-1.66183 3.70268,-3.0514l0.01652,-0.01652c0.54334,-0.54737 1.42823,-0.55059 1.97559,-0.00684c0.54737,0.54374 0.55059,1.42823 0.00725,1.976zM298.85081,261.09752" fill="#000000"/><path d="M265.05664,291.07985l-2.70985,-0.4797v-0.0008l-0.00604,0.01772c0.84542,-2.41502 1.57766,-4.54447 1.60545,-6.48543c0.02779,-1.90994 -0.62712,-3.7337 -1.40447,-5.84543c-0.26704,-0.72418 0.10432,-1.52731 0.82891,-1.79395c0.72298,-0.26664 1.52731,0.10432 1.79314,0.8285c0.74553,2.02433 1.6127,4.33625 1.57645,6.85156c-0.03584,2.48429 -0.95658,5.06888 -1.76213,7.36871l-0.00604,0.01732l-0.00121,0.00081c-0.2183,0.6255 -0.87401,1.01217 -1.54665,0.89818c-0.67102,-0.11439 -1.16199,-0.69639 -1.16199,-1.37748c0,-0.77171 0.6251,-1.39722 1.39722,-1.39722c0.77131,0 1.39722,0.62551 1.39722,1.39722zM265.05664,291.07985" fill="#000000"/><path d="M279.81984,289.10829l-2.76342,-0.2904c0.59933,-2.82101 1.12495,-5.35525 1.0158,-7.18626c-0.10109,-1.68761 -0.7548,-2.8041 -1.58491,-4.18158c-0.39794,-0.66135 -0.18367,-1.51965 0.47728,-1.91759c0.66095,-0.39794 1.52006,-0.18487 1.918,0.47648c0.82891,1.37788 1.83423,3.01797 1.97882,5.45635c0.13694,2.29499 -0.50347,5.25779 -1.07137,7.933c-0.14862,0.69961 -0.80111,1.17408 -1.51281,1.09956c-0.7113,-0.07491 -1.25181,-0.67464 -1.25181,-1.38956c0,-0.77171 0.6259,-1.39722 1.39721,-1.39722c0.77251,0 1.39722,0.62551 1.39722,1.39722zM279.81984,289.10829" fill="#000000"/><path d="M294.97494,288.69624v0.00041l-2.61802,-0.67867v-0.00041l-0.01531,0.02739c0.91228,-1.73273 1.63928,-3.1533 1.8012,-4.39182c0.15144,-1.17046 -0.19817,-2.28492 -0.68995,-3.75222c-0.24529,-0.73183 0.14943,-1.52369 0.88167,-1.76857c0.73103,-0.24529 1.52288,0.14943 1.76817,0.88087c0.45795,1.36862 1.05929,3.09046 0.81078,4.9996c-0.23924,1.84107 -1.26229,3.74376 -2.09965,5.33431l-0.0141,0.02739l-0.00121,0.00041c-0.28355,0.54093 -0.93201,0.83213 -1.55591,0.67786c-0.6239,-0.15426 -1.06211,-0.71371 -1.06211,-1.35613v-0.00041c0,-0.77131 0.6259,-1.39721 1.39722,-1.39721c0.77131,0 1.39722,0.6259 1.39722,1.39721zM294.97494,288.69624" fill="#000000"/><path d="M305.96135,287.33367l-2.7183,-0.45674l0.00966,-0.02699v-0.0004c0.67626,-1.95223 1.24215,-3.6318 1.31747,-4.92631c0.06928,-1.18777 -0.28436,-2.09925 -0.76809,-3.29105c-0.2896,-0.71533 0.05559,-1.53013 0.7701,-1.82013c0.71573,-0.2896 1.53013,0.05478 1.82013,0.7701c0.47325,1.16683 1.07741,2.6148 0.96826,4.50259c-0.10231,1.76616 -0.83655,3.85735 -1.46649,5.67869l-0.00927,0.02698c-0.22354,0.64484 -0.88046,1.03432 -1.55268,0.92114c-0.67223,-0.11318 -1.16522,-0.69559 -1.16522,-1.37788c0,-0.77171 0.6247,-1.39721 1.39721,-1.39721c0.77131,0 1.39722,0.6255 1.39722,1.39721zM305.96135,287.33367" fill="#000000"/><path d="M219.2059,290.96909c0,0.64685 -0.44466,1.20912 -1.07339,1.35895c-0.62913,0.15024 -1.27881,-0.15104 -1.57041,-0.72821v0.0004l-0.01047,-0.01893v-0.0004c-1.05567,-2.08596 -2.26841,-4.45466 -2.61359,-6.54746c-0.3641,-2.21444 0.24207,-4.03496 0.72258,-5.52844c0.23642,-0.73465 1.02384,-1.13824 1.7581,-0.90181c0.73425,0.23642 1.13824,1.02345 0.90221,1.7581c-0.49581,1.5402 -0.86596,2.75376 -0.6247,4.21783c0.25858,1.57484 1.22281,3.51499 2.34856,5.7399v-0.00041l0.01048,0.01934l-2.6446,0.63115c0,-0.77171 0.6259,-1.39722 1.39802,-1.39722c0.77131,0 1.39721,0.62551 1.39721,1.39722zM219.2059,290.96909" fill="#000000"/><path d="M203.88164,288.84165c0,0.68633 -0.49783,1.27114 -1.17529,1.37989c-0.67746,0.10834 -1.33439,-0.2912 -1.54866,-0.94329l-0.00725,-0.02055c-0.73627,-2.24062 -1.57684,-4.75955 -1.64048,-6.92566c-0.06807,-2.26761 0.70605,-4.06799 1.34243,-5.58403c0.29886,-0.7113 1.11769,-1.046 1.82899,-0.74714c0.7117,0.29886 1.04681,1.11809 0.74755,1.82939c-0.65571,1.55953 -1.17328,2.83511 -1.12575,4.41841c0.04954,1.67352 0.72258,3.76431 1.50234,6.13583l0.00725,0.02054l-2.72435,0.43661c0,-0.77171 0.6247,-1.39722 1.39601,-1.39722c0.77251,0 1.39721,0.62551 1.39721,1.39722zM203.88164,288.84165" fill="#000000"/><path d="M186.68449,288.19883c0,0.70848 -0.53005,1.30458 -1.23329,1.38755c-0.70324,0.08337 -1.35775,-0.37296 -1.52288,-1.06211c-0.43499,-1.8165 -0.93685,-3.87144 -0.88811,-5.77495c0.04954,-1.94015 0.66618,-3.64791 1.18898,-5.12326c0.25778,-0.7274 1.05647,-1.10802 1.78348,-0.85025c0.72741,0.25777 1.10802,1.05647 0.85025,1.78388c-0.54293,1.53255 -0.99283,2.8327 -1.02908,4.26092c-0.03786,1.46528 0.35403,3.14001 0.81239,5.05277l-2.75617,0.32544c0,-0.77171 0.6255,-1.39722 1.39721,-1.39722c0.77171,0 1.39722,0.62551 1.39722,1.39722zM186.68449,288.19883" fill="#000000"/><path d="M176.88182,286.27156c0,0.68753 -0.50024,1.27276 -1.17932,1.37989c-0.67908,0.10754 -1.33518,-0.29563 -1.54704,-0.94973c-0.58362,-1.8028 -1.28766,-3.92542 -1.26551,-5.77172c0.02336,-1.94297 0.83615,-3.47874 1.46528,-4.70196c0.35283,-0.68633 1.19502,-0.95659 1.88135,-0.60376c0.68633,0.35283 0.95659,1.19543 0.60376,1.88175c-0.66296,1.28887 -1.14186,2.2656 -1.15636,3.4578c-0.01531,1.28807 0.49742,2.92291 1.13018,4.87716l-2.72677,0.43057c0,-0.77171 0.6259,-1.39722 1.39721,-1.39722c0.77171,0 1.39722,0.62551 1.39722,1.39722zM176.88182,286.27156" fill="#000000"/><path d="M304.33214,234.99306l-2.24586,-1.11044c5.06365,-3.86741 9.85422,-7.54633 12.78357,-12.18103c2.91688,-4.61617 4.04906,-10.29364 4.92953,-15.84988c0.89496,-5.64243 1.40044,-10.42454 0.33752,-13.49407c-0.98478,-2.84075 -3.44813,-4.36886 -6.26914,-4.82641c-0.49903,-0.08056 -0.99203,-0.12486 -1.46851,-0.12486c-2.11174,0 -3.96972,0.82487 -4.91704,3.56654c-0.59006,1.70533 -0.83414,4.1264 -1.11769,7.03723c-0.32504,3.32327 -0.69317,7.17136 -1.83866,10.57397c-2.13227,6.33077 -6.88861,10.94613 -11.33158,15.29083c-0.5518,0.53931 -1.43629,0.52925 -1.9756,-0.02255c-0.53931,-0.5514 -0.53005,-1.43629 0.02175,-1.9756c4.5344,-4.43452 8.75465,-8.59716 10.6364,-14.18482c1.02627,-3.04456 1.37466,-6.56277 1.70574,-9.9529c0.27107,-2.78396 0.53608,-5.58886 1.25866,-7.67884c1.40366,-4.06035 4.47197,-5.4483 7.55802,-5.4483c0.64645,0 1.29008,0.05881 1.91598,0.16111c3.51177,0.56992 7.04529,2.58257 8.46103,6.66909c1.3372,3.85815 0.64846,9.39023 -0.21629,14.84658c-0.87885,5.54335 -2.07065,11.75046 -5.32907,16.90594c-3.24674,5.13776 -8.48278,9.11675 -13.44855,12.90884c-0.4217,0.32221 -0.99082,0.3774 -1.4673,0.14177c-0.47607,-0.23562 -0.77735,-0.72097 -0.77735,-1.25222c0,-0.77171 0.62591,-1.39722 1.39722,-1.39722c0.77131,0 1.39722,0.62551 1.39722,1.39722zM304.33214,234.99306" fill="#000000"/><path d="M304.22177,209.01065v0.00121l0.01732,0.0145h-0.00081c2.22612,1.95183 4.28106,3.74175 6.49066,4.8389c2.20035,1.09192 4.61818,1.52892 7.27044,1.99734c0.75963,0.13493 1.26712,0.85992 1.133,1.61954c-0.13412,0.76003 -0.85992,1.26753 -1.61995,1.13219c-2.5858,-0.45675 -5.40681,-0.94531 -8.02604,-2.24666c-2.59627,-1.28887 -4.92872,-3.34381 -7.0908,-5.24087l-0.01732,-0.01571c-0.57959,-0.5083 -0.63718,-1.39077 -0.12808,-1.97156c0.5083,-0.57918 1.39117,-0.63719 1.97157,-0.12889zM304.22177,209.01065" fill="#000000"/><path d="M302.78952,158.33873c-4.68948,-1.66305 -9.13648,-3.22741 -14.25369,-3.22741c-0.86636,0 -1.75407,0.04632 -2.66555,0.14339c-2.07549,0.22354 -4.29032,0.72177 -6.64332,1.25262c-2.39931,0.54253 -4.93396,1.11568 -7.42792,1.38473c-0.92275,0.09908 -1.84792,0.15788 -2.76946,0.15788c-1.54383,0 -3.08523,-0.16514 -4.58757,-0.58684c-4.31932,-1.21234 -8.03529,-4.49453 -11.276,-7.32682c-2.14476,-1.8745 -4.08129,-3.55929 -5.99486,-4.65846c-2.08877,-1.19905 -4.16345,-1.69809 -6.14751,-1.69809c-2.57251,0 -5.05841,0.84019 -7.26077,2.19189c-1.71782,1.05486 -3.25198,2.40978 -4.94725,3.91293c-1.78065,1.57967 -3.72,3.30393 -6.08024,4.75231c-0.49823,0.3053 -1.0158,0.60013 -1.55591,0.87885c-4.47721,2.31151 -10.35526,3.50451 -15.49221,3.50451c-1.15193,0 -2.27566,-0.05961 -3.34704,-0.18246c-3.21814,-0.37015 -5.87846,-1.30337 -8.18594,-2.11052c-1.94055,-0.67746 -3.56453,-1.23973 -5.19052,-1.44595c-0.50225,-0.06283 -1.01177,-0.09264 -1.52893,-0.09264c-3.17545,0 -6.4955,1.11245 -10.09588,2.33648c-0.73063,0.24851 -1.52408,-0.14338 -1.77259,-0.87321c-0.24811,-0.73103 0.14298,-1.5253 0.87361,-1.7726c3.49525,-1.18777 7.27124,-2.48591 10.99487,-2.48591c0.6247,0 1.25142,0.03706 1.87933,0.11641c1.97157,0.24972 3.88111,0.92275 5.76206,1.57967c2.32077,0.81159 4.71082,1.6417 7.58258,1.97237c0.95457,0.10956 1.97157,0.16393 3.02844,0.16393c4.77889,0 10.2006,-1.12252 14.20939,-3.19317c0.47527,-0.24529 0.93403,-0.50508 1.37668,-0.77735c2.12099,-1.30136 3.88594,-2.8633 5.68834,-4.4615c1.66103,-1.47253 3.37684,-2.99864 5.33915,-4.20292c2.55076,-1.56598 5.5369,-2.60553 8.72283,-2.60553c2.47383,0 5.0278,0.62793 7.53868,2.06945c2.20115,1.2643 4.35639,3.15411 6.44315,4.97826c3.36556,2.94144 6.597,5.73064 10.19133,6.73998c1.2063,0.33833 2.48591,0.48252 3.83278,0.48252c0.80394,0 1.628,-0.05156 2.4702,-0.14218c2.30667,-0.24851 4.68222,-0.78258 7.11174,-1.33116c2.31675,-0.52361 4.69431,-1.0609 6.9599,-1.30539c1.01257,-0.10915 2.00017,-0.1599 2.9644,-0.1599c5.6678,0 10.54899,1.7436 15.18692,3.38731c0.72781,0.25778 1.10843,1.05688 0.85066,1.78388c-0.25777,0.727 -1.05687,1.10843 -1.78388,0.85065zM302.78952,158.33873" fill="#000000"/><path d="M329.94964,111.81979c0.25979,-0.04027 0.52481,0 0.76204,0.11318c3.36838,1.61915 6.54948,3.1388 9.95008,3.75142c0.71155,0.12844 1.43189,0.21638 2.15773,0.25867l1.24572,0.48959l0.17991,0.97201l-0.33511,0.88117c-0.0984,-0.00957 -0.65971,0.28564 -1.16351,0.28564c-1.22604,0 -1.37223,-0.11761 -2.54671,-0.32906c-3.6667,-0.66163 -7.04814,-2.25345 -10.25058,-3.79173l-8.14643,1.2595c-0.46077,0.07089 -0.92356,-0.11037 -1.21436,-0.47447c-0.2908,-0.36491 -0.36411,-0.8567 -0.19172,-1.28968l2.7335,-6.87624l-1.4551,-3.10405c-0.02457,-0.05236 -0.04552,-0.10713 -0.06284,-0.16271c-0.99404,-3.15814 -2.10126,-6.63003 -0.79708,-11.3481c0.23753,-0.85802 0.06808,-0.18467 0.46347,-1.10386l0.653,-0.33106l0.6516,-0.03492l0.55344,0.35795l0.32961,0.57205c-0.01821,0.06021 0.12744,0.32256 0.04659,0.59101c-0.08607,0.28579 -0.17382,0.57849 -0.19127,0.6416c-1.07595,3.88901 -0.23059,6.69368 0.7446,9.79365l1.65592,3.53327c0.15265,0.32464 0.16393,0.698 0.03101,1.0319l-2.10107,5.28678z" fill="#000000"/><path d="M395.65011,98.35546l-1.03897,0l-0.07841,-0.05881z" fill="#000000"/><text transform="translate(329.80586,107.73918) scale(0.5,0.5)" font-size="40" xml:space="preserve" fill="#000000" fill-rule="nonzero" stroke="none" stroke-width="1" stroke-linecap="butt" stroke-linejoin="miter" stroke-miterlimit="10" stroke-dasharray="" stroke-dashoffset="0" font-family="Sans Serif" font-weight="normal" text-anchor="start" style="mix-blend-mode: normal"><tspan x="0" dy="0">Ne cliquez pas !</tspan></text></g></g></g></svg>