<svg version="1.1" xmlns="http://www.w3.org/2000/svg" xmlns:xlink="http://www.w3.org/1999/xlink" width="326.89274" height="282.3321" viewBox="0,0,326.89274,282.3321"><g transform="translate(0.35959,4.57541)"><g data-paper-data="{&quot;isPaintingLayer&quot;:true}" fill-rule="nonzero" stroke-linejoin="miter" stroke-miterlimit="10" stroke-dasharray="" stroke-dashoffset="0" style="mix-blend-mode: normal"><g stroke="none" stroke-width="1" stroke-linecap="butt"><g><g><g fill="#6c301e"><path d=""/></g><g fill="#6c301e"><path d=""/></g><g fill="none" font-family="sans-serif" font-weight="normal" font-size="12" text-anchor="start"/><g fill="none" font-family="sans-serif" font-weight="normal" font-size="12" text-anchor="start"/><g fill="none" font-family="sans-serif" font-weight="normal" font-size="12" text-anchor="start"/><g fill="#6c301e"><path d=""/></g><g fill="none" font-family="sans-serif" font-weight="normal" font-size="12" text-anchor="start"/><g fill="#6c301e"><path d=""/></g><g fill="none" font-family="sans-serif" font-weight="normal" font-size="12" text-anchor="start"/></g><g fill="#ca974d"><g><path d="M145.13304,156.32525c0,-18.62195 4.28914,-38.47866 13.49609,-45.47749c4.6218,0.31809 9.23554,0.455 13.84679,0.53091c-2.00216,2.19881 -3.7142,4.96977 -4.96687,7.86684c-0.47145,0.68282 -0.9056,1.38383 -1.30909,2.13797c-0.02251,-0.02011 -0.04483,-0.03952 -0.06694,-0.05823c-2.6,2.2 -8,14.1 -8,34.9c0.1,20.8 5.4,32.8 8,34.9c0.55389,-0.46867 1.23486,-1.37758 1.96362,-2.71896c0.67909,2.38941 1.49486,4.78549 1.68406,4.99696c0.96566,1.07926 2.82785,0.65563 4.19154,1.14315c1.04609,0.37398 3.24199,1.28501 4.68848,1.49099c-3.21174,5.17971 -7.36923,8.38786 -12.52769,8.38786h-0.00001c-14.39999,-0.00001 -20.99999,-24.9 -20.99999,-48.1z"/></g><g><path d="M217.33304,199.92525c-14.4,0 -21,-24.9 -21,-48.1c0,-14.67837 2.66487,-30.12388 8.30248,-39.43497c5.38501,0.3744 10.76997,0.63946 16.15511,0.82518c-1.16479,1.27101 -2.02806,2.71605 -2.72513,4.39817c-0.26157,-0.33506 -0.5075,-0.59803 -0.73246,-0.78838c-2.6,2.2 -8,14.1 -8,34.9c0,20.8 5.4,32.8 8,34.9c0.09313,-0.0788 0.18986,-0.17005 0.2898,-0.27371c1.0542,3.05564 2.5892,6.07815 4.8666,8.35555c0.99499,0.99499 2.16283,1.53175 3.41131,1.71081c-2.46821,2.23532 -5.31953,3.50735 -8.56771,3.50735z"/></g><g><path d="M167.50906,119.24551c-0.36781,0.5327 -0.71291,1.07648 -1.03845,1.64792c-2.18526,-4.10575 -4.66542,-7.48436 -7.31485,-10.0102c4.44567,0.29294 8.88407,0.42241 13.32017,0.49544c-2.00216,2.19881 -3.7142,4.96977 -4.96687,7.86684z"/></g><g><path d="M315.12819,116.60098c-0.2563,0.37726 -0.45098,0.78334 -0.60597,1.20803c-0.15994,0.32754 -0.3025,0.66511 -0.42649,1.01152c-1.39914,2.35632 -2.6963,4.99976 -3.86269,7.90473c-1.3,3.3 -5.1,4.9 -8.5,3.6c-3.3,-1.3 -4.9,-5.1 -3.6,-8.5c1.16156,-2.86517 2.43344,-5.54083 3.80489,-8.01699c4.60066,0.12369 9.20222,0.29924 13.80485,0.54527c0.31844,0.01702 0.65814,0.03866 1.0167,0.06359c-0.57308,0.69617 -1.11796,1.4283 -1.63128,2.18386z"/></g><g><path d="M170.05973,114.50889c-1.9806,2.52314 -3.76914,5.40392 -5.32668,8.61635l-11.7,-5.7c1.16495,-2.37009 2.43391,-4.60928 3.79773,-6.71062c5.22359,0.41471 10.43596,0.5783 15.64516,0.66406c-0.86396,0.94881 -1.6739,2.00417 -2.41621,3.13022z"/><path d="M217.93756,117.92969c-0.0558,0.08711 -0.11029,0.17514 -0.16344,0.26407c-1.29923,-1.91696 -2.6581,-3.67649 -4.06696,-5.2709c2.36114,0.11446 4.7223,0.21116 7.08349,0.29259c-1.23712,1.34992 -2.1341,2.89617 -2.85309,4.71425z"/></g><g><path d="M265.73304,201.02525c-14.4,0 -21,-24.9 -21,-48.1c0,-14.61151 2.64065,-29.9832 8.22563,-39.30736c5.16185,-0.01086 10.32425,-0.03974 15.4874,-0.06027c-1.24775,1.41565 -2.25643,2.93615 -2.70841,4.37156c-0.00154,-0.00131 -0.00308,-0.00262 -0.00462,-0.00392c-2.6,2.2 -8,14.1 -8,34.9c0,20.30348 5.14528,32.22208 7.80914,34.73271c0.02233,0.12756 0.04797,0.25282 0.07715,0.37556c0.18005,0.75725 1.35778,1.53968 1.89857,2.12193c1.64024,1.76594 2.72866,4.1927 4.82128,5.38849c1.3897,0.79412 2.66888,-0.51687 3.79411,-0.75883c0.27526,-0.05919 0.55506,-0.10581 0.83758,-0.14476c-3.01082,4.05087 -6.74461,6.48491 -11.23782,6.48491z"/></g><g><path d="M213.13304,124.32524l-11.7,-5.7c1.07398,-2.18499 2.23634,-4.25874 3.47994,-6.21578c5.22663,0.35975 10.45322,0.61698 15.67998,0.79913c-2.84261,3.06091 -5.361,6.78763 -7.45992,11.11665z"/><path d="M265.57991,118.53392c-1.26688,-1.79788 -2.58758,-3.44903 -3.95352,-4.94658c2.27308,-0.01002 4.5463,-0.02069 6.81966,-0.02972c-1.42462,1.61633 -2.53759,3.36934 -2.86615,4.97631z"/></g><g><path d="M315.23304,200.22525c-14.4,0 -21,-24.9 -21,-48.1c0,-14.10605 2.46111,-28.92061 7.65658,-38.31829c4.61676,0.12377 9.23442,0.29968 13.85315,0.54657c0.31844,0.01702 0.65815,0.03866 1.01671,0.06359c-0.57308,0.69618 -1.11797,1.4283 -1.63129,2.18386c-0.2563,0.37726 -0.45098,0.78334 -0.60597,1.20803c-0.03229,0.06614 -0.06388,0.13268 -0.09474,0.19962c-2.7672,3.64622 -7.19444,15.18305 -7.19444,34.01662c0,20.8 5.4,32.8 8,34.9c0.03458,-0.02927 0.06966,-0.06024 0.10522,-0.09293c0.06018,0.5247 0.17486,0.98367 0.3562,1.34635c0.64789,1.29577 2.50554,1.48067 3.61623,2.41082c1.02924,0.86193 3.20317,3.0017 4.76902,3.17935c0.81884,0.0929 1.64195,0.04799 2.45344,-0.11268c-3.02157,4.10131 -6.77586,6.5691 -11.30011,6.5691z"/></g><g><path d="M265.68985,118.08792c-1.09704,1.68837 -2.11882,3.5027 -3.05682,5.43732l-11.7,-5.7c0.71384,-1.4523 1.46673,-2.85546 2.25657,-4.20786c5.08488,-0.01122 10.17032,-0.03956 15.25647,-0.05978c-1.29386,1.46796 -2.33065,3.04867 -2.75622,4.53032z"/><path d="M315.12819,116.60098c-0.13867,0.2041 -0.25928,0.41663 -0.36534,0.63599c-0.76921,-1.07118 -1.55903,-2.08842 -2.36733,-3.05021c1.11569,0.05163 2.23144,0.10712 3.34725,0.16677c0.31844,0.01702 0.65814,0.03866 1.01671,0.06359c-0.57309,0.69617 -1.11796,1.4283 -1.63129,2.18386z"/></g></g></g><path d="M130.17334,120.09706c-5.9,10.5 -9.1,24.6 -9.1,39.8c0,3.6 -2.9,6.5 -6.5,6.5c-3.6,0 -6.5,-2.9 -6.5,-6.5c0,-19.51116 4.74085,-36.82598 12.44822,-48.99188c5.32829,-0.3323 10.78467,-1.38886 15.19163,-2.40441c1.16549,-0.26858 3.3041,-0.59485 5.62107,-0.78172c-4.05334,2.32484 -7.91157,6.58016 -11.16092,12.37801z" fill="#ca974d"/><path d="M166.90065,120.75918c-2.16979,-4.03423 -4.62566,-7.35593 -7.24627,-9.84378c4.27894,0.27036 8.55132,0.39296 12.82157,0.46326c-2.34878,2.57948 -4.29831,5.94635 -5.5753,9.38052z" fill="#ca974d"/></g><path d="M114.5365,160.38385v110.87284" fill="#ca974d" stroke="#ca974d" stroke-width="13" stroke-linecap="round"/><text transform="translate(-0.10959,17.17459) scale(0.5,0.5)" font-size="40" xml:space="preserve" fill="#585e00" fill-rule="nonzero" stroke="none" stroke-width="1" stroke-linecap="butt" stroke-linejoin="miter" stroke-miterlimit="10" stroke-dasharray="" stroke-dashoffset="0" font-family="Sans Serif" font-weight="normal" text-anchor="start" style="mix-blend-mode: normal"><tspan x="0" dy="0">Faraday : Bobine</tspan></text></g></g></svg>