<svg version="1.1" xmlns="http://www.w3.org/2000/svg" xmlns:xlink="http://www.w3.org/1999/xlink" width="461.68101" height="310.03183" viewBox="0,0,461.68101,310.03183"><g transform="translate(0.33151,4.42359)"><g data-paper-data="{&quot;isPaintingLayer&quot;:true}" fill-rule="nonzero" stroke-linejoin="miter" stroke-miterlimit="10" stroke-dasharray="" stroke-dashoffset="0" style="mix-blend-mode: normal"><g stroke-linecap="butt"><path d="M38.93578,137.41973h318.12737" fill="#000000" stroke="#000000" stroke-width="2"/><path d="M37.99947,99.24444v76.35057" fill="#000000" stroke="#000000" stroke-width="2"/><path d="M109.48454,137.00107c-4.32794,10.81984 -9.93063,30.14307 -17.41971,29.89249c-7.19063,-0.24059 -14.07624,-19.50824 -18.2317,-29.89689c-4.18502,-10.46254 -11.84934,-29.33582 -19.18845,-29.47564c-7.53791,-0.14361 -12.09395,18.72968 -16.39233,29.47564" fill="none" stroke="#0000ff" stroke-width="3"/><path d="M180.63839,137.38569c-4.32794,10.81984 -9.93063,30.14307 -17.41971,29.89249c-7.19063,-0.24059 -14.07624,-19.50824 -18.2317,-29.89689c-4.18502,-10.46254 -11.84934,-29.33582 -19.18845,-29.47564c-7.53791,-0.14361 -12.09395,18.72968 -16.39233,29.47564" fill="none" stroke="#0000ff" stroke-width="3"/><path d="M251.66403,137.96261c-4.32794,10.81984 -9.93063,30.14307 -17.41971,29.89249c-7.19063,-0.24059 -14.07624,-19.50824 -18.2317,-29.89689c-4.18502,-10.46254 -11.84934,-29.33582 -19.18845,-29.47564c-7.53791,-0.14361 -12.09395,18.72968 -16.39233,29.47564" fill="none" stroke="#0000ff" stroke-width="3"/><path d="M322.81787,138.34722c-4.32794,10.81984 -9.93063,30.14307 -17.41971,29.89249c-7.19063,-0.24059 -14.07624,-19.50824 -18.2317,-29.89689c-4.18502,-10.46254 -11.84934,-29.33582 -19.18845,-29.47564c-7.53791,-0.14361 -12.09395,18.72968 -16.39233,29.47564" fill="none" stroke="#0000ff" stroke-width="3"/><text transform="translate(35.81197,85.54473) scale(0.5,0.5)" font-size="40" xml:space="preserve" fill="#000000" fill-rule="nonzero" stroke="none" stroke-width="1" stroke-linecap="butt" stroke-linejoin="miter" stroke-miterlimit="10" stroke-dasharray="" stroke-dashoffset="0" font-family="Sans Serif" font-weight="normal" text-anchor="start" style="mix-blend-mode: normal"><tspan x="0" dy="0">AC : Tesla</tspan></text></g><g><path d="M38.69942,259.17975h318.12737" fill="#000000" stroke="#000000" stroke-width="2" stroke-linecap="butt"/><path d="M37.76311,221.00446v76.35057" fill="#000000" stroke="#000000" stroke-width="2" stroke-linecap="butt"/><path d="M39.3404,234.88869h313.57143" fill="none" stroke="#0000ff" stroke-width="3" stroke-linecap="round"/><text transform="translate(36.04833,210.63854) scale(0.5,0.5)" font-size="40" xml:space="preserve" fill="#000000" fill-rule="nonzero" stroke="none" stroke-width="1" stroke-linecap="butt" stroke-linejoin="miter" stroke-miterlimit="10" stroke-dasharray="" stroke-dashoffset="0" font-family="Sans Serif" font-weight="normal" text-anchor="start" style="mix-blend-mode: normal"><tspan x="0" dy="0">DC : Edison</tspan></text></g><g stroke="none" stroke-linecap="butt"><text transform="translate(361.19326,108.48271) scale(0.5,0.5)" font-size="40" xml:space="preserve" fill="#ff0000" fill-rule="nonzero" stroke="none" stroke-width="1" stroke-linecap="butt" stroke-linejoin="miter" stroke-miterlimit="10" stroke-dasharray="" stroke-dashoffset="0" font-family="Sans Serif" font-weight="normal" text-anchor="start" style="mix-blend-mode: normal"><tspan x="0" dy="0">V ↑ </tspan><tspan x="0" dy="46.150000000000006px"> </tspan><tspan x="0" dy="46.150000000000006px">+ Danger</tspan><tspan x="0" dy="46.150000000000006px">+ Distance</tspan></text><path d="M365.68784,127.91021c0,0 -0.00832,-7.20251 -0.01071,-10.47365c-0.00059,-0.85684 0.69359,-1.55194 1.55033,-1.55257c0.85687,-0.00063 1.55178,0.69344 1.55241,1.5503c0.00201,2.74251 0.01084,10.46522 0.01084,10.46522c0,0 0.52435,-0.51885 2.9143,-2.91245c0.6055,-0.60638 1.58769,-0.6071 2.19391,-0.0016c0.60622,0.60578 0.6071,1.58782 0.0016,2.19403c-1.93777,1.94091 -5.562,5.56999 -5.562,5.56999c-0.60547,0.60622 -1.58781,0.60694 -2.19391,0.0016c0,0 -3.13193,-3.12722 -5.52553,-5.51732c-0.60666,-0.60578 -0.60739,-1.58798 -0.0016,-2.19407c0.60534,-0.60638 1.58781,-0.60711 2.19359,-0.0016c1.94148,1.93809 2.87676,2.87212 2.87676,2.87212z" fill="#ed0000" stroke-width="0"/></g><text transform="translate(360.86896,230.13324) scale(0.5,0.5)" font-size="40" xml:space="preserve" fill="#ff0000" fill-rule="nonzero" stroke="none" stroke-width="1" stroke-linecap="butt" stroke-linejoin="miter" stroke-miterlimit="10" stroke-dasharray="" stroke-dashoffset="0" font-family="Sans Serif" font-weight="normal" text-anchor="start" style="mix-blend-mode: normal"><tspan x="0" dy="0">V ↑ </tspan><tspan x="0" dy="46.150000000000006px"> </tspan><tspan x="0" dy="46.150000000000006px">- Danger</tspan><tspan x="0" dy="46.150000000000006px">- Distance</tspan></text><path d="M365.36354,249.56074c0,0 -0.00832,-7.20251 -0.01071,-10.47365c-0.00059,-0.85683 0.69359,-1.55193 1.55033,-1.55256c0.85687,-0.00063 1.55178,0.69344 1.55241,1.55031c0.00201,2.74251 0.01084,10.46522 0.01084,10.46522c0,0 0.52435,-0.51885 2.91431,-2.91245c0.6055,-0.60638 1.58769,-0.6071 2.19391,-0.0016c0.60622,0.60578 0.6071,1.58782 0.0016,2.19404c-1.93777,1.94091 -5.562,5.56999 -5.562,5.56999c-0.60547,0.60622 -1.58782,0.60694 -2.19391,0.0016c0,0 -3.13193,-3.12722 -5.52553,-5.51732c-0.60666,-0.60578 -0.60739,-1.58797 -0.0016,-2.19407c0.60534,-0.60638 1.58781,-0.60711 2.1936,-0.00161c1.94148,1.93809 2.87676,2.87212 2.87676,2.87212z" fill="#ed0000" stroke="none" stroke-width="0" stroke-linecap="butt"/><text transform="translate(-0.08151,17.32641) scale(0.5,0.5)" font-size="40" xml:space="preserve" fill="#585e00" fill-rule="nonzero" stroke="none" stroke-width="1" stroke-linecap="butt" stroke-linejoin="miter" stroke-miterlimit="10" stroke-dasharray="" stroke-dashoffset="0" font-family="Sans Serif" font-weight="normal" text-anchor="start" style="mix-blend-mode: normal"><tspan x="0" dy="0">Tesla : Courant alternatif</tspan></text></g></g></svg>