<svg version="1.1" xmlns="http://www.w3.org/2000/svg" xmlns:xlink="http://www.w3.org/1999/xlink" width="36.70662" height="51.78935" viewBox="0,0,36.70662,51.78935"><g transform="translate(-221.6467,-128.87004)"><g data-paper-data="{&quot;isPaintingLayer&quot;:true}" fill="#ca974d" fill-rule="nonzero" stroke="none" stroke-width="1" stroke-linecap="butt" stroke-linejoin="miter" stroke-miterlimit="10" stroke-dasharray="" stroke-dashoffset="0" style="mix-blend-mode: normal"><path d="M257.97275,165.49265c-0.33897,2.36862 -2.16987,11.01303 -9.21181,14.03761c-0.19097,0.08349 -4.33258,1.16404 -7.46923,1.12826c-3.78355,-0.04294 -6.75071,-1.27376 -7.63871,-1.54092c-5.78394,-1.73174 -10.56529,-6.86495 -11.77555,-12.94275c-0.49413,-2.48789 -0.10265,-5.56972 0.3151,-8.05761c0.58961,-3.51596 0.78297,-7.36349 2.04574,-10.70294c1.66858,-4.42716 3.39684,-9.10239 6.50006,-13.43651c0.55858,-0.77761 4.24903,-3.88569 4.94368,-4.21725c1.12997,-0.51026 2.34311,-0.8117 3.58065,-0.88972c2.05529,-0.03578 4.31348,1.16165 6.05845,2.14679c6.99419,3.94771 10.57484,12.93083 12.17419,20.42073c0.95158,4.6243 1.113,9.37618 0.47742,14.05431z"/></g></g></svg>