<svg version="1.1" xmlns="http://www.w3.org/2000/svg" xmlns:xlink="http://www.w3.org/1999/xlink" width="564.7841" height="492.46193" viewBox="0,0,564.7841,492.46193"><g transform="translate(42.39078,66.2333)"><g data-paper-data="{&quot;isPaintingLayer&quot;:true}" stroke-linecap="butt" stroke-linejoin="miter" stroke-miterlimit="10" stroke-dasharray="" stroke-dashoffset="0" style="mix-blend-mode: normal"><g><path d="M314.15799,25.155l42.02,47.77l41.08,-28.64c0,0 24.65,61.84 19.21,65.47l-289.54,-15.99c-8.16,-8.17 23.21,-54.11 23.21,-54.11l40.87,33.64l46.66,-45l41.25,43.18z" fill="#ed6339" fill-rule="nonzero" stroke="#000000" stroke-width="12.5"/><path d="M133.62799,154.395c-11.52,-10.25 1.74,-70.73 1.74,-70.73l278.31,13.92l-19.03,21.62l-23.62,70.12z" fill="#ed6339" fill-rule="evenodd" stroke="none" stroke-width="1"/><g stroke="none" stroke-width="1"><path d="M421.55001,27.64715c27.46876,-34.18001 26.33194,-70.9361 26.33194,-70.9361l66.37187,116.21363z" fill="#f4b200" fill-rule="evenodd"/><path d="M160.46482,75.78257l56.84431,-24.59557l22.35814,62.8247l48.81088,6.0605l47.9,-54.83175l5.78873,-64.45576l38.70488,-48.16302l63.45366,-2.61719l1.32456,25.38718l-29.13294,71.23947l-30.07709,128.07437l-47.06969,36.30588l-113.20778,0.91566l-51.46884,-56.83537z" fill="#fbf56e" fill-rule="evenodd"/><path d="M424.90432,-64.81524c3.17687,1.02209 6.19017,2.08828 9.02978,3.14543c4.07737,-0.10007 6.58684,3.08218 14.7321,5.95255c2.80331,0.721 7.23124,4.65309 10.88927,6.9863c1.92963,5.24981 8.05207,8.65885 13.55894,18.63849c22.31708,29.9942 38.69803,63.34315 49.13937,100.0824c0.55408,1.98631 -0.53991,4.31236 -3.31608,7.00091c-2.47552,2.31444 -5.0892,3.45798 -7.81959,3.41215c-17.94761,-2.15024 -41.48947,-13.74734 -70.67729,-34.80917c-4.7058,-2.56127 -8.74633,-3.67892 -12.11449,-3.31412c-3.55815,1.75008 -5.87939,5.6016 -6.94291,11.51715c-1.10142,5.5781 -2.21352,11.17935 -3.31349,16.7573c-2.79481,8.83246 -5.71474,26.03526 -8.74342,51.61102c-2.49386,21.08072 -6.83638,37.58007 -13.04239,49.50993c-4.24971,7.96541 -11.09185,15.69856 -20.5033,23.19693c-3.11167,2.72635 -8.38499,5.67216 -15.86889,8.87205c-7.19013,2.81627 -12.343,5.79301 -15.42303,8.85308c0.71103,4.14462 1.40602,8.27633 2.11705,12.42095l-18.35989,1.98853c-1.04064,-3.53725 -2.11531,-6.98286 -3.20326,-10.28045c-15.49523,1.67826 -23.9797,3.62329 -25.45498,5.82059c-2.07668,2.32108 -3.80258,5.04393 -5.19688,8.12663l-19.31478,2.09195c-0.09985,-4.31343 -0.32483,-8.1589 -0.69251,-11.56381c-7.86437,-0.17432 -19.8588,-0.91275 -36.01536,-2.24114c-3.8853,-1.27957 -9.87278,-3.04972 -17.95463,-5.23801c-7.27943,-1.26377 -14.1976,-4.06182 -20.8073,-8.47639c-5.18908,-3.86483 -10.22214,-7.77589 -15.08002,-11.69125c-5.92814,-4.47374 -9.79909,-9.00904 -11.66757,-13.57067c-8.1603,-18.90949 -15.69157,-48.8018 -22.47823,-89.69091c-0.52919,-1.64746 -1.41878,-3.92139 -2.75917,-6.84569c-1.00778,-2.96179 -1.62248,-5.2655 -1.8046,-6.95202c-0.5462,-5.05811 1.93419,-8.92687 7.4451,-11.57007c5.80722,-3.01683 18.07574,-7.73758 36.80133,-14.20136c3.66735,-0.73875 9.03679,-3.20097 16.08017,-7.37632c2.17632,-1.94049 4.79,-3.08402 7.81381,-3.41153c4.03657,-0.4372 8.74859,0.7719 14.162,3.59661c-0.83562,4.86769 -0.98085,9.6225 -0.4711,14.34302c2.22142,20.57148 14.69179,36.96784 37.46773,49.17121c4.67514,2.22305 9.38119,3.1059 14.09776,2.59506c5.72933,-0.62053 11.27529,-2.93917 16.62591,-6.93118c14.73559,-11.83052 24.22251,-24.96005 28.45874,-39.40743c1.77562,-5.65112 2.03812,-14.06419 0.83635,-25.19319l-0.54276,-5.02623c-1.27452,-11.80274 -0.71313,-21.10761 1.61871,-27.84316c3.81126,-12.01203 11.17917,-23.89036 22.17739,-35.65763c11.29453,-12.14091 23.59925,-21.48739 36.85841,-28.04073c3.55959,-1.75023 8.67205,-3.16294 15.37045,-4.22997c8.38103,-1.24927 13.73996,-2.31782 16.02388,-3.24827c0.18237,-0.04614 0.34617,-0.11518 0.5343,-0.14875c2.203,-0.40571 4.76789,0.01863 7.72938,1.26927zM385.01625,-41.52993c-27.92184,19.05905 -40.5627,42.2634 -37.94878,69.61441c1.01033,12.51444 1.57868,19.28225 1.68789,20.29358c-0.17523,7.86565 -1.87309,14.50806 -5.03069,19.96732c-21.16308,37.43286 -42.69541,57.34927 -64.58549,59.72014c-14.48247,1.56857 -30.29574,-3.22268 -47.50762,-14.32391c-4.78434,-3.23439 -8.98057,-8.74882 -12.54561,-16.55091c-4.49991,-10.08871 -7.50125,-16.05944 -9.06519,-17.93637c-1.23134,-1.91442 -2.05923,-4.56589 -2.40885,-7.93905l-0.16146,-1.49527c-0.41501,-3.70762 -3.10424,-5.29703 -8.15357,-4.75015c-7.75485,0.83991 -16.78346,5.74331 -27.05735,14.70273c2.87683,26.64092 5.04691,43.61932 6.51351,50.96561c4.39758,18.62954 11.66113,33.70769 21.76186,45.23903c10.88978,12.46758 21.06849,19.7058 30.48139,21.74993c23.44469,5.65483 46.23897,7.31972 68.46182,4.9128c20.53009,-2.22358 39.91123,-7.76744 58.0355,-16.54663c11.6891,-5.35574 18.92598,-12.44269 21.72064,-21.27659c3.04824,-6.47205 6.0451,-16.52398 9.00277,-30.15127c-0.42942,-19.74094 4.74744,-52.35676 15.50272,-97.8752c0.49225,-1.75809 2.29082,-3.99775 5.4041,-6.72281c3.07538,-3.06249 4.71481,-5.28491 4.90625,-6.67034c4.03913,-13.06016 6.8132,-21.74585 8.39732,-26.01211c3.39342,-9.57847 7.15817,-17.46688 11.25289,-23.70925c-6.42519,-15.33899 -17.90073,-22.15679 -34.40149,-20.36962l-0.2257,0.02445c-4.96296,0.57417 -9.64647,2.31275 -14.03685,5.13948zM407.79348,-19.94822c3.36671,-0.36464 6.02083,0.37106 7.92333,2.21132c2.75738,3.45392 2.75338,6.84632 0.05004,10.20933c-6.63493,4.81302 -10.77306,7.30533 -12.45572,7.48728c-3.36812,0.36509 -6.07423,-0.85193 -8.08463,-3.70513c-2.34888,-2.81581 -2.6588,-5.6858 -0.92906,-8.60357c3.34972,-4.16814 7.47272,-6.67861 12.3661,-7.47685c0.36964,-0.06056 0.7509,-0.08132 1.12995,-0.12238zM451.95513,-22.71604c-4.38731,3.54642 -8.03268,9.09736 -10.97182,16.57972c-2.07482,6.02522 -4.14314,12.21904 -6.18017,18.58054c-1.62061,3.92839 -1.65407,6.6277 -0.12514,8.16688c9.85647,6.09752 19.54308,12.24862 29.06389,18.3825c10.63844,7.03599 20.53334,12.09592 29.72665,15.19432c-4.334,-14.8824 -18.16878,-40.53877 -41.51338,-76.90365zM392.95572,8.27272c5.05082,-0.5466 7.8313,1.35908 8.30467,5.74273c0.54628,5.05884 -1.18955,8.31339 -5.1198,9.76223c-5.43366,3.31791 -9.91583,4.12879 -13.50256,2.46947c-1.79329,-0.82894 -3.14082,-2.35552 -4.06861,-4.64436c-0.66473,-2.99749 0.24647,-5.51159 2.75829,-7.48989c4.0441,-3.26826 7.63678,-5.18641 10.81491,-5.75211c0.26855,-0.04785 0.5498,-0.0594 0.8131,-0.08807z" fill="#000000" fill-rule="nonzero"/></g><path d="M158.39799,107.275l13.27,32.14l33.19,-7.31l12.48,38.38l28.38,-19.4l26.28,31.46l19.39,-31.04l35.59,17.58l6.17,-33.12l39.62,4.31l10.4,-30.27c0,0 32.09,-12.49 32.53,-8.83c0.91,7.63 5.83,20.22 7.05,28.76c1.21,8.25 2.28,16.17 3.2,23.8c1.22,7.63 2.12,12.98 2.73,16.03v11.91c0,21.37 -4.25,41.35 -12.78,59.97c-8.54,18.31 -20.14,34.32 -34.76,48.06c-14.33,13.43 -31.07,24.11 -50.27,32.05c-18.9,7.63 -38.71,11.43 -59.43,11.43c-20.73,0 -40.51,-3.8 -59.41,-11.43c-18.89,-7.94 -35.67,-18.62 -50.3,-32.05c-14.32,-13.74 -25.75,-29.75 -34.28,-48.06c-8.53,-18.62 -12.78,-38.6 -12.78,-59.97v-11.91c0.3,-3.05 0.89,-8.4 1.81,-16.03c0.91,-7.63 1.98,-15.55 3.2,-23.8c1.22,-8.54 4.75,-33.68 4.75,-33.68z" fill="#f4f4d1" fill-rule="nonzero" stroke="#000000" stroke-width="12.5"/><path d="M22.13799,403.425c-102.773,-57.95 -38.333,-199.1 -38.333,-199.1l24.633,8.35l29.83,-21.09l33.71,28.34l21.34,-31.9l15.02,35.23l36.45,-17.26l6.1,50.71l40.53,-9l-9.36,41.77l31.6,6.47l-11.22,34.8l28.36,22.3c0,0 -108.09,107.06 -208.66,50.38z" fill="#f4f4d1" fill-rule="evenodd" stroke="#000000" stroke-width="12.5"/></g></g></g></svg>