<svg version="1.1" xmlns="http://www.w3.org/2000/svg" xmlns:xlink="http://www.w3.org/1999/xlink" width="210.78889" height="111.99775" viewBox="0,0,210.78889,111.99775"><g transform="translate(-134.60555,-123.90928)"><g data-paper-data="{&quot;isPaintingLayer&quot;:true}" stroke-linejoin="miter" stroke-miterlimit="4" stroke-dasharray="" stroke-dashoffset="0" style="mix-blend-mode: normal"><path d="M242.14515,142.83666l1.12765,0.25333l2.8378,0.6215c0,-0.00001 -4.29758,17.63028 -6.03597,26.58329c-0.84547,9.12062 12.87716,22.16705 20.92271,4.32724l11.07742,-22.23251l5.3854,2.89099l-7.94672,20.05382c-5.7161,11.35467 6.12181,22.35511 19.08994,11.71768l11.54037,-20.31144l4.44114,3.1752l-9.67025,18.17761c-1.59775,1.31545 -0.83758,21.94503 16.33688,10.36269l15.64962,-15.00909l3.43542,4.37425c-0.00001,0 -11.91088,12.26926 -16.03107,15.85203c-3.67027,3.19153 -19.54085,12.76601 -27.94439,-7.56639c0.32805,0.03179 -19.61709,9.89285 -24.43303,-10.47069c-15.0581,9.73906 -21.29198,1.23384 -27.70396,-4.90361c-6.70189,3.62533 -16.73672,7.56364 -24.95331,-7.20753c-11.40217,15.73238 -27.29911,-1.4444 -26.98899,-1.33283c-16.56438,15.99448 -26.5185,0.36428 -28.47104,-4.09042c-2.1919,-5.00079 -7.71058,-21.18559 -7.71058,-21.18559l4.97626,-2.48457l7.72632,20.26048c10.57031,17.8152 20.081,-0.50704 19.19941,-2.37947l-0.96626,-20.5671l5.37249,-0.97057l1.71948,22.27337c7.1723,15.16197 22.57779,10.28177 22.26748,-2.42674l1.39414,-21.52586l6.10446,-0.30979l0.50388,24.83424c2.01052,19.74954 15.79108,13.40373 19.00229,5.17518c2.25797,-8.83628 5.91404,-26.61069 5.91405,-26.61068z" fill="#eac102" fill-rule="nonzero" stroke="#010101" stroke-width="1.30215" stroke-linecap="butt"/><g stroke="#000000"><path d="M228.93436,207.68159c-25.95718,-5.77818 -49.97503,-7.75751 -67.50036,-6.39217c1.5071,-0.34029 0.79467,-6.5825 0.08217,-11.32697c-0.86179,-5.73858 -3.69238,-7.19281 -3.69238,-7.19281c19.32418,-1.28184 47.10598,0.9929 75.19007,7.26439c28.07852,6.34544 54.33019,16.0806 71.25143,25.50496c0,0 -3.84768,0.36646 -7.07968,5.18604c-2.67266,3.98332 -5.29003,9.1937 -4.07119,10.14637c-15.25532,-8.72951 -38.2477,-17.311 -64.18006,-23.18981" fill="#eac102" fill-rule="nonzero" stroke-width="0.96848" stroke-linecap="butt"/><path d="M232.77209,191.3317c-28.08599,-6.26306 -54.06237,-8.58951 -73.38844,-7.29925c-1.28958,0.09062 -2.46091,-0.67002 -2.59566,-1.90096c-0.13428,-1.23308 0.81123,-2.40042 2.1027,-2.49946c19.45362,-1.4938 46.11732,0.81458 74.89493,7.21756c28.75886,6.51597 53.94543,15.86235 70.89301,25.53368c1.12498,0.6419 1.48036,2.10148 0.83159,3.15865c-0.65039,1.05456 -2.03449,1.24111 -3.15934,0.6081c-16.91931,-9.43279 -41.50216,-18.46445 -69.5788,-24.81832" fill="#eac102" fill-rule="nonzero" stroke-width="0.96848" stroke-linecap="butt"/><path d="M228.55189,210.34816c-25.62998,-5.79757 -52.65028,-8.71806 -67.3191,-4.13544c-1.11802,-0.63369 -1.49847,-1.8734 -1.17365,-2.99445c0.22721,-1.10986 1.07115,-1.97276 2.3095,-2.06163c17.49675,-1.24794 41.14594,0.87632 66.79294,6.59815c25.62578,5.7966 47.89433,13.98774 63.17827,22.59986c1.08133,0.60999 1.46457,1.74857 1.19526,2.84897c-0.19218,1.15085 -1.0579,2.11062 -2.3311,2.20711c-19.2095,-13.97063 -37.0093,-19.34172 -62.6521,-25.06256" fill="#eac102" fill-rule="nonzero" stroke-width="0.96848" stroke-linecap="butt"/><path d="M229.83869,204.6202c-5.99764,-1.34737 -10.32862,-4.69369 -9.70312,-7.478c0.62549,-2.78431 5.97369,-3.966 11.97133,-2.61863c6.00296,1.34856 10.34989,4.69843 9.72229,7.4921c-0.62549,2.78431 -5.98753,3.9531 -11.99049,2.60453" fill="#eac102" fill-rule="nonzero" stroke-width="0.96848" stroke-linecap="butt"/><path d="M230.19727,203.03685c-4.45475,-1.00076 -7.70027,-3.35856 -7.27103,-5.26926c0.42924,-1.9107 4.37281,-2.6602 8.82756,-1.65944c4.45871,1.00165 7.71607,3.36207 7.28539,5.27921c-0.42924,1.9107 -4.38321,2.65114 -8.84192,1.64949" fill="#ed1c24" fill-rule="nonzero" stroke-width="0.96848" stroke-linecap="butt"/><path d="M298.98818,219.99771c-0.17388,0.53678 -0.37453,1.07043 -0.61475,1.61363c-0.24024,0.54324 -0.523,1.09316 -0.84021,1.61907c-0.33766,0.55986 -0.73531,1.10538 -1.19168,1.62421c-0.4564,0.51883 -0.9648,1.00265 -1.49391,1.47218c-0.35186,0.31225 -0.72783,0.53172 -1.09494,0.8191c-5.33843,-2.97426 -8.53783,-7.36261 -7.16272,-9.84939c1.38093,-2.49731 6.84808,-2.13368 12.22751,0.84102c0.19555,0.10812 0.33297,0.24386 0.52273,0.35568c-0.11798,0.50454 -0.17888,0.97011 -0.35203,1.5045z" fill="#eac102" fill-rule="nonzero" stroke-width="0.96848" stroke-linecap="butt"/><path d="M298.96205,221.67352c-0.06838,0.41122 -0.16863,0.81283 -0.29639,1.19469c-0.12779,0.38186 -0.29101,0.74211 -0.49188,1.06669c-0.19862,0.32087 -0.44417,0.62074 -0.73173,0.88666c-0.28756,0.26592 -0.61724,0.50779 -0.96122,0.723c-0.37189,0.23262 -0.77609,0.37046 -1.17441,0.549c-0.24059,-0.12017 -0.47287,-0.1812 -0.71411,-0.31461c-3.99558,-2.20943 -6.44236,-5.3925 -5.49469,-7.10626c0.94767,-1.71376 4.94239,-1.32265 8.93797,0.88678c0.3765,0.20821 0.66362,0.45235 1.01139,0.67566c-0.01897,0.48171 -0.00455,0.95523 -0.08493,1.4384z" fill="#ed1c24" fill-rule="nonzero" stroke-width="0.96848" stroke-linecap="butt"/><path d="M160.81805,187.37424c0.21935,-0.01991 0.40159,-0.08384 0.6246,-0.09793c6.13487,-0.38801 11.23223,1.62167 11.41236,4.46967c0.17935,2.83599 -4.5896,5.43426 -10.68724,5.83941c-0.2089,-0.41679 -0.45488,-0.77598 -0.63938,-1.20872c-0.27745,-0.65072 -0.53006,-1.30551 -0.72068,-1.96969c-0.19062,-0.66418 -0.31674,-1.32736 -0.38251,-1.97785c-0.06179,-0.61105 -0.08217,-1.22908 -0.06697,-1.82287c0.01519,-0.59375 0.06209,-1.16194 0.13448,-1.72152c0.07207,-0.5571 0.21614,-1.00398 0.32532,-1.5105z" fill="#eac102" fill-rule="nonzero" stroke-width="0.96848" stroke-linecap="butt"/><path d="M160.33805,189.07419c0.40984,-0.05311 0.77381,-0.15098 1.20319,-0.17815c4.55667,-0.28817 8.33483,1.0669 8.45844,3.02132c0.12361,1.95442 -3.44952,3.78512 -8.00619,4.07329c-0.27512,0.01741 -0.51119,-0.02677 -0.78006,-0.02105c-0.28366,-0.33174 -0.59011,-0.62924 -0.82673,-0.99856c-0.2189,-0.34166 -0.41344,-0.70129 -0.55963,-1.06466c-0.14619,-0.36336 -0.2399,-0.73944 -0.28218,-1.11443c-0.04276,-0.3793 -0.03621,-0.77475 0.01162,-1.17458c0.04783,-0.39982 0.12899,-0.80573 0.24305,-1.20668c0.13403,-0.47112 0.34957,-0.89298 0.53849,-1.33651z" fill="#ed1c24" fill-rule="nonzero" stroke-width="0.96848" stroke-linecap="butt"/><path d="M211.00341,195.40363c0.2686,-1.19563 1.51218,-1.9378 2.77516,-1.65407c1.2714,0.28562 2.08015,1.48885 1.81156,2.68448c-0.26812,1.1935 -1.5157,1.94361 -2.7871,1.65799c-1.26298,-0.28373 -2.06774,-1.49491 -1.79962,-2.6884" fill="#e3e4e5" fill-rule="nonzero" stroke-width="1.16217" stroke-linecap="butt"/><path d="M175.58481,191.68126c0.2686,-1.19563 1.51429,-1.93732 2.77516,-1.65407c1.2714,0.28562 2.07805,1.48837 1.80946,2.684c-0.27001,1.20192 -1.5136,1.94409 -2.785,1.65847c-1.26087,-0.28325 -2.06963,-1.48648 -1.79962,-2.6884" fill="#e3e4e5" fill-rule="nonzero" stroke-width="1.16217" stroke-linecap="butt"/><path d="M246.58997,203.39815c0.2686,-1.19563 1.5143,-1.93732 2.77728,-1.6536c1.2693,0.28515 2.07805,1.48838 1.80946,2.68401c-0.26812,1.1935 -1.51569,1.94362 -2.78499,1.65847c-1.26298,-0.28373 -2.06987,-1.49538 -1.80175,-2.68888" fill="#e3e4e5" fill-rule="nonzero" stroke-width="1.16217" stroke-linecap="butt"/><path d="M279.85035,215.1045c0.2686,-1.19563 1.51431,-1.93732 2.77516,-1.65407c1.27142,0.28563 2.07806,1.48838 1.80946,2.68401c-0.27001,1.20192 -1.51358,1.9441 -2.785,1.65847c-1.26086,-0.28325 -2.06964,-1.48649 -1.79963,-2.68841" fill="#e3e4e5" fill-rule="nonzero" stroke-width="1.16217" stroke-linecap="butt"/><path d="M183.1693,192.34256l12.6564,-5.31528l11.34684,7.56611l-12.6564,5.31528z" fill="#eac102" fill-rule="evenodd" stroke-width="1.0607" stroke-linecap="round"/><path d="M187.28728,192.72868l8.31017,-3.45634l7.45709,4.93487l-8.31017,3.45634z" fill="#008f4c" fill-rule="evenodd" stroke-width="1.06316" stroke-linecap="round"/><path d="M263.80368,215.47409l-9.16688,-10.21788l13.4927,-1.98591l9.16688,10.21788z" fill="#eac102" fill-rule="evenodd" stroke-width="1.0607" stroke-linecap="round"/><path d="M264.55765,213.34709l-6.03335,-6.67862l8.85128,-1.2712l6.03335,6.67862z" fill="#008f4c" fill-rule="evenodd" stroke-width="1.06316" stroke-linecap="round"/></g><path d="M223.66826,141.43313c-1.43356,6.38134 -7.77521,10.39445 -14.1543,8.96139c-6.37909,-1.43306 -10.39468,-7.7741 -8.96136,-14.15432c1.4333,-6.38017 7.7752,-10.3944 14.15429,-8.96134c6.37909,1.43306 10.39468,7.7741 8.96137,14.15427z" fill="#e3e4e5" fill-rule="nonzero" stroke="#010101" stroke-width="1.36" stroke-linecap="butt"/><path d="M255.1326,146.12198c-1.43332,6.38024 -7.77525,10.39442 -14.1543,8.96137c-6.37909,-1.43306 -10.39443,-7.77522 -8.96137,-14.1543c1.43357,-6.38134 7.77521,-10.39442 14.1543,-8.96136c6.37905,1.43305 10.39494,7.77295 8.96137,14.15429z" fill="#e3e4e5" fill-rule="nonzero" stroke="#010101" stroke-width="1.36" stroke-linecap="butt"/><path d="M191.68935,139.03473c-1.43308,6.37917 -7.77464,10.39392 -14.15539,8.96048c-6.38069,-1.43342 -10.39363,-7.77303 -8.96028,-14.15341c1.43336,-6.38039 7.77252,-10.39567 14.15321,-8.96225c6.38075,1.43344 10.39555,7.77596 8.96246,14.15518z" fill="#e3e4e5" fill-rule="nonzero" stroke="#010101" stroke-width="1.36" stroke-linecap="butt"/><path d="M158.69143,141.17226c-1.43359,6.38146 -7.77392,10.3954 -14.15313,8.96231c-6.38057,-1.43339 -10.39584,-7.77503 -8.96252,-14.15524c1.4333,-6.38016 7.77619,-10.39352 14.15545,-8.96042c6.38081,1.43213 10.3935,7.77319 8.9602,14.15334z" fill="#e3e4e5" fill-rule="nonzero" stroke="#010101" stroke-width="1.36" stroke-linecap="butt"/><path d="M276.61778,141.18713c6.37906,1.43305 10.39471,7.77411 8.96141,14.15428c-1.43332,6.38022 -7.77528,10.39443 -14.15434,8.96138c-6.37909,-1.43306 -10.39492,-7.77298 -8.96136,-14.15432c1.4333,-6.38017 7.77519,-10.3944 14.15429,-8.96134z" fill="#e3e4e5" fill-rule="nonzero" stroke="#010101" stroke-width="1.36" stroke-linecap="butt"/><path d="M306.54997,152.69637c6.38001,1.43327 10.39453,7.7745 8.96118,14.1549c-1.43335,6.38039 -7.77528,10.39377 -14.15411,8.96077c-6.38006,-1.43328 -10.39458,-7.77452 -8.9615,-14.15369c1.43309,-6.37922 7.77411,-10.39408 14.15443,-8.96198z" fill="#e3e4e5" fill-rule="nonzero" stroke="#010101" stroke-width="1.36" stroke-linecap="butt"/><path d="M335.46394,168.74373c6.37923,1.43309 10.39353,7.7732 8.96023,14.15336c-1.43331,6.3802 -7.77266,10.39568 -14.15316,8.9623c-6.38179,-1.43367 -10.3961,-7.77377 -8.9625,-14.15523c1.4333,-6.38016 7.77393,-10.39535 14.15543,-8.96043z" fill="#e3e4e5" fill-rule="nonzero" stroke="#010101" stroke-width="1.36" stroke-linecap="butt"/></g></g></svg>