<svg version="1.1" xmlns="http://www.w3.org/2000/svg" xmlns:xlink="http://www.w3.org/1999/xlink" width="264.3" height="188.32516" viewBox="0,0,264.3,188.32516"><g transform="translate(-107.85,-89.08742)"><g data-paper-data="{&quot;isPaintingLayer&quot;:true}" fill-rule="nonzero" stroke-linejoin="miter" stroke-miterlimit="10" stroke-dasharray="" stroke-dashoffset="0" style="mix-blend-mode: normal"><g stroke="none" stroke-width="1" stroke-linecap="butt"><g><g fill="#6c301e"><path d=""/></g><g fill="#6c301e"><path d=""/></g><g fill="none" font-family="sans-serif" font-weight="normal" font-size="12" text-anchor="start"/><g fill="none" font-family="sans-serif" font-weight="normal" font-size="12" text-anchor="start"/><g fill="none" font-family="sans-serif" font-weight="normal" font-size="12" text-anchor="start"/><g fill="#6c301e"><path d=""/></g><g fill="none" font-family="sans-serif" font-weight="normal" font-size="12" text-anchor="start"/><g fill="#6c301e"><path d=""/></g><g fill="none" font-family="sans-serif" font-weight="normal" font-size="12" text-anchor="start"/></g><g fill="#ca974d"><g><path d="M187.45,156.2902c0,23.1 -6.6,48.1 -21,48.1c-14.4,0 -21,-24.9 -21,-48.1c0,-23.1 6.6,-48.1 21,-48.1c14.4,0 21,24.9 21,48.1zM166.45,191.0902c2.6,-2.2 8,-14.1 8,-34.9c0,-20.8 -5.4,-32.7 -8,-34.9c-2.6,2.2 -8,14.1 -8,34.9c0.1,20.8 5.4,32.8 8,34.9z"/></g><g><path d="M238.65,151.7902c0,23.1 -6.6,48.1 -21,48.1c-14.4,0 -21,-24.9 -21,-48.1c0,-23.1 6.6,-48.1 21,-48.1c14.4,0 21,24.9 21,48.1zM217.65,186.5902c2.6,-2.2 8,-14.1 8,-34.9c0,-20.8 -5.4,-32.7 -8,-34.9c-2.6,2.2 -8,14.1 -8,34.9c0,20.8 5.4,32.8 8,34.9z"/></g><g><path d="M182.05,124.1902c0,2.6 -1.5,5 -4.1,6c-3.3,1.3 -7.1,-0.3 -8.5,-3.6c-5.3,-13.1 -13.3,-21 -21.3,-21c-6.5,0 -13.1,5.3 -18.2,14.4c-5.9,10.5 -9.1,24.6 -9.1,39.8c0,3.6 -2.9,6.5 -6.5,6.5c-3.6,0 -6.5,-2.9 -6.5,-6.5c0,-37.7 17.7,-67.2 40.3,-67.2c2.94563,0 5.82191,0.49003 8.59705,1.44325c10.1319,3.48016 18.91553,13.13442 24.80295,27.65675c0.3,0.9 0.5,1.7 0.5,2.5z"/></g><g><path d="M372.15,159.8902c0,3.6 -2.9,6.5 -6.5,6.5c-3.6,0 -6.5,-2.9 -6.5,-6.5c0,-15.1 -3.2,-29.2 -9.1,-39.8c-5.1,-9.2 -11.7,-14.4 -18.2,-14.4c-8,0 -16,7.8 -21.3,21c-1.3,3.3 -5.1,4.9 -8.5,3.6c-3.3,-1.3 -4.9,-5.1 -3.6,-8.5c7.5,-18.5 19.6,-29.1 33.4,-29.1c22.6,0 40.3,29.5 40.3,67.2z"/></g><g><path d="M233.15,117.9902l-11.5,6.1c-7.5,-14.1 -17.8,-22.1 -28.4,-22c-11.5,0.2 -21.8,7.8 -28.2,21l-11.7,-5.7c8.7,-17.7 23.2,-28.1 39.7,-28.3c15.7,-0.2 30.3,10.4 40.1,28.9z"/></g><g><path d="M287.05,152.8902c0,23.1 -6.6,48.1 -21,48.1c-14.4,0 -21,-24.9 -21,-48.1c0,-23.1 6.6,-48.1 21,-48.1c14.4,0 21,24.9 21,48.1zM266.05,187.6902c2.6,-2.2 8,-14.1 8,-34.9c0,-20.8 -5.4,-32.7 -8,-34.9c-2.6,2.2 -8,14.1 -8,34.9c0,20.8 5.4,32.8 8,34.9z"/></g><g><path d="M281.55,119.1902l-11.5,6.1c-7.5,-14.1 -17.8,-22.1 -28.4,-22c-11.5,0.2 -21.8,7.8 -28.2,21l-11.7,-5.7c8.7,-17.7 23.2,-28.1 39.7,-28.3c15.7,-0.3 30.3,10.3 40.1,28.9z"/></g><g><path d="M336.55,152.0902c0,23.1 -6.6,48.1 -21,48.1c-14.4,0 -21,-24.9 -21,-48.1c0,-23.1 6.6,-48.1 21,-48.1c14.4,0 21,24.9 21,48.1zM315.55,186.8902c2.6,-2.2 8,-14.1 8,-34.9c0,-20.8 -5.4,-32.7 -8,-34.9c-2.6,2.2 -8,14.1 -8,34.9c0,20.8 5.4,32.8 8,34.9z"/></g><g><path d="M331.05,118.3902l-11.5,6.1c-7.4,-14.1 -17.8,-22.1 -28.4,-22c-11.5,0.2 -21.8,7.8 -28.2,21l-11.7,-5.7c8.7,-17.7 23.2,-28.1 39.7,-28.3c15.7,-0.3 30.3,10.3 40.1,28.9z"/></g></g></g><path d="M365.56142,160.03974v110.87284" fill="#ca974d" stroke="#ca974d" stroke-width="13" stroke-linecap="round"/></g></g></svg>