<svg version="1.1" xmlns="http://www.w3.org/2000/svg" xmlns:xlink="http://www.w3.org/1999/xlink" width="1022.5091" height="723.66658" viewBox="0,0,1022.5091,723.66658"><g transform="translate(269.9,185.92644)"><g data-paper-data="{&quot;isPaintingLayer&quot;:true}" fill-rule="nonzero" stroke="none" stroke-width="1" stroke-linecap="butt" stroke-linejoin="miter" stroke-miterlimit="10" stroke-dasharray="" stroke-dashoffset="0" style="mix-blend-mode: normal"><g><path d="M571.1,224.7c5.5,4.5 9,9.8 9,16.1c0,12.8 -13.9,23 -41.4,30.4c-23.8,6.4 -55.3,9.9 -88.7,9.9c-4,0 -7.3,-3.3 -7.3,-7.3c0,-4 3.3,-7.3 7.3,-7.3c32.2,0 62.3,-3.3 84.9,-9.4c25,-6.7 30.5,-14.1 30.5,-16.3c0,-1.7 -2.5,-4.8 -9,-8.3c-1.9,0.9 -4,1.7 -6.1,2.5c-1.3,0.8 -2.7,1.5 -4.3,2.1c-4.7,1.9 -11.3,3.5 -19.5,4.9c-16.2,2.8 -37.8,4.3 -60.6,4.3c-22.8,0 -44.3,-1.6 -60.6,-4.3c-8.2,-1.4 -14.8,-3 -19.5,-4.9c-7.4,-3 -11.2,-7.1 -11.2,-12.3c0,-5.2 3.8,-9.3 11.2,-12.3c4.7,-1.9 11.3,-3.5 19.5,-4.9c16.2,-2.7 37.8,-4.2 60.6,-4.2c20.5,0 40,1.3 55.5,3.5c0.7,-0.1 1.5,0 2.2,0.1c1.9,0.4 3.8,0.8 5.8,1.2c6.8,1.3 12.4,2.8 16.5,4.4c3.7,1.2 7.2,2.5 10.6,3.9c10.7,-5.5 15.6,-11.1 15.5,-15.3c-0.1,-4.7 -5,-11 -17,-17c-2.1,0.9 -4.2,1.8 -6.4,2.6c-1.3,0.8 -2.7,1.5 -4.3,2.1c-4.7,1.9 -11.3,3.5 -19.5,4.9c-16.2,2.7 -37.8,4.2 -60.6,4.2c-22.8,0 -44.3,-1.5 -60.6,-4.2c-8.2,-1.4 -14.8,-3 -19.5,-4.9c-7.4,-3 -11.2,-7.1 -11.2,-12.3c0,-5.2 3.8,-9.3 11.2,-12.3c4.7,-1.9 11.3,-3.5 19.5,-4.9c16.2,-2.7 37.8,-4.2 60.6,-4.2c22.8,0 44.3,1.5 60.6,4.2c8.2,1.4 14.8,3 19.5,4.9c0.3,0.1 0.5,0.2 0.7,0.3c3.5,1.1 6.8,2.3 9.9,3.6c10.7,-5.5 15.6,-11.1 15.5,-15.3c-0.1,-4.3 -4.2,-10 -14.1,-15.5c-1.7,0.7 -3.5,1.4 -5.3,2.1c-1.3,0.8 -2.7,1.5 -4.3,2.1c-4.7,1.9 -11.3,3.5 -19.5,4.9c-16.2,2.7 -37.8,4.2 -60.6,4.2c-22.8,0 -44.3,-1.5 -60.6,-4.2c-8.2,-1.4 -14.8,-3 -19.5,-4.9c-7.4,-3 -11.2,-7.1 -11.2,-12.3c0,-5.2 3.8,-9.3 11.2,-12.3c4.7,-1.9 11.3,-3.5 19.5,-4.9c16.2,-2.7 37.8,-4.2 60.6,-4.2c22.8,0 44.3,1.5 60.6,4.2c0.8,0.1 1.6,0.3 2.4,0.4v-0.2c1.1,0.2 2.3,0.5 3.4,0.8c5.6,1.1 10.2,2.4 13.7,3.8c1.1,0.4 2,0.8 2.9,1.3c2.5,0.9 4.9,1.9 7.1,2.9c11.1,-5.6 16.2,-11.3 16.1,-15.6c-0.1,-5.4 -5.6,-10.2 -10.2,-13.2c-2.8,-1.8 -6,-3.6 -9.6,-5.2c-7.1,2.7 -15,4.9 -22.7,6.6c-3.6,1 -7.6,1.8 -12.2,2.6c-16.2,2.8 -37.8,4.3 -60.6,4.3c-22.8,0 -44.3,-1.6 -60.6,-4.3c-8.2,-1.4 -14.8,-3 -19.5,-4.9c-7.4,-3 -11.2,-7.1 -11.2,-12.3c0,-5.2 3.8,-9.3 11.2,-12.3c4.7,-1.9 11.3,-3.5 19.5,-4.9c16.2,-2.7 37.8,-4.2 60.6,-4.2c22.8,0 44.3,1.5 60.6,4.2c5.4,0.9 10,1.9 13.9,3c7.8,1.9 14.8,4 21,6.4c9.1,-4.2 12.6,-8.1 12.6,-10.1c0,-2.2 -5.4,-9.6 -30.5,-16.3c-22.6,-6.1 -52.7,-9.4 -84.9,-9.4c-4,0 -7.3,-3.3 -7.3,-7.3c0,-4 3.3,-7.3 7.3,-7.3c33.4,0 64.9,3.5 88.7,9.9c27.5,7.4 41.4,17.6 41.4,30.4c0,7.1 -4.4,13 -11.3,17.8c11.8,7.3 18.2,16.1 18.5,26c0.3,9 -5.1,17.3 -16.1,24.5c8.9,6.7 13.7,14.4 13.9,22.9c0.3,8.6 -4.7,16.6 -14.9,23.6c10.6,7.1 16.3,15.5 16.6,24.8c0.3,8.8 -5,16.9 -15.9,23.9zM510.9,82.7c3.4,-0.5 6.3,-1 8.9,-1.5c0.4,-0.2 0.9,-0.3 1.4,-0.4c2.1,-0.4 4.1,-0.9 6,-1.3c0.5,-0.1 1,-0.3 1.5,-0.4c-3.7,-1.1 -9.4,-2.4 -17.9,-3.6c-14.8,-2 -33.6,-3.2 -53.1,-3.2c-19.5,0 -38.3,1.1 -53.1,3.2c-8.5,1.2 -14.2,2.5 -17.9,3.6c3.7,1.1 9.4,2.4 17.9,3.6c14.8,2.1 33.7,3.3 53.1,3.3c19.4,0 38.3,-1.2 53.2,-3.3zM519.9,132.9c2.7,-0.4 5.1,-0.8 7.3,-1.2c3.2,-0.8 6.2,-1.6 9.1,-2.5c-2,-0.6 -4.1,-1.2 -6.3,-1.8c-2.8,-0.6 -6.2,-1.1 -10.1,-1.7c-14.8,-2 -33.7,-3.2 -53.1,-3.2c-19.5,0 -38.3,1.1 -53.1,3.2c-8.5,1.2 -14.2,2.5 -17.9,3.6c3.7,1.1 9.4,2.4 17.9,3.6c14.8,2 33.7,3.2 53.1,3.2c19.5,0 38.3,-1.2 53.1,-3.2zM517.8,180.2c2.8,-0.4 5.2,-0.8 7.4,-1.2c3.2,-0.9 6.2,-1.7 9.1,-2.6c-1.9,-0.5 -3.9,-1 -6,-1.5v-0.1c-3,-0.6 -6.4,-1.2 -10.6,-1.8c-14.8,-2.1 -33.7,-3.3 -53.1,-3.3c-19.5,0 -38.3,1.2 -53.1,3.3c-8.5,1.2 -14.2,2.5 -17.9,3.6c3.7,1.1 9.4,2.4 17.9,3.6c14.8,2 33.7,3.2 53.1,3.2c19.4,0 38.2,-1.2 53.2,-3.2zM519.3,228.5c2.7,-0.4 5.1,-0.8 7.3,-1.2c3.2,-0.8 6.3,-1.7 9.2,-2.6c-2.7,-0.7 -5.7,-1.5 -8.9,-2.2c-2.2,-0.4 -4.7,-0.8 -7.6,-1.2c-14.8,-2.1 -33.7,-3.3 -53.1,-3.3c-19.5,0 -38.3,1.2 -53.1,3.3c-8.5,1.2 -14.2,2.5 -17.9,3.6c3.7,1.1 9.4,2.4 17.9,3.6c14.8,2.1 33.7,3.3 53.1,3.3c19.4,0 38.3,-1.1 53.1,-3.3z" fill="#6c301e"/><path d="M568.1,220.7c5.5,4.5 9,9.8 9,16.1c0,12.8 -13.9,23 -41.4,30.4c-23.8,6.4 -55.3,9.9 -88.7,9.9c-4,0 -7.3,-3.3 -7.3,-7.3c0,-4 3.3,-7.3 7.3,-7.3c32.2,0 62.3,-3.3 84.9,-9.4c25,-6.7 30.5,-14.1 30.5,-16.3c0,-1.7 -2.5,-4.8 -9,-8.3c-1.9,0.9 -4,1.7 -6.1,2.5c-1.3,0.8 -2.7,1.5 -4.3,2.1c-4.7,1.9 -11.3,3.5 -19.5,4.9c-16.2,2.8 -37.8,4.3 -60.6,4.3c-22.8,0 -44.3,-1.6 -60.6,-4.3c-8.2,-1.4 -14.8,-3 -19.5,-4.9c-7.4,-3 -11.2,-7.1 -11.2,-12.3c0,-5.2 3.8,-9.3 11.2,-12.3c4.7,-1.9 11.3,-3.5 19.5,-4.9c16.2,-2.7 37.8,-4.2 60.6,-4.2c20.5,0 40,1.3 55.5,3.5c0.7,-0.1 1.5,0 2.2,0.1c1.9,0.4 3.8,0.8 5.8,1.2c6.8,1.3 12.4,2.8 16.5,4.4c3.7,1.2 7.2,2.5 10.6,3.9c10.7,-5.5 15.6,-11.1 15.5,-15.3c-0.1,-4.7 -5,-11 -17,-17c-2.1,0.9 -4.2,1.8 -6.4,2.6c-1.3,0.8 -2.7,1.5 -4.3,2.1c-4.7,1.9 -11.3,3.5 -19.5,4.9c-16.2,2.7 -37.8,4.2 -60.6,4.2c-22.8,0 -44.3,-1.5 -60.6,-4.2c-8.2,-1.4 -14.8,-3 -19.5,-4.9c-7.4,-3 -11.2,-7.1 -11.2,-12.3c0,-5.2 3.8,-9.3 11.2,-12.3c4.7,-1.9 11.3,-3.5 19.5,-4.9c16.2,-2.7 37.8,-4.2 60.6,-4.2c22.8,0 44.3,1.5 60.6,4.2c8.2,1.4 14.8,3 19.5,4.9c0.3,0.1 0.5,0.2 0.7,0.3c3.5,1.1 6.8,2.3 9.9,3.6c10.7,-5.5 15.6,-11.1 15.5,-15.3c-0.1,-4.3 -4.2,-10 -14.1,-15.5c-1.7,0.7 -3.5,1.4 -5.3,2.1c-1.3,0.8 -2.7,1.5 -4.3,2.1c-4.7,1.9 -11.3,3.5 -19.5,4.9c-16.2,2.7 -37.8,4.2 -60.6,4.2c-22.8,0 -44.3,-1.5 -60.6,-4.2c-8.2,-1.4 -14.8,-3 -19.5,-4.9c-7.4,-3 -11.2,-7.1 -11.2,-12.3c0,-5.2 3.8,-9.3 11.2,-12.3c4.7,-1.9 11.3,-3.5 19.5,-4.9c16.2,-2.7 37.8,-4.2 60.6,-4.2c22.8,0 44.3,1.5 60.6,4.2c0.8,0.1 1.6,0.3 2.4,0.4v-0.2c1.1,0.2 2.3,0.5 3.4,0.8c5.6,1.1 10.2,2.4 13.7,3.8c1.1,0.4 2,0.8 2.9,1.3c2.5,0.9 4.9,1.9 7.1,2.9c11.1,-5.6 16.2,-11.3 16.1,-15.6c-0.1,-5.4 -5.6,-10.2 -10.2,-13.2c-2.8,-1.8 -6,-3.6 -9.6,-5.2c-7.1,2.7 -15,4.9 -22.7,6.6c-3.6,1 -7.6,1.8 -12.2,2.6c-16.2,2.8 -37.8,4.3 -60.6,4.3c-22.8,0 -44.3,-1.6 -60.6,-4.3c-8.2,-1.4 -14.8,-3 -19.5,-4.9c-7.4,-3 -11.2,-7.1 -11.2,-12.3c0,-5.2 3.8,-9.3 11.2,-12.3c4.7,-1.9 11.3,-3.5 19.5,-4.9c16.2,-2.7 37.8,-4.2 60.6,-4.2c22.8,0 44.3,1.5 60.6,4.2c5.4,0.9 10,1.9 13.9,3c7.8,1.9 14.8,4 21,6.4c9.1,-4.2 12.6,-8.1 12.6,-10.1c0,-2.2 -5.4,-9.6 -30.5,-16.3c-22.6,-6.1 -52.7,-9.4 -84.9,-9.4c-4,0 -7.3,-3.3 -7.3,-7.3c0,-4 3.3,-7.3 7.3,-7.3c33.4,0 64.9,3.5 88.7,9.9c27.5,7.4 41.4,17.6 41.4,30.4c0,7.1 -4.4,13 -11.3,17.8c11.8,7.3 18.2,16.1 18.5,26c0.3,9 -5.1,17.3 -16.1,24.5c8.9,6.7 13.7,14.4 13.9,22.9c0.3,8.6 -4.7,16.6 -14.9,23.6c10.6,7.1 16.3,15.5 16.6,24.8c0.3,8.8 -5,16.9 -15.9,23.9zM507.9,78.7c3.4,-0.5 6.3,-1 8.9,-1.5c0.4,-0.2 0.9,-0.3 1.4,-0.4c2.1,-0.4 4.1,-0.9 6,-1.3c0.5,-0.1 1,-0.3 1.5,-0.4c-3.7,-1.1 -9.4,-2.4 -17.9,-3.6c-14.8,-2 -33.6,-3.2 -53.1,-3.2c-19.5,0 -38.3,1.1 -53.1,3.2c-8.5,1.2 -14.2,2.5 -17.9,3.6c3.7,1.1 9.4,2.4 17.9,3.6c14.8,2.1 33.7,3.3 53.1,3.3c19.4,0 38.3,-1.2 53.2,-3.3zM516.9,128.9c2.7,-0.4 5.1,-0.8 7.3,-1.2c3.2,-0.8 6.2,-1.6 9.1,-2.5c-2,-0.6 -4.1,-1.2 -6.3,-1.8c-2.8,-0.6 -6.2,-1.1 -10.1,-1.7c-14.8,-2 -33.7,-3.2 -53.1,-3.2c-19.5,0 -38.3,1.1 -53.1,3.2c-8.5,1.2 -14.2,2.5 -17.9,3.6c3.7,1.1 9.4,2.4 17.9,3.6c14.8,2 33.7,3.2 53.1,3.2c19.5,0 38.3,-1.2 53.1,-3.2zM514.8,176.2c2.8,-0.4 5.2,-0.8 7.4,-1.2c3.2,-0.9 6.2,-1.7 9.1,-2.6c-1.9,-0.5 -3.9,-1 -6,-1.5v-0.1c-3,-0.6 -6.4,-1.2 -10.6,-1.8c-14.8,-2.1 -33.7,-3.3 -53.1,-3.3c-19.5,0 -38.3,1.2 -53.1,3.3c-8.5,1.2 -14.2,2.5 -17.9,3.6c3.7,1.1 9.4,2.4 17.9,3.6c14.8,2 33.7,3.2 53.1,3.2c19.4,0 38.2,-1.2 53.2,-3.2zM516.3,224.5c2.7,-0.4 5.1,-0.8 7.3,-1.2c3.2,-0.8 6.3,-1.7 9.2,-2.6c-2.7,-0.7 -5.7,-1.5 -8.9,-2.2c-2.2,-0.4 -4.7,-0.8 -7.6,-1.2c-14.8,-2.1 -33.7,-3.3 -53.1,-3.3c-19.5,0 -38.3,1.2 -53.1,3.3c-8.5,1.2 -14.2,2.5 -17.9,3.6c3.7,1.1 9.4,2.4 17.9,3.6c14.8,2.1 33.7,3.3 53.1,3.3c19.4,0 38.3,-1.1 53.1,-3.3z" fill="#b96e2b"/></g><g><path d="M167.5,261.2c-1.1,3.2 -4.2,5.2 -7.4,5.2c-0.9,0 -1.7,-0.1 -2.6,-0.4c-4.1,-1.5 -6.2,-5.9 -4.8,-10c9.9,-28.1 8.2,-49.2 2.1,-57.8c-2.4,-3.3 -5.3,-4.9 -9.3,-4.9c-3.7,0 -7.6,1.4 -11.5,3.8c2.5,3.4 3.9,7.8 4.6,12.8c0,0.1 0.1,0.2 0.1,0.3v0c2,14.8 -2.2,34 -4,40.9c-3.5,13.9 -8.2,27 -13.3,37c-6.5,12.9 -12.8,18.9 -19.7,18.9c-3.3,0 -6.5,-1.5 -8.8,-4.3c-9.6,-11.4 -4.7,-44.9 -2.9,-54.9c1.7,-9.6 4.9,-22.2 9.7,-33.1c0.1,-1 0.4,-2 1,-3c0.8,-1.5 1.7,-3 2.6,-4.4c2.3,-4.1 4.9,-7.7 7.8,-10.5c0.5,-0.7 1,-1.3 1.6,-1.9c-3.7,-3.3 -8.6,-5.6 -14.8,-5.6c-0.2,0 -0.3,0 -0.4,0c-7.4,0.1 -14.7,2.9 -21.1,7.8c0.1,0.1 0.1,0.1 0.2,0.2c2.7,3 4.6,7.2 6,12.1c0.1,0.2 0.2,0.5 0.3,0.7h-0.1c3.2,11.8 3.1,27.5 1.5,40.8c-1.7,14 -4.7,27.2 -8.4,37.2c-3.2,8.4 -8.5,19.7 -18.1,19.7c-2.2,0 -5.6,-0.6 -8.7,-3.9c-8.5,-8.8 -10.6,-33.8 -9.8,-54.2c0.8,-20.8 5.6,-41.7 14.5,-51.6c0.3,-0.5 0.7,-1 1.1,-1.5c-5.1,-4.2 -10.7,-6.4 -16.7,-6.4c-0.1,0 -0.2,0 -0.3,0c-6.2,0.1 -11.9,2 -16.9,5.5c2.8,2.9 5.2,7 7.2,11.8c0.1,0.2 0.2,0.3 0.3,0.5h-0.1c4.3,10.9 6.5,25.7 6.7,40.5c0.2,20.4 -2.6,45.3 -11.3,54.1c-3.1,3.2 -6.5,3.9 -8.7,3.9c-18.5,0 -24,-43.8 -25.2,-57.2c-1.2,-13 -0.9,-28.3 2.4,-40l-0.3,-0.1c0.4,-1 0.9,-2 1.3,-3c1.4,-4 3.3,-7.5 5.6,-10.1c-6.1,-4.7 -12.7,-7.3 -19.3,-7.2c-7.5,0.1 -13.9,3 -18.8,8.1c2.9,3.4 5.6,7.3 8.2,11.5c7.8,12.3 12.6,31.2 14.6,44.4c1.6,10 5.8,43.5 -3.9,54.8c-2.4,2.7 -5.5,4.2 -8.8,4.2c-6.9,0 -13,-6.1 -19.3,-19.1c-4.8,-9.9 -9.2,-23.1 -12.4,-37c-3.7,-15.8 -5.6,-34.9 -1.7,-47.1h-0.1c0.9,-3.4 2,-6.6 3.4,-9.6c-4.9,-3.8 -9.8,-5.9 -14.4,-5.9c-4,0 -7,1.6 -9.5,5c-5.8,8 -9,27.9 1,57.8c1.4,4.1 -0.8,8.5 -4.9,9.9c-0.8,0.3 -1.7,0.4 -2.5,0.4c-3.3,0 -6.3,-2.1 -7.4,-5.4c-10,-30.1 -9.6,-57 1.1,-71.9c5.4,-7.5 13.1,-11.5 22.2,-11.5c7.7,0 15.6,3 23.1,8.6c7.7,-8.2 18,-12.7 29.9,-12.9c0.2,0 0.4,0 0.6,0c10.4,0 20.6,4 29.7,11.4c8,-6.4 17.6,-10 28,-10.1c0.2,0 0.4,0 0.6,0c10.2,0 19.7,3.8 27.7,10.8c9.3,-7.4 20.1,-11.5 31.3,-11.7c0.2,0 0.4,0 0.6,0c10.1,0 19.3,4 26.6,11c6.8,-4.5 14,-7 21,-7c9,0 16.7,4 22,11.5c10.6,14.9 10.6,41.8 0,72.1zM-31.8,255.4c-2.5,-16.1 -7,-28.5 -11,-35.9c0,-0.1 0,-0.1 0,-0.1c-0.5,-0.9 -1,-1.8 -1.5,-2.7c-1.1,-1.8 -2.1,-3.1 -3,-3.9c-1.9,4.8 -3,18.9 1.8,39.6c4.7,20.1 10.8,33.8 14.9,40.3c1.2,-6.7 1.6,-19.6 -1.2,-37.3zM19.5,248.9c-0.2,-16 -2.8,-27.6 -5.5,-34.6c-1.2,-2.2 -2.5,-4.3 -3.9,-6.2c-0.8,1.2 -1.5,2.5 -2.1,3.9c-2.1,6.6 -4,18.8 -2.4,36c1.8,19.9 6.1,33.6 9.2,39.9c2.4,-6.4 5,-19.8 4.7,-39zM68,214.9c-0.9,-2 -1.8,-3.9 -2.8,-5.7c-1.2,1.8 -2.3,3.6 -3.4,5.6v0c-3,6.9 -6.1,18.8 -6.8,35.5c-0.8,19.1 1.4,32.4 3.5,38.8c3.3,-6.3 7.9,-20 10.3,-40c1.8,-15.5 0.8,-27.1 -0.8,-34.2zM123.2,212.7c-0.4,-1.3 -1,-2.8 -1.6,-4.4c-1.6,2.1 -3.2,4.3 -4.8,6.7c-4.1,7.4 -8.7,19.6 -11.5,35.4c-3.1,17.8 -3,30.7 -1.9,37.4c4.3,-6.4 10.9,-20.2 16.1,-40.7c4,-15.5 4.5,-27.4 3.7,-34.4z" fill="#cda349"/><path d="M163.9,257.6c-1.1,3.2 -4.2,5.2 -7.4,5.2c-0.9,0 -1.7,-0.1 -2.6,-0.4c-4.1,-1.5 -6.2,-5.9 -4.8,-10c9.9,-28.1 8.2,-49.2 2.1,-57.8c-2.4,-3.3 -5.3,-4.9 -9.3,-4.9c-3.7,0 -7.6,1.4 -11.5,3.8c2.5,3.4 3.9,7.8 4.6,12.8c0,0.1 0.1,0.2 0.1,0.3v0c2,14.8 -2.2,34 -4,40.9c-3.5,13.9 -8.2,27 -13.3,37c-6.5,12.9 -12.8,18.9 -19.7,18.9c-3.3,0 -6.5,-1.5 -8.8,-4.3c-9.6,-11.4 -4.7,-44.9 -2.9,-54.9c1.7,-9.6 4.9,-22.2 9.7,-33.1c0.1,-1 0.4,-2 1,-3c0.8,-1.5 1.7,-3 2.6,-4.4c2.3,-4.1 4.9,-7.7 7.8,-10.5c0.5,-0.7 1,-1.3 1.6,-1.9c-3.7,-3.3 -8.6,-5.6 -14.8,-5.6c-0.2,0 -0.3,0 -0.4,0c-7.4,0.1 -14.7,2.9 -21.1,7.8c0.1,0.1 0.1,0.1 0.2,0.2c2.7,3 4.6,7.2 6,12.1c0.1,0.2 0.2,0.5 0.3,0.7h-0.1c3.2,11.8 3.1,27.5 1.5,40.8c-1.7,14 -4.7,27.2 -8.4,37.2c-3.2,8.4 -8.5,19.7 -18.1,19.7c-2.2,0 -5.6,-0.6 -8.7,-3.9c-8.5,-8.8 -10.6,-33.8 -9.8,-54.2c0.8,-20.8 5.6,-41.7 14.5,-51.6c0.3,-0.5 0.7,-1 1.1,-1.5c-5.1,-4.2 -10.7,-6.4 -16.7,-6.4c-0.1,0 -0.2,0 -0.3,0c-6.2,0.1 -11.9,2 -16.9,5.5c2.8,2.9 5.2,7 7.2,11.8c0.1,0.2 0.2,0.3 0.3,0.5h-0.1c4.3,10.9 6.5,25.7 6.7,40.5c0.2,20.4 -2.6,45.3 -11.3,54.1c-3.1,3.2 -6.5,3.9 -8.7,3.9c-18.5,0 -24,-43.8 -25.2,-57.2c-1.2,-13 -0.9,-28.3 2.4,-40l-0.3,-0.1c0.4,-1 0.9,-2 1.3,-3c1.4,-4 3.3,-7.5 5.6,-10.1c-6.1,-4.7 -12.7,-7.3 -19.3,-7.2c-7.5,0.1 -13.9,3 -18.8,8.1c2.9,3.4 5.6,7.3 8.2,11.5c7.8,12.3 12.6,31.2 14.6,44.4c1.6,10 5.8,43.5 -3.9,54.8c-2.4,2.7 -5.5,4.2 -8.8,4.2c-6.9,0 -13,-6.1 -19.3,-19.1c-4.8,-9.9 -9.2,-23.1 -12.4,-37c-3.7,-15.8 -5.6,-34.9 -1.7,-47.1h-0.1c0.9,-3.4 2,-6.6 3.4,-9.6c-4.9,-3.8 -9.8,-5.9 -14.4,-5.9c-4,0 -7,1.6 -9.5,5c-5.8,8 -9,27.9 1,57.8c1.4,4.1 -0.8,8.5 -4.9,9.9c-0.8,0.3 -1.7,0.4 -2.5,0.4c-3.3,0 -6.3,-2.1 -7.4,-5.4c-10,-30.1 -9.6,-57 1.1,-71.9c5.4,-7.5 13.1,-11.5 22.2,-11.5c7.7,0 15.6,3 23.1,8.6c7.7,-8.2 18,-12.7 29.9,-12.9c0.2,0 0.4,0 0.6,0c10.4,0 20.6,4 29.7,11.4c8,-6.4 17.6,-10 28,-10.1c0.2,0 0.4,0 0.6,0c10.2,0 19.7,3.8 27.7,10.8c9.3,-7.4 20.1,-11.5 31.3,-11.7c0.2,0 0.4,0 0.6,0c10.1,0 19.3,4 26.6,11c6.8,-4.5 14,-7 21,-7c9,0 16.7,4 22,11.5c10.6,14.9 10.6,41.8 0,72.1zM-35.4,251.8c-2.5,-16.1 -7,-28.5 -11,-35.9c0,-0.1 0,-0.1 0,-0.1c-0.5,-0.9 -1,-1.8 -1.5,-2.7c-1.1,-1.8 -2.1,-3.1 -3,-3.9c-1.9,4.8 -3,18.9 1.8,39.6c4.7,20.1 10.8,33.8 14.9,40.3c1.1,-6.8 1.5,-19.6 -1.2,-37.3zM15.9,245.2c-0.2,-16 -2.8,-27.6 -5.5,-34.6c-1.2,-2.2 -2.5,-4.3 -3.9,-6.2c-0.8,1.2 -1.5,2.5 -2.1,3.9c-2.1,6.6 -4,18.8 -2.4,36c1.8,19.9 6.1,33.6 9.2,39.9c2.4,-6.3 5,-19.7 4.7,-39zM64.4,211.3c-0.9,-2 -1.8,-3.9 -2.8,-5.7c-1.2,1.8 -2.3,3.6 -3.4,5.6v0c-3,6.9 -6.1,18.8 -6.8,35.5c-0.8,19.1 1.4,32.4 3.5,38.8c3.3,-6.3 7.9,-20 10.3,-40c1.8,-15.5 0.8,-27.1 -0.8,-34.2zM119.6,209.1c-0.4,-1.3 -1,-2.8 -1.6,-4.4c-1.6,2.1 -3.2,4.3 -4.8,6.7c-4.1,7.4 -8.7,19.6 -11.5,35.4c-3.1,17.8 -3,30.7 -1.9,37.4c4.3,-6.4 10.9,-20.2 16.1,-40.7c4,-15.6 4.5,-27.4 3.7,-34.4z" fill="#fbc926"/></g><g><g fill="#6c301e"><g><path d="M60.21986,-29.9254c-23.1,0 -48.1,-6.6 -48.1,-21c0,-14.4 24.9,-21 48.1,-21c23.1,0 48.1,6.6 48.1,21c0,14.4 -24.9,21 -48.1,21zM25.41986,-50.9254c2.2,2.6 14.1,8 34.9,8c20.8,0 32.7,-5.4 34.9,-8c-2.2,-2.6 -14.1,-8 -34.9,-8c-20.8,0.1 -32.8,5.4 -34.9,8z"/></g><g><path d="M64.71986,21.2746c-23.1,0 -48.1,-6.6 -48.1,-21c0,-14.4 24.9,-21 48.1,-21c23.1,0 48.1,6.6 48.1,21c0,14.4 -24.9,21 -48.1,21zM29.91986,0.2746c2.2,2.6 14.1,8 34.9,8c20.8,0 32.7,-5.4 34.9,-8c-2.2,-2.6 -14.1,-8 -34.9,-8c-20.8,0 -32.8,5.4 -34.9,8z"/></g><g><path d="M92.31986,-35.3254c-2.6,0 -5,-1.5 -6,-4.1c-1.3,-3.3 0.3,-7.1 3.6,-8.5c13.1,-5.3 21,-13.3 21,-21.3c0,-6.5 -5.3,-13.1 -14.4,-18.2c-10.5,-5.9 -24.6,-9.1 -39.8,-9.1c-3.6,0 -6.5,-2.9 -6.5,-6.5c0,-3.6 2.9,-6.5 6.5,-6.5c37.7,0 67.2,17.7 67.2,40.3c0,13.7 -10.6,25.9 -29.1,33.4c-0.9,0.3 -1.7,0.5 -2.5,0.5z"/></g><g><path d="M56.61986,154.7746c-3.6,0 -6.5,-2.9 -6.5,-6.5c0,-3.6 2.9,-6.5 6.5,-6.5c15.1,0 29.2,-3.2 39.8,-9.1c9.2,-5.1 14.4,-11.7 14.4,-18.2c0,-8 -7.8,-16 -21,-21.3c-3.3,-1.3 -4.9,-5.1 -3.6,-8.5c1.3,-3.3 5.1,-4.9 8.5,-3.6c18.5,7.5 29.1,19.6 29.1,33.4c0,22.6 -29.5,40.3 -67.2,40.3z"/></g><g><path d="M98.51986,15.7746l-6.1,-11.5c14.1,-7.5 22.1,-17.8 22,-28.4c-0.2,-11.5 -7.8,-21.8 -21,-28.2l5.7,-11.7c17.7,8.7 28.1,23.2 28.3,39.7c0.2,15.7 -10.4,30.3 -28.9,40.1z"/></g><g><path d="M63.61986,69.6746c-23.1,0 -48.1,-6.6 -48.1,-21c0,-14.4 24.9,-21 48.1,-21c23.1,0 48.1,6.6 48.1,21c0,14.4 -24.9,21 -48.1,21zM28.81986,48.6746c2.2,2.6 14.1,8 34.9,8c20.8,0 32.7,-5.4 34.9,-8c-2.2,-2.6 -14.1,-8 -34.9,-8c-20.8,0 -32.8,5.4 -34.9,8z"/></g><g><path d="M97.31986,64.1746l-6.1,-11.5c14.1,-7.5 22.1,-17.8 22,-28.4c-0.2,-11.5 -7.8,-21.8 -21,-28.2l5.7,-11.7c17.7,8.7 28.1,23.2 28.3,39.7c0.3,15.7 -10.3,30.3 -28.9,40.1z"/></g><g><path d="M64.41986,119.1746c-23.1,0 -48.1,-6.6 -48.1,-21c0,-14.4 24.9,-21 48.1,-21c23.1,0 48.1,6.6 48.1,21c0,14.4 -24.9,21 -48.1,21zM29.61986,98.1746c2.2,2.6 14.1,8 34.9,8c20.8,0 32.7,-5.4 34.9,-8c-2.2,-2.6 -14.1,-8 -34.9,-8c-20.8,0 -32.8,5.4 -34.9,8z"/></g><g><path d="M98.11986,113.6746l-6.1,-11.5c14.1,-7.4 22.1,-17.8 22,-28.4c-0.2,-11.5 -7.8,-21.8 -21,-28.2l5.7,-11.7c17.7,8.7 28.1,23.2 28.3,39.7c0.3,15.7 -10.3,30.3 -28.9,40.1z"/></g></g><g fill="#ca974d"><g><path d="M56.21986,-34.9254c-23.1,0 -48.1,-6.6 -48.1,-21c0,-14.4 24.9,-21 48.1,-21c23.1,0 48.1,6.6 48.1,21c0,14.4 -24.9,21 -48.1,21zM21.41986,-55.9254c2.2,2.6 14.1,8 34.9,8c20.8,0 32.7,-5.4 34.9,-8c-2.2,-2.6 -14.1,-8 -34.9,-8c-20.8,0.1 -32.8,5.4 -34.9,8z"/></g><g><path d="M60.71986,16.2746c-23.1,0 -48.1,-6.6 -48.1,-21c0,-14.4 24.9,-21 48.1,-21c23.1,0 48.1,6.6 48.1,21c0,14.4 -24.9,21 -48.1,21zM25.91986,-4.7254c2.2,2.6 14.1,8 34.9,8c20.8,0 32.7,-5.4 34.9,-8c-2.2,-2.6 -14.1,-8 -34.9,-8c-20.8,0 -32.8,5.4 -34.9,8z"/></g><g><path d="M88.31986,-40.3254c-2.6,0 -5,-1.5 -6,-4.1c-1.3,-3.3 0.3,-7.1 3.6,-8.5c13.1,-5.3 21,-13.3 21,-21.3c0,-6.5 -5.3,-13.1 -14.4,-18.2c-10.5,-5.9 -24.6,-9.1 -39.8,-9.1c-3.6,0 -6.5,-2.9 -6.5,-6.5c0,-3.6 2.9,-6.5 6.5,-6.5c37.7,0 67.2,17.7 67.2,40.3c0,13.7 -10.6,25.9 -29.1,33.4c-0.9,0.3 -1.7,0.5 -2.5,0.5z"/></g><g><path d="M52.61986,149.7746c-3.6,0 -6.5,-2.9 -6.5,-6.5c0,-3.6 2.9,-6.5 6.5,-6.5c15.1,0 29.2,-3.2 39.8,-9.1c9.2,-5.1 14.4,-11.7 14.4,-18.2c0,-8 -7.8,-16 -21,-21.3c-3.3,-1.3 -4.9,-5.1 -3.6,-8.5c1.3,-3.3 5.1,-4.9 8.5,-3.6c18.5,7.5 29.1,19.6 29.1,33.4c0,22.6 -29.5,40.3 -67.2,40.3z"/></g><g><path d="M94.51986,10.7746l-6.1,-11.5c14.1,-7.5 22.1,-17.8 22,-28.4c-0.2,-11.5 -7.8,-21.8 -21,-28.2l5.7,-11.7c17.7,8.7 28.1,23.2 28.3,39.7c0.2,15.7 -10.4,30.3 -28.9,40.1z"/></g><g><path d="M59.61986,64.6746c-23.1,0 -48.1,-6.6 -48.1,-21c0,-14.4 24.9,-21 48.1,-21c23.1,0 48.1,6.6 48.1,21c0,14.4 -24.9,21 -48.1,21zM24.81986,43.6746c2.2,2.6 14.1,8 34.9,8c20.8,0 32.7,-5.4 34.9,-8c-2.2,-2.6 -14.1,-8 -34.9,-8c-20.8,0 -32.8,5.4 -34.9,8z"/></g><g><path d="M93.31986,59.1746l-6.1,-11.5c14.1,-7.5 22.1,-17.8 22,-28.4c-0.2,-11.5 -7.8,-21.8 -21,-28.2l5.7,-11.7c17.7,8.7 28.1,23.2 28.3,39.7c0.3,15.7 -10.3,30.3 -28.9,40.1z"/></g><g><path d="M60.41986,114.1746c-23.1,0 -48.1,-6.6 -48.1,-21c0,-14.4 24.9,-21 48.1,-21c23.1,0 48.1,6.6 48.1,21c0,14.4 -24.9,21 -48.1,21zM25.61986,93.1746c2.2,2.6 14.1,8 34.9,8c20.8,0 32.7,-5.4 34.9,-8c-2.2,-2.6 -14.1,-8 -34.9,-8c-20.8,0 -32.8,5.4 -34.9,8z"/></g><g><path d="M94.11986,108.6746l-6.1,-11.5c14.1,-7.4 22.1,-17.8 22,-28.4c-0.2,-11.5 -7.8,-21.8 -21,-28.2l5.7,-11.7c17.7,8.7 28.1,23.2 28.3,39.7c0.3,15.7 -10.3,30.3 -28.9,40.1z"/></g></g></g><g><path d="M-147.6,70.3c0.2,8.7 -3.1,17.2 -9.2,24.6c5.5,7.1 8.6,15.4 8.7,24.3c0.2,8.8 -3.1,17.2 -9.3,24.7c5.2,6.9 8.1,15 8.2,23.6c0.1,8.6 -3,16.8 -8.8,24.1c6.1,7.3 9.5,16 9.6,25.4c0.2,8.8 -3.1,17.2 -9.3,24.7c6.2,7.4 9.6,16.1 9.7,25.5c0.2,8.7 -3.1,17.2 -9.2,24.6c5.5,7.1 8.6,15.4 8.7,24.3c0.2,8.8 -3.1,17.2 -9.3,24.7c5.2,6.9 8.1,15 8.2,23.6c0.1,8.6 -3,16.8 -8.8,24.1c6.1,7.3 9.5,16 9.6,25.4c0.2,8.5 -2.9,16.6 -8.6,23.9c4.4,5.5 6.7,11.6 6.7,18c0,22.6 -29.5,40.3 -67.2,40.3c-3.6,0 -6.5,-2.9 -6.5,-6.5c0,-3.6 2.9,-6.5 6.5,-6.5c15.2,0 29.3,-3.2 39.8,-9.1c9.1,-5.1 14.4,-11.7 14.4,-18.2c0,-3 -1.1,-6 -3.1,-8.8v0c-2.5,2.8 -6.3,5.1 -10.8,6.9h-0.1v0c-9.2,3.7 -21.7,5.5 -33.7,5.5c-23.2,0 -48.1,-6.6 -48.1,-21c0,-14.4 25,-21 48.1,-21c16.2,0 33.2,3.2 42,10c0.8,0.5 1.5,1 2.3,1.5c3.5,-4.8 5.4,-9.9 5.3,-15c-0.1,-5.9 -2.2,-11.5 -6,-16.4c-2.5,2.8 -6.2,5 -10.6,6.8c0,0.1 -0.1,0.1 -0.1,0.1v0c-9.2,3.7 -21.7,5.5 -33.7,5.5c-23.2,0 -48.1,-6.6 -48.1,-21c0,-14.4 25,-21 48.1,-21c16.2,0 33.3,3.3 42.1,10.2c0.7,0.4 1.4,0.9 2.1,1.4c3.6,-4.7 5.5,-9.8 5.4,-15c-0.1,-5.2 -1.7,-10.1 -4.7,-14.6c-2.5,2.4 -5.9,4.5 -10,6.1c0,0.1 -0.1,0.1 -0.1,0.1v0c-9.2,3.7 -21.7,5.5 -33.7,5.5c-23.2,0 -48.1,-6.6 -48.1,-21c0,-14.4 25,-21 48.1,-21c11.7,0 23.9,1.7 33.1,5.2l0.1,-0.2c0.8,0.4 1.5,0.8 2.3,1.2c3.2,1.5 6,3.2 8.1,5.2c0.1,0.1 0.3,0.2 0.4,0.3c3.6,-4.8 5.6,-10 5.5,-15.2c-0.1,-5.5 -1.9,-10.7 -5.2,-15.3c-2.5,2.5 -6,4.5 -10.1,6.2h-0.1v0c-9.2,3.7 -21.7,5.5 -33.7,5.5c-23.2,0 -48.1,-6.6 -48.1,-21c0,-14.4 25,-21 48.1,-21c17.5,0 36,3.8 44,11.9c3.7,-4.8 5.7,-10 5.6,-15.3c-0.1,-6 -2.2,-11.6 -6.1,-16.6c-2.5,2.5 -6,4.5 -10.1,6.2h-0.1v0c-9.2,3.7 -21.7,5.5 -33.7,5.5c-23.2,0 -48.1,-6.6 -48.1,-21c0,-14.4 25,-21 48.1,-21c17.5,0 36,3.8 44,11.9c3.7,-4.8 5.7,-10 5.6,-15.3c-0.1,-5.9 -2.2,-11.5 -6,-16.4c-2.5,2.8 -6.2,5 -10.6,6.8c0,0.1 -0.1,0.1 -0.1,0.1v0c-9.2,3.7 -21.7,5.5 -33.7,5.5c-23.2,0 -48.1,-6.6 -48.1,-21c0,-14.4 25,-21 48.1,-21c16.2,0 33.3,3.3 42.1,10.2c0.7,0.4 1.4,0.9 2.1,1.4c3.6,-4.7 5.5,-9.8 5.4,-15c-0.1,-5.2 -1.7,-10.1 -4.7,-14.6c-2.5,2.4 -5.9,4.5 -10,6.1c0,0.1 -0.1,0.1 -0.1,0.1v0c-9.2,3.7 -21.7,5.5 -33.7,5.5c-23.2,0 -48.1,-6.6 -48.1,-21c0,-14.4 25,-21 48.1,-21c11.7,0 23.9,1.7 33.1,5.2l0.1,-0.2c0.8,0.4 1.5,0.8 2.3,1.2c3.2,1.5 6,3.2 8.1,5.2c0.1,0.1 0.3,0.2 0.4,0.3c3.6,-4.8 5.6,-10 5.5,-15.2c-0.1,-5.5 -1.9,-10.7 -5.2,-15.3c-2.5,2.5 -6,4.5 -10.1,6.2h-0.1v0c-9.2,3.7 -21.7,5.5 -33.7,5.5c-23.2,0 -48.1,-6.6 -48.1,-21c0,-14.4 25,-21 48.1,-21c17.5,0 36,3.8 44,11.9c3.7,-4.8 5.7,-10 5.6,-15.3c-0.1,-5.9 -2.2,-11.5 -6,-16.4c-2.5,2.8 -6.2,5 -10.6,6.8c0,0.1 -0.1,0.1 -0.1,0.1v0c-9.2,3.7 -21.7,5.5 -33.7,5.5c-23.2,0 -48.1,-6.6 -48.1,-21c0,-14.4 25,-21 48.1,-21c16.2,0 33.3,3.3 42.1,10.2c0.7,0.4 1.4,0.9 2.1,1.4c3.6,-4.7 5.5,-9.8 5.4,-15c-0.1,-5.2 -1.7,-10.1 -4.7,-14.6c-2.5,2.4 -5.9,4.5 -10,6.1c0,0.1 -0.1,0.1 -0.1,0.1v0c-9.2,3.7 -21.7,5.5 -33.7,5.5c-23.2,0 -48.1,-6.6 -48.1,-21c0,-14.4 25,-21 48.1,-21c11.7,0 23.9,1.7 33.1,5.2l0.1,-0.2c0.8,0.4 1.5,0.8 2.3,1.2c3.2,1.5 6,3.2 8.1,5.2c0.1,0.1 0.3,0.2 0.4,0.3c3.6,-4.8 5.6,-10 5.5,-15.2c-0.1,-6.6 -2.7,-12.8 -7.4,-18.1c-2.9,1.9 -6.2,3.7 -9.7,5.3c-9.4,4.7 -23.6,7 -37.1,7c-23.2,0 -48.1,-6.6 -48.1,-21c0,-14.4 25,-21 48.1,-21c14.4,0 29.5,2.5 38.8,7.9v0c2.8,1.4 5.5,2.9 7.9,4.6c2.5,-3.2 3.9,-6.5 3.9,-9.8c0,-6.5 -5.2,-13.1 -14.4,-18.2c-10.6,-5.9 -24.7,-9.1 -39.8,-9.1c-3.6,0 -6.5,-2.9 -6.5,-6.5c0,-3.6 2.9,-6.5 6.5,-6.5c37.7,0 67.2,17.7 67.2,40.3c0,6.5 -2.4,12.8 -7,18.3c6.7,7.6 10.5,16.7 10.6,26.6c0.2,8.8 -3.1,17.2 -9.3,24.7c5.2,6.9 8.1,15 8.2,23.6c0.1,8.6 -3,16.8 -8.8,24.1c6.2,7.4 9.5,16.1 9.9,25.9zM-214.6,-46.6c13.2,0 22.8,-2.2 28.6,-4.4c0.4,-0.3 0.7,-0.4 1.1,-0.6c1,-0.4 1.9,-0.8 2.8,-1.2c1.1,-0.7 2,-1.3 2.4,-1.8c-2.2,-2.6 -14.1,-8 -34.9,-8c-20.8,0 -32.7,5.4 -34.9,8c2.1,2.6 14.1,7.9 34.9,8zM-210.1,4.5c12.8,0 22.2,-2 28.1,-4.2c2.3,-1.2 4.4,-2.5 6.3,-3.9c-1.5,-1.1 -3.2,-2.1 -5,-3.1c-5.7,-2.3 -15.6,-4.7 -29.4,-4.7c-20.8,0 -32.7,5.4 -34.9,8c2.1,2.6 14.1,7.9 34.9,7.9zM-211.2,52.8c12.8,0 22.2,-2 28.1,-4.2c2.3,-1.3 4.4,-2.6 6.4,-4c-1.6,-1 -3.3,-2 -5.1,-2.9l0.1,-0.1c-5.8,-2.3 -15.7,-4.7 -29.5,-4.7c-20.8,0 -32.7,5.4 -34.9,8c2.1,2.6 14.1,8 34.9,7.9zM-210.4,102.3c12.8,0 22.2,-2 28.1,-4.2c2.2,-1.2 4.3,-2.5 6.2,-3.8c-1.9,-1.3 -4,-2.5 -6.2,-3.6v-0.1c-5.9,-2.2 -15.3,-4.2 -28.1,-4.2c-20.8,0 -32.7,5.4 -34.9,8c2.1,2.6 14.1,8 34.9,7.9zM-211,151.3c12.8,0 22.2,-2 28.1,-4.2c2.3,-1.2 4.4,-2.5 6.3,-3.9c-1.5,-1.1 -3.2,-2.1 -5,-3.1c-5.7,-2.3 -15.6,-4.7 -29.4,-4.7c-20.8,0 -32.7,5.4 -34.9,8c2.2,2.6 14.1,7.9 34.9,7.9zM-212.1,199.6c12.8,0 22.2,-2 28.1,-4.2c2.3,-1.3 4.4,-2.6 6.4,-4c-1.6,-1 -3.3,-2 -5.1,-2.9l0.1,-0.1c-5.8,-2.3 -15.7,-4.7 -29.5,-4.7c-20.8,0 -32.7,5.4 -34.9,8c2.2,2.6 14.1,8 34.9,7.9zM-211.3,249.1c12.8,0 22.2,-2 28.1,-4.2c2,-1 3.9,-2.2 5.7,-3.4c-1.5,-1 -3.1,-1.9 -4.8,-2.7l0.4,-0.9c-5.7,-2.3 -15.6,-4.7 -29.4,-4.7c-20.8,0 -32.7,5.4 -34.9,8c2.2,2.6 14.1,8 34.9,7.9zM-210.9,299.3c12.8,0 22.2,-2 28.1,-4.2c2.2,-1.2 4.3,-2.5 6.2,-3.8c-1.9,-1.3 -4,-2.5 -6.2,-3.6v-0.1c-5.9,-2.2 -15.3,-4.2 -28.1,-4.2c-20.8,0 -32.7,5.4 -34.9,8c2.1,2.6 14.1,8 34.9,7.9zM-211.5,348.3c12.8,0 22.2,-2 28.1,-4.2c2.3,-1.2 4.4,-2.5 6.3,-3.9c-1.5,-1.1 -3.2,-2.1 -5,-3.1c-5.7,-2.3 -15.6,-4.7 -29.4,-4.7c-20.8,0 -32.7,5.4 -34.9,8c2.2,2.6 14.1,8 34.9,7.9zM-212.6,396.7c12.8,0 22.2,-2 28.1,-4.2c2.3,-1.3 4.4,-2.6 6.4,-4c-1.6,-1 -3.3,-2 -5.1,-2.9l0.1,-0.1c-5.8,-2.4 -15.7,-4.8 -29.5,-4.8c-20.8,0 -32.7,5.4 -34.9,8c2.2,2.6 14.1,8 34.9,8zM-211.9,446.1c12.8,0 22.2,-2 28.1,-4.2c2.4,-1.3 4.5,-2.6 6.5,-4c-2.3,-1.3 -4.9,-2.6 -7.8,-3.8c-0.3,-0.2 -0.6,-0.3 -0.9,-0.5c-5.9,-1.8 -14.6,-3.4 -25.8,-3.4c-20.8,0 -32.7,5.4 -34.9,8c2.2,2.6 14.1,8 34.8,7.9z" fill="#637e77"/><path d="M-154.6,65.3c0.2,8.7 -3.1,17.2 -9.2,24.6c5.5,7.1 8.6,15.4 8.7,24.3c0.2,8.8 -3.1,17.2 -9.3,24.7c5.2,6.9 8.1,15 8.2,23.6c0.1,8.6 -3,16.8 -8.8,24.1c6.1,7.3 9.5,16 9.6,25.4c0.2,8.8 -3.1,17.2 -9.3,24.7c6.2,7.4 9.6,16.1 9.7,25.5c0.2,8.7 -3.1,17.2 -9.2,24.6c5.5,7.1 8.6,15.4 8.7,24.3c0.2,8.8 -3.1,17.2 -9.3,24.7c5.2,6.9 8.1,15 8.2,23.6c0.1,8.6 -3,16.8 -8.8,24.1c6.1,7.3 9.5,16 9.6,25.4c0.2,8.5 -2.9,16.6 -8.6,23.9c4.4,5.5 6.7,11.6 6.7,18c0,22.6 -29.5,40.3 -67.2,40.3c-3.6,0 -6.5,-2.9 -6.5,-6.5c0,-3.6 2.9,-6.5 6.5,-6.5c15.2,0 29.3,-3.2 39.8,-9.1c9.1,-5.1 14.4,-11.7 14.4,-18.2c0,-3 -1.1,-6 -3.1,-8.8v0c-2.5,2.8 -6.3,5.1 -10.8,6.9h-0.1v0c-9.2,3.7 -21.7,5.5 -33.7,5.5c-23.2,0 -48.1,-6.6 -48.1,-21c0,-14.4 25,-21 48.1,-21c16.2,0 33.2,3.2 42,10c0.8,0.5 1.5,1 2.3,1.5c3.5,-4.8 5.4,-9.9 5.3,-15c-0.1,-5.9 -2.2,-11.5 -6,-16.4c-2.5,2.8 -6.2,5 -10.6,6.8c0,0.1 -0.1,0.1 -0.1,0.1v0c-9.2,3.7 -21.7,5.5 -33.7,5.5c-23.2,0 -48.1,-6.6 -48.1,-21c0,-14.4 25,-21 48.1,-21c16.2,0 33.3,3.3 42.1,10.2c0.7,0.4 1.4,0.9 2.1,1.4c3.6,-4.7 5.5,-9.8 5.4,-15c-0.1,-5.2 -1.7,-10.1 -4.7,-14.6c-2.5,2.4 -5.9,4.5 -10,6.1c0,0.1 -0.1,0.1 -0.1,0.1v0c-9.2,3.7 -21.7,5.5 -33.7,5.5c-23.2,0 -48.1,-6.6 -48.1,-21c0,-14.4 25,-21 48.1,-21c11.7,0 23.9,1.7 33.1,5.2l0.1,-0.2c0.8,0.4 1.5,0.8 2.3,1.2c3.2,1.5 6,3.2 8.1,5.2c0.1,0.1 0.3,0.2 0.4,0.3c3.6,-4.8 5.6,-10 5.5,-15.2c-0.1,-5.5 -1.9,-10.7 -5.2,-15.3c-2.5,2.5 -6,4.5 -10.1,6.2h-0.1v0c-9.2,3.7 -21.7,5.5 -33.7,5.5c-23.2,0 -48.1,-6.6 -48.1,-21c0,-14.4 25,-21 48.1,-21c17.5,0 36,3.8 44,11.9c3.7,-4.8 5.7,-10 5.6,-15.3c-0.1,-6 -2.2,-11.6 -6.1,-16.6c-2.5,2.5 -6,4.5 -10.1,6.2h-0.1v0c-9.2,3.7 -21.7,5.5 -33.7,5.5c-23.2,0 -48.1,-6.6 -48.1,-21c0,-14.4 25,-21 48.1,-21c17.5,0 36,3.8 44,11.9c3.7,-4.8 5.7,-10 5.6,-15.3c-0.1,-5.9 -2.2,-11.5 -6,-16.4c-2.5,2.8 -6.2,5 -10.6,6.8c0,0.1 -0.1,0.1 -0.1,0.1v0c-9.2,3.7 -21.7,5.5 -33.7,5.5c-23.2,0 -48.1,-6.6 -48.1,-21c0,-14.4 25,-21 48.1,-21c16.2,0 33.3,3.3 42.1,10.2c0.7,0.4 1.4,0.9 2.1,1.4c3.6,-4.7 5.5,-9.8 5.4,-15c-0.1,-5.2 -1.7,-10.1 -4.7,-14.6c-2.5,2.4 -5.9,4.5 -10,6.1c0,0.1 -0.1,0.1 -0.1,0.1v0c-9.2,3.7 -21.7,5.5 -33.7,5.5c-23.2,0 -48.1,-6.6 -48.1,-21c0,-14.4 25,-21 48.1,-21c11.7,0 23.9,1.7 33.1,5.2l0.1,-0.2c0.8,0.4 1.5,0.8 2.3,1.2c3.2,1.5 6,3.2 8.1,5.2c0.1,0.1 0.3,0.2 0.4,0.3c3.6,-4.8 5.6,-10 5.5,-15.2c-0.1,-5.5 -1.9,-10.7 -5.2,-15.3c-2.5,2.5 -6,4.5 -10.1,6.2h-0.1v0c-9.2,3.7 -21.7,5.5 -33.7,5.5c-23.2,0 -48.1,-6.6 -48.1,-21c0,-14.4 25,-21 48.1,-21c17.5,0 36,3.8 44,11.9c3.7,-4.8 5.7,-10 5.6,-15.3c-0.1,-5.9 -2.2,-11.5 -6,-16.4c-2.5,2.8 -6.2,5 -10.6,6.8c0,0.1 -0.1,0.1 -0.1,0.1v0c-9.2,3.7 -21.7,5.5 -33.7,5.5c-23.2,0 -48.1,-6.6 -48.1,-21c0,-14.4 25,-21 48.1,-21c16.2,0 33.3,3.3 42.1,10.2c0.7,0.4 1.4,0.9 2.1,1.4c3.6,-4.7 5.5,-9.8 5.4,-15c-0.1,-5.2 -1.7,-10.1 -4.7,-14.6c-2.5,2.4 -5.9,4.5 -10,6.1c0,0.1 -0.1,0.1 -0.1,0.1v0c-9.2,3.7 -21.7,5.5 -33.7,5.5c-23.2,0 -48.1,-6.6 -48.1,-21c0,-14.4 25,-21 48.1,-21c11.7,0 23.9,1.7 33.1,5.2l0.1,-0.2c0.8,0.4 1.5,0.8 2.3,1.2c3.2,1.5 6,3.2 8.1,5.2c0.1,0.1 0.3,0.2 0.4,0.3c3.6,-4.8 5.6,-10 5.5,-15.2c-0.1,-6.6 -2.7,-12.8 -7.4,-18.1c-2.9,1.9 -6.2,3.7 -9.7,5.3c-9.4,4.7 -23.6,7 -37.1,7c-23.2,0 -48.1,-6.6 -48.1,-21c0,-14.4 25,-21 48.1,-21c14.4,0 29.5,2.5 38.8,7.9v0c2.8,1.4 5.5,2.9 7.9,4.6c2.5,-3.2 3.9,-6.5 3.9,-9.8c0,-6.5 -5.2,-13.1 -14.4,-18.2c-10.6,-5.9 -24.7,-9.1 -39.8,-9.1c-3.6,0 -6.5,-2.9 -6.5,-6.5c0,-3.6 2.9,-6.5 6.5,-6.5c37.7,0 67.2,17.7 67.2,40.3c0,6.5 -2.4,12.8 -7,18.3c6.7,7.6 10.5,16.7 10.6,26.6c0.2,8.8 -3.1,17.2 -9.3,24.7c5.2,6.9 8.1,15 8.2,23.6c0.1,8.6 -3,16.8 -8.8,24.1c6.2,7.4 9.5,16.1 9.9,25.9zM-221.6,-51.6c13.2,0 22.8,-2.2 28.6,-4.4c0.4,-0.3 0.7,-0.4 1.1,-0.6c1,-0.4 1.9,-0.8 2.8,-1.2c1.1,-0.7 2,-1.3 2.4,-1.8c-2.2,-2.6 -14.1,-8 -34.9,-8c-20.8,0 -32.7,5.4 -34.9,8c2.1,2.6 14.1,7.9 34.9,8zM-217.1,-0.5c12.8,0 22.2,-2 28.1,-4.2c2.3,-1.2 4.4,-2.5 6.3,-3.9c-1.5,-1.1 -3.2,-2.1 -5,-3.1c-5.7,-2.3 -15.6,-4.7 -29.4,-4.7c-20.8,0 -32.7,5.4 -34.9,8c2.1,2.6 14.1,7.9 34.9,7.9zM-218.2,47.8c12.8,0 22.2,-2 28.1,-4.2c2.3,-1.3 4.4,-2.6 6.4,-4c-1.6,-1 -3.3,-2 -5.1,-2.9l0.1,-0.1c-5.8,-2.3 -15.7,-4.7 -29.5,-4.7c-20.8,0 -32.7,5.4 -34.9,8c2.1,2.6 14.1,8 34.9,7.9zM-217.4,97.3c12.8,0 22.2,-2 28.1,-4.2c2.2,-1.2 4.3,-2.5 6.2,-3.8c-1.9,-1.3 -4,-2.5 -6.2,-3.6v-0.1c-5.9,-2.2 -15.3,-4.2 -28.1,-4.2c-20.8,0 -32.7,5.4 -34.9,8c2.1,2.6 14.1,8 34.9,7.9zM-218,146.3c12.8,0 22.2,-2 28.1,-4.2c2.3,-1.2 4.4,-2.5 6.3,-3.9c-1.5,-1.1 -3.2,-2.1 -5,-3.1c-5.7,-2.3 -15.6,-4.7 -29.4,-4.7c-20.8,0 -32.7,5.4 -34.9,8c2.2,2.6 14.1,7.9 34.9,7.9zM-219.1,194.6c12.8,0 22.2,-2 28.1,-4.2c2.3,-1.3 4.4,-2.6 6.4,-4c-1.6,-1 -3.3,-2 -5.1,-2.9l0.1,-0.1c-5.8,-2.3 -15.7,-4.7 -29.5,-4.7c-20.8,0 -32.7,5.4 -34.9,8c2.2,2.6 14.1,8 34.9,7.9zM-218.3,244.1c12.8,0 22.2,-2 28.1,-4.2c2,-1 3.9,-2.2 5.7,-3.4c-1.5,-1 -3.1,-1.9 -4.8,-2.7l0.4,-0.9c-5.7,-2.3 -15.6,-4.7 -29.4,-4.7c-20.8,0 -32.7,5.4 -34.9,8c2.2,2.6 14.1,8 34.9,7.9zM-217.9,294.3c12.8,0 22.2,-2 28.1,-4.2c2.2,-1.2 4.3,-2.5 6.2,-3.8c-1.9,-1.3 -4,-2.5 -6.2,-3.6v-0.1c-5.9,-2.2 -15.3,-4.2 -28.1,-4.2c-20.8,0 -32.7,5.4 -34.9,8c2.1,2.6 14.1,8 34.9,7.9zM-218.5,343.3c12.8,0 22.2,-2 28.1,-4.2c2.3,-1.2 4.4,-2.5 6.3,-3.9c-1.5,-1.1 -3.2,-2.1 -5,-3.1c-5.7,-2.3 -15.6,-4.7 -29.4,-4.7c-20.8,0 -32.7,5.4 -34.9,8c2.2,2.6 14.1,8 34.9,7.9zM-219.6,391.7c12.8,0 22.2,-2 28.1,-4.2c2.3,-1.3 4.4,-2.6 6.4,-4c-1.6,-1 -3.3,-2 -5.1,-2.9l0.1,-0.1c-5.8,-2.4 -15.7,-4.8 -29.5,-4.8c-20.8,0 -32.7,5.4 -34.9,8c2.2,2.6 14.1,8 34.9,8zM-218.9,441.1c12.8,0 22.2,-2 28.1,-4.2c2.4,-1.3 4.5,-2.6 6.5,-4c-2.3,-1.3 -4.9,-2.6 -7.8,-3.8c-0.3,-0.2 -0.6,-0.3 -0.9,-0.5c-5.9,-1.8 -14.6,-3.4 -25.8,-3.4c-20.8,0 -32.7,5.4 -34.9,8c2.2,2.6 14.1,8 34.8,7.9z" fill="#9ea0a4"/></g><g><path d="M752.6,226.8c-0.4,11.1 -4.5,21.5 -11.5,30.2c5.2,9.8 7.4,21.1 5.8,32.9c-1.4,11 -6.4,21 -14.2,29c3.8,9.8 4.6,20.7 2.1,31.7c-2.5,10.9 -8.5,20.4 -17,27.7c2.6,9.8 2.3,20.4 -1.1,30.9c-3.4,10.4 -9.9,19.1 -18.7,25.6c2.3,10.8 1.1,22.4 -3.7,33.5c-4.3,10.1 -11.6,18.2 -20.9,23.9c0.8,8.2 -0.8,16.3 -4.8,23.6c-14.4,26.1 -52,29.1 -83.2,8c-3,-2 -3.5,-6.4 -1.3,-9.9c2.2,-3.6 6.4,-4.9 9.5,-3c12.9,8 26.9,12.2 39.7,11.3c11.1,-0.8 20,-5.5 23.9,-12.7c1.8,-3.3 2.6,-7.1 2.5,-11.2v0c-3.8,1.9 -8.5,2.7 -13.5,2.5c-0.1,0 -0.1,0 -0.2,0v0c-10.3,-0.4 -22.3,-4.6 -32.7,-10.5c-20.2,-11.5 -38.3,-29.8 -31.3,-43.5c6.9,-13.6 32.3,-9.8 53.5,-0.3c14.6,6.6 28.5,17.3 32.8,28.7c0.5,0.9 0.9,1.8 1.3,2.7c5.8,-3.8 10.2,-8.8 12.8,-14.8c2.9,-6.8 3.8,-14.1 2.6,-21.2c-3.5,2.2 -8,3.3 -12.9,3.6c0,0 -0.1,0 -0.2,0v0c-10.2,0.5 -22.6,-2.5 -33.5,-7.4c-21.2,-9.4 -41,-25.9 -35.4,-40c5.5,-14.1 31.1,-12.7 53.1,-5.2c15.4,5.3 30.3,14.6 35.6,25.6c0.5,0.9 1,1.7 1.4,2.5c5.4,-4.3 9.3,-9.7 11.3,-15.8c2,-6.2 2.3,-12.5 1.1,-18.7c-3.2,2.1 -7.2,3.4 -11.7,4.1c0,0.1 -0.1,0.1 -0.2,0.1v0c-10.2,1.5 -22.8,-0.4 -34.1,-4.3c-22,-7.5 -43.2,-22 -39,-36.5c4.1,-14.4 29.9,-15.3 52.4,-9.9c11.4,2.7 22.8,7.7 30.6,14.1c0.1,-0.1 0.1,-0.1 0.2,-0.2c0.7,0.7 1.3,1.4 2,2.1c2.7,2.5 4.7,5.2 6.1,8.1c0.1,0.1 0.2,0.3 0.3,0.5c5.1,-4.8 8.6,-10.5 10,-16.9c1.5,-6.6 1.1,-13.3 -0.9,-19.6c-3,2.5 -6.9,4.2 -11.4,5.3c-0.1,0.1 -0.1,0.1 -0.2,0.1v0c-10,2.4 -22.7,1.7 -34.3,-1.1c-22.5,-5.4 -45,-17.9 -42.2,-32.6c2.7,-14.8 28.3,-18 51.2,-14.7c17.3,2.5 35.1,9.8 41.2,20.9c4.6,-5.2 7.6,-11.3 8.4,-17.8c0.9,-7.3 -0.3,-14.5 -3.5,-21c-2.8,2.7 -6.5,4.7 -10.8,6.2c-0.1,0 -0.1,0.1 -0.2,0.1v0c-9.8,3.3 -22.4,3.8 -34.3,2.1c-22.9,-3.2 -46.5,-13.4 -45.1,-28.3c1.3,-14.9 26.4,-20.5 49.6,-19.4c17.5,0.8 35.8,6.4 43,16.9c4.1,-5.6 6.5,-11.9 6.7,-18.4c0.3,-7.3 -1.6,-14.3 -5.3,-20.4c-2.5,3.2 -6.2,5.9 -10.7,7.9c-0.1,0 -0.1,0.1 -0.2,0.1v0c-9.4,4.1 -21.9,5.8 -33.9,5.2c-23.2,-1 -47.6,-9 -47.6,-23.9c0,-14.9 24.4,-22.9 47.6,-23.9c16.2,-0.7 33.5,2.5 42.4,10.7c0.8,0.6 1.5,1.2 2.2,1.8c3.5,-5.9 5.2,-12.2 4.8,-18.6c-0.3,-6.5 -2.3,-12.5 -5.7,-17.7c-2.2,3.1 -5.5,5.8 -9.4,8c-0.1,0 -0.1,0.1 -0.2,0.1v0c-9,5 -21.3,7.8 -33.3,8.3c-23.1,1 -48.2,-4.7 -49.5,-19.6c-1.4,-14.9 22.2,-25.1 45.2,-28.2c11.6,-1.6 24,-1.1 33.6,2c0.1,-0.1 0.1,-0.2 0.1,-0.3c0.9,0.4 1.8,0.9 2.7,1.3c3.4,1.4 6.3,3.1 8.6,5.3c0.2,0.1 0.3,0.3 0.5,0.4c3,-6.2 4.2,-12.9 3.2,-19.3c-1,-6.7 -3.7,-12.8 -7.9,-17.9c-1.9,3.4 -4.9,6.4 -8.7,9l-0.1,0.1v0c-8.5,5.9 -20.5,9.8 -32.4,11.4c-23,3.2 -48.5,-0.2 -51.2,-15c-2.8,-14.7 19.8,-27.1 42.4,-32.3c17,-3.9 36.2,-3.6 46,4.6c2.4,-6.6 3,-13.3 1.4,-19.7c-1.7,-7.2 -5.5,-13.4 -10.7,-18.3c-1.5,3.8 -4.4,7.4 -8.1,10.6c-0.1,0.1 -0.1,0.1 -0.2,0.2v0c-7.9,6.7 -19.5,11.7 -31.2,14.4c-22.6,5.3 -48.3,4.3 -52.4,-10.2c-4.1,-14.4 17.2,-28.9 39.2,-36.2c15.4,-5.2 33,-6.7 43.8,-1.2c0.9,0.3 1.7,0.7 2.6,1.1c1.8,-6.6 1.6,-13.3 -0.5,-19.4c-2.1,-6.2 -5.7,-11.5 -10.4,-15.7c-1.3,3.7 -3.7,7.2 -6.8,10.4c0,0.1 -0.1,0.1 -0.1,0.2v0c-7.2,7.3 -18.3,13.4 -29.7,17.2c-21.9,7.4 -47.7,8.7 -53.1,-5.5c-5.5,-14.2 14.4,-30.6 35.6,-39.9c10.7,-4.7 22.8,-7.7 32.9,-7.2c0,-0.1 0,-0.2 0,-0.3c0.9,0.1 1.9,0.3 2.9,0.5c3.6,0.4 6.9,1.3 9.7,2.8c0.2,0 0.4,0.1 0.6,0.2c1.1,-7 0.4,-13.8 -2.4,-19.8c-3.5,-7.6 -9.2,-13.6 -16.3,-17.6c-1.6,3.5 -3.6,6.9 -6.1,10.3c-6.1,9.2 -17.8,17.4 -30,22.9c-21.2,9.5 -46.7,13.3 -53.5,-0.3c-6.9,-13.6 11.2,-31.9 31.4,-43.3c12.5,-7.1 27.3,-11.7 38.7,-10.2c0,-0.1 0,-0.1 0,-0.1c3.3,0.1 6.5,0.6 9.6,1.3c0.4,-4.7 -0.4,-9 -2.4,-12.7c-3.9,-7.2 -12.8,-12 -23.9,-12.7c-12.8,-0.9 -26.9,3.3 -39.7,11.3c-3,1.8 -7.3,0.5 -9.5,-3c-2.3,-3.5 -1.7,-7.9 1.3,-9.9c31.2,-21.1 68.9,-18.1 83.2,8c4.1,7.5 5.6,15.7 4.7,24.1c10.4,5.6 18.8,14.6 24.1,26.2c4.7,10.3 5.8,21.7 3.4,32.7c8.1,6.3 14.3,15 17.9,25.4c3.6,10.3 3.7,21.3 0.6,31.7c8.4,7.2 14.5,17 17.3,28.6c2.7,10.8 1.6,21.9 -2.7,32.2c7.1,7.7 11.9,17.6 13.5,28.7c1.6,11 -0.5,22 -5.8,31.8c6,8.1 9.6,18 10.2,28.9c0.6,10.8 -2.3,21.2 -8.1,30.3c6.2,9.2 9.3,20.2 9.1,32.5zM650.1,-86c0.2,-0.4 0.4,-0.8 0.7,-1.1c0.7,-0.8 1.3,-1.7 1.9,-2.6c0.6,-1.2 1,-2.2 1.1,-3c-3.4,-2 -17,-2.3 -35.4,7.4c-18.4,9.7 -26.2,20.5 -26.9,24c3.2,1.5 16.5,1.6 35.2,-7.4c11.9,-5.7 19.4,-12.2 23.4,-17.3zM678.8,-30.4c1.6,-2.2 3,-4.4 4.2,-6.7c-2,-0.7 -4,-1.3 -6.1,-1.7c-6.4,-0.5 -16.6,0.5 -29.4,5.7c-19.2,7.9 -28.1,17.8 -29.1,21.2c3,1.8 16.3,3.2 35.8,-3.9c12,-4.4 20,-10 24.6,-14.6zM695.8,25.7c1.8,-2.1 3.5,-4.2 4.9,-6.4c-1.9,-0.8 -3.8,-1.5 -5.9,-2v-0.1c-6.2,-1.1 -16.6,-1 -29.8,3c-19.9,6 -29.7,15 -31,18.3c2.9,2 15.9,4.6 36,-0.7c12.4,-3.3 20.9,-8.1 25.8,-12.1zM709.6,83.5c2,-1.8 3.7,-3.7 5.3,-5.6c-2.1,-1.3 -4.4,-2.3 -6.9,-3.2v-0.1c-6.2,-1.5 -16,-2.1 -28.5,0.5c-20.3,4.1 -30.9,12.2 -32.5,15.3c2.7,2.4 15.4,6.1 35.9,2.7c12.6,-2 21.5,-6 26.7,-9.6zM620.3,476.4c11.3,6 20.9,8.2 27.3,8.5c2.8,-0.3 5.5,-0.8 8,-1.4c-1.4,-2.6 -3,-5.2 -4.9,-7.7c-0.2,-0.3 -0.4,-0.6 -0.6,-0.9c-4.3,-4.7 -11.3,-10.2 -21.4,-15.1c-18.6,-9 -32,-8.9 -35.2,-7.4c0.7,3.5 8.5,14.3 26.8,24zM671.9,429.8c2.7,-0.5 5.3,-1.2 7.8,-2.1c-1,-1.8 -2.2,-3.5 -3.5,-5.2l0.1,-0.1c-4.3,-4.7 -12.5,-10.9 -25.5,-15.7c-19.5,-7.2 -32.8,-5.9 -35.8,-4.1c1,3.4 9.8,13.4 29,21.3c11.9,4.9 21.5,6.1 27.9,5.9zM692.3,374.9c2.6,-0.7 5.1,-1.6 7.4,-2.7c-1.1,-1.7 -2.4,-3.4 -3.8,-5c-4.8,-4.2 -13.6,-9.6 -26.9,-13.2c-20.1,-5.4 -33.1,-3 -36,-0.9c1.3,3.3 11.1,12.4 30.9,18.5c12.2,3.8 22,4.2 28.4,3.3zM706.7,318c2.5,-1 4.8,-2.1 7,-3.3c-1.6,-2 -3.3,-3.8 -5.3,-5.5c0.1,0 0.1,-0.1 0.1,-0.1c-5.3,-3.6 -14.2,-7.6 -26.8,-9.8c-20.5,-3.6 -33.2,0.1 -35.9,2.4c1.7,3.1 12.2,11.2 32.5,15.5c12.5,2.7 22.3,2.2 28.4,0.8zM716.7,141.7c2.2,-1.7 4.1,-3.4 5.9,-5.2c-1.7,-1.2 -3.5,-2.3 -5.4,-3.3c-6,-2.2 -16.1,-4 -29.8,-2.5c-20.6,2.2 -31.9,9.3 -33.8,12.2c2.4,2.5 14.8,7.4 35.5,5.9c12.8,-0.9 22,-4.1 27.6,-7.1zM717.9,199.4c2.4,-1.4 4.5,-3 6.5,-4.7c-1.7,-1.3 -3.4,-2.4 -5.2,-3.5v-0.1c-5.7,-2.8 -15.7,-5.5 -29.5,-5.3c-20.7,0.4 -32.6,6.4 -34.8,9.1c2.2,2.7 14.1,8.7 34.8,9.1c12.8,0.2 22.2,-2.1 28.2,-4.6zM715.3,258.6c2.2,-1.1 4.2,-2.3 6.1,-3.6c-1.4,-1.3 -2.9,-2.6 -4.5,-3.7c0.2,-0.3 0.3,-0.7 0.5,-1c-5.4,-3.3 -15.1,-7 -28.8,-8c-20.7,-1.6 -33.1,3.3 -35.5,5.8c1.9,2.9 13.2,10 33.8,12.3c12.8,1.4 22.4,0 28.4,-1.8z" fill="#a0957f"/><path d="M747.6,221.8c-0.4,11.1 -4.5,21.5 -11.5,30.2c5.2,9.8 7.4,21.1 5.8,32.9c-1.4,11 -6.4,21 -14.2,29c3.8,9.8 4.6,20.7 2.1,31.7c-2.5,10.9 -8.5,20.4 -17,27.7c2.6,9.8 2.3,20.4 -1.1,30.9c-3.4,10.4 -9.9,19.1 -18.7,25.6c2.3,10.8 1.1,22.4 -3.7,33.5c-4.3,10.1 -11.6,18.2 -20.9,23.9c0.8,8.2 -0.8,16.3 -4.8,23.6c-14.4,26.1 -52,29.1 -83.2,8c-3,-2 -3.5,-6.4 -1.3,-9.9c2.2,-3.6 6.4,-4.9 9.5,-3c12.9,8 26.9,12.2 39.7,11.3c11.1,-0.8 20,-5.5 23.9,-12.7c1.8,-3.3 2.6,-7.1 2.5,-11.2v0c-3.8,1.9 -8.5,2.7 -13.5,2.5c-0.1,0 -0.1,0 -0.2,0v0c-10.3,-0.4 -22.3,-4.6 -32.7,-10.5c-20.2,-11.5 -38.3,-29.8 -31.3,-43.5c6.9,-13.6 32.3,-9.8 53.5,-0.3c14.6,6.6 28.5,17.3 32.8,28.7c0.5,0.9 0.9,1.8 1.3,2.7c5.8,-3.8 10.2,-8.8 12.8,-14.8c2.9,-6.8 3.8,-14.1 2.6,-21.2c-3.5,2.2 -8,3.3 -12.9,3.6c0,0 -0.1,0 -0.2,0v0c-10.2,0.5 -22.6,-2.5 -33.5,-7.4c-21.2,-9.4 -41,-25.9 -35.4,-40c5.5,-14.1 31.1,-12.7 53.1,-5.2c15.4,5.3 30.3,14.6 35.6,25.6c0.5,0.9 1,1.7 1.4,2.5c5.4,-4.3 9.3,-9.7 11.3,-15.8c2,-6.2 2.3,-12.5 1.1,-18.7c-3.2,2.1 -7.2,3.4 -11.7,4.1c0,0.1 -0.1,0.1 -0.2,0.1v0c-10.2,1.5 -22.8,-0.4 -34.1,-4.3c-22,-7.5 -43.2,-22 -39,-36.5c4.1,-14.4 29.9,-15.3 52.4,-9.9c11.4,2.7 22.8,7.7 30.6,14.1c0.1,-0.1 0.1,-0.1 0.2,-0.2c0.7,0.7 1.3,1.4 2,2.1c2.7,2.5 4.7,5.2 6.1,8.1c0.1,0.1 0.2,0.3 0.3,0.5c5.1,-4.8 8.6,-10.5 10,-16.9c1.5,-6.6 1.1,-13.3 -0.9,-19.6c-3,2.5 -6.9,4.2 -11.4,5.3c-0.1,0.1 -0.1,0.1 -0.2,0.1v0c-10,2.4 -22.7,1.7 -34.3,-1.1c-22.5,-5.4 -45,-17.9 -42.2,-32.6c2.7,-14.8 28.3,-18 51.2,-14.7c17.3,2.5 35.1,9.8 41.2,20.9c4.6,-5.2 7.6,-11.3 8.4,-17.8c0.9,-7.3 -0.3,-14.5 -3.5,-21c-2.8,2.7 -6.5,4.7 -10.8,6.2c-0.1,0 -0.1,0.1 -0.2,0.1v0c-9.8,3.3 -22.4,3.8 -34.3,2.1c-22.9,-3.2 -46.5,-13.4 -45.1,-28.3c1.3,-14.9 26.4,-20.5 49.6,-19.4c17.5,0.8 35.8,6.4 43,16.9c4.1,-5.6 6.5,-11.9 6.7,-18.4c0.3,-7.3 -1.6,-14.3 -5.3,-20.4c-2.5,3.2 -6.2,5.9 -10.7,7.9c-0.1,0 -0.1,0.1 -0.2,0.1v0c-9.4,4.1 -21.9,5.8 -33.9,5.2c-23.2,-1 -47.6,-9 -47.6,-23.9c0,-14.9 24.4,-22.9 47.6,-23.9c16.2,-0.7 33.5,2.5 42.4,10.7c0.8,0.6 1.5,1.2 2.2,1.8c3.5,-5.9 5.2,-12.2 4.8,-18.6c-0.3,-6.5 -2.3,-12.5 -5.7,-17.7c-2.2,3.1 -5.5,5.8 -9.4,8c-0.1,0 -0.1,0.1 -0.2,0.1v0c-9,5 -21.3,7.8 -33.3,8.3c-23.1,1 -48.2,-4.7 -49.5,-19.6c-1.4,-14.9 22.2,-25.1 45.2,-28.2c11.6,-1.6 24,-1.1 33.6,2c0.1,-0.1 0.1,-0.2 0.1,-0.3c0.9,0.4 1.8,0.9 2.7,1.3c3.4,1.4 6.3,3.1 8.6,5.3c0.2,0.1 0.3,0.3 0.5,0.4c3,-6.2 4.2,-12.9 3.2,-19.3c-1,-6.7 -3.7,-12.8 -7.9,-17.9c-1.9,3.4 -4.9,6.4 -8.7,9l-0.1,0.1v0c-8.5,5.9 -20.5,9.8 -32.4,11.4c-23,3.2 -48.5,-0.2 -51.2,-15c-2.8,-14.7 19.8,-27.1 42.4,-32.3c17,-3.9 36.2,-3.6 46,4.6c2.4,-6.6 3,-13.3 1.4,-19.7c-1.7,-7.2 -5.5,-13.4 -10.7,-18.3c-1.5,3.8 -4.4,7.4 -8.1,10.6c-0.1,0.1 -0.1,0.1 -0.2,0.2v0c-7.9,6.7 -19.5,11.7 -31.2,14.4c-22.6,5.3 -48.3,4.3 -52.4,-10.2c-4.1,-14.4 17.2,-28.9 39.2,-36.2c15.4,-5.2 33,-6.7 43.8,-1.2c0.9,0.3 1.7,0.7 2.6,1.1c1.8,-6.6 1.6,-13.3 -0.5,-19.4c-2.1,-6.2 -5.7,-11.5 -10.4,-15.7c-1.3,3.7 -3.7,7.2 -6.8,10.4c0,0.1 -0.1,0.1 -0.1,0.2v0c-7.2,7.3 -18.3,13.4 -29.7,17.2c-21.9,7.4 -47.7,8.7 -53.1,-5.5c-5.5,-14.2 14.4,-30.6 35.6,-39.9c10.7,-4.7 22.8,-7.7 32.9,-7.2c0,-0.1 0,-0.2 0,-0.3c0.9,0.1 1.9,0.3 2.9,0.5c3.6,0.4 6.9,1.3 9.7,2.8c0.2,0 0.4,0.1 0.6,0.2c1.1,-7 0.4,-13.8 -2.4,-19.8c-3.5,-7.6 -9.2,-13.6 -16.3,-17.6c-1.6,3.5 -3.6,6.9 -6.1,10.3c-6.1,9.2 -17.8,17.4 -30,22.9c-21.2,9.5 -46.7,13.3 -53.5,-0.3c-6.9,-13.6 11.2,-31.9 31.4,-43.3c12.5,-7.1 27.3,-11.7 38.7,-10.2c0,-0.1 0,-0.1 0,-0.1c3.3,0.1 6.5,0.6 9.6,1.3c0.4,-4.7 -0.4,-9 -2.4,-12.7c-3.9,-7.2 -12.8,-12 -23.9,-12.7c-12.8,-0.9 -26.9,3.3 -39.7,11.3c-3,1.8 -7.3,0.5 -9.5,-3c-2.3,-3.5 -1.7,-7.9 1.3,-9.9c31.2,-21.1 68.9,-18.1 83.2,8c4.1,7.5 5.6,15.7 4.7,24.1c10.4,5.6 18.8,14.6 24.1,26.2c4.7,10.3 5.8,21.7 3.4,32.7c8.1,6.3 14.3,15 17.9,25.4c3.6,10.3 3.7,21.3 0.6,31.7c8.4,7.2 14.5,17 17.3,28.6c2.7,10.8 1.6,21.9 -2.7,32.2c7.1,7.7 11.9,17.6 13.5,28.7c1.6,11 -0.5,22 -5.8,31.8c6,8.1 9.6,18 10.2,28.9c0.6,10.8 -2.3,21.2 -8.1,30.3c6.2,9.2 9.3,20.2 9.1,32.5zM645.1,-91c0.2,-0.4 0.4,-0.8 0.7,-1.1c0.7,-0.8 1.3,-1.7 1.9,-2.6c0.6,-1.2 1,-2.2 1.1,-3c-3.4,-2 -17,-2.3 -35.4,7.4c-18.4,9.7 -26.2,20.5 -26.9,24c3.2,1.5 16.5,1.6 35.2,-7.4c11.9,-5.7 19.4,-12.2 23.4,-17.3zM673.8,-35.4c1.6,-2.2 3,-4.4 4.2,-6.7c-2,-0.7 -4,-1.3 -6.1,-1.7c-6.4,-0.5 -16.6,0.5 -29.4,5.7c-19.2,7.9 -28.1,17.8 -29.1,21.2c3,1.8 16.3,3.2 35.8,-3.9c12,-4.4 20,-10 24.6,-14.6zM690.8,20.7c1.8,-2.1 3.5,-4.2 4.9,-6.4c-1.9,-0.8 -3.8,-1.5 -5.9,-2v-0.1c-6.2,-1.1 -16.6,-1 -29.8,3c-19.9,6 -29.7,15 -31,18.3c2.9,2 15.9,4.6 36,-0.7c12.4,-3.3 20.9,-8.1 25.8,-12.1zM704.6,78.5c2,-1.8 3.7,-3.7 5.3,-5.6c-2.1,-1.3 -4.4,-2.3 -6.9,-3.2v-0.1c-6.2,-1.5 -16,-2.1 -28.5,0.5c-20.3,4.1 -30.9,12.2 -32.5,15.3c2.7,2.4 15.4,6.1 35.9,2.7c12.6,-2 21.5,-6 26.7,-9.6zM615.3,471.4c11.3,6 20.9,8.2 27.3,8.5c2.8,-0.3 5.5,-0.8 8,-1.4c-1.4,-2.6 -3,-5.2 -4.9,-7.7c-0.2,-0.3 -0.4,-0.6 -0.6,-0.9c-4.3,-4.7 -11.3,-10.2 -21.4,-15.1c-18.6,-9 -32,-8.9 -35.2,-7.4c0.7,3.5 8.5,14.3 26.8,24zM666.9,424.8c2.7,-0.5 5.3,-1.2 7.8,-2.1c-1,-1.8 -2.2,-3.5 -3.5,-5.2l0.1,-0.1c-4.3,-4.7 -12.5,-10.9 -25.5,-15.7c-19.5,-7.2 -32.8,-5.9 -35.8,-4.1c1,3.4 9.8,13.4 29,21.3c11.9,4.9 21.5,6.1 27.9,5.9zM687.3,369.9c2.6,-0.7 5.1,-1.6 7.4,-2.7c-1.1,-1.7 -2.4,-3.4 -3.8,-5c-4.8,-4.2 -13.6,-9.6 -26.9,-13.2c-20.1,-5.4 -33.1,-3 -36,-0.9c1.3,3.3 11.1,12.4 30.9,18.5c12.2,3.8 22,4.2 28.4,3.3zM701.7,313c2.5,-1 4.8,-2.1 7,-3.3c-1.6,-2 -3.3,-3.8 -5.3,-5.5c0.1,0 0.1,-0.1 0.1,-0.1c-5.3,-3.6 -14.2,-7.6 -26.8,-9.8c-20.5,-3.6 -33.2,0.1 -35.9,2.4c1.7,3.1 12.2,11.2 32.5,15.5c12.5,2.7 22.3,2.2 28.4,0.8zM711.7,136.7c2.2,-1.7 4.1,-3.4 5.9,-5.2c-1.7,-1.2 -3.5,-2.3 -5.4,-3.3c-6,-2.2 -16.1,-4 -29.8,-2.5c-20.6,2.2 -31.9,9.3 -33.8,12.2c2.4,2.5 14.8,7.4 35.5,5.9c12.8,-0.9 22,-4.1 27.6,-7.1zM712.9,194.4c2.4,-1.4 4.5,-3 6.5,-4.7c-1.7,-1.3 -3.4,-2.4 -5.2,-3.5v-0.1c-5.7,-2.8 -15.7,-5.5 -29.5,-5.3c-20.7,0.4 -32.6,6.4 -34.8,9.1c2.2,2.7 14.1,8.7 34.8,9.1c12.8,0.2 22.2,-2.1 28.2,-4.6zM710.3,253.6c2.2,-1.1 4.2,-2.3 6.1,-3.6c-1.4,-1.3 -2.9,-2.6 -4.5,-3.7c0.2,-0.3 0.3,-0.7 0.5,-1c-5.4,-3.3 -15.1,-7 -28.8,-8c-20.7,-1.6 -33.1,3.3 -35.5,5.8c1.9,2.9 13.2,10 33.8,12.3c12.8,1.4 22.4,0 28.4,-1.8z" fill="#d7b18f"/></g><g><path d="M480.1,514.3c-2.7,3 -6.4,3.5 -8.4,1.3c-2,-2.2 -1.5,-6.4 1.1,-9.5c11.1,-12.9 19.9,-26.9 23.9,-39.7c3.6,-11.1 2.7,-20 -2.2,-23.9c-2.3,-1.8 -5.4,-2.6 -9.1,-2.5c1.2,11.7 -9.8,30.9 -22.6,46.5c-15.9,20.2 -36.1,38.3 -44.8,31.3c-9,-6.8 1,-32.3 14.8,-53.8c10,-14.8 23.6,-28.7 35.1,-32.9c0.9,-0.4 1.8,-0.8 2.7,-1.2c-1.5,-5.8 -4.7,-10.2 -9.3,-12.8c-5.4,-3 -11.9,-3.8 -18.7,-2.6c1,3.6 0.8,8.1 -0.3,13c0,0.1 0,0.1 0,0.2v0c-2.4,10.2 -8.5,22.6 -15.8,33.5c-13.6,21.2 -32,41 -42.2,35.4c-10.4,-5.5 -3.9,-31.1 7.2,-53.1c6.2,-11.9 14.8,-23.6 23.7,-30.7v0c0.1,0 0.1,-0.1 0.2,-0.1c2.5,-1.9 4.9,-3.5 7.4,-4.7c0.8,-0.4 1.7,-0.9 2.5,-1.3c-2.6,-5.4 -6.7,-9.4 -12,-11.4c-5.4,-2 -11.4,-2.3 -17.4,-1.1c1.3,3.2 1.7,7.1 1.4,11.5c0,0.1 0,0.3 0,0.4v0c-0.7,10.2 -5.1,22.8 -11,34.1c-10.9,22 -27.2,43.2 -38.6,39c-11.5,-4.1 -8.5,-29.9 -0.4,-52.4c4.2,-11.3 10.6,-22.7 17.9,-30.5c-0.1,0 -0.2,-0.1 -0.3,-0.2c1.1,-1 2.3,-1.9 3.4,-2.8c2.6,-2.3 5.3,-4.2 8,-5.4c0,0 0.1,-0.1 0.2,-0.1c-3.6,-5.1 -8.5,-8.6 -14.4,-10.1c-6.2,-1.5 -12.7,-1.2 -19,0.9c1.9,2.9 3,6.7 3.4,11c0,0.1 0.1,0.3 0.1,0.5c-0.1,0 -0.1,0 -0.1,0c0.9,10 -1.7,22.7 -5.9,34.3c-7.9,22.5 -21.5,45 -33.7,42.2c-12.4,-2.7 -13.1,-28.3 -8.3,-51.2c2.6,-11.9 7.5,-24 13.9,-32.4v0l0.1,-0.1c2.9,-3.8 6.1,-6.8 9.6,-8.7c-4.5,-4.7 -10.1,-7.6 -16.4,-8.5c-7.2,-1 -14.3,0.3 -20.8,3.5c2.3,2.7 4,6.2 5.1,10.3c0.1,0.3 0.2,0.5 0.3,0.7h-0.1c2.5,9.7 2,22.3 -0.4,34.2c-4.5,22.9 -14.9,46.5 -27.6,45.1c-12.8,-1.3 -17.4,-26.4 -16.1,-49.6c1,-17.5 6.7,-35.8 17,-43c-5.3,-4.2 -11.5,-6.6 -17.9,-6.8c-7.3,-0.2 -14.1,1.7 -20,5.4c3,2.4 5.5,5.8 7.4,10c0.2,0.2 0.3,0.5 0.5,0.8h-0.1c4.1,9.4 5.7,22 5.1,33.9c-1,23.2 -7.9,47.6 -20.8,47.6c-12.9,0 -21.1,-24.4 -23.3,-47.6c-1.2,-12.5 -0.2,-25.8 3.9,-35.3v0v0c1.2,-2.7 2.5,-5 4.2,-7c0.5,-0.7 1,-1.4 1.6,-2.1c-5.8,-3.5 -12.2,-5.3 -18.5,-4.9c-6.3,0.4 -12.1,2.4 -16.9,5.8c2.9,2.1 5.6,5 7.9,8.6c0.2,0.3 0.5,0.6 0.7,0.9c0,0.1 -0.1,0.1 -0.1,0.1c5.5,8.9 9,21.3 10.3,33.2c2.5,23.1 -0.8,48.2 -13.6,49.5c-12.7,1.4 -24.2,-22.2 -29.9,-45.2c-2.9,-11.6 -4.1,-24 -2.2,-33.6c-0.1,0 -0.2,-0.1 -0.3,-0.1c0.4,-1.1 0.8,-2.3 1.2,-3.4c1,-3.2 2.3,-5.9 4.1,-8.1c0,-0.1 0.1,-0.1 0.1,-0.2c-6.4,-3.1 -13.1,-4.3 -19.3,-3.3c-6.4,1 -11.9,3.8 -16.2,8c3.3,1.9 6.4,4.6 9.3,8c0.3,0.3 0.6,0.6 0.9,0.9l-0.1,0.1c6.8,8.4 12.2,20.5 15.3,32.3c5.9,23 6.4,48.5 -5.9,51.2c-12.1,2.8 -26.8,-19.8 -35.8,-42.4c-7,-17 -10.4,-36.2 -4.4,-46c-6.8,-2.5 -13.4,-3.1 -19.3,-1.5c-6.5,1.8 -11.7,5.5 -15.1,10.8c3.7,1.4 7.4,4 11,7.4c0.3,0.3 0.7,0.5 1,0.8l-0.1,0.1c7.9,7.9 15,19.5 19.9,31.1c9.3,22.6 13.5,48.3 2.1,52.4c-11.2,4.1 -28.6,-17.2 -40.6,-39.2c-8.7,-15.4 -14.8,-33 -12.4,-43.8c0.1,-0.9 0.2,-1.8 0.4,-2.6c-6.8,-1.8 -13.1,-1.6 -18.3,0.5c-5.1,2.2 -9,5.8 -11.5,10.5c3.5,1.2 7.1,3.4 10.7,6.2c0.4,0.2 0.7,0.5 1.1,0.7c-0.1,0 -0.1,0.1 -0.1,0.1c8.7,7.2 17.4,18.3 23.9,29.6c12.3,21.9 20,47.7 9.8,53.1c-10,5.5 -29.6,-14.4 -44.3,-35.6c-7.6,-10.7 -14.3,-22.8 -17.2,-32.9c0,0 -0.1,0 -0.2,0c-0.2,-1 -0.4,-2 -0.5,-2.9c-0.9,-3.8 -1.1,-7.2 -0.6,-10.1c0,-0.1 0,-0.2 0,-0.3c-6.7,-1.1 -12.8,-0.4 -17.4,2.4c-5.8,3.4 -9.1,9.1 -10,16.3c4.4,1.9 9.1,4.4 13.8,7.6c0.1,0 0.1,0.1 0.2,0.1c9.6,6.4 19.8,17.1 27.9,28.2c14.9,21.2 26.1,46.7 17.6,53.5c-8.3,6.9 -29.3,-11.2 -46.3,-31.4c-10.8,-12.5 -20.7,-27.3 -23.9,-38.7c-0.1,0 -0.1,0 -0.1,0c-1.1,-3.3 -2,-6.5 -2.6,-9.6c-4.3,-0.4 -7.8,0.4 -10.3,2.4c-4.7,3.9 -5,12.8 -0.9,23.9c4.8,12.8 14.3,26.9 26.2,39.7c2.7,3 3.4,7.3 1.6,9.5c-1.8,2.3 -5.5,1.7 -8.4,-1.3c-31,-31.2 -45.7,-68.9 -28.8,-83.2c5.1,-4.1 12,-5.7 19.9,-4.7c1,-10.3 6,-18.8 14.8,-24.1c8.1,-4.8 18.4,-5.8 29.5,-3.4c3.4,-8 9.6,-14.3 18.5,-17.9c9,-3.6 19.5,-3.7 30.3,-0.5c4.8,-8.4 12.9,-14.6 23.6,-17.4c10.2,-2.7 21.4,-1.6 32.2,2.8c6.3,-7.1 15.3,-11.8 26.1,-13.5c10.9,-1.6 22.1,0.5 32.3,5.9c7.4,-6.1 16.9,-9.7 27.8,-10.3c10.8,-0.6 21.3,2.3 30.5,8.2c8.9,-6.2 19.9,-9.4 31.8,-9c11.2,0.4 21.4,4.5 29.6,11.6c9.9,-5.3 21.3,-7.5 33,-5.9c10.8,1.4 20.1,6.5 26.9,14.3c10.1,-3.9 20.9,-4.7 31.4,-2.2c10.2,2.4 18.3,8.4 23.6,17c10,-2.6 20.2,-2.4 29.5,1.1c9,3.4 15.6,10 19.3,18.8c10.8,-2.4 21.3,-1.3 30.3,3.6c7.8,4.4 12.9,11.7 14.9,21c7.7,-0.8 14.5,0.7 19.7,4.8c17.7,14.4 5.1,52.1 -24.1,83.1zM-28.3,449.4c-0.3,-0.2 -0.7,-0.4 -1,-0.6c-1,-0.7 -2.1,-1.3 -3.1,-1.9c-1.3,-0.6 -2.3,-1 -3,-1.1c-0.4,3.4 4.6,17 19.7,35.4c14.7,18.4 26.2,26.2 29.2,26.9c0.1,-3.2 -4.3,-16.5 -18.3,-35.2c-9.1,-11.9 -17.6,-19.4 -23.5,-23.5zM11.7,420.8c-2.4,-1.6 -4.8,-2.9 -7.2,-4.1c-0.1,2 0,4 0.3,6.1c1.5,6.4 5.6,16.6 14.2,29.3c12.5,19.2 23.5,28.1 26.6,29.1c0.7,-3 -1.8,-16.3 -13.5,-35.8c-7.5,-12.1 -15,-20.1 -20.4,-24.6zM58.4,403.6c-2.3,-1.7 -4.6,-3.3 -6.9,-4.7c-0.3,1.9 -0.4,3.9 -0.4,5.9h-0.1c0.5,6.2 3.1,16.6 10,29.8c10.1,19.9 20.1,29.7 23.2,31c1.2,-2.9 0.6,-15.9 -8.5,-36c-5.8,-12.5 -12.3,-21 -17.3,-26zM123.5,416.8c-3.9,-12.8 -9.1,-21.7 -13.4,-27c-2,-1.9 -4,-3.6 -6.1,-5.1c-0.8,2.2 -1.4,4.5 -1.8,6.9h-0.1c-0.3,6.2 0.9,16 5.5,28.5c7.2,20.3 16,30.9 19,32.5c1.6,-2.6 3,-15.4 -3.1,-35.8zM173.9,410.5c-2,-12.9 -5.8,-22.2 -9.3,-27.8c-1.7,-2.1 -3.5,-4 -5.4,-5.7c-1,1.6 -1.9,3.4 -2.6,5.2c-1.5,6 -2.2,16.1 0.7,29.9c4.2,20.6 11.5,31.9 14.3,33.8c2,-2.4 5.3,-14.7 2.3,-35.4zM224.6,409.9c0.1,-12.9 -2.3,-22.4 -4.9,-28.3c-1.4,-2.3 -3,-4.4 -4.6,-6.3c-1.2,1.6 -2.2,3.3 -3.2,5.1h-0.1c-2.4,5.7 -4.7,15.7 -3.9,29.5c1.1,20.7 6.8,32.6 9.3,34.8c2.4,-2.1 7.5,-14 7.4,-34.8zM276.2,384.1c-0.9,-2.1 -2,-4.1 -3.1,-5.9c-1.3,1.4 -2.5,2.9 -3.7,4.5c-0.3,-0.2 -0.6,-0.3 -0.9,-0.5c-3.3,5.5 -7.1,15.1 -8.5,28.8c-2,20.7 1.9,33.1 4,35.5c2.6,-1.9 9.4,-13.2 12.6,-33.8c2.1,-12.8 1.2,-22.5 -0.4,-28.6zM331.9,392.6c-0.6,-2.4 -1.4,-4.7 -2.3,-6.8c-2,1.6 -4,3.4 -5.8,5.3v0c-3.9,5.3 -8.7,14.2 -12,26.8c-5.2,20.5 -3.2,33.2 -1.5,35.9c2.9,-1.7 11.2,-12.2 17.5,-32.5c4,-12.6 4.8,-22.3 4.1,-28.7zM374.6,435.7c5.8,-12.3 8,-22 8.5,-28.4c-0.3,-2.6 -0.6,-5 -1.2,-7.3c-1.8,1 -3.5,2.3 -5.2,3.6c-4.8,4.7 -11.4,13.6 -17,27c-8.1,20.1 -8.1,33.1 -6.8,36c3,-1.3 12.5,-11 21.7,-30.9zM428.5,427.7c0.2,-2.8 0.3,-5.3 0.1,-7.8c-1.9,1 -3.8,2.2 -5.6,3.5c-0.1,-0.1 -0.1,-0.1 -0.1,-0.1c-5.3,4.3 -12.9,12.6 -20.2,25.5c-10.7,19.5 -12.6,32.8 -11.8,35.8c3.1,-1 13.5,-9.8 25.1,-29c7.4,-11.8 11,-21.5 12.5,-27.9zM470,452.1c0.7,-2.8 1.1,-5.4 1.4,-8c-2.7,1.3 -5.5,2.9 -8.3,4.8c-0.3,0.2 -0.5,0.4 -0.8,0.5c-5.4,4.3 -12.4,11.3 -19.7,21.5c-13,18.6 -16.8,32 -16.5,35.2c3,-0.7 14.1,-8.5 27.9,-26.8c8.8,-11.3 13.7,-20.8 16,-27.2z" fill="#5d5e61"/><path d="M476.1,509.3c-2.7,3 -6.4,3.5 -8.4,1.3c-2,-2.2 -1.5,-6.4 1.1,-9.5c11.1,-12.9 19.9,-26.9 23.9,-39.7c3.6,-11.1 2.7,-20 -2.2,-23.9c-2.3,-1.8 -5.4,-2.6 -9.1,-2.5c1.2,11.7 -9.8,30.9 -22.6,46.5c-15.9,20.2 -36.1,38.3 -44.8,31.3c-9,-6.8 1,-32.3 14.8,-53.8c10,-14.8 23.6,-28.7 35.1,-32.9c0.9,-0.4 1.8,-0.8 2.7,-1.2c-1.5,-5.8 -4.7,-10.2 -9.3,-12.8c-5.4,-3 -11.9,-3.8 -18.7,-2.6c1,3.6 0.8,8.1 -0.3,13c0,0.1 0,0.1 0,0.2v0c-2.4,10.2 -8.5,22.6 -15.8,33.5c-13.6,21.2 -32,41 -42.2,35.4c-10.4,-5.5 -3.9,-31.1 7.2,-53.1c6.2,-11.9 14.8,-23.6 23.7,-30.7v0c0.1,0 0.1,-0.1 0.2,-0.1c2.5,-1.9 4.9,-3.5 7.4,-4.7c0.8,-0.4 1.7,-0.9 2.5,-1.3c-2.6,-5.4 -6.7,-9.4 -12,-11.4c-5.4,-2 -11.3,-2.3 -17.4,-1.1c1.3,3.2 1.7,7.1 1.4,11.5c0,0.1 0,0.3 0,0.4v0c-0.7,10.2 -5.1,22.8 -11,34.1c-10.9,22 -27.2,43.2 -38.6,39c-11.5,-4.1 -8.5,-29.9 -0.4,-52.4c4.2,-11.3 10.6,-22.7 17.9,-30.5c-0.1,0 -0.2,-0.1 -0.3,-0.2c1.1,-1 2.3,-1.9 3.4,-2.8c2.6,-2.3 5.3,-4.2 8,-5.4c0,0 0.1,-0.1 0.2,-0.1c-3.6,-5.1 -8.5,-8.6 -14.4,-10.1c-6.2,-1.5 -12.7,-1.2 -19,0.9c1.9,2.9 3,6.7 3.4,11c0,0.1 0.1,0.3 0.1,0.5c-0.1,0 -0.1,0 -0.1,0c0.9,10 -1.7,22.7 -5.9,34.3c-7.9,22.5 -21.5,45 -33.7,42.2c-12.4,-2.7 -13.1,-28.3 -8.3,-51.2c2.6,-11.9 7.5,-24 13.9,-32.4v0l0.1,-0.1c2.9,-3.8 6.1,-6.8 9.6,-8.7c-4.5,-4.7 -10.1,-7.6 -16.4,-8.5c-7.2,-1 -14.3,0.3 -20.8,3.5c2.3,2.7 4,6.2 5.1,10.3c0.1,0.3 0.2,0.5 0.3,0.7h-0.1c2.5,9.7 2,22.3 -0.4,34.2c-4.5,22.9 -14.9,46.5 -27.6,45.1c-12.8,-1.3 -17.4,-26.4 -16.1,-49.6c1,-17.5 6.7,-35.8 17,-43c-5.3,-4.2 -11.5,-6.6 -17.9,-6.8c-7.3,-0.2 -14.1,1.7 -20,5.4c3,2.4 5.5,5.8 7.4,10c0.2,0.2 0.3,0.5 0.5,0.8h-0.1c4.1,9.4 5.7,22 5.1,33.9c-1,23.2 -7.9,47.6 -20.8,47.6c-12.9,0 -21.1,-24.4 -23.3,-47.6c-1.2,-12.5 -0.2,-25.8 3.9,-35.3v0v0c1.2,-2.7 2.5,-5 4.2,-7c0.5,-0.7 1,-1.4 1.6,-2.1c-5.8,-3.5 -12.2,-5.3 -18.5,-4.9c-6.3,0.4 -12.1,2.4 -16.9,5.8c2.9,2.1 5.6,5 7.9,8.6c0.2,0.3 0.5,0.6 0.7,0.9c0,0.1 -0.1,0.1 -0.1,0.1c5.5,8.9 9,21.3 10.3,33.2c2.5,23.1 -0.8,48.2 -13.6,49.5c-12.7,1.4 -24.2,-22.2 -29.9,-45.2c-2.9,-11.6 -4.1,-24 -2.2,-33.6c-0.1,0 -0.2,-0.1 -0.3,-0.1c0.4,-1.1 0.8,-2.3 1.2,-3.4c1,-3.2 2.3,-5.9 4.1,-8.1c0,-0.1 0.1,-0.1 0.1,-0.2c-6.4,-3.1 -13.1,-4.3 -19.3,-3.3c-6.4,1 -11.9,3.8 -16.2,8c3.3,1.9 6.4,4.6 9.3,8c0.3,0.3 0.6,0.6 0.9,0.9l-0.1,0.1c6.8,8.4 12.2,20.5 15.3,32.3c5.9,23 6.4,48.5 -5.9,51.2c-12.1,2.8 -26.8,-19.8 -35.8,-42.4c-7,-17 -10.4,-36.2 -4.4,-46c-6.8,-2.5 -13.4,-3.1 -19.3,-1.5c-6.5,1.8 -11.7,5.5 -15.1,10.8c3.7,1.4 7.4,4 11,7.4c0.3,0.3 0.7,0.5 1,0.8l-0.1,0.1c7.9,7.9 15,19.5 19.9,31.1c9.3,22.6 13.5,48.3 2.1,52.4c-11.2,4.1 -28.6,-17.2 -40.6,-39.2c-8.7,-15.4 -14.8,-33 -12.4,-43.8c0.1,-0.9 0.2,-1.8 0.4,-2.6c-6.8,-1.8 -13.1,-1.6 -18.3,0.5c-5.1,2.2 -9,5.8 -11.5,10.5c3.5,1.2 7.1,3.4 10.7,6.2c0.4,0.2 0.7,0.5 1.1,0.7c-0.1,0 -0.1,0.1 -0.1,0.1c8.7,7.2 17.4,18.3 23.9,29.6c12.3,21.9 20,47.7 9.8,53.1c-10,5.5 -29.6,-14.4 -44.3,-35.6c-7.6,-10.7 -14.3,-22.8 -17.2,-32.9c0,0 -0.1,0 -0.2,0c-0.2,-1 -0.4,-2 -0.5,-2.9c-0.9,-3.8 -1.1,-7.2 -0.6,-10.1c0,-0.1 0,-0.2 0,-0.3c-6.7,-1.1 -12.8,-0.4 -17.4,2.4c-5.8,3.4 -9.1,9.1 -10,16.3c4.4,1.9 9.1,4.4 13.8,7.6c0.1,0 0.1,0.1 0.2,0.1c9.6,6.4 19.8,17.1 27.9,28.2c14.9,21.2 26.1,46.7 17.6,53.5c-8.3,6.9 -29.3,-11.2 -46.3,-31.4c-10.8,-12.5 -20.7,-27.3 -23.9,-38.7c-0.1,0 -0.1,0 -0.1,0c-1.1,-3.3 -2,-6.5 -2.6,-9.6c-4.3,-0.4 -7.8,0.4 -10.3,2.4c-4.7,3.9 -5,12.8 -0.9,23.9c4.8,12.8 14.3,26.9 26.2,39.7c2.7,3 3.4,7.3 1.6,9.5c-1.8,2.3 -5.5,1.7 -8.4,-1.3c-31,-31.2 -45.7,-68.9 -28.8,-83.2c5.1,-4.1 12,-5.7 19.9,-4.7c1,-10.3 6,-18.8 14.8,-24.1c8.1,-4.8 18.4,-5.8 29.5,-3.4c3.4,-8 9.6,-14.3 18.5,-17.9c9,-3.6 19.5,-3.7 30.3,-0.5c4.8,-8.4 12.9,-14.6 23.6,-17.4c10.2,-2.7 21.4,-1.6 32.2,2.8c6.3,-7.1 15.3,-11.8 26.1,-13.5c10.9,-1.6 22.1,0.5 32.3,5.9c7.4,-6.1 16.9,-9.7 27.8,-10.3c10.8,-0.6 21.3,2.3 30.5,8.2c8.9,-6.2 19.9,-9.4 31.8,-9c11.2,0.4 21.4,4.5 29.6,11.6c9.9,-5.3 21.3,-7.5 33,-5.9c10.8,1.4 20.1,6.5 26.9,14.3c10.1,-3.9 20.9,-4.7 31.4,-2.2c10.2,2.4 18.3,8.4 23.6,17c10,-2.6 20.2,-2.4 29.5,1.1c9,3.4 15.6,10 19.3,18.8c10.8,-2.4 21.3,-1.3 30.3,3.6c7.8,4.4 12.9,11.7 14.9,21c7.7,-0.8 14.5,0.7 19.7,4.8c17.7,14.4 5.1,52.1 -24.1,83.1zM-32.3,444.4c-0.3,-0.2 -0.7,-0.4 -1,-0.6c-1,-0.7 -2.1,-1.3 -3.1,-1.9c-1.3,-0.6 -2.3,-1 -3,-1.1c-0.4,3.4 4.6,17 19.7,35.4c14.7,18.4 26.2,26.2 29.2,26.9c0.1,-3.2 -4.3,-16.5 -18.3,-35.2c-9.1,-11.9 -17.6,-19.4 -23.5,-23.5zM7.7,415.8c-2.4,-1.6 -4.8,-2.9 -7.2,-4.1c-0.1,2 0,4 0.3,6.1c1.5,6.4 5.6,16.6 14.2,29.3c12.5,19.2 23.5,28.1 26.6,29.1c0.7,-3 -1.8,-16.3 -13.5,-35.8c-7.5,-12.1 -15,-20.1 -20.4,-24.6zM54.4,398.6c-2.3,-1.7 -4.6,-3.3 -6.9,-4.7c-0.3,1.9 -0.4,3.9 -0.4,5.9h-0.1c0.5,6.2 3.1,16.6 10,29.8c10.1,19.9 20.1,29.7 23.2,31c1.2,-2.9 0.6,-15.9 -8.5,-36c-5.8,-12.5 -12.3,-21 -17.3,-26zM119.5,411.8c-3.9,-12.8 -9.1,-21.7 -13.4,-27c-2,-1.9 -4,-3.6 -6.1,-5.1c-0.8,2.2 -1.4,4.5 -1.8,6.9h-0.1c-0.3,6.2 0.9,16 5.5,28.5c7.2,20.3 16,30.9 19,32.5c1.6,-2.6 3,-15.4 -3.1,-35.8zM169.9,405.5c-2,-12.9 -5.8,-22.2 -9.3,-27.8c-1.7,-2.1 -3.5,-4 -5.4,-5.7c-1,1.6 -1.9,3.4 -2.6,5.2c-1.5,6 -2.2,16.1 0.7,29.9c4.2,20.6 11.5,31.9 14.3,33.8c2,-2.4 5.3,-14.7 2.3,-35.4zM220.6,404.9c0.1,-12.9 -2.3,-22.4 -4.9,-28.3c-1.4,-2.3 -3,-4.4 -4.6,-6.3c-1.2,1.6 -2.2,3.3 -3.2,5.1h-0.1c-2.4,5.7 -4.7,15.7 -3.9,29.5c1.1,20.7 6.8,32.6 9.3,34.8c2.4,-2.1 7.5,-14 7.4,-34.8zM272.2,379.1c-0.9,-2.1 -2,-4.1 -3.1,-5.9c-1.3,1.4 -2.5,2.9 -3.7,4.5c-0.3,-0.2 -0.6,-0.3 -0.9,-0.5c-3.3,5.5 -7.1,15.1 -8.5,28.8c-2,20.7 1.9,33.1 4,35.5c2.6,-1.9 9.4,-13.2 12.6,-33.8c2.1,-12.8 1.2,-22.5 -0.4,-28.6zM327.9,387.6c-0.6,-2.4 -1.4,-4.7 -2.3,-6.8c-2,1.6 -4,3.4 -5.8,5.3v0c-3.9,5.3 -8.7,14.2 -12,26.8c-5.2,20.5 -3.2,33.2 -1.5,35.9c2.9,-1.7 11.2,-12.2 17.5,-32.5c4,-12.6 4.8,-22.3 4.1,-28.7zM370.6,430.7c5.8,-12.3 8,-22 8.5,-28.4c-0.3,-2.6 -0.6,-5 -1.2,-7.3c-1.8,1 -3.5,2.3 -5.2,3.6c-4.8,4.7 -11.4,13.6 -17,27c-8.1,20.1 -8.1,33.1 -6.8,36c3,-1.3 12.5,-11 21.7,-30.9zM424.5,422.7c0.2,-2.8 0.3,-5.3 0.1,-7.8c-1.9,1 -3.8,2.2 -5.6,3.5c-0.1,-0.1 -0.1,-0.1 -0.1,-0.1c-5.3,4.3 -12.9,12.6 -20.2,25.5c-10.7,19.5 -12.6,32.8 -11.8,35.8c3.1,-1 13.5,-9.8 25.1,-29c7.4,-11.8 11,-21.5 12.5,-27.9zM466,447.1c0.7,-2.8 1.1,-5.4 1.4,-8c-2.7,1.3 -5.5,2.9 -8.3,4.8c-0.3,0.2 -0.5,0.4 -0.8,0.5c-5.4,4.3 -12.4,11.3 -19.7,21.5c-13,18.6 -16.8,32 -16.5,35.2c3,-0.7 14.1,-8.5 27.9,-26.8c8.8,-11.3 13.7,-20.8 16,-27.2z" fill="#a0957f"/></g><g><g fill="#5d5e61"><path d="M396.9,-113c-2.6,6 -8.6,11.8 -16.6,16.2c4.2,7.2 4.9,14.4 0.7,23.2c-3.9,7.8 -11.2,15.9 -20.7,22.3c2.9,6.6 2.9,13.5 -0.3,21.5c-3.3,7.8 -9.3,15.6 -17.4,22.1c3.5,7.1 3.9,14.7 1,23.6c-2.8,8.2 -8.2,16.3 -15.5,23.1c2.9,6.9 3.2,14.4 1.1,22.9c-2.2,8.3 -6.6,16.5 -12.8,23.4c2.7,6.8 3.1,14.3 1.8,22.6c-1.6,8.1 -4.8,16 -9.6,22.9c3.3,7.1 4.3,15.4 3.6,24.4c-1.2,11.8 -5.4,22.9 -12.3,31.7c-4.3,8.1 -14.8,11.9 -30.5,12c-10,0 -23.8,-1.6 -37.4,-5.3c-13.3,-3.7 -26.5,-9.6 -28.7,-17.6c-2.6,-8 8.2,-13.4 21.5,-16.4c13.5,-3.1 29.3,-3.8 40.7,-3.1c18,1.2 29.9,5.4 34.5,13.4c2.4,-4.5 3.8,-9.5 4.2,-14.6c0.3,-5.7 -0.5,-11.1 -2.7,-16c-1.9,2.6 -4.5,4.6 -7.9,6.2v0v0c-6.9,3.2 -16.7,4.2 -29.2,3.3c-11.9,-0.9 -28.2,-3.7 -43.8,-8.4c-15.2,-4.7 -29.9,-11.3 -31,-19.4c-1.6,-8.1 11.9,-12.8 27.6,-14.9c16,-2.1 34,-1.5 47.1,0.2c19,2.7 31.9,7.2 37.5,14.3c0.5,0.5 1,1 1.4,1.5c3.1,-4.4 5,-9.3 5.8,-14.2c0.7,-5 0.3,-9.7 -1.3,-14.2c-2.3,2.2 -5.2,4 -8.8,5.2h-0.1v0c-8,2.8 -19.1,3.2 -32.9,1.2c-13.1,-1.8 -30.9,-5.8 -47.4,-11.5c-16.2,-5.7 -31.2,-13.1 -31.1,-21.1c-0.4,-8.1 14.8,-12.1 32,-13.2c17.4,-1.1 36.6,0.7 50.5,3.4c14.5,3 25.8,6.6 33.2,11.1l0.1,-0.1c0.5,0.3 1,0.7 1.5,1.1c2.5,1.8 4.5,3.7 5.9,5.8c0.2,0.2 0.3,0.4 0.5,0.6c3.9,-4.4 6.4,-9.2 7.6,-14.2c1.1,-5.3 0.8,-10.2 -0.9,-14.9c-2.7,2.1 -6.1,3.7 -10.2,4.8c-0.1,0.1 -0.1,0.1 -0.2,0.1v0c-9,2.3 -21.3,2 -35.9,-1.2c-14,-2.9 -32.6,-8.2 -49.5,-14.8c-16.6,-6.6 -31.4,-14.5 -29.9,-22.5c1,-8 17.5,-11.4 35.4,-11.6c18.2,-0.2 37.7,2.9 52,6.7c21.9,6.3 37.6,12.8 42.6,21.2c0,0.1 0.1,0.1 0.1,0.2c4.5,-4.2 7.7,-9 9.2,-13.9c1.6,-5.6 1.4,-10.8 -0.7,-15.9c-3.1,2.2 -7.1,3.8 -11.9,4.6c-0.2,0 -0.3,0.1 -0.4,0.1v0c-10,1.7 -23.2,0.4 -38.3,-4.1c-14.5,-4 -33.5,-10.6 -50,-18.1c-16.2,-7.6 -30,-15.9 -27.1,-23.8c2.5,-7.9 19.6,-10.8 37.6,-10.1c18.4,0.7 37.4,5.1 51.7,10.1c19.8,7.7 35.4,14.8 41.8,22.6c0.7,0.7 1.4,1.3 2,2c5,-3.9 8.6,-8.5 10.4,-13.2c1.8,-4.9 1.9,-9.5 0.5,-14c-3.2,1.8 -7.2,3 -11.8,3.5c-0.2,0 -0.4,0.1 -0.6,0.1c0,-0.1 0,-0.1 0,-0.1c-10.6,1.1 -24.2,-1.1 -38.7,-6.9c-26.3,-10.6 -75.2,-30.7 -67.9,-45.8c4,-7.7 20.4,-10.3 37,-8.8c16.9,1.4 33.8,7 47,13.2c13.3,7 25.3,13.2 33.4,19.2c0,-0.1 0.1,-0.1 0.1,-0.1c0.4,0.3 0.7,0.6 1,0.9c2.8,2.3 5.1,4.5 6.7,6.7c0.3,0.4 0.7,0.8 1,1.2c5.7,-3.7 9.8,-8.2 11.9,-12.9c2.6,-5.9 2.3,-11.5 -0.5,-17.3c-4.5,1.2 -9.3,1.9 -14.2,2c-11.3,0.5 -25.9,-3.3 -40.5,-11.2c-25.2,-13.8 -67.5,-34.6 -55.5,-49.1c6.2,-7.5 21.8,-10.1 36.4,-8.1c14.9,1.9 28.8,8.5 40.2,16.2c13.6,10.5 27.3,20 34.5,28.3v0c2.3,2.2 4.3,4.2 6.2,6.2c3.9,-2.2 6.9,-4.8 8.7,-7.5c14.2,-21 -16.7,-43.9 -38.3,-53.4c-3.7,-1.6 -3.7,-7.5 -1.2,-11c2.5,-3.5 6.1,-3.2 9.5,-1.5c23.4,11.7 54.9,45 45.5,66.9zM289.6,182.4c1.5,-1.2 2.9,-2.5 4.2,-3.8c-2,-2.6 -8.4,-7.7 -27.5,-8.6c-20.5,-0.9 -39.2,4.1 -41.4,6.9c3.7,2.9 23.8,8.9 42.9,9.2c11.4,0.2 18,-1.6 21.8,-3.7zM289.8,134.1c1.8,-1.1 3.6,-2.3 5.2,-3.5c-1.1,-1.1 -2.3,-2.1 -3.7,-3.1v-0.1c-4.2,-2.7 -12.3,-5.8 -27.5,-7.6c-23.6,-2.8 -46,0.9 -49.1,3.5c3.9,3.2 26.6,10.7 49.1,12.7c13.4,1.2 21.3,-0.1 26,-1.9zM295.4,87.1c2.1,-0.9 4.1,-2 6,-3.1c-1.1,-1.2 -2.4,-2.4 -3.8,-3.5c-4.5,-2.9 -13.2,-6.6 -29.5,-9.6c-25.3,-4.6 -49.9,-2.3 -53.7,0.1c3.8,3.4 27.6,12.3 52.2,16.1c14.6,2.3 23.5,1.6 28.8,0zM304.5,40.2c2.4,-0.8 4.6,-1.7 6.7,-2.7c-1.5,-1.5 -3.1,-3 -5,-4.5c0.1,-0.1 0.1,-0.1 0.1,-0.1c-5,-3.1 -14,-7.2 -29.7,-11.1c-26.2,-6.6 -52.1,-5.7 -56.4,-3.5c3.4,3.5 27.4,13.7 53.3,19.5c15.4,3.5 25.2,3.4 31,2.4zM316.3,-7.3c2.7,-0.6 5.2,-1.4 7.6,-2.3c-1.2,-1.3 -2.6,-2.6 -4.2,-3.9c0.1,0 0.1,-0.1 0.1,-0.1c-5,-3.6 -14.4,-8.8 -31.5,-14.5c-26.2,-8.8 -52.4,-9.1 -57.2,-7.1c3,3.6 26,15 52.6,23c15.8,4.8 26.2,5.5 32.6,4.9zM333,-52.6c2.8,-0.4 5.4,-1 7.9,-1.8c-1.2,-1.4 -2.5,-2.8 -3.9,-4.2c-4.8,-4 -14.2,-9.9 -30.3,-17.1c-24.4,-10.9 -48.5,-12.2 -53.5,-10.4c2.2,3.8 22.1,16.2 47.4,26.2c15.2,6.1 25.7,7.5 32.4,7.3zM317.1,-112.8c14.3,7.9 24.9,10.6 31.7,11.1c0.5,0 0.9,0 1.4,0c1.3,0 2.4,0 3.6,0c1.3,-0.2 2.3,-0.4 3,-0.7c-1.4,-3.1 -10.4,-12.6 -31.7,-26c-21.4,-13.5 -42.9,-15.3 -48.2,-13.7v0v0c-4.8,10.1 16.8,16.6 40.2,29.3zM280.1,-148.8c0.1,-0.1 0.1,-0.2 0.1,-0.2c0,0 0,0.1 -0.1,0.2zM279.9,-148.3c0.1,-0.1 0.1,-0.3 0.2,-0.4c-0.1,0.1 -0.2,0.3 -0.2,0.4zM279.5,-147.3c0.1,-0.3 0.2,-0.5 0.3,-0.7c-0.1,0.1 -0.2,0.4 -0.3,0.7zM278.7,-145.8c0,-0.1 0.1,-0.1 0.1,-0.2c0,0 -0.1,0.1 -0.1,0.2zM278.5,-145.4c0.1,-0.1 0.1,-0.2 0.2,-0.3c-0.1,0.1 -0.2,0.2 -0.2,0.3zM278.1,-144.5c0,-0.2 0.1,-0.3 0.2,-0.5c-0.1,0.1 -0.1,0.3 -0.2,0.5zM277.2,-142.5c0,-0.2 0.1,-0.3 0.2,-0.5c-0.1,0.1 -0.2,0.3 -0.2,0.5zM277,-142.2c0,-0.1 0.1,-0.1 0.1,-0.2c-0.1,0 -0.1,0.1 -0.1,0.2z"/><g><path d="M288.5,237.3c-4.3,2.8 -7,-1.2 -7.8,-3.3c-0.6,-1.5 0,-5.1 3.7,-7.5c8.8,-6.7 13.4,-16.1 14.2,-25.9c0.6,-10.6 -2.8,-20 -12.3,-26.9c1.7,-3.5 3.5,-7 5.3,-10.5c12.1,9.2 16,22 14.8,37.3c-1.5,14.6 -7.6,27.9 -17.9,36.8z"/></g></g><g fill="#c4c6c8"><path d="M395.3,-117.8c-2.6,6 -8.6,11.8 -16.6,16.2c4.2,7.2 4.9,14.4 0.7,23.2c-3.9,7.8 -11.2,15.9 -20.7,22.3c2.9,6.6 2.9,13.5 -0.3,21.5c-3.3,7.8 -9.3,15.6 -17.4,22.1c3.5,7.1 3.9,14.7 1,23.6c-2.8,8.2 -8.2,16.3 -15.5,23.1c2.9,6.9 3.2,14.4 1.1,22.9c-2.2,8.3 -6.6,16.5 -12.8,23.4c2.7,6.8 3.1,14.3 1.8,22.6c-1.6,8.1 -4.8,16 -9.6,22.9c3.3,7.1 4.3,15.4 3.6,24.4c-1.2,11.8 -5.4,22.9 -12.3,31.7c-4.3,8.1 -14.8,11.9 -30.5,12c-10,0 -23.8,-1.6 -37.4,-5.3c-13.3,-3.7 -26.5,-9.6 -28.7,-17.6c-2.6,-8 8.2,-13.4 21.5,-16.4c13.5,-3.1 29.3,-3.8 40.7,-3.1c18,1.2 29.9,5.4 34.5,13.4c2.4,-4.5 3.8,-9.5 4.2,-14.6c0.3,-5.7 -0.5,-11.1 -2.7,-16c-1.9,2.6 -4.5,4.6 -7.9,6.2v0v0c-6.9,3.2 -16.7,4.2 -29.2,3.3c-11.9,-0.9 -28.2,-3.7 -43.8,-8.4c-15.2,-4.7 -29.9,-11.3 -31,-19.4c-1.6,-8.1 11.9,-12.8 27.6,-14.9c16,-2.1 34,-1.5 47.1,0.2c19,2.7 31.9,7.2 37.5,14.3c0.5,0.5 1,1 1.4,1.5c3.1,-4.4 5,-9.3 5.8,-14.2c0.7,-5 0.3,-9.7 -1.3,-14.2c-2.3,2.2 -5.2,4 -8.8,5.2h-0.1v0c-8,2.8 -19.1,3.2 -32.9,1.2c-13.1,-1.8 -30.9,-5.8 -47.4,-11.5c-16.2,-5.7 -31.2,-13.1 -31.1,-21.1c-0.4,-8.1 14.8,-12.1 32,-13.2c17.4,-1.1 36.6,0.7 50.5,3.4c14.5,3 25.8,6.6 33.2,11.1l0.1,-0.1c0.5,0.3 1,0.7 1.5,1.1c2.5,1.8 4.5,3.7 5.9,5.8c0.2,0.2 0.3,0.4 0.5,0.6c3.9,-4.4 6.4,-9.2 7.6,-14.2c1.1,-5.3 0.8,-10.2 -0.9,-14.9c-2.7,2.1 -6.1,3.7 -10.2,4.8c-0.1,0.1 -0.1,0.1 -0.2,0.1v0c-9,2.3 -21.3,2 -35.9,-1.2c-14,-2.9 -32.6,-8.2 -49.5,-14.8c-16.6,-6.6 -31.4,-14.5 -29.9,-22.5c1,-8 17.5,-11.4 35.4,-11.6c18.2,-0.2 37.7,2.9 52,6.7c21.9,6.3 37.6,12.8 42.6,21.2c0,0.1 0.1,0.1 0.1,0.2c4.5,-4.2 7.7,-9 9.2,-13.9c1.6,-5.6 1.4,-10.8 -0.7,-15.9c-3.1,2.2 -7.1,3.8 -11.9,4.6c-0.2,0 -0.3,0.1 -0.4,0.1v0c-10,1.7 -23.2,0.4 -38.3,-4.1c-14.5,-4 -33.5,-10.6 -50,-18.1c-16.2,-7.6 -30,-15.9 -27.1,-23.8c2.5,-7.9 19.6,-10.8 37.6,-10.1c18.4,0.7 37.4,5.1 51.7,10.1c19.8,7.7 35.4,14.8 41.8,22.6c0.7,0.7 1.4,1.3 2,2c5,-3.9 8.6,-8.5 10.4,-13.2c1.8,-4.9 1.9,-9.5 0.5,-14c-3.2,1.8 -7.2,3 -11.8,3.5c-0.2,0 -0.4,0.1 -0.6,0.1c0,-0.1 0,-0.1 0,-0.1c-10.6,1.1 -24.2,-1.1 -38.7,-6.9c-26.3,-10.6 -75.2,-30.7 -67.9,-45.8c4,-7.7 20.4,-10.3 37,-8.8c16.9,1.4 33.8,7 47,13.2c13.3,7 25.3,13.2 33.4,19.2c0,-0.1 0.1,-0.1 0.1,-0.1c0.4,0.3 0.7,0.6 1,0.9c2.8,2.3 5.1,4.5 6.7,6.7c0.3,0.4 0.7,0.8 1,1.2c5.7,-3.7 9.8,-8.2 11.9,-12.9c2.6,-5.9 2.3,-11.5 -0.5,-17.3c-4.5,1.2 -9.3,1.9 -14.2,2c-11.3,0.5 -25.9,-3.3 -40.5,-11.2c-25.2,-13.8 -67.5,-34.6 -55.5,-49.1c6.2,-7.5 21.8,-10.1 36.4,-8.1c15,1.8 28.8,8.4 40.3,16.1c13.5,10.5 27.3,20 34.4,28.4v0c2.3,2.2 4.3,4.2 6.2,6.2c3.9,-2.2 6.9,-4.8 8.7,-7.5c14.2,-21 -16.7,-43.9 -38.3,-53.4c-3.7,-1.6 -3.7,-7.5 -1.2,-11c2.5,-3.5 6.1,-3.2 9.5,-1.5c23.4,11.7 54.9,45 45.5,66.9zM288,177.6c1.5,-1.2 2.9,-2.5 4.2,-3.8c-2,-2.6 -8.4,-7.7 -27.5,-8.6c-20.5,-0.9 -39.2,4.1 -41.4,6.9c3.7,2.9 23.8,8.9 42.9,9.2c11.4,0.2 18,-1.6 21.8,-3.7zM288.2,129.3c1.8,-1.1 3.6,-2.3 5.2,-3.5c-1.1,-1.1 -2.3,-2.1 -3.7,-3.1v-0.1c-4.2,-2.7 -12.3,-5.8 -27.5,-7.6c-23.6,-2.8 -46,0.9 -49.1,3.5c3.9,3.2 26.6,10.7 49.1,12.7c13.4,1.2 21.3,-0.1 26,-1.9zM293.8,82.3c2.1,-0.9 4.1,-2 6,-3.1c-1.1,-1.2 -2.4,-2.4 -3.8,-3.5c-4.5,-2.9 -13.2,-6.6 -29.5,-9.6c-25.3,-4.6 -49.9,-2.3 -53.7,0.1c3.8,3.4 27.6,12.3 52.2,16.1c14.6,2.3 23.5,1.5 28.8,0zM302.9,35.4c2.4,-0.8 4.6,-1.7 6.7,-2.7c-1.5,-1.5 -3.1,-3 -5,-4.5c0.1,-0.1 0.1,-0.1 0.1,-0.1c-5,-3.1 -14,-7.2 -29.7,-11.1c-26.2,-6.6 -52.1,-5.7 -56.4,-3.5c3.4,3.5 27.4,13.7 53.3,19.5c15.4,3.4 25.1,3.3 31,2.4zM314.7,-12.1c2.7,-0.6 5.2,-1.4 7.6,-2.3c-1.2,-1.3 -2.6,-2.6 -4.2,-3.9c0.1,0 0.1,-0.1 0.1,-0.1c-5,-3.6 -14.4,-8.8 -31.5,-14.5c-26.2,-8.8 -52.4,-9.1 -57.2,-7.1c3,3.6 26,15 52.6,23c15.8,4.8 26.2,5.5 32.6,4.9zM331.4,-57.4c2.8,-0.4 5.4,-1 7.9,-1.8c-1.2,-1.4 -2.5,-2.8 -3.9,-4.2c-4.8,-4 -14.2,-9.9 -30.3,-17.1c-24.4,-10.9 -48.5,-12.2 -53.5,-10.4c2.2,3.8 22.1,16.2 47.4,26.2c15.2,6.1 25.7,7.5 32.4,7.3zM315.5,-117.6c14.3,7.9 24.9,10.6 31.7,11.1c0.5,0 0.9,0 1.4,0c1.3,0 2.4,0 3.6,0c1.3,-0.2 2.3,-0.4 3,-0.7c-1.4,-3.1 -10.4,-12.6 -31.7,-26c-21.4,-13.5 -42.9,-15.3 -48.2,-13.7v0v0c-4.8,10.1 16.8,16.6 40.2,29.3zM278.5,-153.6c0.1,-0.1 0.1,-0.2 0.1,-0.2c0,0 0,0 -0.1,0.2zM278.3,-153.1c0.1,-0.1 0.1,-0.3 0.2,-0.4c-0.1,0.1 -0.2,0.3 -0.2,0.4zM277.9,-152.2c0.1,-0.3 0.2,-0.5 0.3,-0.7c-0.1,0.2 -0.2,0.5 -0.3,0.7zM277.1,-150.6c0,-0.1 0.1,-0.1 0.1,-0.2c0,0 -0.1,0.1 -0.1,0.2zM276.8,-150.2c0.1,-0.1 0.1,-0.2 0.2,-0.3c0,0.1 -0.1,0.2 -0.2,0.3zM276.5,-149.3c0,-0.2 0.1,-0.3 0.2,-0.5c-0.1,0.1 -0.1,0.3 -0.2,0.5zM275.6,-147.4c0,-0.2 0.1,-0.3 0.2,-0.5c-0.1,0.2 -0.2,0.4 -0.2,0.5zM275.4,-147c0,-0.1 0.1,-0.1 0.1,-0.2c-0.1,0 -0.1,0.1 -0.1,0.2z"/><g><path d="M286.9,232.5c-4.3,2.8 -7,-1.2 -7.8,-3.3c-0.6,-1.5 0,-5.1 3.7,-7.5c8.8,-6.7 13.4,-16.1 14.2,-25.9c0.6,-10.6 -2.8,-20 -12.3,-26.9c1.7,-3.5 3.5,-7 5.3,-10.5c12.1,9.1 16,22 14.8,37.3c-1.5,14.5 -7.6,27.9 -17.9,36.8z"/></g></g></g></g></g></svg>