<svg version="1.1" xmlns="http://www.w3.org/2000/svg" xmlns:xlink="http://www.w3.org/1999/xlink" width="37.6914" height="51.78935" viewBox="0,0,37.6914,51.78935"><g transform="translate(-220.66192,-128.87004)"><g data-paper-data="{&quot;isPaintingLayer&quot;:true}" fill-rule="nonzero" stroke-width="1" stroke-linejoin="miter" stroke-miterlimit="10" stroke-dasharray="" stroke-dashoffset="0" style="mix-blend-mode: normal"><path d="M233.46667,153.60348c0,0 -13.22557,-1.94685 -12.2537,-4.22762c1.59796,-3.7501 6.33062,-2.54161 6.33062,-2.54161" fill="none" stroke="#000000" stroke-linecap="round"/><path d="M235.57552,147.25654c0,0 -13.22557,-1.94686 -12.2537,-4.22763c1.59796,-3.75009 6.33062,-2.5416 6.33062,-2.5416" fill="none" stroke="#000000" stroke-linecap="round"/><path d="M257.97275,165.49266c-0.33897,2.36862 -2.16987,11.01303 -9.21181,14.03761c-0.19097,0.08349 -4.33258,1.16404 -7.46923,1.12826c-3.78355,-0.04294 -6.75071,-1.27376 -7.63871,-1.54092c-5.78394,-1.73174 -10.56529,-6.86495 -11.77555,-12.94275c-0.49413,-2.48789 -0.10265,-5.56972 0.3151,-8.05761c0.58961,-3.51596 0.78297,-7.36349 2.04574,-10.70294c1.66858,-4.42716 3.39684,-9.10239 6.50006,-13.43651c0.55858,-0.77761 4.24903,-3.88569 4.94368,-4.21725c1.12997,-0.51026 2.34311,-0.8117 3.58065,-0.88972c2.05529,-0.03578 4.31348,1.16165 6.05845,2.14679c6.99419,3.94771 10.57484,12.93083 12.17419,20.42073c0.95158,4.6243 1.113,9.37618 0.47742,14.05431z" fill="#ca974d" stroke="none" stroke-linecap="butt"/><path d="M235.52633,147.26747c0,0 -13.22557,-1.94686 -12.2537,-4.22763c0.59589,-1.39842 1.62768,-2.10731 2.68741,-2.44648" fill="none" stroke="#000000" stroke-linecap="round"/><path d="M233.49232,153.68923c0,0 -13.22557,-1.94685 -12.2537,-4.22762c0.59588,-1.39842 1.62767,-2.10731 2.6874,-2.44648" fill="none" stroke="#000000" stroke-linecap="round"/></g></g></svg>