<svg version="1.1" xmlns="http://www.w3.org/2000/svg" xmlns:xlink="http://www.w3.org/1999/xlink" width="340.11227" height="82.93839" viewBox="0,0,340.11227,82.93839"><g transform="translate(-228.61969,-139.78477)"><g data-paper-data="{&quot;isPaintingLayer&quot;:true}" fill-rule="nonzero" stroke-linejoin="miter" stroke-miterlimit="10" stroke-dasharray="" stroke-dashoffset="0" style="mix-blend-mode: normal"><path d="M260.1106,222.72317v-82.93839h199.84202v82.93839z" fill="#ffffff" stroke="none" stroke-width="0" stroke-linecap="butt"/><g stroke="#000000" stroke-width="0.5" stroke-linecap="butt"><path d="M321.31399,184.74374v-15.67659h20.62969v15.67659z" fill="#4343ff"/><path d="M341.85567,184.75788v-15.67659h20.62969v15.67659z" fill="#ff2424"/></g><path d="M328.58607,176.91251h5.93735" fill="none" stroke="#b194ff" stroke-width="2" stroke-linecap="round"/><path d="M349.25025,176.91251h5.93734" fill="none" stroke="#ff9494" stroke-width="2" stroke-linecap="round"/><path d="M352.21893,179.39786v-4.9707" fill="none" stroke="#ff9494" stroke-width="2" stroke-linecap="round"/><path d="M316.00525,179.00565v23.87108" fill="none" stroke="#ca974d" stroke-width="4" stroke-linecap="round"/><path d="M396.41765,179.06902v23.87108" fill="none" stroke="#ca974d" stroke-width="4" stroke-linecap="round"/><g fill="#ca974d" stroke="none" stroke-width="1" stroke-linecap="butt"><g><path d="M332.67202,193.16067c-4.60691,0 -6.71841,-7.96612 -6.71841,-15.38836c0,-7.39025 2.1115,-15.38836 6.71841,-15.38836c2.68451,0 4.44823,2.60699 5.51405,6.33305c-0.13134,-0.00888 -2.75149,0.012 -4.2445,-0.01329c-0.44694,-1.23345 -0.94055,-1.85038 -1.26954,-2.12875c-0.8318,0.70383 -2.5594,4.51094 -2.5594,11.16536c0.03199,6.65442 1.72759,10.49352 2.5594,11.16536c0.46816,-0.39613 1.20087,-1.52572 1.76884,-3.84225c0.56756,0.00197 4.00759,0.03608 4.16371,-0.00355c-0.98324,4.45112 -2.91189,8.1008 -5.93255,8.1008z"/></g><g><path d="M349.05214,191.72101c-4.60691,0 -6.71841,-7.96612 -6.71841,-15.38836c0,-7.39025 2.1115,-15.38836 6.71841,-15.38836c2.94084,0 5.00722,3.51674 6.01419,7.79539c-1.38901,0.00448 -3.11202,0.01197 -4.46858,-0.00881c-0.53224,-1.83516 -1.13423,-3.24748 -1.5456,-3.59557c-0.8318,0.70383 -2.55939,4.51093 -2.55939,11.16536c0,6.65442 1.72759,10.49352 2.55939,11.16536c0.35485,-0.30026 0.87272,-0.98148 1.34995,-2.39139c1.48568,0.02108 2.95023,0.01219 4.39738,0.03883c-1.04135,3.98863 -2.94184,6.60755 -5.74732,6.60755z"/></g><g><path d="M333.63178,167.97673c-1.6956,-4.19101 -4.25499,-6.42459 -6.81439,-6.42459c-2.07951,0 -4.19101,1.6956 -5.82262,4.60691c-1.88755,3.35921 -2.91131,7.87014 -2.91131,12.73299c0,1.15173 -0.92778,2.07951 -2.07951,2.07951c-1.15173,0 -2.07951,-0.92778 -2.07951,-2.07951c0,-12.06115 5.66266,-21.49891 12.89295,-21.49891c4.38296,0 8.28604,3.3912 10.68547,9.3098c0.09598,0.28793 0.15996,0.54387 0.15996,0.79981c0,0.44451 -0.13705,0.87075 -0.3916,1.22012c-1.04476,-0.09193 -2.26652,-0.60638 -3.33501,-0.37695c-0.14356,-0.16456 -0.21486,-0.15805 -0.30443,-0.36918z"/></g><g><path d="M398.48045,178.92405c0,1.15173 -0.92778,2.07951 -2.07951,2.07951c-1.15173,0 -2.07951,-0.92778 -2.07951,-2.07951c0,-4.83086 -1.02376,-9.34179 -2.91131,-12.73299c-1.63161,-2.9433 -3.74311,-4.60691 -5.82262,-4.60691c-2.5594,0 -5.11879,2.49541 -6.81439,6.71841c-0.4159,1.05575 -1.63161,1.56763 -2.71936,1.15173c-1.05575,-0.4159 -1.56763,-1.63161 -1.15173,-2.71936c2.39943,-5.9186 6.27052,-9.3098 10.68547,-9.3098c7.23029,0 12.89295,9.43777 12.89295,21.49891z"/></g><g><path d="M354.01097,165.51921l-3.67913,1.95154c-2.39943,-4.51093 -5.69465,-7.07033 -9.08585,-7.03833c-3.67913,0.06398 -6.97435,2.49541 -9.02187,6.71841l-3.74311,-1.82357c2.78334,-5.66266 7.42224,-8.98987 12.70099,-9.05386c5.02281,-0.06398 9.69371,3.32721 12.82897,9.24581z"/></g><g><path d="M371.25489,176.68457c0,7.39025 -2.1115,15.38836 -6.71841,15.38836c-4.60691,0 -6.71841,-7.96612 -6.71841,-15.38836c0,-7.39025 2.1115,-15.38836 6.71841,-15.38836c4.60691,0 6.71841,7.96612 6.71841,15.38836zM364.53648,187.81794c0.8318,-0.70383 2.5594,-4.51093 2.5594,-11.16536c0,-6.65442 -1.72759,-10.46152 -2.5594,-11.16536c-0.8318,0.70383 -2.55939,4.51093 -2.55939,11.16536c0,6.65442 1.72759,10.49352 2.55939,11.16536z"/></g><g><path d="M369.4953,165.90313l-3.67913,1.95154c-2.39943,-4.51093 -5.69465,-7.07033 -9.08585,-7.03833c-3.67913,0.06398 -6.97435,2.49541 -9.02187,6.71841l-3.74311,-1.82357c2.78334,-5.66266 7.42225,-8.98987 12.701,-9.05386c5.02281,-0.09598 9.69371,3.29522 12.82896,9.24581z"/></g><g><path d="M387.09114,176.42864c0,7.39025 -2.1115,15.38836 -6.71841,15.38836c-4.60691,0 -6.71841,-7.96612 -6.71841,-15.38836c0,-7.39025 2.1115,-15.38836 6.71841,-15.38836c4.60691,0 6.71841,7.96612 6.71841,15.38836zM380.37273,187.56199c0.8318,-0.70383 2.55939,-4.51093 2.55939,-11.16536c0,-6.65442 -1.72759,-10.46153 -2.55939,-11.16536c-0.8318,0.70383 -2.5594,4.51094 -2.5594,11.16536c0,6.65442 1.72759,10.49352 2.5594,11.16536z"/></g><g><path d="M385.33156,165.64719l-3.67913,1.95154c-2.36744,-4.51093 -5.69465,-7.07033 -9.08585,-7.03834c-3.67913,0.06398 -6.97435,2.49541 -9.02187,6.71841l-3.74311,-1.82357c2.78334,-5.66266 7.42225,-8.98987 12.701,-9.05386c5.02281,-0.09598 9.69371,3.29522 12.82896,9.24581z"/></g></g><text transform="translate(256.80627,186.03012) scale(0.5,0.5)" font-size="40" xml:space="preserve" fill="#585e00" fill-rule="nonzero" stroke="none" stroke-width="1" stroke-linecap="butt" stroke-linejoin="miter" stroke-miterlimit="10" stroke-dasharray="" stroke-dashoffset="0" font-family="Sans Serif" font-weight="normal" text-anchor="start" style="mix-blend-mode: normal"><tspan x="0" dy="0">1831</tspan></text><path d="M249.99588,180.03012h-20.37618" fill="none" stroke="#585e00" stroke-width="2" stroke-linecap="round"/><text transform="translate(408.89603,186.03012) scale(0.5,0.5)" font-size="40" xml:space="preserve" fill="#585e00" fill-rule="nonzero" stroke="none" stroke-width="1" stroke-linecap="butt" stroke-linejoin="miter" stroke-miterlimit="10" stroke-dasharray="" stroke-dashoffset="0" font-family="Sans Serif" font-weight="normal" text-anchor="start" style="mix-blend-mode: normal"><tspan x="0" dy="0">Faraday : Bobine</tspan></text></g></g></svg>