<svg version="1.1" xmlns="http://www.w3.org/2000/svg" xmlns:xlink="http://www.w3.org/1999/xlink" width="264.35222" height="152.3707" viewBox="0,0,264.35222,152.3707"><g transform="translate(-91.31986,-115.74341)"><g data-paper-data="{&quot;isPaintingLayer&quot;:true}" fill-rule="nonzero" stroke-linejoin="miter" stroke-miterlimit="10" stroke-dasharray="" stroke-dashoffset="0" style="mix-blend-mode: normal"><g><g stroke="#000000" stroke-width="2" stroke-linecap="butt"><path d="M114.41768,204.73703v-49.00093h64.48302v49.00093z" fill="#4343ff"/><path d="M178.62558,204.78123v-49.00093h64.48303v49.00093z" fill="#ff2424"/></g><path d="M137.14826,180.25867h18.55859" fill="none" stroke="#b194ff" stroke-width="3" stroke-linecap="round"/><path d="M201.73912,180.25867h18.55859" fill="none" stroke="#ff9494" stroke-width="3" stroke-linecap="round"/><path d="M211.01841,188.02722v-15.53711" fill="none" stroke="#ff9494" stroke-width="3" stroke-linecap="round"/></g><path d="M97.82394,186.80128v74.61476" fill="none" stroke="#ca974d" stroke-width="13" stroke-linecap="round"/><path d="M349.17209,186.99936v74.61476" fill="none" stroke="#ca974d" stroke-width="13" stroke-linecap="round"/><g stroke="none" stroke-width="1" stroke-linecap="butt"><g><g fill="#6c301e"><path/></g><g fill="none" font-family="sans-serif" font-weight="normal" font-size="12" text-anchor="start"/><g fill="none" font-family="sans-serif" font-weight="normal" font-size="12" text-anchor="start"/><g fill="none" font-family="sans-serif" font-weight="normal" font-size="12" text-anchor="start"/><g fill="none" font-family="sans-serif" font-weight="normal" font-size="12" text-anchor="start"/><g fill="none" font-family="sans-serif" font-weight="normal" font-size="12" text-anchor="start"/><g fill="none" font-family="sans-serif" font-weight="normal" font-size="12" text-anchor="start"/><g fill="none" font-family="sans-serif" font-weight="normal" font-size="12" text-anchor="start"/><g fill="none" font-family="sans-serif" font-weight="normal" font-size="12" text-anchor="start"/></g><g fill="#ca974d"><g><path d="M149.91986,231.0462c-14.4,0 -21,-24.9 -21,-48.1c0,-23.1 6.6,-48.1 21,-48.1c8.39108,0 13.90402,8.14878 17.23547,19.79546c-0.41053,-0.02775 -8.60044,0.03752 -13.26721,-0.04153c-1.39702,-3.85545 -2.93991,-5.78379 -3.96825,-6.65393c-2.6,2.2 -8,14.1 -8,34.9c0.1,20.8 5.4,32.8 8,34.9c1.46334,-1.2382 3.75361,-4.76901 5.52892,-12.00987c1.77406,0.00616 12.52668,0.11276 13.01468,-0.01111c-3.07336,13.91305 -9.10181,25.32098 -18.5436,25.32098z"/></g><g><path d="M201.11987,226.5462c-14.4,0 -21,-24.9 -21,-48.1c0,-23.1 6.6,-48.1 21,-48.1c9.19232,0 15.65126,10.9924 18.79878,24.36637c-4.3417,0.014 -9.72735,0.03741 -13.96762,-0.02756c-1.66365,-5.73623 -3.54531,-10.15079 -4.83115,-11.23881c-2.6,2.2 -8,14.1 -8,34.9c0,20.8 5.4,32.8 8,34.9c1.10916,-0.93852 2.7279,-3.06785 4.21958,-7.47485c4.64384,0.0659 9.22167,0.03809 13.74505,0.12136c-3.25499,12.46742 -9.19541,20.65349 -17.96463,20.65349z"/></g><g><path d="M152.91986,152.32778c-5.3,-13.1 -13.3,-20.08158 -21.3,-20.08158c-6.5,0 -13.1,5.3 -18.2,14.4c-5.9,10.5 -9.1,24.6 -9.1,39.8c0,3.6 -2.9,6.5 -6.5,6.5c-3.6,0 -6.5,-2.9 -6.5,-6.5c0,-37.7 17.7,-67.2 40.3,-67.2c13.7,0 25.9,10.6 33.4,29.1c0.3,0.9 0.5,1.7 0.5,2.5c0,1.38942 -0.42837,2.72172 -1.22405,3.81378c-3.26564,-0.28734 -7.08455,-1.89539 -10.42437,-1.17825c-0.44873,-0.51436 -0.67161,-0.49403 -0.95158,-1.15395z"/></g><g><path d="M355.61987,186.5462c0,3.6 -2.9,6.5 -6.5,6.5c-3.6,0 -6.5,-2.9 -6.5,-6.5c0,-15.1 -3.2,-29.2 -9.1,-39.8c-5.1,-9.2 -11.7,-14.4 -18.2,-14.4c-8,0 -16,7.8 -21.3,21c-1.3,3.3 -5.1,4.9 -8.5,3.6c-3.3,-1.3 -4.9,-5.1 -3.6,-8.5c7.5,-18.5 19.6,-29.1 33.4,-29.1c22.6,0 40.3,29.5 40.3,67.2z"/></g><g><path d="M216.61987,144.6462l-11.5,6.1c-7.5,-14.1 -17.8,-22.1 -28.4,-22c-11.5,0.2 -21.8,7.8 -28.2,21l-11.7,-5.7c8.7,-17.7 23.2,-28.1 39.7,-28.3c15.7,-0.2 30.3,10.4 40.1,28.9z"/></g><g><path d="M270.51987,179.5462c0,23.1 -6.6,48.1 -21,48.1c-14.4,0 -21,-24.9 -21,-48.1c0,-23.1 6.6,-48.1 21,-48.1c14.4,0 21,24.9 21,48.1zM249.51987,214.3462c2.6,-2.2 8,-14.1 8,-34.9c0,-20.8 -5.4,-32.7 -8,-34.9c-2.6,2.2 -8,14.1 -8,34.9c0,20.8 5.4,32.8 8,34.9z"/></g><g><path d="M265.01987,145.8462l-11.5,6.1c-7.5,-14.1 -17.8,-22.1 -28.4,-22c-11.5,0.2 -21.8,7.8 -28.2,21l-11.7,-5.7c8.7,-17.7 23.2,-28.1 39.7,-28.3c15.7,-0.3 30.3,10.3 40.1,28.9z"/></g><g><path d="M320.01987,178.7462c0,23.1 -6.6,48.1 -21,48.1c-14.4,0 -21,-24.9 -21,-48.1c0,-23.1 6.6,-48.1 21,-48.1c14.4,0 21,24.9 21,48.1zM299.01987,213.5462c2.6,-2.2 8,-14.1 8,-34.9c0,-20.8 -5.4,-32.7 -8,-34.9c-2.6,2.2 -8,14.1 -8,34.9c0,20.8 5.4,32.8 8,34.9z"/></g><g><path d="M314.51987,145.0462l-11.5,6.1c-7.4,-14.1 -17.8,-22.1 -28.4,-22c-11.5,0.2 -21.8,7.8 -28.2,21l-11.7,-5.7c8.7,-17.7 23.2,-28.1 39.7,-28.3c15.7,-0.3 30.3,10.3 40.1,28.9z"/></g></g></g></g></g></svg>