<svg version="1.1" xmlns="http://www.w3.org/2000/svg" xmlns:xlink="http://www.w3.org/1999/xlink" width="467.69434" height="362.53842" viewBox="0,0,467.69434,362.53842"><g transform="translate(0.62929,5.50332)"><g data-paper-data="{&quot;isPaintingLayer&quot;:true}" stroke-linejoin="miter" stroke-miterlimit="10" stroke-dasharray="" stroke-dashoffset="0" style="mix-blend-mode: normal"><path d="M167.85895,178.44618h23.85292v110.7789h-23.85292z" data-paper-data="{&quot;noHover&quot;:false,&quot;origItem&quot;:[&quot;Path&quot;,{&quot;applyMatrix&quot;:true,&quot;segments&quot;:[[339.76089,636.70361],[380.47849,636.70361],[380.47849,415.34251],[339.76089,415.34251]],&quot;closed&quot;:true,&quot;fillColor&quot;:[0,0,0,1]}]}" fill="#67381c" fill-rule="nonzero" stroke="none" stroke-width="0.5" stroke-linecap="butt"/><path d="M289.75366,178.44618h23.11971v110.7789h-23.11971z" data-paper-data="{&quot;noHover&quot;:false,&quot;origItem&quot;:[&quot;Path&quot;,{&quot;applyMatrix&quot;:true,&quot;segments&quot;:[[579.52541,636.70361],[620.24017,636.70361],[620.24017,415.34251],[579.52541,415.34251]],&quot;closed&quot;:true,&quot;fillColor&quot;:[0,0,0,1]}]}" fill="#67381c" fill-rule="nonzero" stroke="none" stroke-width="0.5" stroke-linecap="butt"/><path d="M180.04186,209.74944v-32.5976c5.49364,-0.03414 9.93654,-4.49813 9.93654,-9.9998c0,-5.50168 -4.4429,-9.96566 -9.93654,-9.9998v-69.42042c0.7902,-3.06061 1.89323,-5.80411 3.33116,-6.70523c3.88902,-2.43717 8.26014,-4.26851 12.18139,-6.65747l81.48685,-0.69784c1.34142,1.01166 5.85191,0.20826 7.21204,1.0738c4.54656,2.89327 7.07621,3.14376 11.29664,8.22836c3.25379,3.92003 3.90121,9.51341 5.9155,13.80105v60.26299c-0.61526,-0.11837 -1.25058,-0.18034 -1.90038,-0.18034c-5.52285,0 -10,4.47715 -10,10c0,5.52285 4.47715,10 10,10c0.6498,0 1.28512,-0.06198 1.90038,-0.18034v33.07265z" fill="#67381c" fill-rule="nonzero" stroke="none" stroke-width="0" stroke-linecap="butt"/><path d="M184.22889,273.60149v-84.78716h113.39846v84.78716h-30.08775c1.65515,-4.0584 1.15726,-13.03523 1.03696,-15.40442c0,-0.34379 -0.0347,-0.67947 -0.10078,-1.00374c-0.11396,-0.69462 -0.31114,-1.17879 -0.60155,-1.55317c-0.87233,-1.46307 -2.47055,-2.44309 -4.29767,-2.44309c-2.41288,0 -4.42656,1.70913 -4.89646,3.98279c-0.05358,0.25923 -0.08708,0.52581 -0.09882,0.79802c-0.29228,3.02134 -0.0011,7.93381 -0.00472,8.50412c-0.01068,1.68372 -1.18898,4.11973 -0.85318,5.76359c0.09855,0.48243 0.27065,0.93656 0.50155,1.35591h-37.90981c0.87972,-0.8262 0.56514,-5.01053 0.58369,-5.53726c0.14934,-4.24155 1.15228,-13.88601 -5.41102,-14.25064c-0.77561,-0.04309 -1.33186,0.8023 -2.02336,1.1562c-4.65444,2.38207 -2.09692,7.83657 -2.46427,12.2752c-0.15203,1.83689 -0.48418,4.55502 0.50005,6.3565z" fill="#67381c" fill-rule="nonzero" stroke="none" stroke-width="0" stroke-linecap="butt"/><path d="M255.33198,157.97301l-0.02941,0.61521c-0.01892,1.64865 -0.27665,3.26404 -0.77334,4.84589c-0.23601,0.99915 -1.10998,2.32208 -2.6206,3.96896c-0.64093,0.7361 -2.31115,2.1542 -5.01125,4.25402l-6.62857,2.66449l-3.26744,-1.1589l-10.10541,-4.57367l-1.8245,-7.52782l1.42165,-5.03313l6.71591,0.43654l15.4842,-0.18413l6.63877,1.69254" fill="#f3f3f3" fill-rule="nonzero" stroke="none" stroke-width="1" stroke-linecap="butt"/><path d="M268.46734,163.82676l-5.5712,-2.83666l0.02985,-1.08043l1.08205,-3.72837l0.77895,-3.846l2.27671,-1.11072l2.81582,1.96992l-0.11808,6.79305l-1.29412,3.8392" fill="#f3f3f3" fill-rule="nonzero" stroke="none" stroke-width="1" stroke-linecap="butt"/><path d="M261.44257,178.50599l4.49225,2.51376l0.87767,3.1603l-2.38755,4.06117l-2.8105,0.95274c-3.18631,-0.50822 -4.76461,-0.74127 -4.73476,-0.6993l-1.33047,-0.32793l-2.66686,1.3754l-3.3465,0.39162l-4.56525,-0.87782l-4.85535,-2.34765l-1.81032,1.33845l-3.48837,1.18639l-2.42627,0.54723l-2.92665,0.03399l-2.89562,-0.48339l-1.97894,-0.9789l-4.41821,0.93383l-4.04861,-1.25954l-2.37233,-1.90165l0.24916,-3.60704l1.81771,-2.04721l2.94853,-2.11726l-1.54904,-6.00996l44.22628,6.16276" fill="#f3f3f3" fill-rule="nonzero" stroke="none" stroke-width="1" stroke-linecap="butt"/><path d="M264.53726,144.73493l-1.19776,-4.33708l-1.14929,-0.4661c-1.38988,-0.51339 -2.96907,-0.74762 -4.73697,-0.70255c-0.97343,-0.01773 -3.43133,0.45472 -7.3722,1.41796l-7.37353,-4.6322c-1.16939,-0.58713 -2.03273,-0.86363 -2.58927,-0.8289c-0.56098,-0.02305 -1.25215,0.18428 -2.07425,0.62127l-5.24386,3.93482c-0.63221,0.41083 -1.37939,0.73432 -2.24199,0.97048c-0.67521,0.15399 -1.50796,0.24088 -2.49839,0.26098c-1.81859,-0.69915 -3.96024,-1.19466 -6.42463,-1.48756c-1.4484,-0.0269 -3.01444,0.21413 -4.69825,0.72294l-1.06166,4.7321c-1.505,-0.12295 -2.79232,-0.34847 -3.86181,-0.67684c-1.72195,-0.64506 -2.71858,-1.2155 -2.98976,-1.7119l-2.00494,-2.79498c-0.05231,-0.11808 -0.00133,-0.43507 0.15251,-0.95186c0.64447,-1.32116 2.19765,-3.82221 4.65939,-7.50329l4.37373,-10.72077c0.43211,-0.94358 0.9727,-1.79052 1.62219,-2.54154c1.16511,-1.16555 2.34676,-1.90859 3.54497,-2.22869c1.07437,-0.38482 3.22178,-0.77363 6.44237,-1.16644c3.83773,-1.78712 6.62251,-2.78552 8.35554,-2.99463c1.8579,-0.20438 3.81423,-0.13744 5.86883,0.20113c1.77736,0.2895 4.75485,1.10895 8.93218,2.45878c3.17035,0.07566 5.28096,0.24517 6.33153,0.50763c1.75505,0.44719 3.09055,1.12476 4.00679,2.03243l1.17737,1.22791l2.82912,4.95569l4.02408,10.08339c1.88598,2.54375 2.97173,4.42102 3.25739,5.63164c0.37108,1.51934 -0.82211,3.34576 -3.57896,5.48031l-4.48043,0.50585" fill="#ff9c36" fill-rule="nonzero" stroke="none" stroke-width="1" stroke-linecap="butt"/><path d="M254.13761,158.00523l3.86344,-0.76078l1.39343,7.70368l3.98019,-4.97638c1.33062,1.40954 3.22902,2.34588 5.69563,2.80858c-0.05335,0.5895 -0.83304,1.73613 -2.33834,3.44005c-0.96885,0.99959 -2.21361,2.06495 -3.73398,3.19606c0.55758,1.99475 0.56748,4.2224 0.02867,6.6828c-0.4831,1.51668 -1.58288,2.78612 -3.29892,3.80817c-0.19256,0.10094 -0.68408,0.18768 -1.47426,0.26054c-0.45856,-0.01079 -1.27801,-0.09591 -2.45878,-0.25537c-0.26098,-0.01419 -0.53379,0.00665 -0.81826,0.06236l-0.80925,0.34034c-0.84206,0.65112 -1.64835,1.18846 -2.41903,1.61214c-0.47467,0.20852 -0.98097,0.33723 -1.51845,0.38615c-0.70861,0.0464 -1.46761,0.02424 -2.27642,-0.06665c-3.61177,-0.59866 -6.27862,-0.96043 -8.00101,-1.08545c-1.03018,-0.02187 -2.14859,0.01906 -3.35463,0.12266l-1.98396,0.24694c-0.6359,0.22832 -1.5919,0.45191 -2.86873,0.67093c-0.44305,0.05409 -0.9393,0.04566 -1.4883,-0.02512c-1.82155,-0.62733 -3.2169,-1.50796 -4.18575,-2.64232c-1.51254,0.29689 -2.6407,0.41674 -3.38404,0.35955c-1.40466,-0.06177 -2.43307,-0.34034 -3.08582,-0.83555c-1.63372,-1.51165 -2.50164,-3.45867 -2.6039,-5.84105c-0.17453,-2.54169 1.25584,-5.10214 4.29067,-7.68151l2.10115,-9.32218l2.88247,1.08205c-0.33295,1.47766 -0.18088,3.60275 0.45665,6.37468l1.11368,2.17726l4.38939,4.92864l8.26776,3.2896c1.46673,-0.35379 3.57438,-1.21624 6.32207,-2.5872c1.99903,-1.3751 3.58191,-2.76158 4.74865,-4.15945c0.56556,-0.66546 0.86526,-1.07259 0.89999,-1.22156l1.18269,-3.36557c0.42029,-1.18875 0.58374,-2.66227 0.48989,-4.42072l-0.00458,-0.30635" fill="#ff9c36" fill-rule="nonzero" stroke="none" stroke-width="1" stroke-linecap="butt"/><path d="M263.2582,140.44706l0.17364,0.26216c1.08649,1.50559 1.5749,3.28 1.46481,5.32292c-0.14261,2.65459 -0.8425,4.76638 -2.09923,6.33611c-0.70979,1.03388 -2.36346,2.45641 -4.96175,4.26747l-9.38336,2.56415l-12.02716,0.76876c-7.06512,-1.90253 -11.54672,-3.3734 -13.44512,-4.4123c-1.92293,-0.79831 -3.53418,-2.12952 -4.83362,-3.99437c-0.67167,-1.04555 -1.23131,-2.58499 -1.67909,-4.61816l0.51531,-6.5736l1.28156,-0.3931c0.64713,-0.20246 1.56367,-0.28936 2.74917,-0.26069l1.33594,0.1302c2.95695,0.49211 4.69456,0.75324 5.21298,0.7828c1.07097,0.08956 1.93504,0.05483 2.59149,-0.10404c0.91284,-0.20852 1.86766,-0.60457 2.86385,-1.18727c1.1122,-0.60339 3.17035,-1.8749 6.17488,-3.81452l10.6092,4.72825l8.25342,-0.61935l5.20307,0.81457" fill="#f3f3f3" fill-rule="nonzero" stroke="none" stroke-width="1" stroke-linecap="butt"/><path d="M236.5632,152.48856l0.08926,-0.10862c0.41999,-0.55314 0.91565,-0.98363 1.48727,-1.2919c0.70669,-0.35748 1.36417,-0.51871 1.9717,-0.48428c0.55388,0.04167 1.05176,0.22729 1.49407,0.55684c0.48945,0.37389 0.99457,0.95599 1.5152,1.74603l-1.33594,0.98511l-2.44208,0.2428l-2.77947,-1.64598" fill="#e15353" fill-rule="nonzero" stroke="none" stroke-width="1" stroke-linecap="butt"/><path d="M260.03864,124.98207l-2.1276,-3.08375l-0.57206,-0.59615c-1.53485,-1.55037 -3.087,-2.85439 -4.65628,-3.91221c-1.92189,-1.27225 -3.49428,-2.13115 -4.71732,-2.57671l-1.07289,-0.40063c-0.72073,-0.24753 -1.45195,-0.45591 -2.1947,-0.62467c-0.74216,-0.16906 -1.4954,-0.29881 -2.25972,-0.3897c-4.12634,-0.37906 -7.73501,0.02764 -10.82703,1.22008c-1.79672,0.5459 -4.8119,2.6509 -9.04597,6.31572c0.8493,-1.44412 2.11475,-3.00498 3.79679,-4.68215c0.90797,-0.82285 2.19159,-1.62219 3.85088,-2.39804c1.79436,-0.82107 3.61251,-1.41382 5.45504,-1.77928c0.92112,-0.18281 1.848,-0.30842 2.78094,-0.37714l1.40436,-0.06059c0.939,-0.01138 1.88406,0.03369 2.83474,0.13581l7.33984,2.18287l2.81345,1.19363c2.77429,2.23016 4.40594,3.77418 4.89554,4.63219c0.70019,0.86821 1.41944,2.4511 2.1579,4.74865l0.14409,0.45206" fill="#fff4e8" fill-rule="nonzero" stroke="none" stroke-width="1" stroke-linecap="butt"/><path d="M227.97195,114.72992l-5.37332,1.95559c-1.67037,0.83422 -2.97055,1.75963 -3.90039,2.77651c-0.65408,0.67492 -1.45357,1.91953 -2.39863,3.73324c-0.25551,0.35379 -1.06269,2.36331 -2.42154,6.02932c-0.36369,0.80541 -0.62556,1.31806 -0.78575,1.53751c-0.58108,0.93176 -1.55746,1.96756 -2.92931,3.10828c3.27365,-7.2392 5.44307,-12.12514 6.50827,-14.6581l4.16477,-3.39423l7.1359,-1.08811" fill="#fff4e8" fill-rule="nonzero" stroke="none" stroke-width="1" stroke-linecap="butt"/><path d="M255.98916,115.09803l0.29128,-0.02719c1.37481,-0.21679 2.6308,0.10138 3.76768,0.9557l1.66874,1.38161l2.99907,4.28521l3.78349,10.18965l1.81859,2.87404c1.19244,1.24018 1.93593,2.1644 2.23016,2.77267c0.38098,0.64817 0.3764,1.5387 -0.01315,2.67173c-2.17504,-2.80858 -3.69364,-5.08869 -4.55579,-6.84004c-0.41615,-0.77851 -0.9325,-1.88997 -1.54919,-3.33409c-1.89884,-4.80953 -2.98843,-7.52471 -3.26833,-8.14554c-0.25758,-0.6458 -0.72679,-1.53825 -1.40702,-2.67661c-0.47999,-0.77023 -1.12624,-1.46865 -1.93889,-2.09524c-0.40625,-0.31315 -0.85417,-0.60827 -1.34377,-0.88565c-0.19256,-0.16108 -1.02028,-0.53644 -2.48287,-1.12624" fill="#fff4e8" fill-rule="nonzero" stroke="none" stroke-width="1" stroke-linecap="butt"/><path d="M224.28865,156.99854l-0.1865,0.61477c-0.71585,2.431 -1.10924,3.97383 -1.18033,4.62865c-0.17704,1.00861 -0.24443,1.83633 -0.20128,2.48375c0.04389,1.00476 0.10433,1.65352 0.18192,1.94598c0.08364,0.4896 0.19566,1.01732 0.33635,1.58347c0.28182,1.13171 0.67831,2.41592 1.18978,3.85265c0.9526,2.39361 1.64155,3.93733 2.06598,4.63087c0.51457,0.98644 1.1289,1.92736 1.84283,2.82291c0.7256,0.92481 2.19159,1.67554 4.39722,2.25189l-5.14514,-0.9325l-1.92455,-2.25765l-2.16883,-5.17721l-0.99087,-3.11611l-1.28629,-4.66308l0.04167,-2.92326l1.11412,-4.46491l1.91391,-1.28023" fill="#fff4e8" fill-rule="nonzero" stroke="none" stroke-width="1" stroke-linecap="butt"/><path d="M219.29365,167.61942l-0.04966,0.21532c-0.15192,0.66694 -0.30221,1.26634 -0.45117,1.7979c-0.08483,0.29926 -0.24753,0.80053 -0.48812,1.50382c-0.09,0.30295 -0.14482,0.50127 -0.16448,0.59497c-0.12813,0.54738 -0.16951,1.13126 -0.12369,1.75209c0.01626,0.21399 0.03975,0.42664 0.07034,0.63827c0.03074,0.21162 0.06857,0.42192 0.11379,0.63117l0.073,0.31285c0.10463,0.416 0.23808,0.82713 0.40034,1.23353c0.2196,0.59053 0.70432,1.45948 1.45417,2.60671l-1.90238,-0.80895l-0.93782,-2.4678l-0.09635,-2.58233l0.11039,-2.34233l0.73078,-1.56751l1.26087,-1.51771" fill="#fff4e8" fill-rule="nonzero" stroke="none" stroke-width="1" stroke-linecap="butt"/><path d="M256.25709,157.69075l1.6414,-0.68393c0.38364,2.12879 0.84221,4.73727 1.37599,7.82589l-0.54516,3.04591l-1.39491,5.0912l-1.02974,2.96375l-1.77928,3.28281c0.16123,-0.82654 0.40182,-1.8551 0.72191,-3.08596c0.10626,-0.40359 0.58566,-1.97997 1.43835,-4.72929c0.18088,-0.60901 0.34433,-1.20515 0.49034,-1.78815c0.34921,-1.47796 0.55906,-2.63892 0.62955,-3.48261c0.07862,-0.91713 0.10892,-1.58022 0.09074,-1.98928c-0.00872,-0.52122 -0.04655,-1.012 -0.11468,-1.47279c-0.1729,-1.13525 -0.56482,-2.48848 -1.17574,-4.06043l-0.34876,-0.91713" fill="#fff4e8" fill-rule="nonzero" stroke="none" stroke-width="1" stroke-linecap="butt"/><path d="M259.4765,179.71263l0.18576,-0.23083c0.29733,-0.35453 0.65142,-0.82595 1.0624,-1.41426c0.17512,-0.24916 0.37182,-0.58507 0.58979,-1.00787c0.38778,-0.82536 0.62378,-1.6284 0.70817,-2.40898c0.1135,-0.88314 0.10744,-1.85805 -0.01862,-2.92503c-0.07138,-0.65201 -0.31551,-2.12051 -0.7324,-4.40506l1.48948,2.0249l0.6031,3.23064l-0.38748,3.14035l-1.07895,2.10485l-2.42124,1.8913" fill="#fff4e8" fill-rule="nonzero" stroke="none" stroke-width="1" stroke-linecap="butt"/><path d="M264.28987,147.83553l-0.64802,3.61679l-2.30405,3.14907l-3.14153,2.1777l-8.97947,2.81877l-7.58442,0.42945l-4.30235,0.07492l-7.14078,-1.41678l-3.85428,-1.29501l-6.00907,-3.1204l-1.92721,-2.01943l-2.32844,-4.40978c2.0979,2.697 5.33785,4.94017 9.71956,6.72921c2.1545,0.87915 4.50008,1.59796 7.03748,2.15598c2.5473,0.5558 5.05662,0.84826 7.52708,0.87664c5.20677,0.00872 10.66861,-1.01688 16.38507,-3.07724c2.86577,-1.34229 4.56363,-2.28056 5.09283,-2.8139c0.62881,-0.48088 1.39712,-1.66919 2.30509,-3.56537l0.15251,-0.31064" fill="#c1c1c1" fill-rule="nonzero" stroke="none" stroke-width="1" stroke-linecap="butt"/><path d="M251.64307,166.04747l-4.0356,4.79136l-3.31177,2.00081l-4.42974,1.54416l-6.84152,-3.04429l-1.53101,-1.05856c-1.07112,-0.789 -1.79185,-1.47338 -2.16218,-2.05298c-0.37108,-0.48339 -0.77659,-1.34215 -1.21668,-2.57582c1.04038,0.85772 1.83337,1.45535 2.37927,1.79214l5.1512,2.94853c1.32072,0.71201 2.64632,1.09742 3.97767,1.15609c0.88491,-0.00369 1.64938,-0.08882 2.29341,-0.25522c1.06535,-0.2595 2.0413,-0.60043 2.92813,-1.02264c0.45132,-0.19182 1.09062,-0.54103 1.91775,-1.04792l0.86821,-0.6031c0.939,-0.74186 1.53899,-1.19244 1.79997,-1.35131c0.50659,-0.33369 1.16983,-0.70329 1.98957,-1.10924l0.2233,-0.11202" fill="#c1c1c1" fill-rule="nonzero" stroke="none" stroke-width="1" stroke-linecap="butt"/><path d="M266.59984,183.02485l-0.06384,2.56444l-2.77725,3.38685l-3.36675,0.09044l-4.97978,-0.60442l-2.45834,1.01703l-6.12301,0.34714l-6.6036,-2.90138c-2.18819,1.09535 -3.84304,1.79687 -4.96396,2.1047c-1.11649,0.35054 -2.8173,0.63664 -5.10347,0.85802c-2.72213,-0.89526 -4.56983,-1.36313 -5.54356,-1.40348c-1.01274,-0.11896 -2.18937,0.11837 -3.5296,0.7123l-4.40742,-1.03166l-2.29356,-1.50604l-0.66102,-3.20404l1.67229,-3.35566l1.78712,-0.48457c-2.42671,3.41034 -2.65503,5.67243 -0.68482,6.7861c0.80895,0.49152 1.88317,0.81974 3.22296,0.98481c0.83496,0.12059 2.24538,0.07197 4.23156,-0.14542l-1.07969,-1.64229l1.08131,-2.38046c0.11837,1.19496 0.73876,2.32489 1.8616,3.3901c0.77334,0.74541 1.39904,1.23633 1.87608,1.47249c0.48768,0.27369 1.00787,0.43123 1.56145,0.47231c0.75886,0.04951 1.76598,-0.08217 3.02153,-0.39487c1.61052,-0.38497 4.03486,-1.06979 7.27245,-2.05445l0.97609,0.14157c1.28436,0.55566 2.35386,0.91166 3.20921,1.06787c0.97949,0.19448 2.23593,0.31773 3.7696,0.36975c1.0986,0.03887 2.38341,0.04241 3.85398,0.01094l4.71229,-0.15399c0.54516,-0.29246 1.18343,-0.48014 1.91435,-0.56275c0.24546,-0.0269 0.56334,-0.043 0.9526,-0.04862l2.55292,0.00325c0.35113,-0.00517 0.68896,-0.03103 1.01393,-0.07744c0.52462,-0.03562 1.06979,-0.30088 1.63505,-0.79565c0.49108,-0.45472 1.17693,-1.28333 2.05726,-2.48612l0.40403,-0.54679" fill="#c1c1c1" fill-rule="nonzero" stroke="none" stroke-width="1" stroke-linecap="butt"/><path d="M266.96308,162.28732l0.96664,-5.29529c0.21103,-2.34558 0.34684,-4.26673 0.40817,-5.76376c0.8558,0.50438 1.32412,0.87664 1.4051,1.11649c0.017,0.02232 0.04005,0.10108 0.06887,0.23645c0.04271,0.42177 0.07714,0.6863 0.1033,0.79403c0.13581,0.58004 0.22197,0.98452 0.25832,1.21328c0.06621,0.4525 0.0999,0.74157 0.10064,0.86718c0.04877,0.64344 0.00532,1.43421 -0.13049,2.37247c-0.15591,1.08604 -0.47098,2.65725 -0.94506,4.71274l-2.23548,-0.25359" fill="#c1c1c1" fill-rule="nonzero" stroke="none" stroke-width="1" stroke-linecap="butt"/><path d="M248.37208,147.1247l-2.32105,2.3574l-3.77374,-1.03595l-1.35013,-1.87194l-1.69564,1.29885l-1.08471,1.04865l-2.32622,0.53305l-3.03823,-1.08796l-0.61063,-0.81797c1.08649,0.22507 1.96386,0.35187 2.63198,0.3798c0.62984,0.0235 1.18565,-0.05217 1.66756,-0.22729c0.54856,-0.22625 0.95792,-0.4729 1.22732,-0.73964c0.33635,-0.27088 0.86747,-0.86304 1.59264,-1.77662c0.15029,0.30339 0.28152,0.50807 0.3928,0.61359c0.11527,0.09724 0.18872,0.14615 0.22019,0.14645c0.05364,0.02039 0.11305,0.03104 0.17734,0.03104c0.06399,-0.00044 0.13212,-0.01094 0.20468,-0.03177c0.03177,-0.00044 0.14867,-0.04951 0.35068,-0.14719c0.20586,-0.1067 0.51945,-0.31241 0.94048,-0.61772c0.8994,1.21668 2.03509,2.00953 3.4065,2.37809c0.41453,0.0968 0.83496,0.12222 1.26131,0.0767c0.49108,-0.04537 1.1289,-0.1933 1.91317,-0.44334l0.21369,-0.06621" fill="#c1c1c1" fill-rule="nonzero" stroke="none" stroke-width="1" stroke-linecap="butt"/><path d="M266.90441,162.33461l1.9646,0.72753l-1.42018,2.91469l-1.75726,1.77574l-2.76321,1.64081c-0.4828,-0.49728 -0.75782,-0.9022 -0.82521,-1.21476c-0.06236,-0.26748 0.02956,-0.53349 0.27546,-0.79713c0.02645,-0.04389 0.17098,-0.17704 0.43315,-0.3999l1.10319,-0.83083l0.53231,-0.44305c0.29467,-0.24886 0.64536,-0.61285 1.05279,-1.0921c0.476,-0.58832 0.91595,-1.29397 1.31998,-2.11682l0.08438,-0.16418" fill="#da7f24" fill-rule="nonzero" stroke="none" stroke-width="1" stroke-linecap="butt"/><path d="M247.62948,171.36271l-0.22551,0.32689c-0.67639,0.9823 -1.26323,1.72918 -1.76037,2.24036c-0.49595,0.54043 -1.18107,1.14412 -2.0546,1.81091c-0.18458,0.16256 -0.35792,0.35379 -0.52019,0.57354c-0.16123,0.22226 -0.30827,0.49004 -0.44039,0.80363l-0.78014,1.99135c-0.14143,0.31197 -0.30147,0.57694 -0.48044,0.79491c-0.25566,0.35793 -0.7729,0.72679 -1.55111,1.10673c-0.36014,-0.29881 -0.60487,-0.5858 -0.73462,-0.86127c-0.10906,-0.22537 -0.17261,-0.37152 -0.19079,-0.43861c-0.35261,-1.16082 -0.57088,-1.81889 -0.65482,-1.97391c-0.16832,-0.39265 -0.37684,-0.73698 -0.62615,-1.03328c-0.19522,-0.26054 -0.53334,-0.55329 -1.01422,-0.87811c-0.09118,-0.07699 -0.68319,-0.38999 -1.77588,-0.939c-0.29467,-0.17394 -0.46906,-0.28344 -0.52285,-0.32837c-0.28256,-0.18591 -0.65969,-0.51649 -1.13156,-0.99176c-0.95895,-1.01777 -1.72357,-1.95795 -2.29371,-2.82025c-0.40595,-0.65038 -0.6693,-1.28584 -0.78915,-1.90637l2.9271,2.39006l4.51072,2.48065l2.75745,0.38438l4.83037,-1.35781l2.52085,-1.37466" fill="#da7f24" fill-rule="nonzero" stroke="none" stroke-width="1" stroke-linecap="butt"/><path d="M218.76726,127.33904l-0.08882,3.98403l-3.01429,13.523l-5.85996,-1.2019c-1.08723,-0.99501 -1.74766,-1.74589 -1.9813,-2.25248c-0.28906,-0.50512 -0.4126,-1.27195 -0.37078,-2.30021c0.88994,1.22496 1.86795,2.02815 2.93405,2.40986c1.4487,0.50393 2.58528,0.51339 3.4096,0.02956c0.61506,-0.30339 1.17604,-1.10363 1.68278,-2.40011c0.45487,-1.19097 0.91728,-3.20241 1.38737,-6.03419l1.90135,-5.75755" fill="#da7f24" fill-rule="nonzero" stroke="none" stroke-width="1" stroke-linecap="butt"/><path d="M260.512,125.58547l1.42623,3.74315c0.94048,3.88797 1.68692,6.6735 2.23859,8.35672c0.56245,1.61835 1.11515,2.67277 1.6581,3.16237c0.48916,0.57043 1.24653,0.88137 2.27139,0.93324c0.96324,0.02956 2.37174,-0.23601 4.2255,-0.79669l-3.4628,3.21084l-4.0257,0.67861c-0.83674,-2.97926 -2.08977,-7.68062 -3.75822,-14.10452l-0.5731,-5.18372" fill="#da7f24" fill-rule="nonzero" stroke="none" stroke-width="1" stroke-linecap="butt"/><path d="M258.96118,169.11851l-0.15088,0.75679c-0.31669,1.53796 -0.56674,2.96508 -0.74984,4.28166c-0.11542,1.03506 -0.16537,1.62397 -0.14985,1.76702c-0.00901,0.35216 0.00237,0.67048 0.03443,0.95511c0.03296,0.28241 0.0866,0.53098 0.16079,0.7457l0.1234,0.30147c0.09148,0.18561 0.19788,0.34655 0.31891,0.4828c0.29541,0.3532 0.82358,0.65807 1.58362,0.91477l-2.22071,0.90146c-0.2199,0.05527 -0.3795,0.0866 -0.47866,0.09399c-0.29689,0.08128 -1.23441,-0.03739 -2.81198,-0.35615l4.34077,-10.84461" fill="#da7f24" fill-rule="nonzero" stroke="none" stroke-width="1" stroke-linecap="butt"/><path d="M222.54454,170.0909l3.17522,9.36311c-0.35216,0.33694 -0.87959,0.49551 -1.58244,0.47585c-0.55388,-0.00325 -1.7985,-0.23172 -3.73384,-0.68511c1.02427,-0.14763 1.7351,-0.32926 2.13233,-0.54516c0.16315,-0.0832 0.30576,-0.18207 0.42871,-0.2966l0.16537,-0.18635c0.09901,-0.133 0.17054,-0.28758 0.21413,-0.46374c0.07566,-0.36177 0.06089,-0.7927 -0.04507,-1.29279c-0.04921,-0.24694 -0.1101,-0.50201 -0.18236,-0.76506l-0.56748,-1.96194l-0.08852,-0.36384c-0.05187,-0.23586 -0.09074,-0.45945 -0.11645,-0.67048c-0.09547,-0.74363 -0.04507,-1.5353 0.15088,-2.37499l0.04951,-0.2329" fill="#da7f24" fill-rule="nonzero" stroke="none" stroke-width="1" stroke-linecap="butt"/><path d="M249.45635,158.72551h0.00044l0.01847,-0.00414c4.93441,-1.13348 9.63576,-2.23519 12.10282,-4.89805c2.44282,-2.6373 2.75952,-6.92325 2.21952,-10.24802c-0.25448,-1.56766 -0.6956,-2.89488 -1.17353,-4.32865c-0.52285,-1.56929 -1.08456,-3.25355 -1.44811,-5.45238c-0.13138,-0.79521 -0.23689,-1.65588 -0.34581,-2.54804c-0.12148,-0.99191 -0.24827,-2.02741 -0.42265,-3.0833c-0.49787,-3.01104 -1.37747,-6.13439 -3.56226,-8.71938c-3.67147,-4.34358 -11.11195,-7.26905 -17.3588,-7.30541c-0.03887,0 -0.07832,-0.00044 -0.11689,-0.00044c-6.14917,0 -11.11239,2.80755 -14.27845,5.79701c-3.16813,2.99212 -4.51944,6.15301 -5.32292,9.4834c-0.40669,1.68574 -0.67196,3.40975 -0.95718,5.26544c-0.28049,1.82495 -0.57945,3.77108 -1.05028,5.89498c-0.1033,0.46536 -0.21458,0.9393 -0.3266,1.4153c-0.11527,0.49019 -0.23128,0.98319 -0.34152,1.48032c-0.77393,3.49147 -1.2118,6.9865 0.90339,9.88818c2.77356,3.80477 10.01793,6.74192 16.07296,7.82885c2.12317,0.38142 4.08127,0.53083 5.93355,0.53083c3.38108,0 6.41222,-0.49714 9.48296,-1.00181l-0.02911,0.00532M249.66487,159.63274c-0.00946,0.00192 -0.01892,0.00369 -0.02882,0.00532c-3.0632,0.50393 -6.16542,1.01466 -9.63355,1.01466c-1.90371,0 -3.91708,-0.15399 -6.09818,-0.54561c-6.09804,-1.09491 -13.66162,-4.08319 -16.66024,-8.19667c-2.38312,-3.26906 -1.83204,-7.15437 -1.05989,-10.63757c0.11172,-0.50393 0.22906,-1.00254 0.34418,-1.49214c0.11217,-0.47704 0.22226,-0.94536 0.32394,-1.40392c0.46329,-2.08977 0.75812,-4.00752 1.03905,-5.83484c0.28418,-1.84844 0.55477,-3.61177 0.97225,-5.34214c0.83289,-3.45261 2.2544,-6.79275 5.58849,-9.94152c3.29596,-3.11212 8.47775,-6.05089 14.91746,-6.05089c0.04049,0 0.08172,0 0.12221,0.00044c6.45256,0.03709 14.17826,3.03823 18.06401,7.63526c2.34632,2.77607 3.26227,6.09774 3.7696,9.16819c0.17852,1.07777 0.30753,2.13263 0.42857,3.12187c0.10936,0.89659 0.21221,1.73687 0.34019,2.50932c0.35024,2.11948 0.89009,3.74196 1.41294,5.31021c0.47556,1.42771 0.94092,2.82188 1.20914,4.47318c0.5558,3.42379 0.28108,8.07564 -2.45568,11.02993c-2.70617,2.9206 -7.75555,4.06501 -12.5772,5.17234zM249.66487,159.63274" fill="#000000" fill-rule="nonzero" stroke="none" stroke-width="1" stroke-linecap="butt"/><path d="M251.298,114.3176l-0.43699,-0.46462c4.2459,0.25699 8.7513,0.50659 11.77445,3.87216c2.02711,2.25662 3.35419,5.89114 4.56023,9.17498c0.57398,1.56249 1.1221,3.05301 1.7085,4.32836c0.8623,1.8746 1.81372,3.2936 2.61085,4.48235c0.55048,0.82092 1.04792,1.56013 1.36683,2.25292c0.19404,0.42221 0.33177,0.84664 0.373,1.28289c0.20704,2.17534 -1.98278,4.05969 -3.69645,4.99189c-1.81076,0.98511 -3.4133,1.10348 -4.92613,1.2189c-0.2561,0.01966 -0.4797,-0.17217 -0.49935,-0.42827c-0.01936,-0.2564 0.17246,-0.4797 0.42857,-0.49935c1.51136,-0.11542 2.93316,-0.22773 4.5524,-1.1088c1.71559,-0.93338 3.36098,-2.54922 3.21483,-4.08629c-0.02867,-0.29999 -0.12591,-0.62038 -0.29231,-0.98215c-0.28078,-0.61019 -0.72989,-1.282 -1.29397,-2.12347c-0.79861,-1.19023 -1.78712,-2.66331 -2.68341,-4.61165c-0.60531,-1.3154 -1.16599,-2.84316 -1.73643,-4.39648c-1.22806,-3.34325 -2.49809,-6.77945 -4.37949,-8.87425c-2.7239,-3.03261 -6.80133,-3.30232 -11.13811,-3.56492c-0.24591,-0.01478 -0.43728,-0.21827 -0.43728,-0.46418c0,-0.25684 0.20807,-0.46536 0.46536,-0.46536c0.25684,0 0.46492,0.20852 0.46492,0.46536zM251.298,114.3176" fill="#000000" fill-rule="nonzero" stroke="none" stroke-width="1" stroke-linecap="butt"/><path d="M229.63241,114.3782c0,0.24591 -0.19138,0.4494 -0.43699,0.46448c-4.33708,0.26216 -8.41421,0.53201 -11.13825,3.56463c-1.8817,2.09465 -3.15158,5.53129 -4.37934,8.87425c-0.57058,1.55333 -1.13141,3.08138 -1.73658,4.39678c-0.89629,1.9479 -1.88509,3.42157 -2.68341,4.61165c-0.56423,0.84147 -1.01319,1.51298 -1.29397,2.12317c-0.1664,0.36162 -0.26394,0.68216 -0.29246,0.98245c-0.14615,1.53677 1.49924,3.15291 3.21512,4.08629c1.61909,0.88077 3.04089,0.99309 4.55225,1.1085c0.2561,0.01966 0.44792,0.24325 0.42842,0.49935c-0.01951,0.2561 -0.2431,0.44793 -0.49935,0.42857c-1.51283,-0.11571 -3.11537,-0.23408 -4.92598,-1.2189c-1.71382,-0.9325 -3.90364,-2.81656 -3.69674,-4.9919c0.04153,-0.43625 0.17896,-0.86068 0.37344,-1.28333c0.31847,-0.69221 0.81605,-1.43185 1.36653,-2.25248c0.79728,-1.18905 1.74854,-2.60819 2.61085,-4.48234c0.58669,-1.27565 1.13451,-2.76587 1.7085,-4.32865c1.20604,-3.28384 2.53326,-6.91837 4.56038,-9.17499c3.02301,-3.36556 7.52841,-3.61487 11.7743,-3.87171l-0.43699,0.46418c0,-0.25699 0.20807,-0.46536 0.46492,-0.46536c0.25729,0 0.46536,0.20837 0.46536,0.46536zM229.63241,114.3782" fill="#000000" fill-rule="nonzero" stroke="none" stroke-width="1" stroke-linecap="butt"/><path d="M245.90355,142.74905l-0.05453,0.42561c-0.2564,0.85772 -1.00742,1.54357 -2.25277,2.0577c-1.25377,0.51384 -2.7304,0.72221 -4.42974,0.62497c-1.6216,-0.13581 -2.91882,-0.53305 -3.89107,-1.19126c-0.31182,-0.2131 -0.56822,-0.44497 -0.76994,-0.6962l-0.25418,-0.38704c-0.13965,-0.2663 -0.21029,-0.54428 -0.21192,-0.83378c0.04241,-0.88861 0.62157,-1.62825 1.73731,-2.21849c1.11604,-0.59009 2.51435,-0.89614 4.19447,-0.91846c1.68086,0.02232 3.07872,0.32837 4.19476,0.91846c1.11604,0.59024 1.6952,1.32988 1.73761,2.21849" fill="#000000" fill-rule="nonzero" stroke="none" stroke-width="1" stroke-linecap="butt"/><path d="M243.28295,141.18169l-0.02956,0.09236c-0.1395,0.1865 -0.54738,0.3359 -1.22377,0.44748c-0.68098,0.11202 -1.48313,0.15709 -2.40617,0.13625c-0.88077,-0.02956 -1.5851,-0.11615 -2.11327,-0.25921c-0.16951,-0.04655 -0.30872,-0.0968 -0.41807,-0.15133l-0.13847,-0.08438c-0.07566,-0.05778 -0.11423,-0.11837 -0.11497,-0.18118c0.02305,-0.1933 0.33783,-0.35408 0.94388,-0.48236c0.60605,-0.12857 1.36535,-0.19522 2.27819,-0.2001c0.91299,0.00488 1.67229,0.07153 2.27834,0.2001c0.60605,0.12827 0.92082,0.28906 0.94388,0.48236" fill="#ffffff" fill-rule="nonzero" stroke="none" stroke-width="1" stroke-linecap="butt"/><path d="M239.72142,144.69518c-0.12783,-0.00798 -0.01818,-0.71762 0.32911,-2.12849c0.04241,-0.16906 0.22093,-0.20616 0.53541,-0.11158c0.20911,0.09946 0.30753,0.1763 0.29497,0.23039c0.22404,1.78342 0.51191,3.05981 0.86334,3.8293c0.12872,0.30236 0.32734,0.6028 0.5963,0.90191c0.01404,0.04315 0.25315,0.23497 0.71689,0.57516c1.04836,0.59319 2.16026,0.73728 3.33527,0.43167c0.62083,-0.21576 1.11988,-0.48768 1.49702,-0.81605c0.57989,-0.46507 1.2152,-1.09787 1.90564,-1.89958l-0.68363,1.33919c-0.15547,0.27354 -0.30162,0.50733 -0.43891,0.70226c-0.74068,1.01304 -1.57682,1.64717 -2.50784,1.90179c-1.09639,0.32083 -2.19425,0.30339 -3.29448,-0.05143c-0.10773,-0.01788 -0.43389,-0.16684 -0.97905,-0.44719c-0.14409,-0.09872 -0.30413,-0.23763 -0.47999,-0.41615c-0.40063,-0.39162 -0.72383,-0.93974 -0.9693,-1.64421c-0.15177,-0.45546 -0.26113,-0.97683 -0.32763,-1.56397c-0.07906,-0.6526 -0.09798,-1.50264 -0.05719,-2.55026c0.01286,-0.12029 0.06473,-0.19788 0.15591,-0.23305c0.22743,-0.07005 0.38172,-0.07758 0.46418,-0.02379c0.04581,0.01138 0.00384,0.14556 -0.12561,0.40285c-0.33517,0.69117 -0.60561,1.20648 -0.8122,1.54579l-0.01818,0.02542" fill="#000000" fill-rule="nonzero" stroke="none" stroke-width="1" stroke-linecap="butt"/><path d="M241.03387,144.39134c-0.0931,0.0136 -0.2527,-0.15281 -0.47866,-0.50053c-0.11763,-0.15739 -0.36428,-0.54103 -0.73994,-1.15121c-0.02113,-0.03665 -0.02305,-0.07226 -0.00562,-0.10625c0.04153,-0.06887 0.11985,-0.12222 0.23408,-0.15886c0.19492,-0.04626 0.30458,-0.04581 0.32911,0.00148c0.06103,0.29689 0.12295,0.73462 0.18546,1.31392c0.163,1.57032 0.08468,2.79616 -0.23453,3.67797c-0.2233,0.64536 -0.58684,1.19511 -1.09077,1.64909c-0.56822,0.42487 -1.24993,0.7256 -2.04559,0.90309c-1.34569,0.25005 -2.51006,0.08808 -3.49414,-0.48576c-0.48384,-0.29172 -0.91743,-0.65304 -1.30033,-1.08309c-0.19448,-0.2233 -0.37329,-0.45103 -0.53748,-0.68363l-0.82137,-1.25791c1.02678,0.97373 1.94155,1.65396 2.74355,2.041c0.69945,0.35822 1.54121,0.446 2.52558,0.26409c0.5827,-0.12118 1.10097,-0.34167 1.5554,-0.66176c0.47246,-0.37714 0.79063,-0.7123 0.95437,-1.00595c0.2131,-0.34463 0.37581,-0.79743 0.48812,-1.35811c0.10478,-0.31788 0.1964,-1.33136 0.27428,-3.04089c0.04581,-0.15857 0.13389,-0.29024 0.26409,-0.39428c0.21679,-0.23039 0.39605,-0.23423 0.53718,-0.01094c0.21827,0.52551 0.43581,1.19806 0.65186,2.01795l0.00532,0.03059" fill="#000000" fill-rule="nonzero" stroke="none" stroke-width="1" stroke-linecap="butt"/><path d="M236.51221,149.64584l0.0003,0.00266c0.05039,1.64835 0.13212,2.86577 1.12402,3.4662c0.52433,0.31773 1.35811,0.49935 2.24716,0.49935c0.89777,0 1.74751,-0.18502 2.28129,-0.50246c0.99279,-0.58935 1.07407,-1.75268 1.12742,-3.33823c0.00975,-0.283 0.24665,-0.50437 0.52965,-0.49492c0.283,0.00946 0.50467,0.24665 0.49521,0.52965c-0.04773,1.41796 -0.06739,3.25813 -1.62869,4.18501c-0.7494,0.44526 -1.80308,0.64654 -2.80488,0.64654c-0.99117,0 -2.03376,-0.19714 -2.77828,-0.64802c-1.55761,-0.94314 -1.57268,-2.84272 -1.61776,-4.31181l-0.0003,-0.00266c-0.00872,-0.28285 0.21369,-0.5193 0.49699,-0.52802c0.28271,-0.00872 0.51915,0.21369 0.52787,0.49669zM236.51221,149.64584" fill="#000000" fill-rule="nonzero" stroke="none" stroke-width="1" stroke-linecap="butt"/><path d="M223.82935,156.35643c0,0.06857 -0.01359,0.13625 -0.04049,0.19906c-1.17205,2.77991 -2.28987,5.4478 -1.87002,9.14543c0.42605,3.75497 2.43262,8.58593 4.48796,13.52137c0.06783,0.16315 0.047,0.3498 -0.05512,0.49388c-1.40998,1.98662 -2.63922,3.75807 -2.62178,5.28834c0.01655,1.45298 1.21668,2.85986 2.99064,3.66187c1.12018,0.50645 2.4341,0.7491 3.83344,0.7491c0.77408,0 1.57076,-0.07433 2.37055,-0.21768c2.2541,-0.40389 4.519,-1.3522 6.8495,-2.33021l-0.31433,0.46817l0.11571,-13.01315l0.35335,0.49182c-2.68799,-0.88048 -5.4747,-1.78874 -7.61028,-3.28768c-2.14578,-1.50604 -3.60837,-3.58871 -5.01465,-5.58361c-0.16345,-0.23113 -0.10818,-0.55122 0.1234,-0.71437c0.23113,-0.163 0.55123,-0.10744 0.71423,0.12384c1.42284,2.01795 2.78966,3.94797 4.76609,5.33489c1.98618,1.39417 4.61358,2.25942 7.34013,3.15261c0.21221,0.06946 0.35527,0.26837 0.3529,0.49167l-0.11571,13.01301c-0.00148,0.20482 -0.12517,0.38896 -0.31403,0.46817c-2.3073,0.96841 -4.67978,1.96652 -7.06541,2.3942c-0.85506,0.1531 -1.71234,0.23364 -2.55144,0.23364c-1.51254,0 -2.97661,-0.26157 -4.25565,-0.84014c-1.95514,-0.88388 -3.57068,-2.56563 -3.59374,-4.58446c-0.02232,-1.94155 1.4849,-4.02511 2.81094,-5.89351l-0.05527,0.49388c-2.03273,-4.88136 -4.11422,-9.86719 -4.56038,-13.79979c-0.4528,-3.99024 0.77275,-6.88098 1.94436,-9.6597l-0.04049,0.19936c0,-0.2833 0.22965,-0.51265 0.51265,-0.51265c0.2833,0 0.51295,0.22936 0.51295,0.51265zM223.82935,156.35643" fill="#000000" fill-rule="nonzero" stroke="none" stroke-width="1" stroke-linecap="butt"/><path d="M240.55565,174.17868l-0.65112,-0.49344c2.50252,-0.70314 4.90574,-1.38293 6.94408,-2.78419c2.04485,-1.40525 3.74994,-3.55399 5.5143,-5.78459c0.17556,-0.22211 0.49832,-0.25995 0.71999,-0.08394c0.22211,0.17556 0.25995,0.49787 0.08438,0.71984c-1.74101,2.2012 -3.54142,4.48427 -5.7376,5.9937c-2.20223,1.51357 -4.7751,2.23149 -7.24821,2.92621c-0.15428,0.04345 -0.32009,0.01197 -0.44793,-0.08497c-0.12827,-0.09694 -0.2032,-0.24812 -0.2032,-0.40861c0,-0.28315 0.22965,-0.51265 0.51265,-0.51265c0.283,0 0.51265,0.22951 0.51265,0.51265zM240.55565,174.17868" fill="#000000" fill-rule="nonzero" stroke="none" stroke-width="1" stroke-linecap="butt"/><path d="M240.62451,186.48322l-0.24177,-0.43507c2.00923,1.25141 3.94088,2.44991 6.49497,2.98326c0.96693,0.20202 2.02785,0.30916 3.07724,0.30916c1.74071,0 3.39394,-0.29453 4.52771,-0.89053c1.7713,-0.93087 2.3608,-2.65296 2.13455,-4.12102c-0.22862,-1.48446 -1.29161,-2.73602 -2.49735,-4.12959c-0.12635,-0.1463 -0.16005,-0.35157 -0.0863,-0.53038c1.85273,-4.50348 3.6663,-8.9208 4.19861,-12.62168c0.52743,-3.66778 -0.20394,-6.65118 -0.96279,-9.72769c-0.06768,-0.27473 0.10019,-0.5527 0.37492,-0.62038c0.27502,-0.06783 0.5527,0.10019 0.62083,0.37521c0.75664,3.06852 1.54091,6.23089 0.98171,10.11886c-0.55418,3.85472 -2.42922,8.40327 -4.26511,12.86567l-0.0863,-0.53039c1.15535,1.33579 2.45346,2.81375 2.73528,4.64431c0.28448,1.84726 -0.46654,4.026 -2.67099,5.18475c-1.33963,0.70388 -3.17981,1.00816 -5.00475,1.00816c-1.11649,0 -2.2476,-0.11364 -3.2868,-0.33073c-2.75538,-0.57546 -4.83007,-1.87253 -6.82719,-3.1167c-0.15059,-0.09355 -0.24177,-0.25817 -0.24177,-0.43522c0,-0.28315 0.22965,-0.51265 0.51265,-0.51265c0.283,0 0.51265,0.2295 0.51265,0.51265zM240.62451,186.48322" fill="#000000" fill-rule="nonzero" stroke="none" stroke-width="1" stroke-linecap="butt"/><path d="M259.79319,164.93941l-0.18916,-0.39797c1.33845,1.08885 2.79646,2.26341 3.54867,4.36634c0.73462,2.05504 0.78383,4.96234 0.41571,6.76024c-0.38733,1.89056 -1.24919,2.61883 -2.03879,3.28118l-0.17734,-0.8824c1.89455,0.58876 4.05097,1.2356 5.1515,2.77237c1.11338,1.55451 1.09033,3.89167 0.21414,5.62336c-0.89393,1.76657 -2.67247,2.92813 -4.67298,3.21453c-0.36206,0.05187 -0.72945,0.07478 -1.09934,0.07478c-1.66047,0 -3.43709,-0.46492 -5.13007,-0.90486c-0.27428,-0.07123 -0.43847,-0.35113 -0.36738,-0.62511c0.07123,-0.27399 0.35113,-0.43847 0.62497,-0.36724c1.72594,0.44837 3.36823,0.87191 4.87249,0.87191c0.32793,0 0.6461,-0.02039 0.95407,-0.06443c1.70968,-0.24473 3.17788,-1.22939 3.90349,-2.66257c0.74304,-1.46806 0.71201,-3.38404 -0.13285,-4.56333c-0.85728,-1.19703 -2.60878,-1.76465 -4.6223,-2.39036c-0.17926,-0.05556 -0.31359,-0.20468 -0.35069,-0.38852c-0.03665,-0.18399 0.02956,-0.37329 0.17335,-0.49388c0.72324,-0.60649 1.37481,-1.14708 1.69327,-2.70114c0.33709,-1.64687 0.28448,-4.35984 -0.3767,-6.20931c-0.64433,-1.8016 -1.8777,-2.81582 -3.2302,-3.9159c-0.11955,-0.09768 -0.18916,-0.24369 -0.18916,-0.39768c0,-0.2833 0.22965,-0.51295 0.51265,-0.51295c0.2833,0 0.51265,0.22965 0.51265,0.51295zM259.79319,164.93941" fill="#000000" fill-rule="nonzero" stroke="none" stroke-width="1" stroke-linecap="butt"/><path d="M221.68578,164.96054c0,0.13404 -0.05261,0.26261 -0.14675,0.35867c-1.44219,1.47279 -2.79262,2.86119 -3.50049,4.55564c-0.70772,1.69401 -0.7822,3.7294 -0.44585,5.20086c0.32896,1.43953 1.05072,2.34484 1.84475,3.33202c0.10566,0.13138 0.13995,0.3062 0.09177,0.46773c-0.04803,0.16152 -0.17261,0.28906 -0.33295,0.34123c-1.71012,0.55536 -3.22163,1.0624 -4.20348,2.4239c-1.03269,1.432 -1.40821,3.64783 -0.36413,4.93722c1.09816,1.35619 3.89344,1.9711 5.96503,2.05918c0.17483,0.00739 0.34285,0.01094 0.50305,0.01094c1.64273,0 2.58956,-0.36768 3.59255,-0.75738c0.26364,-0.10256 0.56068,0.02823 0.66354,0.29202c0.10256,0.26394 -0.02837,0.56098 -0.29202,0.66354c-1.0358,0.40256 -2.12686,0.82713 -3.96408,0.82713c-0.17556,0 -0.35748,-0.00384 -0.54664,-0.01197c-2.06421,-0.08778 -5.30549,-0.69369 -6.71827,-2.43824c-1.46687,-1.81165 -0.82816,-4.57707 0.3294,-6.18212c1.20826,-1.67569 3.06276,-2.26179 4.7185,-2.79942l-0.24118,0.80895c-0.79314,-0.986 -1.65869,-2.05386 -2.04544,-3.74625c-0.3795,-1.66017 -0.29822,-3.91546 0.49935,-5.82449c0.79728,-1.9083 2.30169,-3.43561 3.71418,-4.87781l-0.1463,0.35866c0,-0.2833 0.2295,-0.51295 0.5128,-0.51295c0.283,0 0.51265,0.22965 0.51265,0.51295zM221.68578,164.96054" fill="#000000" fill-rule="nonzero" stroke="none" stroke-width="1" stroke-linecap="butt"/><path d="M219.201,178.13758l0.00015,0.00015l0.0065,0.00488l-0.00015,-0.00015c0.54176,0.4098 1.00935,0.75723 1.55274,0.94329c0.55329,0.18916 1.21417,0.22197 1.97243,0.25492c0.28256,0.01227 0.50201,0.25152 0.48989,0.53438c-0.01256,0.28285 -0.25197,0.50231 -0.53452,0.48989c-0.72147,-0.03133 -1.54003,-0.06295 -2.25972,-0.30916c-0.72427,-0.24783 -1.31939,-0.70225 -1.83943,-1.09565l-0.0003,-0.00015l-0.0065,-0.00502c-0.22551,-0.17054 -0.27014,-0.49211 -0.09931,-0.71792c0.17084,-0.22581 0.49241,-0.27029 0.71822,-0.09946zM219.201,178.13758" fill="#000000" fill-rule="nonzero" stroke="none" stroke-width="1" stroke-linecap="butt"/><path d="M226.19118,179.01274c1.31052,1.06388 2.50149,2.01721 3.82709,2.31617c0.34803,0.07832 0.71349,0.11291 1.09639,0.11291c1.06461,0 2.20977,-0.26423 3.42837,-0.54827c0.27576,-0.06414 0.55152,0.10729 0.61551,0.38305c0.06428,0.27561 -0.10714,0.55137 -0.3829,0.61551c-1.19126,0.27768 -2.45642,0.57502 -3.66098,0.57502c-0.44379,0 -0.88713,-0.04005 -1.3219,-0.13803c-1.60475,-0.36192 -2.98636,-1.49643 -4.24767,-2.5204c-0.2199,-0.17837 -0.25344,-0.50127 -0.07492,-0.72102c0.17852,-0.2199 0.50127,-0.25344 0.72102,-0.07492zM226.19118,179.01274" fill="#000000" fill-rule="nonzero" stroke="none" stroke-width="1" stroke-linecap="butt"/><path d="M255.11267,179.7849c0,0.13655 -0.05453,0.26734 -0.15133,0.36354l-0.00724,0.00695v0.00015c-1.06994,1.06417 -2.2646,2.26859 -3.84792,2.65784c-0.43847,0.10773 -0.89467,0.15074 -1.35737,0.15074c-1.21373,0 -2.54346,-0.29926 -3.79945,-0.57975c-0.27665,-0.06177 -0.45029,-0.33576 -0.38896,-0.61211c0.06162,-0.27635 0.33591,-0.45029 0.61211,-0.38867c1.28599,0.28714 2.49809,0.55521 3.5763,0.55521c0.40063,0 0.77216,-0.03739 1.11264,-0.12118c1.25673,-0.30886 2.25174,-1.27727 3.3697,-2.38918v0.00015l0.00709,-0.00709l-0.15088,0.36339c0,-0.28315 0.22921,-0.51265 0.51265,-0.51265c0.283,0 0.51265,0.2295 0.51265,0.51265zM255.11267,179.7849" fill="#000000" fill-rule="nonzero" stroke="none" stroke-width="1" stroke-linecap="butt"/><path d="M261.74493,178.776l-0.00606,0.00591c-0.46802,0.47113 -1.02294,1.03846 -1.65973,1.32973c-0.61137,0.2796 -1.25555,0.28965 -1.79244,0.28965c-0.04271,0 -0.08217,-0.00015 -0.12413,-0.0003h-0.00443c-0.283,-0.00059 -0.51191,-0.23069 -0.51162,-0.51383c0.00089,-0.28315 0.23083,-0.51206 0.51413,-0.51147h0.00429c0.04197,0.00015 0.08054,0.0003 0.12177,0.0003c0.54738,0 0.98171,-0.02084 1.36609,-0.19684c0.43285,-0.19788 0.8524,-0.60974 1.35855,-1.11959l0.00606,-0.00606c0.19936,-0.20083 0.52403,-0.20202 0.72487,-0.00251c0.20083,0.1995 0.20202,0.52403 0.00266,0.72501zM261.74493,178.776" fill="#000000" fill-rule="nonzero" stroke="none" stroke-width="1" stroke-linecap="butt"/><path d="M249.34552,189.77681l-0.99427,-0.17601v-0.0003l-0.00222,0.0065c0.31019,-0.88609 0.57886,-1.66741 0.58906,-2.37957c0.0102,-0.70078 -0.2301,-1.36993 -0.51531,-2.14475c-0.09798,-0.26571 0.03828,-0.56039 0.30413,-0.65822c0.26527,-0.09783 0.56039,0.03827 0.65792,0.30398c0.27354,0.74275 0.59172,1.59101 0.57842,2.5139c-0.01315,0.91151 -0.35098,1.85982 -0.64654,2.70365l-0.00222,0.00635l-0.00044,0.0003c-0.0801,0.2295 -0.32068,0.37137 -0.56748,0.32955c-0.2462,-0.04197 -0.42635,-0.25551 -0.42635,-0.50541c0,-0.28315 0.22936,-0.51265 0.51265,-0.51265c0.283,0 0.51265,0.2295 0.51265,0.51265zM249.34552,189.77681" fill="#000000" fill-rule="nonzero" stroke="none" stroke-width="1" stroke-linecap="butt"/><path d="M254.76228,189.05343l-1.01393,-0.10655c0.2199,-1.03506 0.41275,-1.9649 0.37271,-2.63671c-0.03709,-0.6192 -0.27694,-1.02885 -0.58152,-1.53426c-0.14601,-0.24266 -0.06739,-0.55758 0.17512,-0.70358c0.24251,-0.14601 0.55773,-0.06783 0.70373,0.17483c0.30413,0.50556 0.673,1.10732 0.72605,2.00199c0.05024,0.84206 -0.18473,1.92913 -0.3931,2.91069c-0.05453,0.2567 -0.29394,0.43078 -0.55507,0.40344c-0.26098,-0.02749 -0.4593,-0.24753 -0.4593,-0.50984c0,-0.28315 0.22965,-0.51265 0.51265,-0.51265c0.28344,0 0.51265,0.22951 0.51265,0.51265zM254.76228,189.05343" fill="#000000" fill-rule="nonzero" stroke="none" stroke-width="1" stroke-linecap="butt"/><path d="M260.32284,188.90225v0.00015l-0.96058,-0.24901v-0.00015l-0.00562,0.01005c0.33472,-0.63575 0.60147,-1.15698 0.66088,-1.6114c0.05556,-0.42945 -0.07271,-0.83836 -0.25315,-1.37673c-0.09,-0.26852 0.05483,-0.55906 0.32349,-0.64891c0.26822,-0.09 0.55876,0.05483 0.64876,0.3232c0.16803,0.50216 0.38866,1.13392 0.29748,1.8344c-0.08778,0.67551 -0.46314,1.37362 -0.77038,1.95721l-0.00517,0.01005l-0.00044,0.00015c-0.10404,0.19847 -0.34197,0.30531 -0.57088,0.24872c-0.22891,-0.0566 -0.3897,-0.26187 -0.3897,-0.49758v-0.00015c0,-0.283 0.22965,-0.51265 0.51265,-0.51265c0.283,0 0.51265,0.22965 0.51265,0.51265zM260.32284,188.90225" fill="#000000" fill-rule="nonzero" stroke="none" stroke-width="1" stroke-linecap="butt"/><path d="M264.35386,188.40229l-0.99737,-0.16758l0.00355,-0.0099v-0.00015c0.24812,-0.71629 0.45576,-1.33254 0.48339,-1.80751c0.02542,-0.43581 -0.10433,-0.77024 -0.28182,-1.20752c-0.10626,-0.26246 0.02039,-0.56142 0.28256,-0.66782c0.26261,-0.10626 0.56142,0.0201 0.66782,0.28256c0.17364,0.42812 0.39531,0.95939 0.35527,1.65204c-0.03754,0.64802 -0.30694,1.4153 -0.53807,2.08357l-0.0034,0.0099c-0.08202,0.2366 -0.32305,0.3795 -0.5697,0.33798c-0.24665,-0.04153 -0.42753,-0.25522 -0.42753,-0.50556c0,-0.28315 0.22921,-0.51265 0.51265,-0.51265c0.283,0 0.51265,0.2295 0.51265,0.51265zM264.35386,188.40229" fill="#000000" fill-rule="nonzero" stroke="none" stroke-width="1" stroke-linecap="butt"/><path d="M232.52242,189.73617c0,0.23734 -0.16315,0.44364 -0.39384,0.49861c-0.23083,0.05512 -0.46921,-0.05542 -0.5762,-0.26719v0.00015l-0.00384,-0.00695v-0.00015c-0.38733,-0.76536 -0.8323,-1.63446 -0.95895,-2.40233c-0.13359,-0.8125 0.08882,-1.48047 0.26512,-2.02844c0.08675,-0.26955 0.37566,-0.41763 0.64506,-0.33088c0.26941,0.08675 0.41763,0.37551 0.33103,0.64506c-0.18192,0.56511 -0.31773,1.01038 -0.22921,1.54756c0.09488,0.57782 0.44866,1.28968 0.86171,2.10603v-0.00015l0.00384,0.00709l-0.97033,0.23157c0,-0.28315 0.22965,-0.51265 0.51295,-0.51265c0.283,0 0.51265,0.2295 0.51265,0.51265zM232.52242,189.73617" fill="#000000" fill-rule="nonzero" stroke="none" stroke-width="1" stroke-linecap="butt"/><path d="M226.8998,188.9556c0,0.25182 -0.18266,0.4664 -0.43123,0.5063c-0.24857,0.03975 -0.4896,-0.10684 -0.56822,-0.3461l-0.00266,-0.00754c-0.27014,-0.82211 -0.57856,-1.74633 -0.60191,-2.54109c-0.02498,-0.83201 0.25906,-1.49259 0.49255,-2.04884c0.10965,-0.26098 0.41009,-0.38379 0.67107,-0.27413c0.26113,0.10965 0.38408,0.41024 0.27428,0.67122c-0.24059,0.57221 -0.43049,1.04023 -0.41305,1.62116c0.01818,0.61403 0.26512,1.38116 0.55122,2.2513l0.00266,0.00754l-0.99959,0.16019c0,-0.28315 0.22921,-0.51265 0.51221,-0.51265c0.28344,0 0.51265,0.22951 0.51265,0.51265zM226.8998,188.9556" fill="#000000" fill-rule="nonzero" stroke="none" stroke-width="1" stroke-linecap="butt"/><path d="M220.58999,188.71973c0,0.25995 -0.19448,0.47866 -0.45251,0.50911c-0.25803,0.03059 -0.49817,-0.13684 -0.55876,-0.3897c-0.1596,-0.66649 -0.34374,-1.42047 -0.32586,-2.11888c0.01818,-0.71186 0.24443,-1.33845 0.43625,-1.87978c0.09458,-0.26689 0.38763,-0.40655 0.65437,-0.31197c0.26689,0.09458 0.40655,0.38763 0.31197,0.65452c-0.19921,0.56231 -0.36428,1.03934 -0.37758,1.56338c-0.01389,0.53763 0.1299,1.1521 0.29807,1.85391l-1.01127,0.11941c0,-0.28315 0.2295,-0.51265 0.51265,-0.51265c0.28315,0 0.51265,0.2295 0.51265,0.51265zM220.58999,188.71973" fill="#000000" fill-rule="nonzero" stroke="none" stroke-width="1" stroke-linecap="butt"/><path d="M216.99329,188.0126c0,0.25226 -0.18354,0.46699 -0.4327,0.5063c-0.24916,0.03946 -0.48989,-0.10847 -0.56763,-0.34847c-0.21413,-0.66147 -0.47246,-1.44027 -0.46433,-2.1177c0.00857,-0.7129 0.30679,-1.27638 0.53763,-1.7252c0.12946,-0.25182 0.43846,-0.35098 0.69028,-0.22152c0.25182,0.12946 0.35098,0.43861 0.22152,0.69043c-0.24325,0.4729 -0.41896,0.83127 -0.42428,1.2687c-0.00562,0.4726 0.18251,1.07244 0.41467,1.78948l-1.00048,0.15798c0,-0.28315 0.22965,-0.51265 0.51265,-0.51265c0.28315,0 0.51265,0.2295 0.51265,0.51265zM216.99329,188.0126" fill="#000000" fill-rule="nonzero" stroke="none" stroke-width="1" stroke-linecap="butt"/><path d="M263.75609,169.19801l-0.82403,-0.40743c1.8579,-1.41899 3.61561,-2.76883 4.69042,-4.46934c1.07023,-1.69372 1.48564,-3.77684 1.80869,-5.81548c0.32837,-2.07026 0.51383,-3.82487 0.12384,-4.95111c-0.36132,-1.0423 -1.26515,-1.60298 -2.30021,-1.77086c-0.1831,-0.02956 -0.36399,-0.04581 -0.53881,-0.04581c-0.77482,0 -1.45653,0.30265 -1.80411,1.3086c-0.2165,0.6257 -0.30605,1.51402 -0.41009,2.58203c-0.11926,1.21934 -0.25433,2.63124 -0.67462,3.8797c-0.78235,2.32282 -2.5275,4.01624 -4.15767,5.61036c-0.20246,0.19788 -0.52699,0.19419 -0.72487,-0.00828c-0.19788,-0.20231 -0.19448,-0.52699 0.00798,-0.72487c1.66372,-1.62707 3.21217,-3.15439 3.9026,-5.20455c0.37655,-1.11708 0.50438,-2.40794 0.62585,-3.65182c0.09946,-1.02146 0.19669,-2.05061 0.46181,-2.81744c0.51502,-1.48978 1.64081,-1.99903 2.77311,-1.99903c0.23719,0 0.47334,0.02158 0.70299,0.05911c1.2885,0.20911 2.58499,0.94757 3.10444,2.44696c0.49063,1.41559 0.23793,3.44537 -0.07936,5.44736c-0.32246,2.03391 -0.75974,4.31136 -1.95529,6.20296c-1.19126,1.8851 -3.11242,3.34502 -4.93441,4.73638c-0.15473,0.11822 -0.36354,0.13847 -0.53837,0.05202c-0.17468,-0.08645 -0.28522,-0.26453 -0.28522,-0.45945c0,-0.28315 0.22965,-0.51265 0.51265,-0.51265c0.283,0 0.51265,0.2295 0.51265,0.51265zM263.75609,169.19801" fill="#000000" fill-rule="nonzero" stroke="none" stroke-width="1" stroke-linecap="butt"/><path d="M263.71558,159.66481v0.00044l0.00635,0.00532h-0.0003c0.81679,0.71615 1.57076,1.37289 2.38149,1.77544c0.80733,0.40063 1.69446,0.56098 2.6676,0.73285c0.27872,0.04951 0.46492,0.31551 0.41571,0.59423c-0.04921,0.27886 -0.31551,0.46507 -0.59438,0.41541c-0.94875,-0.16758 -1.98381,-0.34684 -2.94483,-0.82432c-0.9526,-0.4729 -1.8084,-1.22688 -2.60169,-1.92293l-0.00635,-0.00576c-0.21266,-0.1865 -0.23379,-0.51029 -0.04699,-0.72339c0.1865,-0.21251 0.51044,-0.23379 0.72339,-0.04729zM263.71558,159.66481" fill="#000000" fill-rule="nonzero" stroke="none" stroke-width="1" stroke-linecap="butt"/><path d="M263.19007,141.07277c-1.72062,-0.61019 -3.35226,-1.18417 -5.22982,-1.18417c-0.31788,0 -0.64359,0.017 -0.97802,0.05261c-0.76152,0.08202 -1.57416,0.26482 -2.4375,0.4596c-0.88033,0.19906 -1.81032,0.40935 -2.72538,0.50807c-0.33857,0.03635 -0.67802,0.05793 -1.01614,0.05793c-0.56644,0 -1.132,-0.06059 -1.68323,-0.21532c-1.5848,-0.44482 -2.94823,-1.64909 -4.13728,-2.68828c-0.78693,-0.68777 -1.49747,-1.30594 -2.19957,-1.70924c-0.76639,-0.43994 -1.52761,-0.62305 -2.25558,-0.62305c-0.94388,0 -1.85598,0.30827 -2.66405,0.80422c-0.63029,0.38704 -1.19318,0.88417 -1.81519,1.43569c-0.65334,0.5796 -1.36491,1.21225 -2.2309,1.74367c-0.18281,0.11202 -0.37271,0.22019 -0.57088,0.32246c-1.64273,0.84812 -3.79945,1.28584 -5.68425,1.28584c-0.42265,0 -0.83496,-0.02187 -1.22806,-0.06694c-1.18077,-0.13581 -2.15686,-0.47822 -3.0035,-0.77437c-0.71201,-0.24857 -1.30786,-0.45487 -1.90445,-0.53053c-0.18428,-0.02305 -0.37123,-0.03399 -0.56098,-0.03399c-1.16511,0 -2.38326,0.40817 -3.70428,0.85728c-0.26808,0.09118 -0.5592,-0.05261 -0.65038,-0.32039c-0.09103,-0.26822 0.05246,-0.55965 0.32054,-0.65038c1.28244,-0.43581 2.66789,-0.91211 4.03413,-0.91211c0.22921,0 0.45916,0.0136 0.68955,0.04271c0.72339,0.09162 1.42402,0.33857 2.11416,0.5796c0.85151,0.29778 1.72845,0.60236 2.78213,0.72368c0.35024,0.0402 0.72339,0.06015 1.11116,0.06015c1.75342,0 3.7427,-0.41187 5.21357,-1.17161c0.17438,-0.09 0.3427,-0.18532 0.50512,-0.28522c0.77821,-0.47748 1.42579,-1.05058 2.08711,-1.63697c0.60945,-0.54029 1.239,-1.10023 1.95899,-1.5421c0.9359,-0.57457 2.03155,-0.95599 3.20049,-0.95599c0.90767,0 1.84475,0.23039 2.76602,0.7593c0.80762,0.46388 1.5984,1.15727 2.36405,1.82657c1.23486,1.07925 2.42051,2.10263 3.7393,2.47297c0.4426,0.12414 0.9121,0.17704 1.40628,0.17704c0.29497,0 0.59733,-0.01892 0.90634,-0.05217c0.84634,-0.09118 1.71796,-0.28714 2.60937,-0.48842c0.85004,-0.19212 1.72239,-0.38925 2.55365,-0.47896c0.37152,-0.04005 0.73388,-0.05867 1.08767,-0.05867c2.07957,0 3.87053,0.63974 5.57223,1.24284c0.26704,0.09458 0.40669,0.38778 0.31211,0.65452c-0.09458,0.26675 -0.38778,0.40669 -0.65452,0.31211zM263.19007,141.07277" fill="#000000" fill-rule="nonzero" stroke="none" stroke-width="1" stroke-linecap="butt"/><path d="M299.94226,159.55114c-1.21201,0 -2.19706,-0.98355 -2.19706,-2.19594l0.00056,-65.20175c0,-9.57838 -9.20132,-17.36667 -20.51796,-17.36667l-74.45336,-0.00019c-11.31761,0 -20.51875,7.78845 -20.51875,17.36683l0.00038,65.20176c0,1.21238 -0.98374,2.19594 -2.19613,2.19594c-1.2122,0 -2.19613,-0.98355 -2.19613,-2.19594l0.00093,-65.20176c0,-11.9972 11.1729,-21.75855 24.90873,-21.75855l74.45541,-0.00019c13.73511,0 24.90841,9.76152 24.90841,21.7587l0.00112,65.20176c0,1.21238 -0.98486,2.19594 -2.19613,2.19594z" fill="#000000" fill-rule="evenodd" stroke="none" stroke-width="1" stroke-linecap="butt"/><path d="M289.7627,289.1759h20.35738v-110.68055h-20.35738zM312.31658,293.56199h-24.75005c-1.21201,0 -2.19668,-0.97777 -2.19668,-2.19575l0.00018,-115.06659c0,-1.21816 0.98356,-2.19594 2.19594,-2.19594l24.75052,-0.00019c1.21201,0 2.19482,0.97797 2.19482,2.19613v115.06659c0,1.21798 -0.98374,2.19575 -2.19482,2.19575z" fill="#000000" fill-rule="evenodd" stroke="none" stroke-width="1" stroke-linecap="butt"/><path d="M169.88044,289.1759h20.3588v-110.68055h-20.3588zM192.43416,293.56199h-24.74878c-1.21331,0 -2.19669,-0.97777 -2.19669,-2.19575l0.00037,-115.06659c0,-1.21816 0.98299,-2.19594 2.19537,-2.19594l24.74974,-0.00019c1.21201,0 2.19556,0.97797 2.19556,2.19613l0.00074,115.06659c0,1.21798 -0.98431,2.19575 -2.19632,2.19575z" fill="#000000" fill-rule="evenodd" stroke="none" stroke-width="1" stroke-linecap="butt"/><path d="M192.43416,267.33257h-24.74878c-1.21331,0 -2.19669,-0.98356 -2.19669,-2.19594c0.00037,-1.2122 0.98337,-2.19594 2.19575,-2.19594h24.74973c1.21201,0 2.19556,0.98374 2.19556,2.19594c0.00074,1.21238 -0.98355,2.19594 -2.19556,2.19594z" fill="#000000" fill-rule="evenodd" stroke="none" stroke-width="1" stroke-linecap="butt"/><path d="M312.31658,267.33257h-24.75005c-1.21201,0 -2.19668,-0.98356 -2.19668,-2.19594c0.00018,-1.2122 0.98374,-2.19594 2.19612,-2.19594h24.75052c1.21201,0 2.19482,0.98374 2.19482,2.19594c0,1.21238 -0.98375,2.19594 -2.19482,2.19594z" fill="#000000" fill-rule="evenodd" stroke="none" stroke-width="1" stroke-linecap="butt"/><path d="M287.56637,192.22615h-95.13253c-1.21723,0 -2.19613,-0.98355 -2.19613,-2.19575c0.00112,-1.21257 0.97778,-2.19594 2.19613,-2.19594l95.13253,-0.00018c1.21835,0 2.1952,0.98356 2.1952,2.19613c0.00093,1.2122 -0.97778,2.19575 -2.1952,2.19575zM287.56637,210.22204h-95.13253c-1.21723,0 -2.19613,-0.98355 -2.19613,-2.19574c0.00112,-1.21238 0.97778,-2.19594 2.19613,-2.19594h95.13253c1.21835,0 2.1952,0.98355 2.1952,2.19594c0.00093,1.2122 -0.97778,2.19574 -2.1952,2.19574z" fill="#000000" fill-rule="evenodd" stroke="none" stroke-width="1" stroke-linecap="butt"/><path d="M189.1635,178.49551c-1.21201,0 -2.19072,-0.98355 -2.19072,-2.19575l0.00075,-9.83593c0,-3.81412 -3.10584,-6.91343 -6.91417,-6.91343c-3.81393,0 -6.9138,3.09931 -6.9138,6.91343l0.00038,9.83593c0,1.2122 -0.98393,2.19575 -2.19613,2.19575c-1.2122,0 -2.19594,-0.98355 -2.19594,-2.19575l0.00075,-9.83593c0,-6.23291 5.07164,-11.30512 11.30474,-11.30512c6.23368,0 11.29951,5.07219 11.29951,11.30512l0.00093,9.83593c0,1.2122 -0.97871,2.19575 -2.19632,2.19575z" fill="#000000" fill-rule="evenodd" stroke="none" stroke-width="1" stroke-linecap="butt"/><path d="M309.05129,178.49551c-1.21201,0 -2.19669,-0.98355 -2.19669,-2.19575l0.00038,-9.83593c0,-3.81412 -3.09987,-6.91343 -6.9138,-6.91343c-3.80779,0 -6.91379,3.09931 -6.91379,6.91343v9.83593c0,1.2122 -0.97796,2.19575 -2.19594,2.19575c-1.21107,0 -2.19016,-0.98355 -2.19016,-2.19575l0.00131,-9.83593c0,-6.23291 5.06511,-11.30512 11.29859,-11.30512c6.23311,0 11.30531,5.07219 11.30531,11.30512v9.83593c0,1.2122 -0.98374,2.19575 -2.1952,2.19575z" fill="#000000" fill-rule="evenodd" stroke="none" stroke-width="1" stroke-linecap="butt"/><path d="M211.61426,258.33091h-19.1801c-1.21723,0 -2.19613,-0.97778 -2.19613,-2.19594c0.00112,-1.2122 0.97778,-2.19574 2.19613,-2.19574h19.1801c1.21201,0 2.19537,0.98355 2.19537,2.19574c0.00093,1.21816 -0.98393,2.19594 -2.19537,2.19594zM258.63097,258.33091h-37.26141c-1.21201,0 -2.19632,-0.97778 -2.19632,-2.19594c0,-1.2122 0.98374,-2.19574 2.19575,-2.19574h37.26189c1.21201,0 2.19556,0.98355 2.19556,2.19574c0.00093,1.21816 -0.98356,2.19594 -2.19556,2.19594zM287.56669,258.33091h-19.18027c-1.21201,0 -2.19575,-0.97778 -2.19575,-2.19594c0.00074,-1.2122 0.98337,-2.19574 2.19575,-2.19574h19.18027c1.21835,0 2.1952,0.98355 2.1952,2.19574c0.00093,1.21816 -0.97777,2.19594 -2.1952,2.19594zM211.61426,276.3268h-19.1801c-1.21723,0 -2.19613,-0.98337 -2.19613,-2.19594c0.00112,-1.2122 0.97778,-2.19575 2.19613,-2.19575h19.1801c1.21201,0 2.19537,0.98356 2.19537,2.19575c0.00093,1.21256 -0.98393,2.19594 -2.19537,2.19594zM258.63097,276.3268h-37.26141c-1.21201,0 -2.19632,-0.98337 -2.19632,-2.19594c0,-1.2122 0.98374,-2.19575 2.19575,-2.19575h37.26189c1.21201,0 2.19556,0.98356 2.19556,2.19575c0.00093,1.21256 -0.98356,2.19594 -2.19556,2.19594zM287.56669,276.3268h-19.18027c-1.21201,0 -2.19575,-0.98337 -2.19575,-2.19594c0.00074,-1.2122 0.98337,-2.19575 2.19575,-2.19575h19.18027c1.21835,0 2.1952,0.98356 2.1952,2.19575c0.00093,1.21256 -0.97777,2.19594 -2.1952,2.19594z" fill="#000000" fill-rule="evenodd" stroke="none" stroke-width="1" stroke-linecap="butt"/><path d="M216.49199,254.96931c-1.67022,0 -3.03124,1.3612 -3.03124,3.03086v14.27331c0,1.66985 1.36101,3.02508 3.03067,3.02508c1.67059,0 3.02509,-1.35523 3.02509,-3.02508l0.00037,-14.27331c0,-1.66965 -1.35561,-3.03086 -3.02545,-3.03086zM216.49199,279.6903c-4.09405,0 -7.42293,-3.32813 -7.42293,-7.41677l0.00019,-14.27331c0,-4.08845 3.32775,-7.42255 7.42217,-7.42255c4.08957,0 7.41677,3.3341 7.41677,7.42255v14.27331c0,4.08864 -3.32794,7.41677 -7.4162,7.41677z" fill="#000000" fill-rule="evenodd" stroke="none" stroke-width="1" stroke-linecap="butt"/><path d="M263.50933,254.96931c-1.67003,0 -3.03086,1.3612 -3.03086,3.03086l0.00093,14.27331c0,1.66985 1.35989,3.02508 3.02955,3.02508c1.6704,0 3.03087,-1.35523 3.03087,-3.02508l0.00093,-14.27331c0,-1.66965 -1.36157,-3.03086 -3.03179,-3.03086zM263.50933,279.6903c-4.08902,0 -7.41696,-3.32813 -7.41696,-7.41677l0.00075,-14.27331c0,-4.08845 3.3272,-7.42255 7.41584,-7.42255c4.09461,0 7.42274,3.3341 7.42274,7.42255l0.00038,14.27331c0,4.08864 -3.3285,7.41677 -7.42274,7.41677z" fill="#000000" fill-rule="evenodd" stroke="none" stroke-width="1" stroke-linecap="butt"/><path d="M216.68636,122.6401h46.62829c-1.29183,-9.93869 -11.25439,-17.69841 -23.31462,-17.69841c-12.05947,0 -22.0216,7.75991 -23.31367,17.69841zM265.65356,127.03179h-51.30643c-1.21201,0 -2.19594,-0.98337 -2.19594,-2.19575c0.00093,-13.39271 12.49474,-24.2863 27.84876,-24.2863c15.35515,0 27.84923,10.89372 27.84923,24.28631c0.00093,1.21238 -0.98393,2.19594 -2.19556,2.19575z" fill="#000000" fill-rule="evenodd" stroke="none" stroke-width="1" stroke-linecap="butt"/><path d="M240.00003,104.89169c12.06023,0 22.06954,7.82746 23.36137,17.76615h-46.72178c1.29207,-9.9385 11.30094,-17.76615 23.36041,-17.76615z" data-paper-data="{&quot;noHover&quot;:false,&quot;origItem&quot;:[&quot;Path&quot;,{&quot;applyMatrix&quot;:true,&quot;segments&quot;:[[[433.37273,303.63199],[2.58414,-19.877],[0,0]],[[526.62931,303.63199],[0,0],[-2.58366,-19.87738]],[[480.00007,268.23517],[24.12046,0],[-24.11894,0]]],&quot;closed&quot;:true,&quot;fillColor&quot;:[0,0,0,1]}]}" fill="#c1c1c1" fill-rule="nonzero" stroke="none" stroke-width="0.5" stroke-linecap="butt"/><path d="M240,45.97415v54.08235" fill="none" fill-rule="nonzero" stroke="#000000" stroke-width="4" stroke-linecap="round"/><path d="M226.95229,130.58687l6.04009,6.04009" fill="none" fill-rule="nonzero" stroke="#ff0000" stroke-width="2" stroke-linecap="round"/><path d="M233.01428,130.60877l-6.04009,6.04009" fill="none" fill-rule="nonzero" stroke="#ff0000" stroke-width="2" stroke-linecap="round"/><path d="M253.05942,136.71524l-6.04009,-6.04009" fill="none" fill-rule="nonzero" stroke="#ff0000" stroke-width="2" stroke-linecap="round"/><path d="M253.08132,130.69705l-6.04009,6.04009" fill="none" fill-rule="nonzero" stroke="#ff0000" stroke-width="2" stroke-linecap="round"/><path d="M297.32149,70.72894l-10.72512,18.24236l5.36858,-2.21616l-16.43219,28.39433l6.88555,-21.19095l-4.07797,2.65611l6.61229,-18.42475l-6.01511,2.6255l6.7011,-14.74748l-5.13192,1.8217l4.7695,-23.36366l11.37662,2.61286l-5.75277,13.61062l7.26703,-1.75968l-7.97685,13.40853l7.13128,-1.66933" fill="#faec00" fill-rule="nonzero" stroke="none" stroke-width="0.66342" stroke-linecap="butt"/><path d="M298.40094,69.91842l-8.94846,16.73735l5.61333,-2.21774l-20.98619,34.20577l5.79759,-21.62994l-3.1695,1.71211l6.74975,-18.33129l-5.8928,1.83725l6.02002,-14.44597l-4.39618,1.90714l5.57925,-26.56761l13.46461,3.82587l-5.12339,12.27646l6.61535,-1.22403l-7.31293,12.92057l5.98955,-1.00592zM291.24862,87.38242l-5.37818,2.21959l10.825,-18.41192l-7.13652,1.67031l7.97309,-13.40182l-7.15056,1.73142l5.84745,-13.83444l-10.71572,-2.4611l-4.59835,22.52541l5.30053,-1.88154l-6.66923,14.67716l5.93449,-2.59028l-6.54449,18.23617l4.04203,-2.63236l-6.25862,19.25884z" fill="#231f20" fill-rule="nonzero" stroke="none" stroke-width="0.66342" stroke-linecap="butt"/><text transform="translate(13.69005,327.7101) scale(0.5,0.5)" font-size="40" xml:space="preserve" fill="#000000" fill-rule="nonzero" stroke="none" stroke-width="1" stroke-linecap="butt" stroke-linejoin="miter" stroke-miterlimit="10" stroke-dasharray="" stroke-dashoffset="0" font-family="Sans Serif" font-weight="normal" text-anchor="start" style="mix-blend-mode: normal"><tspan x="0" dy="0">Bravo ! Vous venez d'lectrocuter un petit chien</tspan><tspan x="0" dy="46.150000000000006px"> pour prouver que le DC est meilleur que l'AC !</tspan></text><text transform="translate(-0.37929,16.24668) scale(0.5,0.5)" font-size="40" xml:space="preserve" fill="#585e00" fill-rule="nonzero" stroke="none" stroke-width="1" stroke-linecap="butt" stroke-linejoin="miter" stroke-miterlimit="10" stroke-dasharray="" stroke-dashoffset="0" font-family="Sans Serif" font-weight="normal" text-anchor="start" style="mix-blend-mode: normal"><tspan x="0" dy="0">Guerre des courants</tspan></text></g></g></svg>