<svg version="1.1" xmlns="http://www.w3.org/2000/svg" xmlns:xlink="http://www.w3.org/1999/xlink" width="187.68769" height="84.60596" viewBox="0,0,187.68769,84.60596"><g transform="translate(-146.15616,-137.69702)"><g data-paper-data="{&quot;isPaintingLayer&quot;:true}" fill-rule="nonzero" stroke="none" stroke-linecap="butt" stroke-linejoin="miter" stroke-miterlimit="10" stroke-dasharray="" stroke-dashoffset="0" style="mix-blend-mode: normal"><path d="M188.38922,137.69702l103.2283,0.07325c23.33688,0.04553 42.22633,18.97188 42.22633,42.30298c0,23.32284 -18.90689,42.22973 -42.22973,42.22973h-103.22823c-23.32283,0 -42.22973,-18.9069 -42.22973,-42.37615c0,-22.9864 18.3972,-41.6759 41.34976,-42.14742c0.28609,-0.05428 0.58138,-0.08259 0.8833,-0.08238zM214.81632,147.10016c9.63509,7.75458 15.7993,19.64516 15.7993,32.97315c0,13.26603 -6.11705,25.10338 -15.68442,32.84528h76.68292c18.13999,0 32.84534,-14.70536 32.84534,-32.84535c0,-18.15539 -14.69907,-32.88318 -32.85443,-32.9186zM221.23123,180.07331c0,-18.15544 -14.6991,-32.88325 -32.91845,-32.91873c-18.09961,0 -32.77224,14.67264 -32.77224,32.91867c0,18.13998 14.70536,32.84535 32.84535,32.84535c18.13997,0 32.84535,-14.70536 32.84535,-32.84528z" fill="#000000" stroke-width="1"/><path d="M291.63282,147.11308c18.15536,0.03542 32.87664,14.80483 32.87664,32.96022c0,18.13999 -14.72758,32.88687 -32.86757,32.88687l-76.75353,-0.01581c9.56737,-7.7419 15.67727,-19.60494 15.67727,-32.87097c0,-13.32799 -6.15708,-25.24439 -15.79217,-32.99897z" data-paper-data="{&quot;noHover&quot;:false,&quot;origItem&quot;:[&quot;Path&quot;,{&quot;applyMatrix&quot;:true,&quot;segments&quot;:[[[214.81632,198.71428],[0,0],[9.63509,7.75458]],[[230.61562,231.68743],[0,-13.32799],[0,13.26603]],[[214.9312,264.53271],[9.56737,-7.7419],[0,0]],[[291.61411,264.53271],[0,0],[18.13999,0]],[[324.45946,231.68736],[0,18.13999],[0,-18.15539]],[[291.60503,198.76876],[18.15536,0.03542],[0,0]]],&quot;closed&quot;:true,&quot;fillColor&quot;:[0,0,0]}]}" fill="#ea0000" stroke-width="0.5"/><path d="M221.28123,180.07338c0,18.13992 -14.75538,32.89522 -32.89535,32.89522c-18.13999,0 -32.89535,-14.75531 -32.89535,-32.89529c0,-18.24603 14.72252,-32.96873 32.82213,-32.96873c18.21935,0.03548 32.96856,14.81335 32.96856,32.96879z" data-paper-data="{&quot;noHover&quot;:false,&quot;origItem&quot;:[&quot;Path&quot;,{&quot;applyMatrix&quot;:true,&quot;segments&quot;:[[[221.23123,231.68743],[0,0],[0,-18.15544]],[[188.31278,198.7687],[18.21935,0.03548],[-18.09961,0]],[[155.54054,231.68737],[0,-18.24603],[0,18.13998]],[[188.38589,264.53272],[-18.13999,0],[18.13997,0]],[[221.23124,231.68744],[0,18.13992],[0,0]]],&quot;closed&quot;:true,&quot;fillColor&quot;:[0,0,0]}]}" fill="#c0c0c0" stroke-width="0.5"/><text transform="translate(236.28218,194.02083) scale(1.02018,1.02018)" font-size="40" xml:space="preserve" fill="#000000" fill-rule="nonzero" stroke="none" stroke-width="1" stroke-linecap="butt" stroke-linejoin="miter" stroke-miterlimit="10" stroke-dasharray="" stroke-dashoffset="0" font-family="Sans Serif" font-weight="normal" text-anchor="start" style="mix-blend-mode: normal"><tspan x="0" dy="0">OFF</tspan></text></g></g></svg>