<svg version="1.1" xmlns="http://www.w3.org/2000/svg" xmlns:xlink="http://www.w3.org/1999/xlink" width="71.81366" height="82.57057" viewBox="0,0,71.81366,82.57057"><g transform="translate(-318.76327,-99.67568)"><g data-paper-data="{&quot;isPaintingLayer&quot;:true}" fill-rule="nonzero" stroke="none" stroke-width="1" stroke-linecap="butt" stroke-linejoin="miter" stroke-miterlimit="10" stroke-dasharray="" stroke-dashoffset="0" style="mix-blend-mode: normal"><path d="M354.67018,110.86544c1.90348,0 3.46087,1.55739 3.46087,3.46087c0,1.90348 -1.55739,3.46087 -3.46087,3.46087c-1.90348,0 -3.46087,-1.55739 -3.46087,-3.46087c0,-1.90348 1.55739,-3.46087 3.46087,-3.46087z" fill="#e7eced"/><path d="M348.61334,158.45189v-6.05652h12.11304v6.05652z" fill="#afb6bb"/><path d="M348.61334,169.69971v-11.24782h12.11304v11.24782z" fill="#7c8287"/><path d="M343.42236,135.09168v-5.1913h22.49564v5.1913h2.59581v6.92174h-27.68711v-6.92174z" fill="#e7eced"/><path d="M365.918,164.50922v5.1913h-5.1913v-11.24782v-6.05668h-12.11304v6.05668v11.24782h-5.1913v-5.1913h-2.59565v-22.4958h27.68711v22.4958z" fill="#c7cac7"/><path d="M384.95294,169.70052v5.1913h-60.56551v-5.1913h1.73043h17.3045h5.1913h12.11304h5.1913h17.3045z" fill="#8a9095"/><path d="M389.27902,176.62226v4.32609h-69.21768v-4.32609c0,-0.95182 0.77878,-1.73043 1.73043,-1.73043h2.59565h60.56551h2.59565c0.95182,0 1.73043,0.77878 1.73043,1.73043z" fill="#afb6bb"/><g fill="#e7eced"><path d="M365.91768,169.69987v-5.1913h17.3045v5.1913z"/><path d="M343.42236,164.50922v5.1913h-17.3045v-5.1913h2.59565h12.1132z"/><path d="M368.51381,135.09168h-2.59581v-5.1913h17.3045v5.1913h-2.59565z"/><path d="M326.11786,129.90038h17.3045v5.1913h-2.59565h-12.1132h-2.59565z"/></g><g fill="#a4a9ab"><path d="M380.62685,135.09168v29.41754h-12.11304v-22.4958v-6.92174z"/><path d="M340.82671,135.09168v6.92174v22.4958h-12.1132v-29.41754z"/><path d="M389.27902,125.57413v4.32609h-6.05652h-17.3045h-22.49564h-17.3045h-6.05652v-4.32609c0,-0.95182 0.77878,-1.73043 1.73043,-1.73043h5.1913h55.37421h5.1913c0.95182,0 1.73043,0.77878 1.73043,1.73043z"/></g><path d="M382.35729,123.84369h-55.37421l27.68711,-22.49564zM358.13105,114.32631c0,-1.90348 -1.55739,-3.46087 -3.46087,-3.46087c-1.90348,0 -3.46087,1.55739 -3.46087,3.46087c0,1.90348 1.55739,3.46087 3.46087,3.46087c1.90348,0 3.46087,-1.55739 3.46087,-3.46087z" fill="#e7eced"/><path d="M359.42895,114.32631c0,2.62403 -2.13474,4.75877 -4.75877,4.75877c-2.62403,0 -4.75877,-2.13474 -4.75877,-4.75877c0,-2.62403 2.13474,-4.75877 4.75877,-4.75877c2.62387,0 4.75877,2.13474 4.75877,4.75877zM356.8333,114.32631c0,-1.19292 -0.97037,-2.16312 -2.16312,-2.16312c-1.19276,0 -2.16312,0.9702 -2.16312,2.16312c0,1.19292 0.97037,2.16312 2.16312,2.16312c1.1926,0 2.16312,-0.9702 2.16312,-2.16312z" fill="#000000"/><path d="M381.92444,136.38942v26.82189h2.59565v5.1913h1.73043v5.1913h1.29791c1.6698,0 3.02834,1.35871 3.02834,3.02834v5.62399h-71.8135v-5.62383c0,-1.6698 1.35871,-3.02834 3.02834,-3.02834h1.29791v-5.1913h1.73043v-5.1913h2.59565v-26.82189h-2.59565v-5.1913h-6.05652v-5.62399c0,-1.6698 1.35871,-3.02834 3.02834,-3.02834h4.73055l28.14786,-22.87027l28.14786,22.87011h4.73055c1.6698,0 3.02834,1.35871 3.02834,3.02834v5.62399h-6.05652v5.1913zM381.92476,131.19812h-14.70885v2.59565h14.70885zM375.86808,159.31775h-2.59565v-22.92833h-3.46087v26.82189h9.51739v-26.82189h-3.46087v22.92849zM367.21591,143.31132h-25.09145v19.90015h2.59565v5.1913h2.59565v-17.3045h14.70885v17.30434h2.59565v-5.1913h2.59565zM359.42895,153.69392h-9.51739v3.46087h9.51739zM349.91141,168.40261h9.51739v-8.65217h-9.51739zM367.21591,136.38942h-2.59565v-5.1913h-19.90015v5.1913h-2.59565v4.32609h25.09145zM330.63843,122.54579h48.06349l-24.03175,-19.52568zM387.98128,128.60247v-3.02834c0,-0.23449 -0.1982,-0.43269 -0.43269,-0.43269h-65.75682c-0.23449,0 -0.43269,0.1982 -0.43269,0.43269v3.02834zM327.41576,133.79377h14.70885v-2.59565h-14.70885zM336.06793,159.31775h-2.59565v-22.92833h-3.46087v26.82189h9.51739v-26.82189h-3.46087v22.92849zM327.41576,168.40261h14.70885v-2.59565h-14.70885zM321.79177,176.18973c-0.23449,0 -0.43269,0.1982 -0.43269,0.43269v3.02834h66.62219v-3.02834c0,-0.23449 -0.1982,-0.43269 -0.43269,-0.43269zM325.68517,170.99843v2.59565h57.97002v-2.59565zM381.92476,165.80712h-14.70885v2.59565h14.70885z" fill="#000000"/><path d="M352.07421,137.25399v-2.59565h5.1913v2.59565z" fill="#000000"/></g></g></svg>